<svg version="1.1" id="Layer_1" xmlns="http://www.w3.org/2000/svg" xmlns:xlink="http://www.w3.org/1999/xlink" x="0px" y="0px"
	 width="100%" viewBox="0 0 400 400" enable-background="new 0 0 400 400" xml:space="preserve">
<path fill="#FEFEFE" opacity="1.000000" stroke="none" 
	d="
M1.000000,146.000000 
	C1.000000,97.348381 1.000000,49.196766 1.000000,1.022574 
	C134.276611,1.022574 267.553253,1.022574 400.914917,1.022574 
	C400.914917,134.234924 400.914917,267.469910 400.914917,400.852448 
	C267.666779,400.852448 134.333420,400.852448 1.000000,400.852448 
	C1.000000,316.113495 1.000000,231.306747 1.000000,146.000000 
M327.855621,112.709358 
	C329.281372,110.192490 330.707123,107.675613 332.691925,104.762276 
	C334.493927,101.547043 336.295929,98.331818 338.624969,94.685120 
	C341.095459,90.137901 343.565918,85.590675 346.581329,80.641518 
	C349.063904,76.099167 351.546478,71.556816 354.579315,66.619026 
	C356.719147,62.745571 358.858978,58.872116 361.549652,54.598755 
	C363.702942,50.662418 365.856262,46.726078 368.387299,42.099209 
	C361.473938,42.099209 355.705811,42.099209 349.165894,42.050663 
	C348.391449,42.074791 347.616974,42.098919 345.926392,42.072613 
	C336.317993,42.266899 326.709595,42.461182 316.322601,42.422138 
	C314.506470,42.623356 312.674713,42.733219 310.876740,43.040585 
	C299.050110,45.062321 288.568207,49.447323 281.075653,60.273975 
	C279.992859,62.165173 278.910065,64.056374 277.290985,66.377899 
	C276.411011,68.549973 275.531036,70.722038 274.203186,73.425156 
	C273.195984,76.604774 272.188782,79.784393 270.820343,83.627815 
	C269.910797,86.749298 269.001221,89.870789 267.738556,93.632965 
	C266.892334,96.414963 266.046112,99.196953 264.939606,102.692635 
	C264.263123,105.124748 263.586639,107.556862 262.396088,110.487335 
	C261.860443,112.649742 261.324768,114.812149 260.314819,117.471207 
	C259.821991,119.297150 259.329163,121.123085 258.344666,123.455521 
	C255.903122,130.979080 253.461563,138.502640 250.779877,146.523102 
	C250.492020,146.985001 250.204178,147.446884 249.287064,147.626343 
	C248.462280,145.419739 247.637512,143.213150 246.820755,140.283539 
	C246.042465,137.799164 245.264191,135.314804 244.374924,132.046356 
	C243.653000,129.360336 242.931061,126.674301 242.198502,123.175453 
	C241.427704,120.122749 240.656906,117.070045 239.932785,113.223251 
	C238.270935,107.150711 236.609085,101.078171 235.001221,94.266220 
	C234.320679,92.179031 233.640137,90.091835 232.985779,87.258301 
	C232.274673,85.178116 231.563568,83.097931 230.841675,80.294724 
	C229.593903,77.462540 228.346130,74.630356 227.025238,71.092918 
	C225.412964,68.238350 223.800705,65.383781 222.151962,61.853363 
	C220.116623,59.229321 218.081284,56.605282 215.750137,53.370918 
	C208.934830,46.047962 200.321274,44.255451 189.970779,45.188869 
	C188.317368,45.191326 186.663940,45.193783 184.192795,45.023888 
	C182.797180,45.051437 181.401566,45.078987 179.084473,44.915707 
	C166.312851,44.946663 153.540924,44.938881 140.769928,45.044769 
	C138.506592,45.063530 136.247208,45.555649 133.181595,45.726803 
	C130.472687,45.582024 127.763786,45.437244 124.226791,45.072464 
	C112.188652,45.942429 103.237015,52.598194 94.502487,60.851822 
	C91.144020,64.515419 87.785561,68.179024 83.837997,72.075699 
	C81.162666,75.633766 78.487335,79.191833 75.249878,83.140694 
	C72.755661,87.069588 70.261436,90.998489 67.226700,95.317154 
	C63.778980,101.827225 60.331253,108.337288 56.364464,115.308853 
	C54.277435,119.870270 52.190407,124.431686 49.734268,129.611740 
	C48.109722,134.016647 46.485176,138.421539 44.344383,143.312943 
	C41.305988,152.483459 38.206264,161.634430 35.274410,170.838882 
	C34.583134,173.009140 34.540573,175.303833 38.900360,175.224075 
	C42.174171,175.115234 45.447983,175.006393 49.638321,175.247864 
	C55.426914,175.116486 61.215511,174.985107 67.789795,174.919235 
	C68.567612,174.796326 69.345428,174.673416 70.911278,174.754883 
	C90.484917,172.961502 104.052826,162.391830 110.531059,144.479355 
	C111.827759,140.369522 113.124458,136.259689 114.829735,131.581619 
	C116.070213,127.412277 117.310684,123.242943 118.899223,118.446632 
	C120.129280,114.340691 121.359344,110.234756 122.928329,105.530495 
	C124.329002,101.700981 125.729675,97.871475 127.568222,93.982994 
	C127.568222,93.982994 127.986641,93.841080 128.645950,93.744759 
	C131.158005,90.680992 133.670044,87.617226 136.725540,84.124794 
	C138.565598,81.996330 140.405655,79.867874 142.826569,77.334480 
	C145.222656,74.866402 147.618744,72.398323 150.390884,70.572311 
	C151.551407,74.052208 152.711929,77.532104 153.887619,81.819962 
	C154.814346,85.254730 155.741074,88.689491 156.726044,92.948654 
	C157.960632,98.008812 159.195221,103.068962 160.610199,108.924622 
	C161.299759,111.649574 161.989319,114.374527 162.780777,117.882629 
	C163.574722,120.589615 164.368652,123.296593 165.166855,126.729668 
	C165.980270,129.171158 166.793671,131.612640 167.761002,134.815247 
	C169.133316,138.219055 170.505646,141.622849 171.965424,145.756989 
	C174.296478,149.870529 176.627533,153.984070 179.149811,158.746201 
	C186.328506,169.439331 196.469650,173.312378 209.912750,171.891449 
	C220.289383,171.869766 230.666000,171.848083 241.933899,171.961227 
	C244.937134,171.915222 247.940369,171.869217 251.881927,171.937180 
	C254.713242,171.958923 257.566620,171.759644 260.372162,172.039566 
	C274.798981,173.478989 286.100677,167.727509 295.931305,156.827255 
	C298.091309,154.247574 300.251282,151.667892 302.952789,148.735703 
	C305.344391,145.551727 307.736023,142.367767 310.724060,138.841690 
	C314.584503,132.924957 318.444946,127.008240 322.836517,120.724838 
	C324.334778,118.187088 325.833038,115.649338 327.855621,112.709358 
M228.611343,265.991516 
	C239.117889,282.362610 249.619843,298.736664 260.133087,315.103455 
	C264.589081,322.040466 264.814728,322.119232 273.373779,320.367615 
	C273.373779,298.452057 273.373779,276.531769 273.373779,254.392792 
	C270.852264,254.392792 268.604431,254.392792 265.851715,254.392792 
	C265.851715,272.859558 265.851715,291.157532 265.851715,310.501709 
	C254.872177,293.305023 244.218552,277.265228 234.319580,260.772491 
	C230.737198,254.803848 226.711639,252.751572 220.123779,254.691727 
	C220.123779,276.683350 220.123779,298.729950 220.123779,320.818176 
	C222.674271,320.818176 224.945465,320.818176 227.310089,320.818176 
	C227.310089,302.347443 227.310089,284.072662 227.817062,266.047211 
	C227.894119,265.875397 227.971191,265.703583 228.611343,265.991516 
M259.500000,210.902084 
	C299.330017,210.902084 339.160004,210.902100 378.990021,210.901993 
	C380.156586,210.901993 381.440887,211.207794 382.458344,210.817917 
	C383.592041,210.383484 384.483093,209.315750 385.479767,208.523666 
	C385.196472,208.117477 384.913208,207.711273 384.629944,207.305084 
	C259.540375,207.305084 134.450790,207.305084 9.206878,207.305084 
	C8.185863,212.392303 11.956891,210.846664 14.020473,210.848267 
	C95.513611,210.911545 177.006805,210.902084 259.500000,210.902084 
M71.693390,307.769165 
	C72.545952,310.107758 73.377449,312.454315 74.254982,314.783508 
	C76.972061,321.995361 77.013832,322.011230 85.068489,320.330963 
	C76.915810,299.099823 68.719650,277.920624 60.694805,256.676727 
	C59.509983,253.540192 57.236492,254.381943 55.052238,254.141769 
	C52.518257,253.863144 51.209000,254.773697 50.292747,257.255066 
	C45.926033,269.080811 41.360474,280.833160 36.854652,292.607422 
	C33.279644,301.949371 29.688686,311.285156 26.012003,320.865509 
	C29.270794,320.865509 31.911690,320.865509 34.659466,320.865509 
	C36.437340,315.949982 38.432640,311.202850 39.836105,306.286774 
	C40.797443,302.919342 42.480392,301.976410 45.859695,302.134338 
	C52.172535,302.429382 58.526554,302.504089 64.829254,302.115692 
	C68.813225,301.870209 70.645386,303.424042 71.693390,307.769165 
M145.770020,286.499390 
	C145.770020,297.922180 145.770020,309.344971 145.770020,320.857666 
	C148.534302,320.857666 150.827087,320.857666 153.693115,320.857666 
	C153.693115,312.511383 153.693115,304.314697 153.693115,296.289551 
	C159.222580,295.861542 164.232468,295.852631 169.101395,295.019623 
	C179.903442,293.171539 186.867172,284.269135 186.459427,273.431641 
	C186.048965,262.523224 180.018692,255.819687 168.406738,254.705917 
	C161.050110,254.000305 153.570755,254.574112 145.770050,254.574112 
	C145.770050,264.917023 145.770050,275.208191 145.770020,286.499390 
M295.694855,254.174927 
	C294.249420,254.253815 292.803955,254.332687 291.340271,254.412567 
	C291.340271,276.767517 291.340271,298.796600 291.340271,320.827881 
	C303.089264,320.827881 314.520966,320.827881 326.165405,320.827881 
	C326.165405,318.550537 326.165405,316.457916 326.165405,313.922180 
	C317.084351,313.922180 308.186066,313.922180 299.247681,313.922180 
	C299.247681,305.912842 299.247681,298.349091 299.247681,290.391174 
	C307.290924,290.391174 315.041321,290.391174 322.686584,290.391174 
	C322.686584,287.917908 322.686584,285.850525 322.686584,283.342468 
	C314.652039,283.342468 306.928162,283.342468 299.162170,283.342468 
	C299.162170,275.778046 299.162170,268.665741 299.162170,261.219849 
	C307.812500,261.219849 316.255341,261.219849 324.751007,261.219849 
	C324.751007,258.780884 324.751007,256.685028 324.751007,254.174911 
	C315.234131,254.174911 305.946991,254.174911 295.694855,254.174927 
M109.467812,322.058289 
	C113.380501,321.392181 117.462357,321.222931 121.171814,319.959961 
	C129.736481,317.043701 133.912918,309.325500 131.964569,300.571838 
	C130.640091,294.621124 126.348686,290.873535 121.378052,287.934998 
	C116.094948,284.811707 110.568024,282.098328 105.311058,278.934326 
	C101.617668,276.711395 99.651146,273.241577 100.460754,268.813019 
	C101.318420,264.121582 104.722580,261.980194 109.079880,260.930145 
	C116.200943,259.214081 122.857025,260.846191 129.876923,264.110809 
	C128.778671,260.469452 132.226288,255.973557 126.782486,254.513443 
	C118.735641,252.355179 110.616211,252.262817 102.831505,255.673721 
	C89.743629,261.408203 88.094177,276.544128 99.725510,284.794800 
	C103.495895,287.469269 107.801468,289.380920 111.809059,291.732147 
	C114.806938,293.490967 118.038445,295.034607 120.606926,297.306152 
	C126.909943,302.880432 124.919327,311.961273 116.805557,313.980682 
	C112.910027,314.950226 108.527412,314.925873 104.536385,314.285645 
	C100.297089,313.605560 96.260338,311.662933 92.130478,310.270081 
	C91.689590,319.439789 91.681450,319.483856 100.622787,321.135712 
	C103.227715,321.616943 105.893593,321.768280 109.467812,322.058289 
M362.335297,261.284393 
	C367.760803,261.284393 373.186340,261.284393 378.479858,261.284393 
	C378.479858,258.591064 378.479858,256.528564 378.479858,254.425735 
	C363.039734,254.425735 347.964203,254.425735 332.625305,254.425735 
	C332.625305,256.737549 332.625305,258.803375 332.625305,261.503601 
	C339.057709,261.503601 345.271088,261.503601 351.870972,261.503601 
	C351.870972,281.687256 351.870972,301.240936 351.870972,320.789185 
	C354.564514,320.789185 356.836914,320.789185 359.453705,320.789185 
	C359.453705,318.926361 359.453735,317.282928 359.453735,315.639526 
	C359.453796,299.160889 359.401978,282.681854 359.534424,266.204285 
	C359.547577,264.566437 360.683929,262.937561 362.335297,261.284393 
M195.879074,318.043335 
	C197.014481,321.504547 199.574463,323.045959 202.684250,321.372681 
	C204.275497,320.516510 206.039017,317.461090 205.615051,316.020538 
	C205.092087,314.243591 202.494141,312.157074 200.577164,311.915436 
	C197.287613,311.500732 195.668274,313.985382 195.879074,318.043335 
z"/>
<path fill="#080808" opacity="1.000000" stroke="none" 
	d="
M227.310089,265.797882 
	C227.310089,284.072662 227.310089,302.347443 227.310089,320.818176 
	C224.945465,320.818176 222.674271,320.818176 220.123779,320.818176 
	C220.123779,298.729950 220.123779,276.683350 220.123779,254.691727 
	C226.711639,252.751572 230.737198,254.803848 234.319580,260.772491 
	C244.218552,277.265228 254.872177,293.305023 265.851715,310.501709 
	C265.851715,291.157532 265.851715,272.859558 265.851715,254.392792 
	C268.604431,254.392792 270.852264,254.392792 273.373779,254.392792 
	C273.373779,276.531769 273.373779,298.452057 273.373779,320.367615 
	C264.814728,322.119232 264.589081,322.040466 260.133087,315.103455 
	C249.619843,298.736664 239.117889,282.362610 228.402512,265.494263 
	C227.910828,264.738922 227.627991,264.480804 227.345154,264.222687 
	C227.333481,264.747742 227.321793,265.272827 227.310089,265.797882 
z"/>
<path fill="#242424" opacity="1.000000" stroke="none" 
	d="
M259.000000,210.902084 
	C177.006805,210.902084 95.513611,210.911545 14.020473,210.848267 
	C11.956891,210.846664 8.185863,212.392303 9.206878,207.305084 
	C134.450790,207.305084 259.540375,207.305084 384.629944,207.305084 
	C384.913208,207.711273 385.196472,208.117477 385.479767,208.523666 
	C384.483093,209.315750 383.592041,210.383484 382.458344,210.817917 
	C381.440887,211.207794 380.156586,210.901993 378.990021,210.901993 
	C339.160004,210.902100 299.330017,210.902084 259.000000,210.902084 
z"/>
<path fill="#080808" opacity="1.000000" stroke="none" 
	d="
M71.498871,307.404602 
	C70.645386,303.424042 68.813225,301.870209 64.829254,302.115692 
	C58.526554,302.504089 52.172535,302.429382 45.859695,302.134338 
	C42.480392,301.976410 40.797443,302.919342 39.836105,306.286774 
	C38.432640,311.202850 36.437340,315.949982 34.659466,320.865509 
	C31.911690,320.865509 29.270794,320.865509 26.012003,320.865509 
	C29.688686,311.285156 33.279644,301.949371 36.854652,292.607422 
	C41.360474,280.833160 45.926033,269.080811 50.292747,257.255066 
	C51.209000,254.773697 52.518257,253.863144 55.052238,254.141769 
	C57.236492,254.381943 59.509983,253.540192 60.694805,256.676727 
	C68.719650,277.920624 76.915810,299.099823 85.068489,320.330963 
	C77.013832,322.011230 76.972061,321.995361 74.254982,314.783508 
	C73.377449,312.454315 72.545952,310.107758 71.498871,307.404602 
M62.169170,282.315369 
	C59.948460,276.117615 57.727749,269.919861 55.437111,263.526947 
	C51.610550,274.131409 47.884655,284.456879 44.098858,294.948364 
	C51.828743,294.948364 59.049934,294.948364 66.796371,294.948364 
	C65.273727,290.728638 63.884491,286.878632 62.169170,282.315369 
z"/>
<path fill="#0B0B0B" opacity="1.000000" stroke="none" 
	d="
M145.770035,285.999390 
	C145.770050,275.208191 145.770050,264.917023 145.770050,254.574112 
	C153.570755,254.574112 161.050110,254.000305 168.406738,254.705917 
	C180.018692,255.819687 186.048965,262.523224 186.459427,273.431641 
	C186.867172,284.269135 179.903442,293.171539 169.101395,295.019623 
	C164.232468,295.852631 159.222580,295.861542 153.693115,296.289551 
	C153.693115,304.314697 153.693115,312.511383 153.693115,320.857666 
	C150.827087,320.857666 148.534302,320.857666 145.770020,320.857666 
	C145.770020,309.344971 145.770020,297.922180 145.770035,285.999390 
M177.253128,280.250458 
	C181.056732,265.715179 172.749954,259.057648 153.864807,261.782104 
	C153.864807,270.592651 153.864807,279.446686 153.864807,288.828918 
	C162.539062,288.426270 171.575882,290.411560 177.253128,280.250458 
z"/>
<path fill="#070707" opacity="1.000000" stroke="none" 
	d="
M296.177368,254.174927 
	C305.946991,254.174911 315.234131,254.174911 324.751007,254.174911 
	C324.751007,256.685028 324.751007,258.780884 324.751007,261.219849 
	C316.255341,261.219849 307.812500,261.219849 299.162170,261.219849 
	C299.162170,268.665741 299.162170,275.778046 299.162170,283.342468 
	C306.928162,283.342468 314.652039,283.342468 322.686584,283.342468 
	C322.686584,285.850525 322.686584,287.917908 322.686584,290.391174 
	C315.041321,290.391174 307.290924,290.391174 299.247681,290.391174 
	C299.247681,298.349091 299.247681,305.912842 299.247681,313.922180 
	C308.186066,313.922180 317.084351,313.922180 326.165405,313.922180 
	C326.165405,316.457916 326.165405,318.550537 326.165405,320.827881 
	C314.520966,320.827881 303.089264,320.827881 291.340271,320.827881 
	C291.340271,298.796600 291.340271,276.767517 291.340271,254.412567 
	C292.803955,254.332687 294.249420,254.253815 296.177368,254.174927 
z"/>
<path fill="#080808" opacity="1.000000" stroke="none" 
	d="
M108.999672,322.064545 
	C105.893593,321.768280 103.227715,321.616943 100.622787,321.135712 
	C91.681450,319.483856 91.689590,319.439789 92.130478,310.270081 
	C96.260338,311.662933 100.297089,313.605560 104.536385,314.285645 
	C108.527412,314.925873 112.910027,314.950226 116.805557,313.980682 
	C124.919327,311.961273 126.909943,302.880432 120.606926,297.306152 
	C118.038445,295.034607 114.806938,293.490967 111.809059,291.732147 
	C107.801468,289.380920 103.495895,287.469269 99.725510,284.794800 
	C88.094177,276.544128 89.743629,261.408203 102.831505,255.673721 
	C110.616211,252.262817 118.735641,252.355179 126.782486,254.513443 
	C132.226288,255.973557 128.778671,260.469452 129.876923,264.110809 
	C122.857025,260.846191 116.200943,259.214081 109.079880,260.930145 
	C104.722580,261.980194 101.318420,264.121582 100.460754,268.813019 
	C99.651146,273.241577 101.617668,276.711395 105.311058,278.934326 
	C110.568024,282.098328 116.094948,284.811707 121.378052,287.934998 
	C126.348686,290.873535 130.640091,294.621124 131.964569,300.571838 
	C133.912918,309.325500 129.736481,317.043701 121.171814,319.959961 
	C117.462357,321.222931 113.380501,321.392181 108.999672,322.064545 
z"/>
<path fill="#198CD3" opacity="1.000000" stroke="none" 
	d="
M317.101196,42.655460 
	C326.709595,42.461182 336.317993,42.266899 346.380096,42.443821 
	C343.738770,48.855442 340.643707,54.895859 337.317749,61.149330 
	C335.011627,65.559784 332.936462,69.757179 330.665894,73.968079 
	C330.470490,73.981583 330.081451,74.027435 329.607727,74.018898 
	C320.097137,73.674858 311.060242,73.339355 302.149902,72.678680 
	C306.510223,63.905155 310.743988,55.456802 315.246094,46.839977 
	C316.043335,45.332825 316.572266,43.994141 317.101196,42.655460 
z"/>
<path fill="#060606" opacity="1.000000" stroke="none" 
	d="
M361.817139,261.294464 
	C360.683929,262.937561 359.547577,264.566437 359.534424,266.204285 
	C359.401978,282.681854 359.453796,299.160889 359.453735,315.639526 
	C359.453735,317.282928 359.453705,318.926361 359.453705,320.789185 
	C356.836914,320.789185 354.564514,320.789185 351.870972,320.789185 
	C351.870972,301.240936 351.870972,281.687256 351.870972,261.503601 
	C345.271088,261.503601 339.057709,261.503601 332.625305,261.503601 
	C332.625305,258.803375 332.625305,256.737549 332.625305,254.425735 
	C347.964203,254.425735 363.039734,254.425735 378.479858,254.425735 
	C378.479858,256.528564 378.479858,258.591064 378.479858,261.284393 
	C373.186340,261.284393 367.760803,261.284393 361.817139,261.294464 
z"/>
<path fill="#1181C7" opacity="1.000000" stroke="none" 
	d="
M125.054886,45.292469 
	C127.763786,45.437244 130.472687,45.582024 133.756897,46.090668 
	C139.408630,49.307434 145.333679,51.058968 147.921173,57.253090 
	C147.544800,57.959217 147.273178,58.418251 146.705368,59.037178 
	C144.251785,61.104465 142.094391,63.011852 139.674591,65.059174 
	C138.602997,65.743233 137.793793,66.287354 136.994705,66.462311 
	C137.656693,63.976631 138.308594,61.860107 139.136459,59.172192 
	C137.308838,59.297535 136.205322,59.295513 135.126923,59.459076 
	C123.075035,61.287025 111.027023,63.140514 99.063370,64.760811 
	C99.073647,64.019768 98.998528,63.505039 99.040665,62.727478 
	C99.492065,61.996109 99.826218,61.527576 100.359840,60.956547 
	C100.800201,60.658302 100.960190,60.410351 101.291756,59.931076 
	C101.715393,59.186028 101.886543,58.620102 102.028549,58.027618 
	C101.999390,58.001068 102.054642,58.058353 102.366028,58.092644 
	C103.159180,57.764416 103.640930,57.401901 104.414246,56.876785 
	C111.488831,52.906948 118.271858,49.099709 125.054886,45.292469 
z"/>
<path fill="#15559C" opacity="1.000000" stroke="none" 
	d="
M67.004105,174.853729 
	C61.215511,174.985107 55.426914,175.116486 49.259705,174.636780 
	C49.969513,167.358337 51.057941,160.690994 52.584885,154.015442 
	C59.341564,153.171997 65.646400,152.194611 71.987122,151.599747 
	C73.606628,151.447800 75.339760,152.507065 76.910736,153.264694 
	C76.546463,154.009750 76.292145,154.499939 75.885323,155.310181 
	C74.804817,158.076569 73.876801,160.522934 72.677689,163.177765 
	C70.605766,167.208740 68.804939,171.031235 67.004105,174.853729 
z"/>
<path fill="#216BBB" opacity="1.000000" stroke="none" 
	d="
M241.042633,171.826385 
	C230.666000,171.848083 220.289383,171.869766 209.494568,171.649872 
	C209.076385,171.408310 209.118469,171.099640 209.499939,171.068237 
	C211.888931,170.675552 213.896423,170.314270 216.279663,169.961243 
	C219.353195,168.522964 222.114349,167.181625 224.733139,165.603943 
	C228.205002,163.512314 231.565643,161.236053 235.315826,159.037170 
	C236.112869,159.028168 236.568176,159.021103 237.053574,159.357361 
	C243.068481,168.640350 244.820496,169.014328 253.561295,163.283920 
	C253.945847,163.031815 254.523224,163.073807 255.313934,163.133179 
	C257.408356,165.185455 258.938995,167.465836 261.045410,168.901260 
	C265.373901,171.850891 275.245148,168.564529 280.443146,162.925629 
	C281.514862,162.625916 282.259399,162.297104 282.999634,161.986526 
	C282.995331,162.004745 282.961273,161.987534 283.273376,161.861572 
	C286.390747,159.495880 289.196045,157.256149 292.196960,155.284973 
	C293.380432,156.074020 294.368256,156.594482 295.356110,157.114960 
	C286.100677,167.727509 274.798981,173.478989 260.372162,172.039566 
	C257.566620,171.759644 254.713242,171.958923 251.222687,171.651901 
	C247.267410,168.984589 244.064178,168.524261 241.042633,171.826385 
z"/>
<path fill="#15A6E6" opacity="1.000000" stroke="none" 
	d="
M110.014313,145.003967 
	C104.052826,162.391830 90.484917,172.961502 70.781693,174.464355 
	C76.129471,172.608749 80.729630,169.748230 84.389725,164.902863 
	C86.461876,161.832870 88.242546,158.928970 90.294273,155.820435 
	C92.044380,152.746307 93.523430,149.876785 95.244797,146.856934 
	C95.971176,146.138855 96.455231,145.571091 97.323906,144.848572 
	C101.810455,144.797195 105.912384,144.900589 110.014313,145.003967 
z"/>
<path fill="#61B3E4" opacity="1.000000" stroke="none" 
	d="
M322.305389,121.091522 
	C318.444946,127.008240 314.584503,132.924957 310.354614,138.675278 
	C309.176483,137.653793 308.367767,136.798737 307.601410,135.988434 
	C311.141754,129.572464 310.903198,129.072372 304.031647,127.657616 
	C305.380829,124.537048 306.665802,121.768372 308.126038,118.696747 
	C309.558289,115.624374 310.815308,112.854958 312.311890,109.919174 
	C313.031586,109.165764 313.511688,108.578720 314.393555,107.993927 
	C317.537018,108.998497 320.278656,110.000832 323.011353,111.258362 
	C322.995178,111.683662 322.987976,111.853752 322.828491,112.321381 
	C321.223053,114.837410 319.769897,117.055908 318.235107,119.399048 
	C319.950775,120.112442 321.128082,120.601982 322.305389,121.091522 
z"/>
<path fill="#099CE1" opacity="1.000000" stroke="none" 
	d="
M249.916321,147.908783 
	C250.204178,147.446884 250.492020,146.985001 251.216858,146.165131 
	C257.471741,138.929977 263.289673,132.052795 269.377777,125.023972 
	C270.426971,124.231194 271.205994,123.590050 271.984192,123.336494 
	C271.641327,125.475929 271.299316,127.227791 270.680054,129.194427 
	C269.594513,131.924149 268.786224,134.439102 267.705475,137.179596 
	C265.979828,140.606430 264.526611,143.807724 262.916504,147.330643 
	C261.812317,150.082047 260.865051,152.511795 259.653870,155.140152 
	C257.932098,157.259445 256.474243,159.180161 254.710373,160.920471 
	C252.914551,157.201035 251.424759,153.661987 249.955322,149.753754 
	C249.955917,148.892639 249.936127,148.400711 249.916321,147.908783 
z"/>
<path fill="#3B9DDC" opacity="1.000000" stroke="none" 
	d="
M303.967438,128.009521 
	C310.903198,129.072372 311.141754,129.572464 307.601410,135.988434 
	C308.367767,136.798737 309.176483,137.653793 310.056396,138.846329 
	C307.736023,142.367767 305.344391,145.551727 302.305389,148.869705 
	C295.963043,147.031281 294.952118,152.581543 292.001373,155.016418 
	C289.196045,157.256149 286.390747,159.495880 283.252563,161.519928 
	C283.660492,159.914383 284.401337,158.524521 285.424438,156.958344 
	C287.798828,153.855209 289.890930,150.928375 292.256714,147.806641 
	C294.019470,145.072510 295.508545,142.533264 297.270325,139.790253 
	C299.328918,136.062042 301.114868,132.537598 303.028137,128.796265 
	C303.426117,128.389435 303.696777,128.199478 303.967438,128.009521 
z"/>
<path fill="#2BACE8" opacity="1.000000" stroke="none" 
	d="
M316.711914,42.538795 
	C316.572266,43.994141 316.043335,45.332825 315.053162,46.584843 
	C313.527252,46.763954 312.230133,46.728992 311.435150,47.343590 
	C305.626831,51.833893 299.919373,56.454594 293.756042,60.980072 
	C289.418152,60.584869 285.504242,60.243740 281.590363,59.902611 
	C288.568207,49.447323 299.050110,45.062321 310.876740,43.040585 
	C312.674713,42.733219 314.506470,42.623356 316.711914,42.538795 
z"/>
<path fill="#36B4EB" opacity="1.000000" stroke="none" 
	d="
M234.947235,95.005630 
	C236.609085,101.078171 238.270935,107.150711 239.466278,113.615349 
	C235.328323,114.349991 231.656860,114.692535 227.710754,114.806946 
	C226.624191,112.387573 225.812302,110.196327 224.998550,107.599121 
	C224.663162,104.814926 224.329620,102.436691 223.984802,99.747971 
	C223.646484,98.950874 223.319443,98.464264 222.993561,97.742325 
	C222.994736,97.506996 222.998779,97.036354 223.089233,96.642105 
	C227.102203,95.833778 231.024719,95.419701 234.947235,95.005630 
z"/>
<path fill="#6EC6EB" opacity="1.000000" stroke="none" 
	d="
M148.025955,57.005997 
	C145.333679,51.058968 139.408630,49.307434 134.159103,46.141861 
	C136.247208,45.555649 138.506592,45.063530 140.769928,45.044769 
	C153.540924,44.938881 166.312851,44.946663 179.230286,45.234722 
	C170.025055,46.337769 161.550613,49.462654 153.681625,55.113384 
	C152.275879,55.868404 151.189102,56.566170 149.753510,57.244789 
	C148.945114,57.152424 148.485535,57.079212 148.025955,57.005997 
z"/>
<path fill="#15559C" opacity="1.000000" stroke="none" 
	d="
M154.000595,55.056129 
	C161.550613,49.462654 170.025055,46.337769 179.691010,45.330139 
	C181.401566,45.078987 182.797180,45.051437 184.541321,45.423370 
	C183.829620,46.741238 182.769394,47.659618 182.003845,48.322746 
	C183.727432,50.176003 185.468948,52.048546 186.774536,53.990799 
	C181.636688,53.825325 176.935196,53.580063 172.232422,53.363403 
	C171.283829,53.319698 170.068878,53.011295 169.423843,53.463161 
	C166.507553,55.506046 163.751770,57.778053 160.572113,59.969654 
	C158.137558,58.333221 156.069077,56.694675 154.000595,55.056129 
z"/>
<path fill="#298ED3" opacity="1.000000" stroke="none" 
	d="
M209.118469,171.099640 
	C209.118469,171.099640 209.076385,171.408310 209.033218,171.558136 
	C196.469650,173.312378 186.328506,169.439331 179.147110,158.025513 
	C180.751114,156.869705 182.340530,156.348495 183.968948,156.021408 
	C185.979034,155.617645 188.021545,155.375336 190.311279,155.252945 
	C194.851318,162.915970 201.211548,167.923843 209.118469,171.099640 
z"/>
<path fill="#CFEFFC" opacity="1.000000" stroke="none" 
	d="
M349.937714,42.099209 
	C355.705811,42.099209 361.473938,42.099209 368.387299,42.099209 
	C365.856262,46.726078 363.702942,50.662418 361.079834,54.454918 
	C356.398102,53.874577 352.186218,53.438068 347.983765,52.596489 
	C348.641388,48.827354 349.289551,45.463284 349.937714,42.099209 
z"/>
<path fill="#62C9F3" opacity="1.000000" stroke="none" 
	d="
M160.429810,108.129120 
	C159.195221,103.068962 157.960632,98.008812 157.155701,92.498535 
	C160.384140,91.369621 163.182938,90.690834 166.010803,90.307556 
	C166.355392,91.072052 166.670868,91.541039 166.998047,92.400650 
	C168.357803,97.841316 169.705887,102.891373 170.587051,107.959816 
	C166.890030,108.028511 163.659912,108.078819 160.429810,108.129120 
z"/>
<path fill="#8AD0F2" opacity="1.000000" stroke="none" 
	d="
M56.883530,114.847351 
	C60.331253,108.337288 63.778980,101.827225 67.851868,95.181396 
	C69.616302,96.037399 70.755577,97.029152 71.790115,98.348282 
	C67.774696,107.449013 63.863998,116.222374 59.624077,124.803253 
	C58.491077,121.356293 57.687302,118.101822 56.883530,114.847351 
z"/>
<path fill="#C2ECFB" opacity="1.000000" stroke="none" 
	d="
M347.974304,53.001556 
	C352.186218,53.438068 356.398102,53.874577 360.804413,54.654877 
	C358.858978,58.872116 356.719147,62.745571 353.925171,66.654099 
	C350.155548,66.463219 347.040009,66.237282 343.947876,65.635284 
	C343.981720,64.507240 343.992157,63.755264 344.280090,62.770115 
	C345.696472,59.358479 346.835388,56.180016 347.974304,53.001556 
z"/>
<path fill="#AFDEF4" opacity="1.000000" stroke="none" 
	d="
M38.014725,174.990173 
	C34.540573,175.303833 34.583134,173.009140 35.274410,170.838882 
	C38.206264,161.634430 41.305988,152.483459 44.793694,143.461487 
	C45.873943,148.147919 46.504883,152.685791 47.069382,157.569366 
	C44.006866,163.606766 41.010796,169.298477 38.014725,174.990173 
z"/>
<path fill="#AFDEF4" opacity="1.000000" stroke="none" 
	d="
M269.107605,125.175613 
	C263.289673,132.052795 257.471741,138.929977 251.336914,145.916687 
	C253.461563,138.502640 255.903122,130.979080 259.049194,123.220604 
	C262.871674,123.715668 265.989655,124.445641 269.107605,125.175613 
z"/>
<path fill="#24A9E6" opacity="1.000000" stroke="none" 
	d="
M110.272690,144.741669 
	C105.912384,144.900589 101.810455,144.797195 97.376129,144.496109 
	C98.030930,142.192657 99.018120,140.086899 100.276138,137.790970 
	C101.993729,135.392838 103.440498,133.184875 105.333359,130.984695 
	C108.660027,131.378265 111.540596,131.764053 114.421165,132.149857 
	C113.124458,136.259689 111.827759,140.369522 110.272690,144.741669 
z"/>
<path fill="#2F9AD9" opacity="1.000000" stroke="none" 
	d="
M190.050049,155.063263 
	C188.021545,155.375336 185.979034,155.617645 183.968948,156.021408 
	C182.340530,156.348495 180.751114,156.869705 179.051514,157.701218 
	C176.627533,153.984070 174.296478,149.870529 172.379517,145.384613 
	C176.547836,144.674530 180.302048,144.336823 184.324387,144.204285 
	C186.411682,147.960739 188.230865,151.511993 190.050049,155.063263 
z"/>
<path fill="#2A89CC" opacity="1.000000" stroke="none" 
	d="
M187.210464,53.921089 
	C185.468948,52.048546 183.727432,50.176003 182.003845,48.322746 
	C182.769394,47.659618 183.829620,46.741238 184.950195,45.509552 
	C186.663940,45.193783 188.317368,45.191326 190.495270,45.548119 
	C195.009674,48.970196 198.999573,52.033031 202.900085,55.470406 
	C201.183380,56.229881 199.520462,56.506901 197.938431,57.029034 
	C196.236557,57.590714 194.610580,58.382313 192.686890,58.873512 
	C190.685013,57.089317 188.947739,55.505203 187.210464,53.921089 
z"/>
<path fill="#97D7F4" opacity="1.000000" stroke="none" 
	d="
M56.623993,115.078102 
	C57.687302,118.101822 58.491077,121.356293 59.615295,125.192612 
	C58.616482,130.824249 57.297226,135.874054 55.854290,141.202057 
	C55.248535,142.340897 54.766460,143.201553 53.868637,143.979279 
	C52.968678,140.535614 52.608994,137.150101 51.947807,133.824539 
	C51.616409,132.157715 50.735672,130.600113 50.103378,128.993103 
	C52.190407,124.431686 54.277435,119.870270 56.623993,115.078102 
z"/>
<path fill="#099CE1" opacity="1.000000" stroke="none" 
	d="
M38.457542,175.107117 
	C41.010796,169.298477 44.006866,163.606766 47.331585,157.343689 
	C49.740852,153.209290 51.821468,149.646255 53.924717,146.452515 
	C53.347023,149.222427 52.746696,151.623032 52.146370,154.023651 
	C51.057941,160.690994 49.969513,167.358337 48.801437,174.461624 
	C45.447983,175.006393 42.174171,175.115234 38.457542,175.107117 
z"/>
<path fill="#6EC6EB" opacity="1.000000" stroke="none" 
	d="
M268.091675,92.992271 
	C269.001221,89.870789 269.910797,86.749298 271.450256,83.306938 
	C276.364105,82.998184 280.648041,83.010300 284.915649,83.400986 
	C283.879944,86.858055 282.860504,89.936554 281.386719,93.010948 
	C276.652130,93.001976 272.371918,92.997124 268.091675,92.992271 
z"/>
<path fill="#3B9DDC" opacity="1.000000" stroke="none" 
	d="
M184.056274,143.999100 
	C180.302048,144.336823 176.547836,144.674530 172.335785,145.019440 
	C170.505646,141.622849 169.133316,138.219055 168.179062,134.421371 
	C172.413132,134.021713 176.229156,134.015915 180.283051,134.012024 
	C180.520935,134.013931 180.997803,134.021896 181.046448,134.391983 
	C182.082169,137.841080 183.069214,140.920090 184.056274,143.999100 
z"/>
<path fill="#A4DDF6" opacity="1.000000" stroke="none" 
	d="
M53.902084,146.083237 
	C51.821468,149.646255 49.740852,153.209290 47.398033,156.997986 
	C46.504883,152.685791 45.873943,148.147919 45.051819,143.218246 
	C46.485176,138.421539 48.109722,134.016647 49.918823,129.302429 
	C50.735672,130.600113 51.616409,132.157715 51.947807,133.824539 
	C52.608994,137.150101 52.968678,140.535614 53.804855,144.315430 
	C54.071907,145.184082 53.986996,145.633667 53.902084,146.083237 
z"/>
<path fill="#51BBEC" opacity="1.000000" stroke="none" 
	d="
M284.931946,83.022415 
	C280.648041,83.010300 276.364105,82.998184 271.630920,82.975037 
	C272.188782,79.784393 273.195984,76.604774 274.911499,73.191544 
	C279.744812,73.305382 283.869812,73.652847 287.972198,74.367554 
	C287.627441,76.155525 287.305298,77.576263 286.724274,79.194595 
	C285.954224,80.602264 285.443085,81.812340 284.931946,83.022415 
z"/>
<path fill="#7ACAF0" opacity="1.000000" stroke="none" 
	d="
M267.915100,93.312622 
	C272.371918,92.997124 276.652130,93.001976 281.295532,93.367920 
	C280.475128,97.214241 279.291565,100.699486 277.832703,103.865921 
	C273.438232,103.024384 269.319061,102.501663 265.199890,101.978943 
	C266.046112,99.196953 266.892334,96.414963 267.915100,93.312622 
z"/>
<path fill="#AFDEF4" opacity="1.000000" stroke="none" 
	d="
M343.924500,66.011345 
	C347.040009,66.237282 350.155548,66.463219 353.650085,66.851814 
	C351.546478,71.556816 349.063904,76.099167 346.067871,80.563728 
	C343.359833,79.646782 341.165283,78.807625 338.978210,77.640900 
	C338.991669,76.875862 338.997681,76.438385 339.285919,75.791214 
	C341.020264,72.391457 342.472382,69.201401 343.924500,66.011345 
z"/>
<path fill="#97D7F4" opacity="1.000000" stroke="none" 
	d="
M202.989471,55.095863 
	C198.999573,52.033031 195.009674,48.970196 190.909348,45.582668 
	C200.321274,44.255451 208.934830,46.047962 215.483398,53.732990 
	C211.461075,54.404591 207.705490,54.714119 203.708008,55.016052 
	C203.466080,55.008457 202.989471,55.095863 202.989471,55.095863 
z"/>
<path fill="#2A89CC" opacity="1.000000" stroke="none" 
	d="
M249.601685,147.767563 
	C249.936127,148.400711 249.955917,148.892639 249.598297,149.717316 
	C246.166016,152.076233 243.111160,154.102386 240.004150,155.749207 
	C238.632660,151.249023 237.313309,147.128189 236.270035,142.717972 
	C239.968323,141.954575 243.390533,141.480560 246.812744,141.006546 
	C247.637512,143.213150 248.462280,145.419739 249.601685,147.767563 
z"/>
<path fill="#33A3E0" opacity="1.000000" stroke="none" 
	d="
M227.985413,115.035080 
	C231.656860,114.692535 235.328323,114.349991 239.442932,114.012390 
	C240.656906,117.070045 241.427704,120.122749 241.741608,123.585861 
	C237.793716,124.782898 233.254807,121.988953 230.715729,126.762314 
	C229.614899,122.690964 228.800156,118.863022 227.985413,115.035080 
z"/>
<path fill="#8AD0F2" opacity="1.000000" stroke="none" 
	d="
M203.949921,55.023643 
	C207.705490,54.714119 211.461075,54.404591 215.631287,54.038155 
	C218.081284,56.605282 220.116623,59.229321 221.920776,62.570221 
	C217.771072,63.532478 213.852570,63.777878 209.662659,63.827679 
	C207.577484,60.762600 205.763702,57.893120 203.949921,55.023643 
z"/>
<path fill="#48B5E8" opacity="1.000000" stroke="none" 
	d="
M127.130348,94.041962 
	C125.729675,97.871475 124.329002,101.700981 122.360382,105.794281 
	C121.527565,106.035393 121.262688,106.012718 121.033279,105.618332 
	C121.929741,103.161263 121.766350,101.986839 118.979424,101.933777 
	C115.605545,101.869530 112.240913,101.319298 108.941498,100.660240 
	C109.680275,99.234200 110.349846,98.127289 111.274261,96.849876 
	C112.330589,95.782249 113.132072,94.885124 114.400757,93.992340 
	C118.955429,94.011772 123.042885,94.026871 127.130348,94.041962 
z"/>
<path fill="#7ACAF0" opacity="1.000000" stroke="none" 
	d="
M209.934067,64.023277 
	C213.852570,63.777878 217.771072,63.532478 221.938995,62.908142 
	C223.800705,65.383781 225.412964,68.238350 226.784912,71.777206 
	C222.647003,72.667191 218.749420,72.872887 214.603241,72.853973 
	C212.910980,70.077461 211.467346,67.525566 210.006500,64.735580 
	C209.989304,64.497490 209.934067,64.023277 209.934067,64.023277 
z"/>
<path fill="#48B5E8" opacity="1.000000" stroke="none" 
	d="
M180.045166,134.010132 
	C176.229156,134.015915 172.413132,134.021713 168.102112,134.040802 
	C166.793671,131.612640 165.980270,129.171158 165.561676,126.304413 
	C169.638870,125.586899 173.321243,125.294624 177.152222,125.330513 
	C178.215607,128.442490 179.130371,131.226318 180.045166,134.010132 
z"/>
<path fill="#A4DDF6" opacity="1.000000" stroke="none" 
	d="
M338.970734,77.968475 
	C341.165283,78.807625 343.359833,79.646782 345.795380,80.764694 
	C343.565918,85.590675 341.095459,90.137901 338.137329,94.619217 
	C336.081299,94.035583 334.512878,93.517853 332.994659,92.647003 
	C333.684418,90.529121 334.323975,88.764359 335.240417,86.776489 
	C336.668457,83.691742 337.819611,80.830109 338.970734,77.968475 
z"/>
<path fill="#62C9F3" opacity="1.000000" stroke="none" 
	d="
M214.851837,73.078583 
	C218.749420,72.872887 222.647003,72.667191 226.821472,72.129837 
	C228.346130,74.630356 229.593903,77.462540 230.402496,80.651596 
	C227.837509,81.006744 225.610306,80.611137 223.617004,81.124237 
	C221.931595,81.558083 220.517151,83.044548 218.739014,84.046921 
	C218.495255,84.028694 218.006897,84.000694 217.995667,83.622917 
	C217.026352,80.825798 216.068283,78.406448 215.108749,75.723999 
	C215.114227,75.285622 215.121185,75.110359 215.274170,74.843796 
	C215.285645,74.505356 215.151062,74.258194 214.973083,73.778320 
	C214.929672,73.545601 214.851837,73.078583 214.851837,73.078583 
z"/>
<path fill="#AFDEF4" opacity="1.000000" stroke="none" 
	d="
M347.983765,52.596489 
	C346.835388,56.180016 345.696472,59.358479 343.944397,62.623573 
	C341.403717,62.118893 339.476196,61.527580 337.548676,60.936272 
	C340.643707,54.895859 343.738770,48.855442 346.838165,42.469040 
	C347.616974,42.098919 348.391449,42.074791 349.551819,42.074936 
	C349.289551,45.463284 348.641388,48.827354 347.983765,52.596489 
z"/>
<path fill="#2BACE8" opacity="1.000000" stroke="none" 
	d="
M114.625450,131.865738 
	C111.540596,131.764053 108.660027,131.378265 105.353134,130.743530 
	C104.926811,130.494598 104.917305,130.010757 105.071030,129.699707 
	C107.125786,126.265045 109.026833,123.141411 111.175423,119.865189 
	C111.918839,119.139992 112.414696,118.567390 113.313095,118.040985 
	C115.327477,118.416000 116.939323,118.744804 118.551163,119.073608 
	C117.310684,123.242943 116.070213,127.412277 114.625450,131.865738 
z"/>
<path fill="#48B5E8" opacity="1.000000" stroke="none" 
	d="
M153.872467,81.012009 
	C152.711929,77.532104 151.551407,74.052208 150.203140,69.973701 
	C150.024292,69.190231 150.033173,69.005371 150.341782,68.719040 
	C152.139984,67.384872 153.638489,66.152168 155.226151,65.257523 
	C157.212173,69.717583 159.109024,73.839592 160.956451,78.345039 
	C158.562180,79.489655 156.217331,80.250832 153.872467,81.012009 
z"/>
<path fill="#51BBEC" opacity="1.000000" stroke="none" 
	d="
M153.880035,81.415985 
	C156.217331,80.250832 158.562180,79.489655 161.206238,78.510689 
	C161.697266,78.847374 161.889099,79.401855 162.198334,80.292496 
	C163.537735,83.756462 164.759735,86.884254 165.981720,90.012047 
	C163.182938,90.690834 160.384140,91.369621 157.126572,92.086334 
	C155.741074,88.689491 154.814346,85.254730 153.880035,81.415985 
z"/>
<path fill="#1867AA" opacity="1.000000" stroke="none" 
	d="
M84.098251,165.068954 
	C80.729630,169.748230 76.129471,172.608749 70.387680,174.362152 
	C69.345428,174.673416 68.567612,174.796326 67.396950,174.886475 
	C68.804939,171.031235 70.605766,167.208740 73.056488,163.344910 
	C77.170341,163.892029 80.634300,164.480499 84.098251,165.068954 
z"/>
<path fill="#298ED3" opacity="1.000000" stroke="none" 
	d="
M246.816742,140.645050 
	C243.390533,141.480560 239.968323,141.954575 235.992279,142.482635 
	C234.631561,139.359772 233.824661,136.182892 233.481628,133.003860 
	C237.458969,132.944626 240.972427,132.887527 244.485901,132.830429 
	C245.264191,135.314804 246.042465,137.799164 246.816742,140.645050 
z"/>
<path fill="#5AC0EE" opacity="1.000000" stroke="none" 
	d="
M160.520004,108.526871 
	C163.659912,108.078819 166.890030,108.028511 170.574600,107.972977 
	C171.029068,107.967743 171.029724,107.969414 171.121704,108.193985 
	C171.400314,108.700615 171.655701,108.889954 172.108337,109.285660 
	C172.515106,110.394936 172.793381,111.205093 173.196075,112.356384 
	C173.563171,114.116577 173.805817,115.535652 173.583572,116.968277 
	C169.638748,117.021042 166.158813,117.060265 162.678879,117.099487 
	C161.989319,114.374527 161.299759,111.649574 160.520004,108.526871 
z"/>
<path fill="#2F9AD9" opacity="1.000000" stroke="none" 
	d="
M244.430420,132.438385 
	C240.972427,132.887527 237.458969,132.944626 233.347137,132.700378 
	C232.169189,131.264816 231.589584,130.130600 231.006866,128.664612 
	C231.003113,127.890480 231.002472,127.448097 231.001831,127.005722 
	C233.254807,121.988953 237.793716,124.782898 241.746918,123.992271 
	C242.931061,126.674301 243.653000,129.360336 244.430420,132.438385 
z"/>
<path fill="#34ADE7" opacity="1.000000" stroke="none" 
	d="
M150.042068,68.820511 
	C150.033173,69.005371 150.024292,69.190231 150.015106,69.652664 
	C147.618744,72.398323 145.222656,74.866402 142.449860,77.068649 
	C141.361115,72.841621 140.649063,68.880432 139.937012,64.919243 
	C142.094391,63.011852 144.251785,61.104465 146.711624,59.433472 
	C148.023422,62.720085 149.032745,65.770294 150.042068,68.820511 
z"/>
<path fill="#48B5E8" opacity="1.000000" stroke="none" 
	d="
M287.994812,74.000305 
	C283.869812,73.652847 279.744812,73.305382 275.135437,72.926010 
	C275.531036,70.722038 276.411011,68.549973 278.037354,66.179260 
	C282.923645,65.997658 287.063507,66.014687 291.137329,66.396210 
	C290.045807,69.173904 289.020294,71.587105 287.994812,74.000305 
z"/>
<path fill="#51BBEC" opacity="1.000000" stroke="none" 
	d="
M162.729828,117.491058 
	C166.158813,117.060265 169.638748,117.021042 173.569550,116.980103 
	C174.020432,116.978378 174.031891,116.972267 174.040283,117.275131 
	C174.370575,118.051918 174.692490,118.525841 175.285095,119.226242 
	C176.038406,121.302605 176.521011,123.152473 177.003632,125.002350 
	C173.321243,125.294624 169.638870,125.586899 165.559540,125.941376 
	C164.368652,123.296593 163.574722,120.589615 162.729828,117.491058 
z"/>
<path fill="#8AD0F2" opacity="1.000000" stroke="none" 
	d="
M265.069763,102.335785 
	C269.319061,102.501663 273.438232,103.024384 277.774567,104.226761 
	C277.319427,106.936470 276.647095,108.966515 275.564606,110.944443 
	C271.072998,110.591209 266.991608,110.290092 262.910187,109.988976 
	C263.586639,107.556862 264.263123,105.124748 265.069763,102.335785 
z"/>
<path fill="#97D7F4" opacity="1.000000" stroke="none" 
	d="
M262.653137,110.238159 
	C266.991608,110.290092 271.072998,110.591209 275.562866,111.342438 
	C275.945160,112.847076 275.919006,113.901596 275.926331,114.976562 
	C275.959778,114.997017 275.949982,114.919235 275.676331,114.958611 
	C275.323883,115.344711 275.245056,115.691429 275.027130,116.247421 
	C274.617706,116.648399 274.347443,116.840126 273.608368,117.023361 
	C269.022736,117.001434 264.905914,116.987991 260.789093,116.974548 
	C261.324768,114.812149 261.860443,112.649742 262.653137,110.238159 
z"/>
<path fill="#5AC0EE" opacity="1.000000" stroke="none" 
	d="
M218.982788,84.065155 
	C220.517151,83.044548 221.931595,81.558083 223.617004,81.124237 
	C225.610306,80.611137 227.837509,81.006744 230.407898,81.013107 
	C231.563568,83.097931 232.274673,85.178116 232.533340,87.629669 
	C228.384094,88.677574 224.687286,89.354111 220.715057,89.807465 
	C219.954025,87.744583 219.468399,85.904869 218.982788,84.065155 
z"/>
<path fill="#48B5E8" opacity="1.000000" stroke="none" 
	d="
M101.039276,60.110191 
	C100.960190,60.410351 100.800201,60.658302 99.849762,60.932777 
	C97.769867,60.890415 96.399513,60.769325 95.029160,60.648235 
	C103.237015,52.598194 112.188652,45.942429 124.640839,45.182465 
	C118.271858,49.099709 111.488831,52.906948 104.099014,56.879707 
	C103.013031,57.382938 102.533836,57.720646 102.054642,58.058353 
	C102.054642,58.058353 101.999390,58.001068 101.761276,58.183483 
	C101.361870,58.947330 101.200577,59.528763 101.039276,60.110191 
z"/>
<path fill="#0B0B0B" opacity="1.000000" stroke="none" 
	d="
M195.830399,317.689819 
	C195.668274,313.985382 197.287613,311.500732 200.577164,311.915436 
	C202.494141,312.157074 205.092087,314.243591 205.615051,316.020538 
	C206.039017,317.461090 204.275497,320.516510 202.684250,321.372681 
	C199.574463,323.045959 197.014481,321.504547 195.830399,317.689819 
z"/>
<path fill="#48B5E8" opacity="1.000000" stroke="none" 
	d="
M139.674591,65.059174 
	C140.649063,68.880432 141.361115,72.841621 142.159439,77.271118 
	C140.405655,79.867874 138.565598,81.996330 136.402283,83.844704 
	C135.723816,80.048218 135.368591,76.531830 135.022797,72.630966 
	C135.011383,71.478477 134.990555,70.710449 134.986053,69.967331 
	C135.002365,69.992226 134.942856,69.993172 135.202042,69.886322 
	C135.639542,69.456543 135.817841,69.133606 136.012787,68.521439 
	C136.347809,67.765297 136.666214,67.298386 136.984604,66.831474 
	C137.793793,66.287354 138.602997,65.743233 139.674591,65.059174 
z"/>
<path fill="#51BBEC" opacity="1.000000" stroke="none" 
	d="
M220.990479,90.030640 
	C224.687286,89.354111 228.384094,88.677574 232.520248,88.002838 
	C233.640137,90.091835 234.320679,92.179031 234.974243,94.635925 
	C231.024719,95.419701 227.102203,95.833778 222.812927,96.399437 
	C221.960968,94.377556 221.475723,92.204094 220.990479,90.030640 
z"/>
<path fill="#A4DDF6" opacity="1.000000" stroke="none" 
	d="
M260.551941,117.222878 
	C264.905914,116.987991 269.022736,117.001434 273.652161,117.300446 
	C274.238190,117.758186 274.311615,117.930351 274.064453,118.240265 
	C273.157623,119.901642 272.571320,121.425270 271.985016,122.948906 
	C271.205994,123.590050 270.426971,124.231194 269.377777,125.023972 
	C265.989655,124.445641 262.871674,123.715668 259.295044,122.967354 
	C259.329163,121.123085 259.821991,119.297150 260.551941,117.222878 
z"/>
<path fill="#51BBEC" opacity="1.000000" stroke="none" 
	d="
M127.349289,94.012482 
	C123.042885,94.026871 118.955429,94.011772 114.545197,93.682831 
	C116.473228,90.583305 118.724030,87.797623 121.054031,85.371918 
	C123.418610,87.168320 125.703995,88.604752 127.990067,90.422028 
	C127.989388,91.815605 127.988007,92.828346 127.986633,93.841080 
	C127.986641,93.841080 127.568222,93.982994 127.349289,94.012482 
z"/>
<path fill="#36B4EB" opacity="1.000000" stroke="none" 
	d="
M291.203400,66.031715 
	C287.063507,66.014687 282.923645,65.997658 278.305481,65.964096 
	C278.910065,64.056374 279.992859,62.165173 281.333008,60.088295 
	C285.504242,60.243740 289.418152,60.584869 293.676392,61.311882 
	C293.081604,63.142414 292.142517,64.587067 291.203400,66.031715 
z"/>
<path fill="#5AC0EE" opacity="1.000000" stroke="none" 
	d="
M128.316284,93.792923 
	C127.988007,92.828346 127.989388,91.815605 128.266052,90.194633 
	C129.029190,87.733215 129.517044,85.880035 130.279724,83.797729 
	C132.040848,80.050880 133.527115,76.533157 135.013367,73.015434 
	C135.368591,76.531830 135.723816,80.048218 136.130554,84.059036 
	C133.670044,87.617226 131.158005,90.680992 128.316284,93.792923 
z"/>
<path fill="#97D7F4" opacity="1.000000" stroke="none" 
	d="
M332.944458,93.000114 
	C334.512878,93.517853 336.081299,94.035583 337.873840,94.834953 
	C336.295929,98.331818 334.493927,101.547043 332.163116,104.659439 
	C330.106201,104.364594 328.578094,104.172569 327.174255,103.669868 
	C327.874146,101.907944 328.449799,100.456711 329.292480,98.811401 
	C330.687836,96.744926 331.816132,94.872520 332.944458,93.000114 
z"/>
<path fill="#7ACAF0" opacity="1.000000" stroke="none" 
	d="
M71.894844,98.020912 
	C70.755577,97.029152 69.616302,96.037399 68.122116,94.986519 
	C70.261436,90.998489 72.755661,87.069588 75.686188,83.260628 
	C77.057877,84.258324 77.993263,85.136093 78.798187,86.323502 
	C76.410095,90.429070 74.152473,94.224991 71.894844,98.020912 
z"/>
<path fill="#62C9F3" opacity="1.000000" stroke="none" 
	d="
M78.928642,86.013855 
	C77.993263,85.136093 77.057877,84.258324 75.967255,83.065231 
	C78.487335,79.191833 81.162666,75.633766 84.502655,72.075333 
	C86.125160,72.381981 87.083023,72.688995 87.888596,73.300491 
	C84.800415,77.741264 81.864525,81.877556 78.928642,86.013855 
z"/>
<path fill="#51BBEC" opacity="1.000000" stroke="none" 
	d="
M88.040878,72.996017 
	C87.083023,72.688995 86.125160,72.381981 84.797195,71.958794 
	C87.785561,68.179024 91.144020,64.515419 94.765823,60.750031 
	C96.399513,60.769325 97.769867,60.890415 99.650299,61.035278 
	C99.826218,61.527576 99.492065,61.996109 98.703949,62.763649 
	C94.846939,66.373779 91.443909,69.684898 88.040878,72.996017 
z"/>
<path fill="#36B4EB" opacity="1.000000" stroke="none" 
	d="
M118.725189,118.760117 
	C116.939323,118.744804 115.327477,118.416000 113.370987,117.696564 
	C113.358994,116.204636 113.691650,115.103333 114.370544,113.946075 
	C115.810677,111.926750 116.904572,109.963371 118.253059,107.895561 
	C118.987450,107.523384 119.467255,107.255653 120.180321,106.894012 
	C120.606079,106.533607 120.798576,106.267113 120.995041,106.000137 
	C120.999001,105.999664 120.997818,105.990044 120.997818,105.990044 
	C121.262688,106.012718 121.527565,106.035393 122.190918,106.093437 
	C121.359344,110.234756 120.129280,114.340691 118.725189,118.760117 
z"/>
<path fill="#8AD0F2" opacity="1.000000" stroke="none" 
	d="
M327.049988,103.980553 
	C328.578094,104.172569 330.106201,104.364594 331.883606,104.857681 
	C330.707123,107.675613 329.281372,110.192490 327.233093,112.771729 
	C325.400604,112.564018 324.190674,112.293930 322.980743,112.023842 
	C322.987976,111.853752 322.995178,111.683662 323.279724,111.060852 
	C324.721344,108.398941 325.885681,106.189751 327.049988,103.980553 
z"/>
<path fill="#6EC6EB" opacity="1.000000" stroke="none" 
	d="
M322.828491,112.321381 
	C324.190674,112.293930 325.400604,112.564018 326.970886,112.972847 
	C325.833038,115.649338 324.334778,118.187088 322.570953,120.908180 
	C321.128082,120.601982 319.950775,120.112442 318.235107,119.399048 
	C319.769897,117.055908 321.223053,114.837410 322.828491,112.321381 
z"/>
<path fill="#2A89CC" opacity="1.000000" stroke="none" 
	d="
M292.196960,155.284988 
	C294.952118,152.581543 295.963043,147.031281 302.034607,149.045959 
	C300.251282,151.667892 298.091309,154.247574 295.643707,156.971100 
	C294.368256,156.594482 293.380432,156.074020 292.196960,155.284988 
z"/>
<path fill="#1660A5" opacity="1.000000" stroke="none" 
	d="
M241.488266,171.893799 
	C244.064178,168.524261 247.267410,168.984589 250.753525,171.594910 
	C247.940369,171.869217 244.937134,171.915222 241.488266,171.893799 
z"/>
<path fill="#696969" opacity="1.000000" stroke="none" 
	d="
M227.563583,265.922546 
	C227.321793,265.272827 227.333481,264.747742 227.345154,264.222687 
	C227.627991,264.480804 227.910828,264.738922 228.120972,265.264404 
	C227.971191,265.703583 227.894119,265.875397 227.563583,265.922546 
z"/>
<path fill="#FAFAFA" opacity="1.000000" stroke="none" 
	d="
M62.332214,282.671997 
	C63.884491,286.878632 65.273727,290.728638 66.796371,294.948364 
	C59.049934,294.948364 51.828743,294.948364 44.098858,294.948364 
	C47.884655,284.456879 51.610550,274.131409 55.437111,263.526947 
	C57.727749,269.919861 59.948460,276.117615 62.332214,282.671997 
z"/>
<path fill="#FAFAFA" opacity="1.000000" stroke="none" 
	d="
M177.117645,280.628662 
	C171.575882,290.411560 162.539062,288.426270 153.864807,288.828918 
	C153.864807,279.446686 153.864807,270.592651 153.864807,261.782104 
	C172.749954,259.057648 181.056732,265.715179 177.117645,280.628662 
z"/>
<path fill="#1C89CE" opacity="1.000000" stroke="none" 
	d="
M313.991791,107.991684 
	C313.511688,108.578720 313.031586,109.165764 312.016266,109.608200 
	C301.631622,109.292221 291.782135,109.120857 281.953979,108.584656 
	C282.847992,106.486046 283.661072,104.719109 284.603607,103.024155 
	C289.060333,95.009689 293.552429,87.014893 298.294250,78.818130 
	C299.712189,76.750069 300.867767,74.876961 302.023346,73.003853 
	C311.060242,73.339355 320.097137,73.674858 329.550842,74.374252 
	C328.606750,77.784439 327.245819,80.830734 325.620941,84.098869 
	C323.547241,88.186127 321.737518,92.051544 319.656403,96.130432 
	C317.587280,100.226486 315.789520,104.109085 313.991791,107.991684 
z"/>
<path fill="#0598DA" opacity="1.000000" stroke="none" 
	d="
M302.149902,72.678680 
	C300.867767,74.876961 299.712189,76.750069 297.832458,78.813248 
	C293.733307,79.001213 290.358215,78.999107 286.983154,78.997002 
	C287.305298,77.576263 287.627441,76.155525 287.972198,74.367546 
	C289.020294,71.587105 290.045807,69.173904 291.137329,66.396210 
	C292.142517,64.587067 293.081604,63.142414 294.100403,61.365952 
	C299.919373,56.454594 305.626831,51.833893 311.435150,47.343590 
	C312.230133,46.728992 313.527252,46.763954 314.784821,46.753315 
	C310.743988,55.456802 306.510223,63.905155 302.149902,72.678680 
z"/>
<path fill="#97D7F4" opacity="1.000000" stroke="none" 
	d="
M337.317749,61.149330 
	C339.476196,61.527580 341.403717,62.118893 343.666931,62.856743 
	C343.992157,63.755264 343.981720,64.507240 343.947876,65.635284 
	C342.472382,69.201401 341.020264,72.391457 338.940979,75.642082 
	C335.829620,75.119957 333.345459,74.537270 330.861267,73.954575 
	C332.936462,69.757179 335.011627,65.559784 337.317749,61.149330 
z"/>
<path fill="#8AD0F2" opacity="1.000000" stroke="none" 
	d="
M330.665894,73.968079 
	C333.345459,74.537270 335.829620,75.119957 338.658752,75.851784 
	C338.997681,76.438385 338.991669,76.875862 338.978210,77.640900 
	C337.819611,80.830109 336.668457,83.691742 334.865540,86.732681 
	C331.437469,85.900322 328.661194,84.888680 325.884918,83.877029 
	C327.245819,80.830734 328.606750,77.784439 330.024567,74.382782 
	C330.081451,74.027435 330.470490,73.981583 330.665894,73.968079 
z"/>
<path fill="#0F78BF" opacity="1.000000" stroke="none" 
	d="
M136.994705,66.462311 
	C136.666214,67.298386 136.347809,67.765297 135.764313,68.647964 
	C135.313751,69.373535 135.128311,69.683357 134.942856,69.993172 
	C134.942856,69.993172 135.002365,69.992226 134.683411,70.107140 
	C131.903870,72.808083 129.443298,75.394104 126.746216,78.086479 
	C126.088058,78.485130 125.666412,78.777420 124.787445,79.049484 
	C122.360077,79.136780 120.358986,79.058884 118.425110,79.382568 
	C107.595352,81.195244 96.781807,83.104866 86.009567,84.627045 
	C90.363586,77.844177 94.670776,71.415649 98.977966,64.987122 
	C111.027023,63.140514 123.075035,61.287025 135.126923,59.459076 
	C136.205322,59.295513 137.308838,59.297535 139.136459,59.172192 
	C138.308594,61.860107 137.656693,63.976631 136.994705,66.462311 
z"/>
<path fill="#3B9DDC" opacity="1.000000" stroke="none" 
	d="
M99.063362,64.760811 
	C94.670776,71.415649 90.363586,77.844177 85.739655,84.827385 
	C82.930161,90.225212 80.437416,95.068359 77.680054,100.130531 
	C74.948997,105.232430 72.482567,110.115318 69.739105,115.200592 
	C66.338898,121.602127 63.215721,127.801262 59.933167,134.306427 
	C58.508511,136.716263 57.243237,138.820053 55.977966,140.923843 
	C57.297226,135.874054 58.616482,130.824249 59.944519,125.385101 
	C63.863998,116.222374 67.774696,107.449013 71.790115,98.348282 
	C74.152473,94.224991 76.410095,90.429070 78.798187,86.323502 
	C81.864525,81.877556 84.800415,77.741264 87.888596,73.300491 
	C91.443909,69.684898 94.846939,66.373779 98.586685,63.026485 
	C98.998528,63.505039 99.073647,64.019768 99.063362,64.760811 
z"/>
<path fill="#216BBB" opacity="1.000000" stroke="none" 
	d="
M150.341782,68.719040 
	C149.032745,65.770294 148.023422,62.720085 147.007828,59.273579 
	C147.273178,58.418251 147.544800,57.959217 147.921173,57.253090 
	C148.485535,57.079212 148.945114,57.152424 149.911362,57.516243 
	C152.242371,59.855877 154.066711,61.904903 155.828964,64.158966 
	C155.615814,64.615967 155.405853,64.801117 155.136993,64.919464 
	C153.638489,66.152168 152.139984,67.384872 150.341782,68.719040 
z"/>
<path fill="#51BBEC" opacity="1.000000" stroke="none" 
	d="
M102.366028,58.092644 
	C102.533836,57.720646 103.013031,57.382938 103.807449,57.042305 
	C103.640930,57.401901 103.159180,57.764416 102.366028,58.092644 
z"/>
<path fill="#51BBEC" opacity="1.000000" stroke="none" 
	d="
M101.291763,59.931076 
	C101.200577,59.528763 101.361870,58.947330 101.790436,58.210037 
	C101.886543,58.620102 101.715393,59.186028 101.291763,59.931076 
z"/>
<path fill="#145EA4" opacity="1.000000" stroke="none" 
	d="
M55.854286,141.202057 
	C57.243237,138.820053 58.508511,136.716263 60.331551,134.296844 
	C70.639458,132.333099 80.389603,130.684998 90.076096,129.385895 
	C89.008621,131.818100 88.004776,133.901291 86.722855,136.181000 
	C84.958702,139.247543 83.472626,142.117615 81.714783,145.189301 
	C79.968895,147.930573 78.494797,150.470215 77.020691,153.009842 
	C75.339760,152.507065 73.606628,151.447800 71.987122,151.599747 
	C65.646400,152.194611 59.341564,153.171997 52.584885,154.015442 
	C52.746696,151.623032 53.347023,149.222427 53.924717,146.452515 
	C53.986996,145.633667 54.071907,145.184082 54.220604,144.398361 
	C54.766460,143.201553 55.248535,142.340897 55.854286,141.202057 
z"/>
<path fill="#147DBF" opacity="1.000000" stroke="none" 
	d="
M76.910736,153.264694 
	C78.494797,150.470215 79.968895,147.930573 82.001389,145.484360 
	C86.707336,146.054276 90.854904,146.530762 95.002472,147.007248 
	C93.523430,149.876785 92.044380,152.746307 89.879677,155.759369 
	C84.808624,155.598663 80.423218,155.294403 76.037819,154.990143 
	C76.292145,154.499939 76.546463,154.009750 76.910736,153.264694 
z"/>
<path fill="#1574B9" opacity="1.000000" stroke="none" 
	d="
M75.885323,155.310181 
	C80.423218,155.294403 84.808624,155.598663 89.608620,155.963989 
	C88.242546,158.928970 86.461876,161.832870 84.389725,164.902863 
	C80.634300,164.480499 77.170341,163.892029 73.327591,163.136414 
	C73.876801,160.522934 74.804817,158.076569 75.885323,155.310181 
z"/>
<path fill="#11ADED" opacity="1.000000" stroke="none" 
	d="
M184.324387,144.204285 
	C183.069214,140.920090 182.082169,137.841080 181.325287,134.096008 
	C184.660126,133.310501 187.764816,133.191086 191.035553,133.381882 
	C192.457001,136.135559 193.712387,138.578995 195.022415,141.378479 
	C197.704010,146.167816 200.330963,150.601120 202.995422,155.379150 
	C205.786316,158.732391 208.549118,161.732361 211.289459,164.752701 
	C212.846588,166.468918 214.366989,168.218460 215.903931,169.953003 
	C213.896423,170.314270 211.888931,170.675552 209.499939,171.068237 
	C201.211548,167.923843 194.851318,162.915970 190.311279,155.252930 
	C188.230865,151.511993 186.411682,147.960739 184.324387,144.204285 
z"/>
<path fill="#15559C" opacity="1.000000" stroke="none" 
	d="
M216.279663,169.961243 
	C214.366989,168.218460 212.846588,166.468918 211.289459,164.752701 
	C208.549118,161.732361 205.786316,158.732391 203.077606,155.000916 
	C205.143524,153.518906 207.142120,152.186264 209.190155,152.105408 
	C216.100861,151.832504 223.029144,152.004120 230.124146,152.289459 
	C231.856430,154.728470 233.415253,156.883789 234.974075,159.039124 
	C231.565643,161.236053 228.205002,163.512314 224.733139,165.603943 
	C222.114349,167.181625 219.353195,168.522964 216.279663,169.961243 
z"/>
<path fill="#15559C" opacity="1.000000" stroke="none" 
	d="
M285.142151,157.134674 
	C284.401337,158.524521 283.660492,159.914383 282.940491,161.645874 
	C282.961273,161.987534 282.995331,162.004745 282.671753,161.941956 
	C281.604126,162.218292 280.860046,162.557419 280.115967,162.896545 
	C275.245148,168.564529 265.373901,171.850891 261.045410,168.901260 
	C258.938995,167.465836 257.408356,165.185455 255.310791,162.820068 
	C255.008453,161.935318 255.012421,161.518097 255.016388,161.100861 
	C256.474243,159.180161 257.932098,157.259445 260.043671,155.316772 
	C266.140900,155.529648 271.589783,155.681213 277.025604,156.034546 
	C279.743469,156.211212 282.437408,156.756256 285.142151,157.134674 
z"/>
<path fill="#1A9FDF" opacity="1.000000" stroke="none" 
	d="
M235.315826,159.037170 
	C233.415253,156.883789 231.856430,154.728470 230.020874,151.957245 
	C227.806610,147.562759 225.869034,143.784195 223.913223,139.642120 
	C222.663864,136.186981 221.432770,133.095352 220.554108,129.816101 
	C224.274353,129.417786 227.642166,129.207092 231.009979,128.996384 
	C231.589584,130.130600 232.169189,131.264816 232.883270,132.702515 
	C233.824661,136.182892 234.631561,139.359772 235.716217,142.772003 
	C237.313309,147.128189 238.632660,151.249023 239.854340,156.008728 
	C238.845596,157.436401 237.934540,158.225220 237.023483,159.014038 
	C236.568176,159.021103 236.112869,159.028168 235.315826,159.037170 
z"/>
<path fill="#1660A5" opacity="1.000000" stroke="none" 
	d="
M237.053574,159.357361 
	C237.934540,158.225220 238.845596,157.436401 239.906464,156.388062 
	C243.111160,154.102386 246.166016,152.076233 249.577911,150.086517 
	C251.424759,153.661987 252.914551,157.201035 254.710358,160.920471 
	C255.012421,161.518097 255.008453,161.935318 255.007629,162.665680 
	C254.523224,163.073807 253.945847,163.031815 253.561295,163.283920 
	C244.820496,169.014328 243.068481,168.640350 237.053574,159.357361 
z"/>
<path fill="#3B9DDC" opacity="1.000000" stroke="none" 
	d="
M280.443146,162.925629 
	C280.860046,162.557419 281.604126,162.218292 282.676025,161.923737 
	C282.259399,162.297104 281.514862,162.625916 280.443146,162.925629 
z"/>
<path fill="#1484C7" opacity="1.000000" stroke="none" 
	d="
M95.244797,146.856934 
	C90.854904,146.530762 86.707336,146.054276 82.273163,145.282730 
	C83.472626,142.117615 84.958702,139.247543 86.916550,136.526749 
	C91.593987,137.111053 95.799652,137.546097 100.005310,137.981140 
	C99.018120,140.086899 98.030930,142.192657 96.991516,144.650864 
	C96.455231,145.571091 95.971176,146.138855 95.244797,146.856934 
z"/>
<path fill="#1B79BD" opacity="1.000000" stroke="none" 
	d="
M271.984192,123.336487 
	C272.571320,121.425270 273.157623,119.901642 274.450256,118.223206 
	C277.772522,118.378830 280.385254,118.920479 283.005005,118.956917 
	C291.318878,119.072540 299.635345,118.999695 307.950806,118.999695 
	C306.665802,121.768372 305.380829,124.537048 304.031647,127.657623 
	C303.696777,128.199478 303.426117,128.389435 302.569946,128.791428 
	C291.642029,128.995529 281.299683,128.987579 270.957306,128.979645 
	C271.299316,127.227791 271.641327,125.475929 271.984192,123.336487 
z"/>
<path fill="#1C82C6" opacity="1.000000" stroke="none" 
	d="
M308.126038,118.696747 
	C299.635345,118.999695 291.318878,119.072540 283.005005,118.956917 
	C280.385254,118.920479 277.772522,118.378830 274.770782,118.085464 
	C274.311615,117.930351 274.238190,117.758186 274.120972,117.308929 
	C274.347443,116.840126 274.617706,116.648399 275.219849,116.110107 
	C275.784790,115.529427 275.917542,115.247986 275.949982,114.919235 
	C275.949982,114.919235 275.959778,114.997017 276.248535,114.858826 
	C278.335754,112.796921 280.134216,110.873199 281.932678,108.949486 
	C291.782135,109.120857 301.631622,109.292221 311.776703,109.774567 
	C310.815308,112.854958 309.558289,115.624374 308.126038,118.696747 
z"/>
<path fill="#6EC6EB" opacity="1.000000" stroke="none" 
	d="
M314.393555,107.993919 
	C315.789520,104.109085 317.587280,100.226486 319.905365,96.418228 
	C323.292297,97.330193 326.158844,98.167831 329.025452,99.005463 
	C328.449799,100.456711 327.874146,101.907944 327.174255,103.669868 
	C325.885681,106.189751 324.721344,108.398941 323.288696,110.805649 
	C320.278656,110.000832 317.537018,108.998497 314.393555,107.993919 
z"/>
<path fill="#1A6FB3" opacity="1.000000" stroke="none" 
	d="
M270.680054,129.194427 
	C281.299683,128.987579 291.642029,128.995529 302.442627,129.008301 
	C301.114868,132.537598 299.328918,136.062042 296.975372,139.494980 
	C288.638885,139.268936 280.864929,139.249985 273.104980,138.910873 
	C271.370758,138.835098 269.685669,137.635971 267.977936,136.954041 
	C268.786224,134.439102 269.594513,131.924149 270.680054,129.194427 
z"/>
<path fill="#1660A5" opacity="1.000000" stroke="none" 
	d="
M285.424438,156.958344 
	C282.437408,156.756256 279.743469,156.211212 277.025604,156.034546 
	C271.589783,155.681213 266.140900,155.529648 260.307556,155.118164 
	C260.865051,152.511795 261.812317,150.082047 263.377625,147.327255 
	C273.324799,147.335342 282.653900,147.668442 291.983032,148.001541 
	C289.890930,150.928375 287.798828,153.855209 285.424438,156.958344 
z"/>
<path fill="#1867AA" opacity="1.000000" stroke="none" 
	d="
M292.256714,147.806641 
	C282.653900,147.668442 273.324799,147.335342 263.534546,147.005615 
	C264.526611,143.807724 265.979828,140.606430 267.705475,137.179596 
	C269.685669,137.635971 271.370758,138.835098 273.104980,138.910873 
	C280.864929,139.249985 288.638885,139.268936 296.702698,139.698761 
	C295.508545,142.533264 294.019470,145.072510 292.256714,147.806641 
z"/>
<path fill="#34ADE7" opacity="1.000000" stroke="none" 
	d="
M220.715057,89.807465 
	C221.475723,92.204094 221.960968,94.377556 222.722488,96.793686 
	C222.998779,97.036354 222.994736,97.506996 223.011108,98.049911 
	C223.350342,99.081375 223.673203,99.569916 223.996063,100.058456 
	C224.329620,102.436691 224.663162,104.814926 224.546188,107.596970 
	C220.441803,108.340782 216.787949,108.680786 213.077316,108.650467 
	C212.345306,106.516624 211.670044,104.753090 210.987778,102.598808 
	C209.323288,97.470123 207.665802,92.732185 205.999939,87.628204 
	C205.977295,86.531654 205.963043,85.801155 206.235672,84.766815 
	C210.350677,84.308884 214.178787,84.154793 218.006897,84.000702 
	C218.006897,84.000694 218.495255,84.028694 218.739014,84.046921 
	C219.468399,85.904869 219.954025,87.744583 220.715057,89.807465 
z"/>
<path fill="#24A9E6" opacity="1.000000" stroke="none" 
	d="
M213.134079,109.020782 
	C216.787949,108.680786 220.441803,108.340782 224.548035,108.002930 
	C225.812302,110.196327 226.624191,112.387573 227.710754,114.806946 
	C228.800156,118.863022 229.614899,122.690964 230.715729,126.762314 
	C231.002472,127.448097 231.003113,127.890480 231.006866,128.664612 
	C227.642166,129.207092 224.274353,129.417786 220.457520,129.475739 
	C219.645508,128.218918 219.282516,127.114868 218.819595,125.661942 
	C217.500565,122.194672 216.281464,119.076279 215.044266,115.586899 
	C214.395477,113.150879 213.764771,111.085838 213.134079,109.020782 
z"/>
<path fill="#51BBEC" opacity="1.000000" stroke="none" 
	d="
M223.984802,99.747971 
	C223.673203,99.569916 223.350342,99.081375 223.009949,98.285240 
	C223.319443,98.464264 223.646484,98.950874 223.984802,99.747971 
z"/>
<path fill="#1660A5" opacity="1.000000" stroke="none" 
	d="
M155.891052,63.953930 
	C154.066711,61.904903 152.242371,59.855877 150.260178,57.535393 
	C151.189102,56.566170 152.275879,55.868404 153.681625,55.113384 
	C156.069077,56.694675 158.137558,58.333221 160.489655,60.233868 
	C160.514206,60.984108 160.255127,61.472252 159.727478,61.861237 
	C158.269623,62.492699 157.080338,63.223312 155.891052,63.953930 
z"/>
<path fill="#1566A2" opacity="1.000000" stroke="none" 
	d="
M159.996048,61.960396 
	C160.255127,61.472252 160.514206,60.984108 160.855743,60.231754 
	C163.751770,57.778053 166.507553,55.506046 169.423843,53.463161 
	C170.068878,53.011295 171.283829,53.319698 172.232422,53.363403 
	C176.935196,53.580063 181.636688,53.825325 186.774536,53.990799 
	C188.947739,55.505203 190.685013,57.089317 192.822372,59.159622 
	C193.813812,60.771721 194.405151,61.897625 194.698914,63.314247 
	C183.282501,63.736698 172.163666,63.868420 160.919861,63.741467 
	C160.528625,62.975327 160.262329,62.467861 159.996048,61.960396 
z"/>
<path fill="#34ADE7" opacity="1.000000" stroke="none" 
	d="
M173.071640,112.015259 
	C172.793381,111.205093 172.515106,110.394936 172.021698,109.056488 
	C171.631851,108.224884 171.372910,108.038620 171.029724,107.969414 
	C171.029724,107.969414 171.029068,107.967743 171.041519,107.954590 
	C169.705887,102.891373 168.357803,97.841316 167.419540,92.397339 
	C169.892426,91.657501 171.955475,91.311600 174.291153,91.193253 
	C176.362228,95.626549 178.160675,99.832283 179.983459,104.414612 
	C180.698700,107.190605 181.389633,109.590004 181.626755,111.992264 
	C178.472519,112.001839 175.772079,112.008545 173.071640,112.015259 
z"/>
<path fill="#33A3E0" opacity="1.000000" stroke="none" 
	d="
M174.018539,90.965698 
	C171.955475,91.311600 169.892426,91.657501 167.407867,92.006714 
	C166.670868,91.541039 166.355392,91.072052 166.010803,90.307556 
	C164.759735,86.884254 163.537735,83.756462 162.583908,80.306320 
	C164.577301,79.282288 166.302551,78.580612 168.280273,78.067802 
	C169.048920,79.169380 169.565063,80.082085 170.189880,81.316315 
	C171.508698,83.770294 172.718826,85.902740 173.926208,88.289703 
	C173.921463,88.713898 173.919479,88.883575 173.765167,89.138657 
	C173.732925,89.475487 173.852982,89.726913 173.986572,90.225082 
	C174.000092,90.471817 174.018539,90.965698 174.018539,90.965698 
z"/>
<path fill="#0598DA" opacity="1.000000" stroke="none" 
	d="
M100.276138,137.790985 
	C95.799652,137.546097 91.593987,137.111053 87.194633,136.330261 
	C88.004776,133.901291 89.008621,131.818100 90.299561,129.229828 
	C91.055351,128.188858 91.524040,127.652939 92.056442,127.499710 
	C93.436386,128.587311 94.702599,129.752243 96.079185,129.901932 
	C98.994713,130.218887 101.967812,130.006226 104.917305,130.010773 
	C104.917305,130.010757 104.926811,130.494598 104.907043,130.735748 
	C103.440498,133.184875 101.993729,135.392838 100.276138,137.790985 
z"/>
<path fill="#298ED3" opacity="1.000000" stroke="none" 
	d="
M194.996490,63.023529 
	C194.405151,61.897625 193.813812,60.771721 193.086975,59.359703 
	C194.610580,58.382313 196.236557,57.590714 197.938431,57.029034 
	C199.520462,56.506901 201.183380,56.229881 202.900085,55.470406 
	C202.989471,55.095863 203.466080,55.008457 203.708008,55.016048 
	C205.763702,57.893120 207.577484,60.762600 209.662659,63.827679 
	C209.934067,64.023277 209.989304,64.497490 209.767059,65.038841 
	C205.677536,66.057716 201.810242,66.535248 197.690460,66.824951 
	C196.624161,65.432602 195.810318,64.228065 194.996490,63.023529 
z"/>
<path fill="#099CE1" opacity="1.000000" stroke="none" 
	d="
M281.953979,108.584648 
	C280.134216,110.873199 278.335754,112.796921 276.215088,114.838379 
	C275.919006,113.901596 275.945160,112.847076 275.973053,111.394562 
	C276.647095,108.966515 277.319427,106.936470 278.049866,104.545578 
	C279.291565,100.699486 280.475128,97.214241 281.749878,93.372025 
	C282.860504,89.936554 283.879944,86.858055 284.915649,83.400986 
	C285.443085,81.812340 285.954224,80.602264 286.724274,79.194595 
	C290.358215,78.999107 293.733307,79.001213 297.570129,79.008209 
	C293.552429,87.014893 289.060333,95.009689 284.603607,103.024155 
	C283.661072,104.719109 282.847992,106.486046 281.953979,108.584648 
z"/>
<path fill="#2BACE8" opacity="1.000000" stroke="none" 
	d="
M173.196075,112.356377 
	C175.772079,112.008545 178.472519,112.001839 181.883682,112.189377 
	C183.093826,113.592087 183.593246,114.800552 184.201721,116.348251 
	C185.847214,120.131905 187.383652,123.576324 188.971619,127.373360 
	C189.638596,129.507874 190.254044,131.289764 190.869492,133.071655 
	C187.764816,133.191086 184.660126,133.310501 181.276627,133.725922 
	C180.997803,134.021896 180.520935,134.013931 180.283051,134.012024 
	C179.130371,131.226318 178.215607,128.442490 177.152222,125.330513 
	C176.521011,123.152473 176.038406,121.302605 175.266846,118.924759 
	C174.662567,117.921944 174.347229,117.447105 174.031891,116.972267 
	C174.031891,116.972267 174.020432,116.978378 174.034454,116.966553 
	C173.805817,115.535652 173.563171,114.116577 173.196075,112.356377 
z"/>
<path fill="#1071B8" opacity="1.000000" stroke="none" 
	d="
M77.944672,99.911514 
	C80.437416,95.068359 82.930161,90.225212 85.692818,85.181725 
	C96.781807,83.104866 107.595352,81.195244 118.425110,79.382568 
	C120.358986,79.058884 122.360077,79.136780 124.624519,79.346909 
	C123.604218,81.447021 122.289528,83.229485 120.974831,85.011948 
	C118.724030,87.797623 116.473228,90.583305 114.077995,93.678490 
	C113.132072,94.885124 112.330589,95.782249 110.998878,96.558609 
	C104.670418,97.115814 98.876686,97.835701 93.072578,98.459068 
	C88.036041,98.999985 82.987770,99.431595 77.944672,99.911514 
z"/>
<path fill="#126CB3" opacity="1.000000" stroke="none" 
	d="
M77.680054,100.130531 
	C82.987770,99.431595 88.036041,98.999985 93.072578,98.459068 
	C98.876686,97.835701 104.670418,97.115814 110.744041,96.729111 
	C110.349846,98.127289 109.680275,99.234200 108.657257,100.819199 
	C107.160973,103.190384 106.018127,105.083466 104.598648,107.134193 
	C102.896744,108.881477 101.471466,110.471115 99.792831,111.769882 
	C96.316704,111.835419 93.090767,112.165550 89.871826,112.553726 
	C83.251282,113.352112 76.634476,114.181549 70.016136,114.998207 
	C72.482567,110.115318 74.948997,105.232430 77.680054,100.130531 
z"/>
<path fill="#34ADE7" opacity="1.000000" stroke="none" 
	d="
M104.875290,106.976555 
	C106.018127,105.083466 107.160973,103.190384 108.588043,101.138336 
	C112.240913,101.319298 115.605545,101.869530 118.979424,101.933777 
	C121.766350,101.986839 121.929741,103.161263 121.033279,105.618332 
	C120.997818,105.990044 120.999001,105.999664 120.769516,106.102692 
	C120.265160,106.407906 120.067505,106.668640 119.947067,106.987923 
	C119.467255,107.255653 118.987450,107.523384 117.796959,107.895401 
	C113.015945,107.658646 108.945618,107.317596 104.875290,106.976555 
z"/>
<path fill="#2F9AD9" opacity="1.000000" stroke="none" 
	d="
M197.942947,67.012772 
	C201.810242,66.535248 205.677536,66.057716 209.784271,65.276932 
	C211.467346,67.525566 212.910980,70.077461 214.603241,72.853973 
	C214.851837,73.078583 214.929672,73.545601 214.983398,74.011383 
	C215.037140,74.477158 215.128128,74.935089 215.128128,74.935089 
	C215.121185,75.110359 215.114227,75.285622 214.634140,75.728027 
	C210.119965,75.999893 206.078934,76.004616 201.900925,75.715492 
	C200.908875,74.590996 200.053802,73.760361 199.172180,72.547119 
	C198.744736,70.447273 198.343842,68.730019 197.942947,67.012772 
z"/>
<path fill="#7ACAF0" opacity="1.000000" stroke="none" 
	d="
M329.292480,98.811401 
	C326.158844,98.167831 323.292297,97.330193 320.176758,96.204758 
	C321.737518,92.051544 323.547241,88.186127 325.620941,84.098877 
	C328.661194,84.888680 331.437469,85.900322 334.588623,86.955780 
	C334.323975,88.764359 333.684418,90.529121 332.994629,92.646988 
	C331.816132,94.872520 330.687836,96.744926 329.292480,98.811401 
z"/>
<path fill="#33A3E0" opacity="1.000000" stroke="none" 
	d="
M202.037903,76.009338 
	C206.078934,76.004616 210.119965,75.999893 214.635605,75.991135 
	C216.068283,78.406448 217.026352,80.825798 217.995667,83.622925 
	C214.178787,84.154793 210.350677,84.308884 205.977829,84.554443 
	C204.643250,83.087952 203.853409,81.529999 203.010040,79.631516 
	C202.650330,78.197113 202.344116,77.103226 202.037903,76.009338 
z"/>
<path fill="#7ACAF0" opacity="1.000000" stroke="none" 
	d="
M215.274170,74.843796 
	C215.128128,74.935089 215.037140,74.477158 215.026825,74.244095 
	C215.151062,74.258194 215.285645,74.505356 215.274170,74.843796 
z"/>
<path fill="#099CE1" opacity="1.000000" stroke="none" 
	d="
M105.071030,129.699722 
	C101.967812,130.006226 98.994713,130.218887 96.079185,129.901932 
	C94.702599,129.752243 93.436386,128.587311 92.184006,127.170502 
	C93.835632,123.976738 95.423409,121.494881 97.423401,119.063095 
	C102.199699,119.414696 106.563782,119.716240 110.927872,120.017784 
	C109.026833,123.141411 107.125786,126.265045 105.071030,129.699722 
z"/>
<path fill="#15A6E6" opacity="1.000000" stroke="none" 
	d="
M111.175423,119.865189 
	C106.563782,119.716240 102.199699,119.414696 97.543411,118.747131 
	C98.199821,116.585281 99.148422,114.789459 100.503166,113.053375 
	C105.280983,113.409416 109.652649,113.705727 114.024307,114.002029 
	C113.691650,115.103333 113.358994,116.204636 112.968445,117.650368 
	C112.414696,118.567390 111.918839,119.139992 111.175423,119.865189 
z"/>
<path fill="#298ED3" opacity="1.000000" stroke="none" 
	d="
M168.027786,77.878937 
	C166.302551,78.580612 164.577301,79.282288 162.466492,79.970154 
	C161.889099,79.401855 161.697266,78.847374 161.255646,78.127251 
	C159.109024,73.839592 157.212173,69.717583 155.226151,65.257523 
	C155.405853,64.801117 155.615814,64.615967 155.828964,64.158966 
	C157.080338,63.223312 158.269623,62.492699 159.727478,61.861240 
	C160.262329,62.467861 160.528625,62.975327 161.051147,64.052078 
	C163.191223,67.425270 165.075089,70.229172 167.009308,73.388824 
	C167.382355,75.122704 167.705063,76.500824 168.027786,77.878937 
z"/>
<path fill="#62C9F3" opacity="1.000000" stroke="none" 
	d="
M171.121704,108.193985 
	C171.372910,108.038620 171.631851,108.224884 171.893204,108.757385 
	C171.655701,108.889954 171.400314,108.700615 171.121704,108.193985 
z"/>
<path fill="#5AC0EE" opacity="1.000000" stroke="none" 
	d="
M174.040283,117.275131 
	C174.347229,117.447105 174.662567,117.921944 174.996155,118.698273 
	C174.692490,118.525841 174.370575,118.051918 174.040283,117.275131 
z"/>
<path fill="#099CE1" opacity="1.000000" stroke="none" 
	d="
M275.676331,114.958611 
	C275.917542,115.247986 275.784790,115.529427 275.359009,115.900848 
	C275.245056,115.691429 275.323883,115.344711 275.676331,114.958611 
z"/>
<path fill="#7ACAF0" opacity="1.000000" stroke="none" 
	d="
M126.982727,77.980118 
	C129.443298,75.394104 131.903870,72.808083 134.667084,70.082245 
	C134.990555,70.710449 135.011383,71.478477 135.022797,72.630966 
	C133.527115,76.533157 132.040848,80.050880 130.272400,83.428421 
	C128.987732,81.518867 127.985229,79.749489 126.982727,77.980118 
z"/>
<path fill="#7ACAF0" opacity="1.000000" stroke="none" 
	d="
M135.202042,69.886322 
	C135.128311,69.683357 135.313751,69.373535 135.747665,68.937195 
	C135.817841,69.133606 135.639542,69.456543 135.202042,69.886322 
z"/>
<path fill="#6EC6EB" opacity="1.000000" stroke="none" 
	d="
M126.746208,78.086472 
	C127.985229,79.749489 128.987732,81.518867 129.997559,83.657547 
	C129.517044,85.880035 129.029190,87.733215 128.265350,89.813789 
	C125.703995,88.604752 123.418610,87.168320 121.054031,85.371918 
	C122.289528,83.229485 123.604218,81.447021 125.081833,79.367134 
	C125.666412,78.777420 126.088058,78.485130 126.746208,78.086472 
z"/>
<path fill="#24A9E6" opacity="1.000000" stroke="none" 
	d="
M114.370544,113.946075 
	C109.652649,113.705727 105.280983,113.409416 100.472206,112.821121 
	C100.035095,112.529137 100.046196,112.060760 100.046196,112.060760 
	C101.471466,110.471115 102.896744,108.881477 104.598648,107.134193 
	C108.945618,107.317596 113.015945,107.658646 117.542374,107.999847 
	C116.904572,109.963371 115.810677,111.926750 114.370544,113.946075 
z"/>
<path fill="#48B5E8" opacity="1.000000" stroke="none" 
	d="
M120.180321,106.894012 
	C120.067505,106.668640 120.265160,106.407906 120.765549,106.103165 
	C120.798576,106.267113 120.606079,106.533607 120.180321,106.894012 
z"/>
<path fill="#1366AC" opacity="1.000000" stroke="none" 
	d="
M99.792831,111.769882 
	C100.046196,112.060760 100.035095,112.529137 100.066055,112.761383 
	C99.148422,114.789459 98.199821,116.585281 97.131203,118.697067 
	C95.423409,121.494881 93.835632,123.976738 92.120293,126.787811 
	C91.524040,127.652939 91.055351,128.188858 90.363205,128.880829 
	C80.389603,130.684998 70.639458,132.333099 60.490932,133.990814 
	C63.215721,127.801262 66.338898,121.602127 69.739105,115.200592 
	C76.634476,114.181549 83.251282,113.352112 89.871826,112.553726 
	C93.090767,112.165550 96.316704,111.835419 99.792831,111.769882 
z"/>
<path fill="#156AAF" opacity="1.000000" stroke="none" 
	d="
M191.035553,133.381882 
	C190.254044,131.289764 189.638596,129.507874 189.364838,127.208481 
	C199.444199,126.464256 209.181870,126.237541 218.919525,126.010818 
	C219.282516,127.114868 219.645508,128.218918 220.105087,129.663330 
	C221.432770,133.095352 222.663864,136.186981 223.451538,139.640091 
	C216.208267,140.001038 209.406586,139.909485 202.609558,140.046860 
	C200.056763,140.098450 197.514709,140.681625 194.967758,141.022430 
	C193.712387,138.578995 192.457001,136.135559 191.035553,133.381882 
z"/>
<path fill="#1660A5" opacity="1.000000" stroke="none" 
	d="
M195.022415,141.378479 
	C197.514709,140.681625 200.056763,140.098450 202.609558,140.046860 
	C209.406586,139.909485 216.208267,140.001038 223.469788,140.003601 
	C225.869034,143.784195 227.806610,147.562759 229.847443,151.673553 
	C223.029144,152.004120 216.100861,151.832504 209.190155,152.105408 
	C207.142120,152.186264 205.143524,153.518906 203.040100,154.656189 
	C200.330963,150.601120 197.704010,146.167816 195.022415,141.378479 
z"/>
<path fill="#1484C7" opacity="1.000000" stroke="none" 
	d="
M173.917480,89.053253 
	C173.919479,88.883575 173.921463,88.713898 174.402496,88.277100 
	C185.257126,88.004738 195.632721,87.999496 206.008331,87.994247 
	C207.665802,92.732185 209.323288,97.470123 210.519745,102.602966 
	C201.911713,102.998894 193.763855,102.936653 185.618362,103.048149 
	C183.727783,103.074028 181.845337,103.692322 179.959137,104.038025 
	C178.160675,99.832283 176.362228,95.626549 174.291153,91.193253 
	C174.018539,90.965698 174.000092,90.471817 173.988800,89.992981 
	C173.977493,89.514145 173.917480,89.053253 173.917480,89.053253 
z"/>
<path fill="#147DBF" opacity="1.000000" stroke="none" 
	d="
M179.983459,104.414612 
	C181.845337,103.692322 183.727783,103.074028 185.618362,103.048149 
	C193.763855,102.936653 201.911713,102.998894 210.526764,102.993721 
	C211.670044,104.753090 212.345306,106.516624 213.077316,108.650467 
	C213.764771,111.085838 214.395477,113.150879 214.569305,115.601624 
	C204.105850,115.994553 194.099274,116.001778 184.092682,116.009003 
	C183.593246,114.800552 183.093826,113.592087 182.337479,112.186516 
	C181.389633,109.590004 180.698700,107.190605 179.983459,104.414612 
z"/>
<path fill="#147DBF" opacity="1.000000" stroke="none" 
	d="
M205.999939,87.628204 
	C195.632721,87.999496 185.257126,88.004738 174.405243,88.022583 
	C172.718826,85.902740 171.508698,83.770294 170.649872,81.318161 
	C178.113464,80.998886 185.228134,81.109138 192.336990,80.953568 
	C195.917953,80.875221 199.488373,80.314590 203.063553,79.972046 
	C203.853409,81.529999 204.643250,83.087952 205.690933,84.858276 
	C205.963043,85.801155 205.977295,86.531654 205.999939,87.628204 
z"/>
<path fill="#1574B9" opacity="1.000000" stroke="none" 
	d="
M184.201721,116.348251 
	C194.099274,116.001778 204.105850,115.994553 214.587402,115.972595 
	C216.281464,119.076279 217.500565,122.194672 218.819595,125.661942 
	C209.181870,126.237541 199.444199,126.464256 189.313324,126.855865 
	C187.383652,123.576324 185.847214,120.131905 184.201721,116.348251 
z"/>
<path fill="#136EAC" opacity="1.000000" stroke="none" 
	d="
M166.958954,73.033066 
	C165.075089,70.229172 163.191223,67.425270 161.176086,64.310760 
	C172.163666,63.868420 183.282501,63.736698 194.698914,63.314251 
	C195.810318,64.228065 196.624161,65.432602 197.690460,66.824951 
	C198.343842,68.730019 198.744736,70.447273 198.681793,72.572067 
	C187.798279,72.997437 177.378616,73.015251 166.958954,73.033066 
z"/>
<path fill="#1574B9" opacity="1.000000" stroke="none" 
	d="
M167.009308,73.388824 
	C177.378616,73.015251 187.798279,72.997437 198.708344,72.954666 
	C200.053802,73.760361 200.908875,74.590996 201.900909,75.715485 
	C202.344116,77.103226 202.650330,78.197113 203.010040,79.631516 
	C199.488373,80.314590 195.917953,80.875221 192.336990,80.953568 
	C185.228134,81.109138 178.113464,80.998886 170.541199,80.996628 
	C169.565063,80.082085 169.048920,79.169380 168.280273,78.067802 
	C167.705063,76.500824 167.382355,75.122704 167.009308,73.388824 
z"/>
<path fill="#34ADE7" opacity="1.000000" stroke="none" 
	d="
M173.765167,89.138657 
	C173.917480,89.053253 173.977493,89.514145 173.975281,89.746246 
	C173.852982,89.726913 173.732925,89.475487 173.765167,89.138657 
z"/>
</svg>