<svg version="1.1" id="Layer_1" xmlns="http://www.w3.org/2000/svg" xmlns:xlink="http://www.w3.org/1999/xlink" x="0px" y="0px"
	 width="100%" viewBox="0 0 1200 1200" enable-background="new 0 0 1200 1200" xml:space="preserve">
<path fill="#6D429C" opacity="1.000000" stroke="none" 
	d="
M633.000000,1201.000000 
	C611.645752,1201.000000 590.291565,1201.000000 568.196594,1200.676636 
	C545.760254,1197.914551 523.996277,1195.962158 502.384094,1192.929077 
	C465.124054,1187.699707 428.967010,1177.725586 393.782166,1164.607544 
	C291.089478,1126.320190 204.849762,1064.806519 135.437363,979.903320 
	C88.644798,922.668030 53.720543,858.884827 30.644100,788.647095 
	C15.994830,744.059082 6.439068,698.429810 2.965180,651.572083 
	C2.529731,645.698486 1.665542,639.856567 1.000002,634.000000 
	C1.000000,612.645752 1.000000,591.291565 1.166188,569.090332 
	C1.550092,567.450684 1.887601,566.670044 1.967878,565.863770 
	C3.657431,548.894897 5.023373,531.887817 7.051628,514.959961 
	C10.278594,488.027710 16.358734,461.664612 23.829058,435.606018 
	C47.196865,354.092560 86.162071,280.878357 140.535233,215.826096 
	C141.453812,214.727112 141.536697,212.929672 141.986267,211.314392 
	C141.962997,211.170654 142.168991,210.964310 142.168991,210.964310 
	C142.168991,210.964310 142.456787,211.010239 142.758530,211.379761 
	C144.025620,210.469833 144.990967,209.190369 145.969589,207.947479 
	C145.982864,207.984055 145.909058,207.959381 146.262665,208.089996 
	C146.736969,207.782379 146.857681,207.344147 146.986267,206.951965 
	C146.994125,206.998032 146.901703,207.011902 147.384735,206.911423 
	C147.915207,206.026382 147.962646,205.241806 148.048874,204.239395 
	C148.544006,203.684448 149.000366,203.347366 149.762787,203.378693 
	C151.028488,202.469254 151.988129,201.191406 152.970551,199.953522 
	C152.993362,199.993484 152.921005,199.936600 153.243683,200.166626 
	C154.036880,199.566757 154.507370,198.736862 154.981049,197.946564 
	C154.984238,197.986176 154.904785,197.986023 155.249023,198.018860 
	C155.729721,197.644516 155.866180,197.237335 156.094452,196.507080 
	C162.433975,190.116348 168.681671,184.048676 175.169037,177.884277 
	C175.598495,177.508163 175.788300,177.228760 175.988922,176.974701 
	C175.999756,177.000046 175.949280,176.977875 176.185547,176.880371 
	C176.607086,176.504959 176.792389,176.227020 176.988846,175.974457 
	C177.000015,175.999802 176.949051,175.978073 177.187683,175.877121 
	C177.611008,175.492386 177.795700,175.208588 178.121857,174.636169 
	C179.819763,172.892990 181.376221,171.438446 183.301880,169.996796 
	C185.655334,171.381653 187.906555,172.486374 189.585602,174.163834 
	C281.942139,266.434265 374.246857,358.756653 466.596893,451.033630 
	C468.175079,452.610565 470.242554,453.697754 472.179077,455.472961 
	C472.992584,518.163025 470.526093,580.427795 474.079865,643.387695 
	C471.783356,639.632751 469.811615,636.285339 467.723328,633.012390 
	C411.210663,544.440186 354.690674,455.872711 298.150574,367.318024 
	C295.113861,362.561829 292.870178,356.124420 288.480377,353.737122 
	C284.082153,351.345245 277.455322,352.994110 271.804932,352.974060 
	C260.358978,352.933472 248.912796,352.961945 237.431793,352.961945 
	C237.431793,467.187775 237.431793,580.874939 237.431793,694.530640 
	C250.758514,694.530640 263.681091,694.530640 277.136200,694.530640 
	C276.449646,596.562622 277.899750,498.895782 276.304260,401.141846 
	C276.813812,402.032745 277.435120,403.066681 278.006927,404.127319 
	C281.555115,410.708893 284.760712,417.502563 288.700928,423.839783 
	C297.316010,437.695892 306.298584,451.323608 315.137512,465.040466 
	C363.570068,540.201416 412.024933,615.347900 460.367432,690.566711 
	C462.403809,693.735168 464.473053,695.022522 468.315277,694.940186 
	C481.141418,694.665100 493.977081,694.835999 506.809113,694.835999 
	C508.428864,694.835999 510.048615,694.835999 512.210693,694.835999 
	C512.210693,692.339050 512.210754,690.386292 512.210754,688.433533 
	C512.210754,626.939819 512.208008,565.446106 512.223083,503.952393 
	C512.223572,501.962738 512.405945,499.973175 512.815491,498.040649 
	C514.486877,499.301056 515.913879,500.436829 517.195923,501.717651 
	C543.516846,528.011780 569.811157,554.332642 596.158325,580.600403 
	C597.508728,581.946777 599.285645,582.865417 600.931580,584.448608 
	C600.999146,621.450684 600.999146,657.987305 600.999146,694.836060 
	C603.706543,694.836060 605.681152,694.833252 607.655823,694.836426 
	C642.437439,694.892334 677.219116,694.948975 712.029663,695.350586 
	C713.417358,697.342407 714.650879,699.114258 716.153076,700.617737 
	C765.466797,749.974976 814.806274,799.306458 864.141785,848.641907 
	C918.893616,903.393677 973.656250,958.134705 1028.343262,1012.951111 
	C1029.972534,1014.584167 1030.808228,1017.009033 1031.869873,1019.361206 
	C1019.884094,1031.102783 1008.042175,1042.547852 995.844238,1053.963379 
	C995.331055,1054.321045 995.173889,1054.708374 995.016174,1055.056396 
	C995.015564,1055.016968 995.094116,1055.022949 994.720825,1054.954590 
	C994.245544,1055.287598 994.143616,1055.688965 994.026489,1056.052124 
	C994.011292,1056.013794 994.083191,1056.054077 993.722778,1055.850220 
	C992.604431,1056.785645 991.846497,1057.925049 991.058289,1059.048584 
	C991.027954,1059.032715 991.057190,1059.094727 990.820801,1058.747070 
	C988.420166,1060.620605 986.255981,1062.841797 984.064209,1065.051392 
	C984.036743,1065.039795 984.054688,1065.096680 983.829102,1064.739502 
	C982.334717,1065.148804 980.951111,1065.774536 979.813538,1066.702148 
	C931.111633,1106.414795 877.501953,1137.730713 818.939026,1160.496460 
	C764.904785,1181.501465 709.058960,1194.732178 651.168701,1199.035522 
	C645.097351,1199.486938 639.055542,1200.335693 633.000000,1201.000000 
M818.530640,853.055725 
	C814.800110,845.888306 812.344971,837.570740 807.107178,831.762634 
	C789.228699,811.938232 753.551575,814.451538 736.249573,835.760315 
	C723.280884,851.732361 720.149658,870.143738 722.664856,889.835632 
	C724.418030,903.561401 729.837708,915.673096 740.374939,925.197876 
	C758.188721,941.300049 792.946289,938.386047 810.388428,926.790222 
	C811.365417,926.140625 812.438477,924.802185 812.489868,923.737122 
	C812.717712,919.018921 812.588501,914.283508 812.588501,908.658569 
	C800.131287,918.052917 787.031494,921.982300 772.508118,921.056763 
	C753.733765,919.860229 738.431824,900.523193 742.305298,882.169922 
	C755.137756,882.169922 768.093994,882.169983 781.050171,882.169983 
	C794.150269,882.169983 807.250305,882.169922 821.583618,882.169922 
	C820.603271,872.228271 819.696289,863.031372 818.530640,853.055725 
M403.202545,923.315552 
	C430.527313,941.499512 459.063019,939.680481 488.105225,928.313904 
	C489.302094,927.845398 490.666718,926.054871 490.749176,924.801086 
	C491.060577,920.068542 490.874268,915.303284 490.874268,909.770691 
	C476.136963,918.295044 460.767792,921.111328 444.678223,920.110840 
	C427.502258,919.042908 413.816467,911.513489 403.959625,897.279236 
	C394.624115,883.797852 392.350281,868.678101 392.668243,852.614807 
	C393.493469,810.923462 427.955627,782.978760 468.711151,791.657593 
	C476.226349,793.257996 483.473572,796.116882 491.071564,798.465088 
	C491.071564,794.000671 490.781372,789.484924 491.162689,785.026672 
	C491.472046,781.410156 489.850952,780.125305 486.764191,779.094971 
	C473.931366,774.811646 460.735779,773.364197 447.342590,774.260681 
	C424.027679,775.821228 404.738434,785.482422 390.322571,804.093384 
	C376.846771,821.490662 372.001190,841.508362 373.087616,863.194397 
	C374.298187,887.359314 383.082428,907.797913 403.202545,923.315552 
M621.893005,858.813416 
	C617.309875,841.036804 607.885193,827.370972 589.969727,820.704041 
	C580.629395,817.228271 570.946777,817.110779 561.368042,818.177979 
	C545.443481,819.952087 532.232422,826.985901 522.970520,840.529297 
	C511.776703,856.897705 510.707947,875.086853 514.167908,893.721741 
	C518.140625,915.117920 535.377380,932.279236 556.692444,935.608704 
	C579.681702,939.199829 599.262146,932.814331 613.026733,912.906067 
	C624.309326,896.587585 624.729187,878.370789 621.893005,858.813416 
M651.992676,918.496216 
	C651.992676,923.573486 651.992676,928.650818 651.992676,933.491089 
	C658.761353,933.491089 664.664429,933.491089 670.859497,933.491089 
	C670.859497,931.437622 670.860168,929.789490 670.859375,928.141296 
	C670.850952,910.154297 670.931213,892.166687 670.798218,874.180603 
	C670.726013,864.410339 673.165100,855.414062 678.299561,847.161682 
	C682.991699,839.620361 689.932251,835.754028 698.763794,836.089600 
	C702.768311,836.241760 706.726624,837.610046 710.942627,838.475220 
	C710.942627,833.640015 711.183167,828.799194 710.792725,824.009827 
	C710.678955,822.614258 708.955566,820.471802 707.644775,820.191223 
	C697.366516,817.991272 687.986816,820.035950 680.703247,827.943542 
	C677.073303,831.884277 674.302612,836.616577 670.833618,841.419434 
	C670.833618,834.720642 670.833618,828.220093 670.833618,821.472534 
	C664.349915,821.472534 658.446167,821.472534 651.992676,821.472534 
	C651.992676,853.648682 651.992676,885.573303 651.992676,918.496216 
M156.921921,652.531006 
	C147.725998,645.088379 137.637375,643.525818 127.259834,649.298767 
	C117.428131,654.768005 112.602051,663.688049 113.378403,674.989014 
	C114.142670,686.114136 121.817810,695.236389 132.201294,698.354065 
	C143.762863,701.825439 156.398666,696.799316 162.744675,686.204834 
	C169.065399,675.652527 167.005447,662.756287 156.921921,652.531006 
z"/>
<path fill="#5C2D91" opacity="1.000000" stroke="none" 
	d="
M472.081726,455.013489 
	C470.242554,453.697754 468.175079,452.610565 466.596893,451.033630 
	C374.246857,358.756653 281.942139,266.434265 189.585602,174.163834 
	C187.906555,172.486374 185.655334,171.381653 183.436218,169.686707 
	C186.738419,166.138565 190.213150,162.841690 193.823929,159.701263 
	C206.268723,148.877518 218.186630,137.338120 231.373917,127.504417 
	C249.775452,113.782463 268.909607,100.998764 288.147797,88.453926 
	C313.203888,72.115356 340.067413,59.009159 367.555420,47.397015 
	C397.189362,34.878345 427.634308,24.471888 459.116699,17.519943 
	C475.118744,13.986364 491.204102,10.720772 507.375488,8.096169 
	C521.312500,5.834201 535.428711,4.683599 549.450684,2.921481 
	C550.366516,2.806385 551.153198,1.664349 552.000000,1.000001 
	C584.354248,1.000000 616.708435,1.000000 649.472900,1.427646 
	C650.890137,2.236298 651.871826,2.849817 652.908142,2.962991 
	C665.831848,4.374310 678.921265,4.869720 691.658447,7.254558 
	C714.681580,11.565279 737.615356,16.504028 760.368042,22.072760 
	C792.155029,29.852669 822.737793,41.404118 852.327576,55.227539 
	C888.015442,71.899803 922.086487,91.492760 953.893311,114.920189 
	C976.496948,131.569000 998.273804,149.206741 1018.211060,168.933212 
	C1032.200562,182.775040 1045.762573,197.152283 1058.413452,212.216049 
	C1072.027832,228.427322 1085.026733,245.255844 1097.049072,262.674408 
	C1108.220215,278.859467 1118.109985,295.970367 1127.921509,313.042847 
	C1143.196655,339.622223 1155.854370,367.525940 1165.803833,396.479095 
	C1173.359863,418.467224 1179.676514,440.927155 1185.512085,463.444733 
	C1189.575562,479.124420 1192.322876,495.189087 1194.849121,511.209320 
	C1196.869629,524.021545 1197.642456,537.029175 1199.089233,549.936646 
	C1199.173340,550.686401 1200.338013,551.315063 1201.000000,552.000000 
	C1201.000000,584.354248 1201.000000,616.708435 1200.573486,649.470825 
	C1199.765137,650.885742 1199.150269,651.867126 1199.037231,652.903259 
	C1197.625854,665.827454 1197.088867,678.906555 1194.751099,691.656860 
	C1190.766968,713.387085 1186.099365,735.017090 1180.929688,756.499329 
	C1172.722290,790.604614 1160.407837,823.343689 1145.321289,854.955322 
	C1136.950684,872.494568 1127.820190,889.735229 1117.969238,906.485352 
	C1108.680054,922.280334 1098.448486,937.578125 1087.792969,952.495728 
	C1078.346069,965.721252 1068.003784,978.338379 1057.573608,990.820374 
	C1049.437988,1000.556335 1040.561157,1009.672913 1032.013672,1019.064697 
	C1030.808228,1017.009033 1029.972534,1014.584167 1028.343262,1012.951111 
	C973.656250,958.134705 918.893616,903.393677 864.141785,848.641907 
	C814.806274,799.306458 765.466797,749.974976 716.153076,700.617737 
	C714.650879,699.114258 713.417358,697.342407 712.493530,695.277771 
	C736.035889,694.859863 759.143311,694.859863 782.583008,694.859863 
	C782.583008,682.062317 782.583008,669.845215 782.583008,657.170288 
	C780.540894,657.170288 778.746582,657.170227 776.952271,657.170227 
	C753.294373,657.170227 729.636353,657.197815 705.978516,657.158386 
	C694.322754,657.138977 682.667236,656.995789 670.973755,656.570007 
	C661.819763,646.934998 652.708679,637.633423 643.564392,628.364685 
	C643.269043,628.065247 642.633667,628.101257 642.074280,627.519775 
	C641.991760,597.782959 641.991760,568.507263 641.991760,538.742798 
	C683.231812,538.742798 723.973450,538.742798 764.804993,538.742798 
	C764.804993,526.531982 764.804993,514.816040 764.804993,502.616943 
	C723.702148,502.616943 682.957825,502.616943 642.269409,502.616943 
	C642.269409,464.551544 642.269409,426.975647 642.269409,388.930756 
	C686.344360,388.930756 730.085571,388.930756 773.834717,388.930756 
	C773.834717,376.729462 773.834717,365.002472 773.834717,353.271851 
	C716.103149,353.271851 658.703064,353.271851 600.997803,353.271851 
	C600.997803,355.385864 600.997803,357.193115 600.997803,359.000397 
	C600.997803,414.331238 601.009277,469.662079 600.991699,524.992920 
	C600.985413,544.656311 600.908630,564.319763 600.864014,583.983154 
	C599.285645,582.865417 597.508728,581.946777 596.158325,580.600403 
	C569.811157,554.332642 543.516846,528.011780 517.195923,501.717651 
	C515.913879,500.436829 514.486877,499.301056 512.714478,497.582550 
	C512.301575,449.177368 512.301575,401.287415 512.301575,353.334595 
	C498.650879,353.334595 485.625549,353.334595 472.277069,353.334595 
	C472.277069,355.678619 472.280518,357.653381 472.276520,359.628143 
	C472.212128,391.423248 472.146851,423.218384 472.081726,455.013489 
M956.630127,389.072815 
	C988.031677,389.072815 1019.433289,389.072815 1050.617188,389.072815 
	C1050.617188,376.560272 1050.617188,364.824890 1050.617188,353.181396 
	C971.455200,353.181396 892.678772,353.181396 813.624695,353.181396 
	C813.624695,365.136719 813.624695,376.875000 813.624695,389.255188 
	C846.415771,389.255188 878.944580,389.255188 912.008911,389.255188 
	C912.008911,491.433472 912.008911,592.971130 912.008911,694.522949 
	C925.461548,694.522949 938.365356,694.522949 951.726929,694.522949 
	C951.726929,692.240662 951.726868,690.276733 951.726868,688.312805 
	C951.726868,616.995117 951.726868,545.677368 951.726868,474.359680 
	C951.726868,447.532227 951.747498,420.704742 951.697266,393.877380 
	C951.691895,391.015686 951.494446,388.335602 956.630127,389.072815 
z"/>
<path fill="#000000" opacity="1.000000" stroke="none" 
	d="
M1201.000000,551.531372 
	C1200.338013,551.315063 1199.173340,550.686401 1199.089233,549.936646 
	C1197.642456,537.029175 1196.869629,524.021545 1194.849121,511.209320 
	C1192.322876,495.189087 1189.575562,479.124420 1185.512085,463.444733 
	C1179.676514,440.927155 1173.359863,418.467224 1165.803833,396.479095 
	C1155.854370,367.525940 1143.196655,339.622223 1127.921509,313.042847 
	C1118.109985,295.970367 1108.220215,278.859467 1097.049072,262.674408 
	C1085.026733,245.255844 1072.027832,228.427322 1058.413452,212.216049 
	C1045.762573,197.152283 1032.200562,182.775040 1018.211060,168.933212 
	C998.273804,149.206741 976.496948,131.569000 953.893311,114.920189 
	C922.086487,91.492760 888.015442,71.899803 852.327576,55.227539 
	C822.737793,41.404118 792.155029,29.852669 760.368042,22.072760 
	C737.615356,16.504028 714.681580,11.565279 691.658447,7.254558 
	C678.921265,4.869720 665.831848,4.374310 652.908142,2.962991 
	C651.871826,2.849817 650.890137,2.236298 649.941528,1.427646 
	C833.593750,1.000000 1017.187500,1.000000 1201.000000,1.000000 
	C1201.000000,184.354172 1201.000000,367.708435 1201.000000,551.531372 
z"/>
<path fill="#000000" opacity="1.000000" stroke="none" 
	d="
M1031.869873,1019.361206 
	C1040.561157,1009.672913 1049.437988,1000.556335 1057.573608,990.820374 
	C1068.003784,978.338379 1078.346069,965.721252 1087.792969,952.495728 
	C1098.448486,937.578125 1108.680054,922.280334 1117.969238,906.485352 
	C1127.820190,889.735229 1136.950684,872.494568 1145.321289,854.955322 
	C1160.407837,823.343689 1172.722290,790.604614 1180.929688,756.499329 
	C1186.099365,735.017090 1190.766968,713.387085 1194.751099,691.656860 
	C1197.088867,678.906555 1197.625854,665.827454 1199.037231,652.903259 
	C1199.150269,651.867126 1199.765137,650.885742 1200.573486,649.939453 
	C1201.000000,833.587830 1201.000000,1017.175598 1201.000000,1201.000000 
	C1045.312500,1201.000000 889.624939,1201.000000 733.171509,1200.657471 
	C732.892090,1199.890991 733.312927,1199.238281 733.874695,1199.077026 
	C744.502197,1196.028442 755.210144,1193.245361 765.774902,1189.996216 
	C798.153076,1180.038086 829.439880,1167.353027 859.246643,1151.229736 
	C875.620544,1142.372559 892.102966,1133.578857 907.713013,1123.483154 
	C925.583008,1111.925903 942.764465,1099.256226 959.798828,1086.475098 
	C968.392761,1080.026855 976.000854,1072.264648 984.054688,1065.096680 
	C984.054688,1065.096680 984.036743,1065.039795 984.408569,1065.021729 
	C986.872681,1063.034058 988.964905,1061.064331 991.057129,1059.094727 
	C991.057190,1059.094727 991.027954,1059.032715 991.352417,1058.947144 
	C992.479004,1057.925781 993.281128,1056.989868 994.083191,1056.054077 
	C994.083191,1056.054077 994.011292,1056.013794 994.289307,1055.977417 
	C994.742920,1055.635010 994.918457,1055.328979 995.094116,1055.022949 
	C995.094116,1055.022949 995.015564,1055.016968 995.293213,1054.977173 
	C995.780701,1054.622559 995.990479,1054.307739 996.200317,1053.992920 
	C1008.042175,1042.547852 1019.884094,1031.102783 1031.869873,1019.361206 
z"/>
<path fill="#000000" opacity="1.000000" stroke="none" 
	d="
M551.531372,1.000001 
	C551.153198,1.664349 550.366516,2.806385 549.450684,2.921481 
	C535.428711,4.683599 521.312500,5.834201 507.375488,8.096169 
	C491.204102,10.720772 475.118744,13.986364 459.116699,17.519943 
	C427.634308,24.471888 397.189362,34.878345 367.555420,47.397015 
	C340.067413,59.009159 313.203888,72.115356 288.147797,88.453926 
	C268.909607,100.998764 249.775452,113.782463 231.373917,127.504417 
	C218.186630,137.338120 206.268723,148.877518 193.823929,159.701263 
	C190.213150,162.841690 186.738419,166.138565 183.067001,169.673813 
	C181.376221,171.438446 179.819763,172.892990 177.877167,174.729828 
	C177.310364,175.400787 177.129715,175.689438 176.949051,175.978073 
	C176.949051,175.978073 177.000015,175.999802 176.744247,176.060883 
	C176.308746,176.407257 176.129013,176.692566 175.949280,176.977875 
	C175.949280,176.977875 175.999756,177.000046 175.742935,177.062469 
	C175.300522,177.410248 175.114929,177.695618 174.929352,177.980988 
	C168.681671,184.048676 162.433975,190.116348 155.827026,196.609253 
	C155.280106,197.351654 155.092438,197.668839 154.904785,197.986023 
	C154.904785,197.986023 154.984238,197.986176 154.690826,198.035187 
	C153.905273,198.701660 153.413147,199.319138 152.921005,199.936600 
	C152.921005,199.936600 152.993362,199.993484 152.654694,200.069626 
	C151.362915,201.100601 150.409805,202.055435 149.456711,203.010269 
	C149.000366,203.347366 148.544006,203.684448 147.799606,204.508011 
	C147.308273,205.666946 147.104996,206.339432 146.901703,207.011902 
	C146.901703,207.011902 146.994125,206.998032 146.721817,207.023392 
	C146.269363,207.352295 146.089218,207.655838 145.909058,207.959381 
	C145.909058,207.959381 145.982864,207.984055 145.652466,208.062653 
	C144.366974,209.097565 143.411880,210.053894 142.456787,211.010239 
	C142.456787,211.010239 142.168991,210.964310 142.168991,210.964310 
	C142.168991,210.964310 141.962997,211.170654 141.741608,211.577576 
	C135.214005,219.290527 128.628174,226.376328 122.662575,233.950653 
	C111.841843,247.689270 101.059219,261.480774 90.856606,275.678436 
	C71.961754,301.971924 55.734882,329.918701 42.368511,359.390472 
	C33.585350,378.756653 25.466074,398.474243 18.137695,418.433990 
	C12.241462,434.493164 7.993100,451.156494 2.929468,467.525726 
	C2.734547,468.155792 1.663036,468.514709 0.999997,469.000000 
	C1.000000,313.066986 1.000000,157.133972 1.000000,1.000000 
	C184.354172,1.000000 367.708435,1.000000 551.531372,1.000001 
z"/>
<path fill="#000000" opacity="1.000000" stroke="none" 
	d="
M436.000000,1201.000000 
	C291.071716,1201.000000 146.143433,1201.000000 1.000000,1201.000000 
	C1.000000,1056.310059 1.000000,911.620056 1.343037,766.167542 
	C2.119213,766.058533 2.754431,766.655762 2.954631,767.374268 
	C5.280181,775.720093 7.016009,784.271057 9.917923,792.407532 
	C17.875484,814.719116 25.334774,837.288879 34.837791,858.946228 
	C44.562916,881.109741 55.359386,902.979309 67.745331,923.750061 
	C80.439980,945.038452 95.060188,965.263855 109.908165,985.155396 
	C121.416824,1000.573181 134.150482,1015.147217 147.134827,1029.370361 
	C157.293533,1040.498169 168.533371,1050.660645 179.552719,1060.974487 
	C188.057526,1068.934814 196.497635,1077.088989 205.793854,1084.052490 
	C223.883316,1097.602905 242.337143,1110.696533 261.035065,1123.397827 
	C286.895172,1140.964600 314.633636,1155.172485 343.248474,1167.702393 
	C372.821350,1180.651611 403.189423,1191.260864 434.527283,1199.073608 
	C435.140198,1199.226318 435.514404,1200.336548 436.000000,1201.000000 
z"/>
<path fill="#FFFEFF" opacity="1.000000" stroke="none" 
	d="
M436.468658,1201.000000 
	C435.514404,1200.336548 435.140198,1199.226318 434.527283,1199.073608 
	C403.189423,1191.260864 372.821350,1180.651611 343.248474,1167.702393 
	C314.633636,1155.172485 286.895172,1140.964600 261.035065,1123.397827 
	C242.337143,1110.696533 223.883316,1097.602905 205.793854,1084.052490 
	C196.497635,1077.088989 188.057526,1068.934814 179.552719,1060.974487 
	C168.533371,1050.660645 157.293533,1040.498169 147.134827,1029.370361 
	C134.150482,1015.147217 121.416824,1000.573181 109.908165,985.155396 
	C95.060188,965.263855 80.439980,945.038452 67.745331,923.750061 
	C55.359386,902.979309 44.562916,881.109741 34.837791,858.946228 
	C25.334774,837.288879 17.875484,814.719116 9.917923,792.407532 
	C7.016009,784.271057 5.280181,775.720093 2.954631,767.374268 
	C2.754431,766.655762 2.119213,766.058533 1.343037,765.702515 
	C1.000000,722.312439 1.000000,678.624878 1.000002,634.468628 
	C1.665542,639.856567 2.529731,645.698486 2.965180,651.572083 
	C6.439068,698.429810 15.994830,744.059082 30.644100,788.647095 
	C53.720543,858.884827 88.644798,922.668030 135.437363,979.903320 
	C204.849762,1064.806519 291.089478,1126.320190 393.782166,1164.607544 
	C428.967010,1177.725586 465.124054,1187.699707 502.384094,1192.929077 
	C523.996277,1195.962158 545.760254,1197.914551 567.727905,1200.676636 
	C524.312439,1201.000000 480.624878,1201.000000 436.468658,1201.000000 
z"/>
<path fill="#FEFDFE" opacity="1.000000" stroke="none" 
	d="
M0.999997,469.468658 
	C1.663036,468.514709 2.734547,468.155792 2.929468,467.525726 
	C7.993100,451.156494 12.241462,434.493164 18.137695,418.433990 
	C25.466074,398.474243 33.585350,378.756653 42.368511,359.390472 
	C55.734882,329.918701 71.961754,301.971924 90.856606,275.678436 
	C101.059219,261.480774 111.841843,247.689270 122.662575,233.950653 
	C128.628174,226.376328 135.214005,219.290527 141.764893,211.721313 
	C141.536697,212.929672 141.453812,214.727112 140.535233,215.826096 
	C86.162071,280.878357 47.196865,354.092560 23.829058,435.606018 
	C16.358734,461.664612 10.278594,488.027710 7.051628,514.959961 
	C5.023373,531.887817 3.657431,548.894897 1.967878,565.863770 
	C1.887601,566.670044 1.550092,567.450684 1.166188,568.621643 
	C1.000000,535.979126 1.000000,502.958221 0.999997,469.468658 
z"/>
<path fill="#FEFEFE" opacity="1.000000" stroke="none" 
	d="
M983.829102,1064.739502 
	C976.000854,1072.264648 968.392761,1080.026855 959.798828,1086.475098 
	C942.764465,1099.256226 925.583008,1111.925903 907.713013,1123.483154 
	C892.102966,1133.578857 875.620544,1142.372559 859.246643,1151.229736 
	C829.439880,1167.353027 798.153076,1180.038086 765.774902,1189.996216 
	C755.210144,1193.245361 744.502197,1196.028442 733.874695,1199.077026 
	C733.312927,1199.238281 732.892090,1199.890991 732.702820,1200.657471 
	C699.979126,1201.000000 666.958191,1201.000000 633.468628,1201.000000 
	C639.055542,1200.335693 645.097351,1199.486938 651.168701,1199.035522 
	C709.058960,1194.732178 764.904785,1181.501465 818.939026,1160.496460 
	C877.501953,1137.730713 931.111633,1106.414795 979.813538,1066.702148 
	C980.951111,1065.774536 982.334717,1065.148804 983.829102,1064.739502 
z"/>
<path fill="#FEFEFE" opacity="1.000000" stroke="none" 
	d="
M472.179077,455.472961 
	C472.146851,423.218384 472.212128,391.423248 472.276520,359.628143 
	C472.280518,357.653381 472.277069,355.678619 472.277069,353.334595 
	C485.625549,353.334595 498.650879,353.334595 512.301575,353.334595 
	C512.301575,401.287415 512.301575,449.177368 512.402588,497.525452 
	C512.405945,499.973175 512.223572,501.962738 512.223083,503.952393 
	C512.208008,565.446106 512.210754,626.939819 512.210754,688.433533 
	C512.210754,690.386292 512.210693,692.339050 512.210693,694.835999 
	C510.048615,694.835999 508.428864,694.835999 506.809113,694.835999 
	C493.977081,694.835999 481.141418,694.665100 468.315277,694.940186 
	C464.473053,695.022522 462.403809,693.735168 460.367432,690.566711 
	C412.024933,615.347900 363.570068,540.201416 315.137512,465.040466 
	C306.298584,451.323608 297.316010,437.695892 288.700928,423.839783 
	C284.760712,417.502563 281.555115,410.708893 278.006927,404.127319 
	C277.435120,403.066681 276.813812,402.032745 276.304260,401.141846 
	C277.899750,498.895782 276.449646,596.562622 277.136200,694.530640 
	C263.681091,694.530640 250.758514,694.530640 237.431793,694.530640 
	C237.431793,580.874939 237.431793,467.187775 237.431793,352.961945 
	C248.912796,352.961945 260.358978,352.933472 271.804932,352.974060 
	C277.455322,352.994110 284.082153,351.345245 288.480377,353.737122 
	C292.870178,356.124420 295.113861,362.561829 298.150574,367.318024 
	C354.690674,455.872711 411.210663,544.440186 467.723328,633.012390 
	C469.811615,636.285339 471.783356,639.632751 474.079865,643.387695 
	C470.526093,580.427795 472.992584,518.163025 472.179077,455.472961 
z"/>
<path fill="#FEFEFE" opacity="1.000000" stroke="none" 
	d="
M600.931580,584.448608 
	C600.908630,564.319763 600.985413,544.656311 600.991699,524.992920 
	C601.009277,469.662079 600.997803,414.331238 600.997803,359.000397 
	C600.997803,357.193115 600.997803,355.385864 600.997803,353.271851 
	C658.703064,353.271851 716.103149,353.271851 773.834717,353.271851 
	C773.834717,365.002472 773.834717,376.729462 773.834717,388.930756 
	C730.085571,388.930756 686.344360,388.930756 642.269409,388.930756 
	C642.269409,426.975647 642.269409,464.551544 642.269409,502.616943 
	C682.957825,502.616943 723.702148,502.616943 764.804993,502.616943 
	C764.804993,514.816040 764.804993,526.531982 764.804993,538.742798 
	C723.973450,538.742798 683.231812,538.742798 641.991760,538.742798 
	C641.991760,568.507263 641.991760,597.782959 641.981445,627.981812 
	C641.971191,638.266418 641.971191,647.627869 641.971191,656.908630 
	C652.157043,656.908630 661.584351,656.908630 671.011597,656.908569 
	C682.667236,656.995789 694.322754,657.138977 705.978516,657.158386 
	C729.636353,657.197815 753.294373,657.170227 776.952271,657.170227 
	C778.746582,657.170227 780.540894,657.170288 782.583008,657.170288 
	C782.583008,669.845215 782.583008,682.062317 782.583008,694.859863 
	C759.143311,694.859863 736.035889,694.859863 712.464600,694.932617 
	C677.219116,694.948975 642.437439,694.892334 607.655823,694.836426 
	C605.681152,694.833252 603.706543,694.836060 600.999146,694.836060 
	C600.999146,657.987305 600.999146,621.450684 600.931580,584.448608 
z"/>
<path fill="#F0EFF1" opacity="1.000000" stroke="none" 
	d="
M818.660034,853.445068 
	C819.696289,863.031372 820.603271,872.228271 821.583618,882.169922 
	C807.250305,882.169922 794.150269,882.169983 781.050171,882.169983 
	C768.093994,882.169983 755.137756,882.169922 742.305298,882.169922 
	C738.431824,900.523193 753.733765,919.860229 772.508118,921.056763 
	C787.031494,921.982300 800.131287,918.052917 812.588501,908.658569 
	C812.588501,914.283508 812.717712,919.018921 812.489868,923.737122 
	C812.438477,924.802185 811.365417,926.140625 810.388428,926.790222 
	C792.946289,938.386047 758.188721,941.300049 740.374939,925.197876 
	C729.837708,915.673096 724.418030,903.561401 722.664856,889.835632 
	C720.149658,870.143738 723.280884,851.732361 736.249573,835.760315 
	C753.551575,814.451538 789.228699,811.938232 807.107178,831.762634 
	C812.344971,837.570740 814.800110,845.888306 818.660034,853.445068 
M774.500000,867.064880 
	C783.583740,867.064880 792.667480,867.064880 801.687256,867.064880 
	C803.044128,848.117371 791.083618,834.067993 774.316833,834.167969 
	C757.199890,834.270020 740.860596,850.807312 742.198975,867.064941 
	C752.609985,867.064941 763.054993,867.064941 774.500000,867.064880 
z"/>
<path fill="#F0EFF1" opacity="1.000000" stroke="none" 
	d="
M402.903381,923.118652 
	C383.082428,907.797913 374.298187,887.359314 373.087616,863.194397 
	C372.001190,841.508362 376.846771,821.490662 390.322571,804.093384 
	C404.738434,785.482422 424.027679,775.821228 447.342590,774.260681 
	C460.735779,773.364197 473.931366,774.811646 486.764191,779.094971 
	C489.850952,780.125305 491.472046,781.410156 491.162689,785.026672 
	C490.781372,789.484924 491.071564,794.000671 491.071564,798.465088 
	C483.473572,796.116882 476.226349,793.257996 468.711151,791.657593 
	C427.955627,782.978760 393.493469,810.923462 392.668243,852.614807 
	C392.350281,868.678101 394.624115,883.797852 403.959625,897.279236 
	C413.816467,911.513489 427.502258,919.042908 444.678223,920.110840 
	C460.767792,921.111328 476.136963,918.295044 490.874268,909.770691 
	C490.874268,915.303284 491.060577,920.068542 490.749176,924.801086 
	C490.666718,926.054871 489.302094,927.845398 488.105225,928.313904 
	C459.063019,939.680481 430.527313,941.499512 402.903381,923.118652 
z"/>
<path fill="#F0F0F1" opacity="1.000000" stroke="none" 
	d="
M621.953186,859.234802 
	C624.729187,878.370789 624.309326,896.587585 613.026733,912.906067 
	C599.262146,932.814331 579.681702,939.199829 556.692444,935.608704 
	C535.377380,932.279236 518.140625,915.117920 514.167908,893.721741 
	C510.707947,875.086853 511.776703,856.897705 522.970520,840.529297 
	C532.232422,826.985901 545.443481,819.952087 561.368042,818.177979 
	C570.946777,817.110779 580.629395,817.228271 589.969727,820.704041 
	C607.885193,827.370972 617.309875,841.036804 621.953186,859.234802 
M575.862183,834.234192 
	C561.815247,832.672852 549.254150,835.381653 540.270447,847.333008 
	C527.798096,863.925537 527.948669,891.584839 540.199341,908.282715 
	C553.576416,926.515686 588.608337,926.468079 599.410583,904.127197 
	C604.942627,892.685974 606.189453,880.773315 604.528320,868.650208 
	C602.232971,851.899048 594.903870,838.575562 575.862183,834.234192 
z"/>
<path fill="#F0EFF1" opacity="1.000000" stroke="none" 
	d="
M651.992676,917.997070 
	C651.992676,885.573303 651.992676,853.648682 651.992676,821.472534 
	C658.446167,821.472534 664.349915,821.472534 670.833618,821.472534 
	C670.833618,828.220093 670.833618,834.720642 670.833618,841.419434 
	C674.302612,836.616577 677.073303,831.884277 680.703247,827.943542 
	C687.986816,820.035950 697.366516,817.991272 707.644775,820.191223 
	C708.955566,820.471802 710.678955,822.614258 710.792725,824.009827 
	C711.183167,828.799194 710.942627,833.640015 710.942627,838.475220 
	C706.726624,837.610046 702.768311,836.241760 698.763794,836.089600 
	C689.932251,835.754028 682.991699,839.620361 678.299561,847.161682 
	C673.165100,855.414062 670.726013,864.410339 670.798218,874.180603 
	C670.931213,892.166687 670.850952,910.154297 670.859375,928.141296 
	C670.860168,929.789490 670.859497,931.437622 670.859497,933.491089 
	C664.664429,933.491089 658.761353,933.491089 651.992676,933.491089 
	C651.992676,928.650818 651.992676,923.573486 651.992676,917.997070 
z"/>
<path fill="#FEFDFE" opacity="1.000000" stroke="none" 
	d="
M157.183380,652.778564 
	C167.005447,662.756287 169.065399,675.652527 162.744675,686.204834 
	C156.398666,696.799316 143.762863,701.825439 132.201294,698.354065 
	C121.817810,695.236389 114.142670,686.114136 113.378403,674.989014 
	C112.602051,663.688049 117.428131,654.768005 127.259834,649.298767 
	C137.637375,643.525818 147.725998,645.088379 157.183380,652.778564 
z"/>
<path fill="#FEFEFE" opacity="1.000000" stroke="none" 
	d="
M990.820801,1058.747070 
	C988.964905,1061.064331 986.872681,1063.034058 984.436035,1065.033447 
	C986.255981,1062.841797 988.420166,1060.620605 990.820801,1058.747070 
z"/>
<path fill="#FEFDFE" opacity="1.000000" stroke="none" 
	d="
M142.758530,211.379761 
	C143.411880,210.053894 144.366974,209.097565 145.639191,208.026062 
	C144.990967,209.190369 144.025620,210.469833 142.758530,211.379761 
z"/>
<path fill="#FEFDFE" opacity="1.000000" stroke="none" 
	d="
M149.762787,203.378693 
	C150.409805,202.055435 151.362915,201.100601 152.631882,200.029663 
	C151.988129,201.191406 151.028488,202.469254 149.762787,203.378693 
z"/>
<path fill="#FEFEFE" opacity="1.000000" stroke="none" 
	d="
M993.722778,1055.850220 
	C993.281128,1056.989868 992.479004,1057.925781 991.382812,1058.963013 
	C991.846497,1057.925049 992.604431,1056.785645 993.722778,1055.850220 
z"/>
<path fill="#FEFDFE" opacity="1.000000" stroke="none" 
	d="
M153.243683,200.166626 
	C153.413147,199.319138 153.905273,198.701660 154.687622,197.995575 
	C154.507370,198.736862 154.036880,199.566757 153.243683,200.166626 
z"/>
<path fill="#FEFDFE" opacity="1.000000" stroke="none" 
	d="
M147.384735,206.911423 
	C147.104996,206.339432 147.308273,205.666946 147.760818,204.725861 
	C147.962646,205.241806 147.915207,206.026382 147.384735,206.911423 
z"/>
<path fill="#5C2D91" opacity="1.000000" stroke="none" 
	d="
M175.169022,177.884277 
	C175.114929,177.695618 175.300522,177.410248 175.732117,177.037125 
	C175.788300,177.228760 175.598495,177.508163 175.169022,177.884277 
z"/>
<path fill="#5C2D91" opacity="1.000000" stroke="none" 
	d="
M177.187683,175.877121 
	C177.129715,175.689438 177.310364,175.400787 177.735703,175.018463 
	C177.795700,175.208588 177.611008,175.492386 177.187683,175.877121 
z"/>
<path fill="#5C2D91" opacity="1.000000" stroke="none" 
	d="
M176.185547,176.880371 
	C176.129013,176.692566 176.308746,176.407257 176.733078,176.035522 
	C176.792389,176.227020 176.607086,176.504959 176.185547,176.880371 
z"/>
<path fill="#FEFDFE" opacity="1.000000" stroke="none" 
	d="
M146.262665,208.089996 
	C146.089218,207.655838 146.269363,207.352295 146.713959,206.977325 
	C146.857681,207.344147 146.736969,207.782379 146.262665,208.089996 
z"/>
<path fill="#FEFEFE" opacity="1.000000" stroke="none" 
	d="
M995.844238,1053.963379 
	C995.990479,1054.307739 995.780701,1054.622559 995.293823,1055.016602 
	C995.173889,1054.708374 995.331055,1054.321045 995.844238,1053.963379 
z"/>
<path fill="#FEFEFE" opacity="1.000000" stroke="none" 
	d="
M994.720764,1054.954590 
	C994.918457,1055.328979 994.742920,1055.635010 994.304504,1056.015747 
	C994.143616,1055.688965 994.245544,1055.287598 994.720764,1054.954590 
z"/>
<path fill="#FEFDFE" opacity="1.000000" stroke="none" 
	d="
M155.249023,198.018860 
	C155.092438,197.668839 155.280106,197.351654 155.735199,196.932312 
	C155.866180,197.237335 155.729721,197.644516 155.249023,198.018860 
z"/>
<path fill="#FEFEFE" opacity="1.000000" stroke="none" 
	d="
M956.145935,389.072937 
	C951.494446,388.335602 951.691895,391.015686 951.697266,393.877380 
	C951.747498,420.704742 951.726868,447.532227 951.726868,474.359680 
	C951.726868,545.677368 951.726868,616.995117 951.726868,688.312805 
	C951.726868,690.276733 951.726929,692.240662 951.726929,694.522949 
	C938.365356,694.522949 925.461548,694.522949 912.008911,694.522949 
	C912.008911,592.971130 912.008911,491.433472 912.008911,389.255188 
	C878.944580,389.255188 846.415771,389.255188 813.624695,389.255188 
	C813.624695,376.875000 813.624695,365.136719 813.624695,353.181396 
	C892.678772,353.181396 971.455200,353.181396 1050.617188,353.181396 
	C1050.617188,364.824890 1050.617188,376.560272 1050.617188,389.072815 
	C1019.433289,389.072815 988.031677,389.072815 956.145935,389.072937 
z"/>
<path fill="#6D429C" opacity="1.000000" stroke="none" 
	d="
M670.973755,656.570068 
	C661.584351,656.908630 652.157043,656.908630 641.971191,656.908630 
	C641.971191,647.627869 641.971191,638.266418 642.063965,628.442932 
	C642.633667,628.101257 643.269043,628.065247 643.564392,628.364685 
	C652.708679,637.633423 661.819763,646.934998 670.973755,656.570068 
z"/>
<path fill="#6E439D" opacity="1.000000" stroke="none" 
	d="
M774.000000,867.064941 
	C763.054993,867.064941 752.609985,867.064941 742.198975,867.064941 
	C740.860596,850.807312 757.199890,834.270020 774.316833,834.167969 
	C791.083618,834.067993 803.044128,848.117371 801.687256,867.064880 
	C792.667480,867.064880 783.583740,867.064880 774.000000,867.064941 
z"/>
<path fill="#6E439C" opacity="1.000000" stroke="none" 
	d="
M576.283508,834.336792 
	C594.903870,838.575562 602.232971,851.899048 604.528320,868.650208 
	C606.189453,880.773315 604.942627,892.685974 599.410583,904.127197 
	C588.608337,926.468079 553.576416,926.515686 540.199341,908.282715 
	C527.948669,891.584839 527.798096,863.925537 540.270447,847.333008 
	C549.254150,835.381653 561.815247,832.672852 576.283508,834.336792 
z"/>
</svg>