<svg version="1.1" id="Layer_1" xmlns="http://www.w3.org/2000/svg" xmlns:xlink="http://www.w3.org/1999/xlink" x="0px" y="0px"
	 width="100%" viewBox="0 0 591 591" enable-background="new 0 0 591 591" xml:space="preserve">
<path fill="#68217A" opacity="1.000000" stroke="none" 
	d="
M591.217957,591.550598 
	C395.879578,592.000000 200.759140,591.980896 5.638814,592.125061 
	C1.349709,592.128235 0.902486,590.965210 0.904627,587.140930 
	C1.013125,393.353577 1.015365,199.566147 0.892983,5.778814 
	C0.890463,1.787539 1.601634,0.882151 5.719081,0.884941 
	C200.506180,1.016937 395.293365,1.000000 590.540283,1.000000 
	C591.852417,2.387774 591.479736,3.927310 591.479858,5.396123 
	C591.497070,199.965286 591.497498,394.534454 591.496521,589.103638 
	C591.496521,589.770264 591.481018,590.436096 591.217957,591.550598 
z"/>
<path fill="#FFFFFF" opacity="1.000000" stroke="none" 
	d="
M591.500000,592.000000 
	C591.000122,395.307495 591.000305,198.615005 591.000244,1.461255 
	C591.307678,1.217985 592.042847,0.494305 592.010559,1.500340 
	C591.967834,2.832300 592.000000,4.166667 592.000000,5.500000 
	C592.000000,201.000000 592.000000,396.500000 591.500000,592.000000 
z"/>
<path fill="#FCFAFC" opacity="1.000000" stroke="none" 
	d="
M261.971161,441.897064 
	C195.064194,459.476715 130.337189,421.100800 115.602745,354.519531 
	C101.449463,290.564484 138.244232,225.696686 204.319351,211.666870 
	C244.139236,203.211853 279.446503,213.208420 309.889099,240.362961 
	C312.597809,242.779099 312.507782,244.108459 309.985413,246.538559 
	C303.937500,252.365280 304.060944,252.493393 297.678162,247.002533 
	C237.763733,195.460327 143.871674,227.143814 128.675491,304.864410 
	C115.804810,370.691284 156.735764,418.990814 206.552429,430.324219 
	C241.596558,438.296875 272.875397,429.984711 299.856293,406.298340 
	C303.389893,403.196228 305.326538,403.218719 307.906555,406.688904 
	C308.693298,407.747131 309.732178,408.632263 310.723328,409.521149 
	C312.668091,411.265167 312.391968,412.441498 310.444214,414.293091 
	C296.647278,427.408752 280.517334,436.350372 261.971161,441.897064 
z"/>
<path fill="#40CBF3" opacity="1.000000" stroke="none" 
	d="
M252.678513,361.727966 
	C234.557846,374.439087 209.985031,371.378174 198.268738,355.212952 
	C187.489685,340.340851 188.000977,313.963257 199.857407,299.931000 
	C210.450790,287.393646 224.615494,284.981812 239.819977,288.220245 
	C253.738480,291.184723 262.054596,300.585175 265.044281,314.231506 
	C268.907471,331.865112 267.259644,348.375854 252.678513,361.727966 
z"/>
<path fill="#FBF9FB" opacity="1.000000" stroke="none" 
	d="
M383.648499,304.631042 
	C394.455109,279.615784 416.781830,267.762573 441.432953,273.916809 
	C458.171478,278.095612 466.766693,290.032837 470.935181,305.894470 
	C472.809814,313.027710 473.029572,320.341064 473.283936,327.678589 
	C473.423309,331.697968 472.517181,333.014465 468.181793,332.968842 
	C445.024017,332.725189 421.861481,332.957031 398.702850,332.758270 
	C394.580414,332.722870 393.132690,333.547211 393.748230,337.928040 
	C394.375397,342.391754 394.939789,346.849548 396.337463,351.121429 
	C402.786255,370.831421 421.002716,379.929626 442.869171,374.541199 
	C451.228638,372.481232 458.607178,368.456909 466.176697,362.968292 
	C466.176697,367.421448 466.094238,371.215210 466.208923,375.002991 
	C466.273163,377.124481 464.798645,377.906372 463.387909,378.724579 
	C447.033295,388.209961 429.601868,390.881744 411.467041,385.541870 
	C395.953339,380.973816 386.789642,369.542877 382.341034,354.488953 
	C377.460052,337.971954 377.301636,321.348053 383.648499,304.631042 
z"/>
<path fill="#FBF9FB" opacity="1.000000" stroke="none" 
	d="
M329.388458,310.710388 
	C326.991302,319.364044 326.586121,327.838654 326.551025,336.335083 
	C326.489075,351.327240 326.451813,366.320618 326.597412,381.311584 
	C326.628906,384.551971 325.696045,385.604340 322.377594,385.613800 
	C312.812592,385.640991 312.812988,385.788971 312.813019,376.391205 
	C312.813049,344.407410 312.875885,312.423370 312.733826,280.440216 
	C312.716003,276.425232 313.199738,274.579559 317.982971,274.846954 
	C326.513794,275.323914 326.533661,274.968719 326.533722,283.643890 
	C326.533752,287.589478 326.533752,291.535065 326.533752,295.845367 
	C328.966888,294.679382 329.003876,292.633209 329.772461,291.129364 
	C336.940826,277.104065 350.041443,270.373474 363.806213,273.532471 
	C366.696899,274.195862 368.205231,275.182251 367.918152,278.444397 
	C367.627777,281.744385 367.854095,285.089874 367.854095,288.732117 
	C364.651245,287.790863 361.765472,286.563873 358.764923,286.129242 
	C348.085663,284.582184 339.507538,289.379913 333.830139,299.720032 
	C331.980499,303.088715 330.594421,306.640350 329.388458,310.710388 
z"/>
<path fill="#F1EBF3" opacity="1.000000" stroke="none" 
	d="
M202.716476,154.275787 
	C202.330566,158.269287 202.114655,161.937576 202.279999,165.588623 
	C202.422394,168.732773 201.709915,172.859222 207.241165,171.969284 
	C208.056992,171.838028 208.475800,172.390564 208.490479,173.140289 
	C208.513702,174.325867 207.820084,174.788437 206.692474,175.088379 
	C202.675568,176.156891 199.541382,174.024429 199.133163,169.453720 
	C198.823105,165.981888 198.994827,162.466873 198.957001,158.971008 
	C198.946182,157.971924 198.709274,156.896835 198.993393,155.986908 
	C200.094543,152.460510 193.179703,154.424850 195.470291,151.331497 
	C196.668030,149.713974 199.669846,149.487640 198.999405,146.290009 
	C198.724182,144.977417 199.406021,143.972427 200.894821,143.973892 
	C202.398499,143.975418 202.076904,145.228653 202.222961,146.143478 
	C202.746902,149.424942 206.526840,152.409714 209.784317,151.076096 
	C213.357056,149.613419 213.830566,151.656021 214.644287,153.850876 
	C216.535797,158.952942 218.350845,164.083374 220.657608,170.479874 
	C223.086121,164.085556 225.023300,158.838257 227.088974,153.642044 
	C227.654037,152.220612 227.981033,149.788956 230.208038,150.595184 
	C232.827530,151.543472 230.716156,153.383224 230.221039,154.648682 
	C226.891830,163.157379 223.487091,171.637680 219.993637,180.080353 
	C218.672501,183.273193 216.696442,185.943573 212.755524,186.003464 
	C211.626602,186.020630 210.298203,186.046860 210.186859,184.356964 
	C210.087021,182.841461 211.279282,183.148071 212.175980,182.847672 
	C217.005646,181.229553 219.528290,176.126099 217.759979,171.509216 
	C215.149185,164.692673 212.451233,157.909531 209.449127,150.240372 
	C208.454178,154.552048 205.315033,153.206207 202.716476,154.275787 
z"/>
<path fill="#F8F5F9" opacity="1.000000" stroke="none" 
	d="
M342.027771,173.343506 
	C341.982666,168.578979 342.079834,164.250214 341.935852,159.929489 
	C341.826721,156.653473 341.252014,153.302368 337.053406,153.067551 
	C332.640625,152.820755 330.794678,156.014862 330.356812,159.670166 
	C329.885162,163.607895 330.268738,167.643021 330.160858,171.632462 
	C330.129150,172.805008 330.730865,174.624817 328.712158,174.746536 
	C326.127686,174.902374 327.062256,172.745377 327.022156,171.506592 
	C326.893097,167.517975 327.082550,163.517563 326.905548,159.532516 
	C326.766266,156.396667 325.916870,153.333420 322.101624,153.025101 
	C318.038635,152.696762 315.845490,155.363724 315.399292,158.964310 
	C314.890961,163.066666 315.187927,167.263535 314.978058,171.411377 
	C314.915375,172.649643 315.924988,174.774109 313.380249,174.752136 
	C311.303772,174.734207 311.852905,172.895569 311.839355,171.727692 
	C311.768005,165.573227 311.797577,159.417465 311.813477,153.262207 
	C311.815979,152.294907 311.581329,151.085938 312.722168,150.647461 
	C313.676758,150.280548 314.774292,150.391586 314.996582,151.762833 
	C315.328918,153.813492 316.138702,152.590836 316.789825,152.030075 
	C318.507660,150.550598 320.451935,149.959167 322.739258,149.949585 
	C325.886292,149.936386 327.643494,153.640320 329.673950,153.493118 
	C331.677795,153.347839 333.433319,150.148972 336.384399,149.963623 
	C341.239777,149.658630 344.602478,152.021744 344.968353,156.889755 
	C345.353882,162.019363 345.172028,167.194534 345.162048,172.349655 
	C345.157166,174.864090 344.268829,175.835190 342.027771,173.343506 
z"/>
<path fill="#F0E8F1" opacity="1.000000" stroke="none" 
	d="
M400.880676,167.962479 
	C399.446503,170.442444 400.436676,174.648560 397.163788,174.638962 
	C393.477051,174.628174 394.465637,170.364960 393.498474,167.986359 
	C392.226288,164.857697 391.492767,161.510010 389.475830,158.221985 
	C388.063110,162.520828 386.654541,166.821060 385.235413,171.117783 
	C384.738373,172.622589 384.845917,174.690445 382.616516,174.821762 
	C380.268036,174.960114 380.319458,172.883545 379.853851,171.364044 
	C378.054474,165.492050 376.246735,159.622498 374.483795,153.739548 
	C374.137604,152.584335 373.099854,151.067352 375.173035,150.533264 
	C376.902710,150.087646 377.466003,151.476196 377.848175,152.808090 
	C379.311554,157.907898 380.748901,163.015182 382.415070,168.892639 
	C385.300446,163.616852 386.063812,158.360779 387.877594,153.502335 
	C388.336731,152.272537 388.363007,150.711349 390.045074,150.530121 
	C392.323212,150.284668 392.098846,152.352676 392.487091,153.620361 
	C393.933533,158.343185 395.233917,163.110733 397.595398,167.973282 
	C398.993103,163.240433 400.413818,158.514206 401.775574,153.771057 
	C402.231445,152.183243 402.397156,149.915604 404.644409,150.600113 
	C407.328339,151.417648 405.106506,153.476959 404.816925,154.691956 
	C403.779266,159.044922 402.290497,163.290359 400.880676,167.962479 
z"/>
<path fill="#F4EEF5" opacity="1.000000" stroke="none" 
	d="
M121.980240,172.693970 
	C121.966286,162.912323 122.049492,153.603302 121.909752,144.297623 
	C121.870926,141.712067 122.579483,140.760361 125.251114,140.910828 
	C129.062057,141.125458 132.893845,140.955338 136.716385,140.988876 
	C137.700958,140.997513 138.771011,141.031250 138.813263,142.454346 
	C138.855804,143.885803 137.818924,143.988510 136.807144,144.010193 
	C134.813461,144.052902 132.786484,143.814545 130.833466,144.101730 
	C129.092316,144.357788 126.277260,142.675110 125.796371,145.524460 
	C125.254868,148.733047 124.725227,152.350174 126.149994,155.302078 
	C126.935486,156.929489 129.848495,155.788727 131.795654,155.942795 
	C133.282883,156.060486 134.784790,155.986282 136.279861,156.013458 
	C137.222443,156.030594 137.833313,156.407959 137.822662,157.469437 
	C137.812988,158.433441 137.432205,159.069931 136.405121,159.100357 
	C134.412979,159.159378 132.384018,159.437073 130.434372,159.165054 
	C126.321259,158.591125 125.105888,160.440735 125.552994,164.199615 
	C125.728500,165.675156 125.667664,167.192703 125.577209,168.682785 
	C125.433189,171.055145 126.468346,171.919830 128.817734,171.812454 
	C131.802292,171.676056 134.799149,171.793533 137.790405,171.827652 
	C138.702042,171.838058 139.507065,172.205231 139.381897,173.242264 
	C139.315765,173.790222 138.747238,174.732895 138.421188,174.726288 
	C133.016098,174.616669 127.557426,175.712219 122.222771,174.097412 
	C122.066734,174.050201 122.066208,173.489258 121.980240,172.693970 
z"/>
<path fill="#F7F3F8" opacity="1.000000" stroke="none" 
	d="
M465.527771,167.321899 
	C467.954285,169.598663 470.115845,171.617599 472.277405,173.636551 
	C471.929169,174.046249 471.580902,174.455948 471.232666,174.865662 
	C464.681580,174.798370 463.127411,167.395325 457.155701,164.565216 
	C457.155701,167.560532 457.176453,170.216705 457.145477,172.872253 
	C457.133087,173.934921 456.863342,174.826584 455.483368,174.816269 
	C454.010529,174.805267 453.995361,173.767548 453.993744,172.776016 
	C453.976501,162.287109 453.977905,151.798172 453.982422,141.309235 
	C453.982910,140.142654 453.876373,138.905975 455.688538,139.012955 
	C457.527191,139.121521 457.165802,140.505280 457.172852,141.562164 
	C457.213470,147.650192 457.192627,153.738617 457.192627,160.251297 
	C462.628021,157.704758 464.206635,150.820679 471.900177,150.252121 
	C469.047424,153.317581 467.198303,155.363525 465.285645,157.348206 
	C460.528900,162.284134 460.517273,162.272919 465.527771,167.321899 
z"/>
<path fill="#F7F3F8" opacity="1.000000" stroke="none" 
	d="
M355.846863,151.542053 
	C364.275726,148.093643 370.146423,151.257507 371.078796,159.197067 
	C371.416656,162.074066 370.952423,163.555023 367.574371,163.264603 
	C364.278015,162.981201 360.928375,163.364105 357.619904,163.162659 
	C353.662506,162.921738 353.488159,164.701981 354.795380,167.660934 
	C356.779236,172.151627 360.864410,173.385040 366.578217,171.310440 
	C367.535187,170.962982 368.850830,169.049454 369.705078,171.148453 
	C370.319946,172.659286 368.826263,173.393097 367.602081,174.023636 
	C363.272522,176.253601 356.614899,175.446487 353.657471,172.294540 
	C349.908997,168.299530 349.304077,160.006378 352.523041,155.039963 
	C353.317505,153.814178 354.522095,152.854233 355.846863,151.542053 
z"/>
<path fill="#F1EBF3" opacity="1.000000" stroke="none" 
	d="
M412.069946,153.007751 
	C418.002014,148.987244 424.385162,148.965286 428.344696,152.688202 
	C432.412720,156.513046 433.229706,165.179398 429.952271,170.278625 
	C427.055603,174.785370 422.667542,175.736847 417.759827,175.085327 
	C413.150513,174.473419 410.185547,171.665802 409.073639,167.289307 
	C407.803619,162.290405 408.062988,157.392242 412.069946,153.007751 
z"/>
<path fill="#F4EEF5" opacity="1.000000" stroke="none" 
	d="
M304.854889,156.667557 
	C304.949707,162.098740 305.017548,167.094193 305.011230,172.089539 
	C305.010071,172.996750 305.400543,174.206558 304.186920,174.672043 
	C303.177673,175.059158 302.258667,174.853043 301.813599,173.638718 
	C301.018127,171.468292 299.977081,173.059677 299.252136,173.618576 
	C297.401367,175.045380 295.316162,175.321289 293.114594,175.194534 
	C289.517883,174.987473 287.088196,173.113937 286.372467,169.623001 
	C285.613953,165.923553 287.133545,162.977783 290.654846,161.555084 
	C292.777527,160.697449 295.167267,160.511642 297.425232,159.974442 
	C299.007202,159.598114 301.572906,160.463562 301.300842,157.478683 
	C301.068420,154.929260 299.743713,153.125305 296.891052,152.932617 
	C294.832092,152.793533 292.940948,153.296997 291.135071,154.246063 
	C290.333496,154.667328 289.364197,155.820999 288.648315,154.516907 
	C288.048737,153.424728 288.696075,152.377167 289.796478,151.571518 
	C294.990509,147.768906 302.308472,150.011856 304.854889,156.667557 
z"/>
<path fill="#F8F5F9" opacity="1.000000" stroke="none" 
	d="
M148.470093,150.803802 
	C149.329910,151.496384 148.257751,153.690231 150.641815,152.300751 
	C159.449402,147.167419 164.987183,150.508011 165.020523,160.748199 
	C165.033005,164.580460 165.054276,168.413284 164.996155,172.244720 
	C164.980316,173.288864 165.410553,174.742355 163.540283,174.801010 
	C161.747681,174.857239 161.855026,173.505341 161.839661,172.381577 
	C161.787216,168.549988 161.866959,164.716125 161.783783,160.885559 
	C161.700272,157.039429 161.182632,153.305954 156.232788,152.928787 
	C152.334702,152.631729 149.194458,156.130997 149.048843,160.846466 
	C148.930588,164.675156 149.044662,168.510574 149.001907,172.342407 
	C148.989822,173.424835 149.299072,174.811462 147.443115,174.803680 
	C146.029831,174.797745 145.860214,173.797272 145.855835,172.783707 
	C145.826370,165.952911 145.832123,159.121918 145.835846,152.291000 
	C145.836731,150.679550 146.806824,150.349503 148.470093,150.803802 
z"/>
<path fill="#ECE3EE" opacity="1.000000" stroke="none" 
	d="
M252.922424,147.179840 
	C252.919922,147.824356 252.919662,147.990372 252.919647,148.156403 
	C252.918228,156.208618 252.919968,156.155640 260.918518,156.418945 
	C262.332916,156.465515 264.794128,155.376160 264.879456,157.930832 
	C264.968109,160.585587 262.469543,159.535446 261.064056,159.585632 
	C252.922913,159.876328 253.097794,159.835632 252.799301,168.193100 
	C252.721252,170.378738 254.911499,174.671158 250.886520,174.548706 
	C247.267242,174.438614 249.263885,170.229691 249.184738,167.948685 
	C248.914352,160.154953 249.191742,152.343674 249.024628,144.544128 
	C248.963928,141.710297 249.859543,140.709579 252.693375,140.889221 
	C256.000549,141.098877 259.334717,140.851273 262.649933,140.983215 
	C263.895508,141.032791 266.107117,140.069626 265.938385,142.617615 
	C265.781647,144.984802 263.668121,143.921265 262.401764,144.014420 
	C260.089783,144.184555 257.752106,144.157593 255.433670,144.041855 
	C253.426453,143.941666 252.744415,144.855850 252.922424,147.179840 
z"/>
<path fill="#E5D8E8" opacity="1.000000" stroke="none" 
	d="
M176.374969,144.441986 
	C176.755463,147.595917 175.830719,151.231415 180.873428,150.417847 
	C181.759384,150.274902 182.472412,150.962112 182.498413,151.910980 
	C182.532623,153.160736 181.639725,153.758881 180.553024,153.620361 
	C176.327332,153.081680 176.594269,155.857361 176.664261,158.631378 
	C176.735550,161.456390 176.690231,164.284607 176.678925,167.111359 
	C176.667450,169.976654 176.777924,172.691269 180.918762,171.924698 
	C181.828049,171.756363 182.593216,172.069870 182.574936,173.195908 
	C182.555710,174.379456 181.841812,174.848984 180.740570,175.151428 
	C176.767792,176.242477 173.464951,173.988876 173.127213,169.556732 
	C172.875229,166.249664 173.059494,162.909378 173.049301,159.583878 
	C173.045746,158.419922 172.787811,157.186432 173.084152,156.104721 
	C174.071976,152.499039 167.566040,154.747223 169.278671,151.387238 
	C170.139893,149.697662 173.945786,150.137512 173.145096,146.491074 
	C172.705734,144.490189 173.967285,143.382812 176.374969,144.441986 
z"/>
<path fill="#F0E8F1" opacity="1.000000" stroke="none" 
	d="
M449.829437,151.928802 
	C441.755676,155.022781 441.031738,156.075638 440.907867,165.378769 
	C440.881317,167.371735 441.000458,169.371948 440.866638,171.356277 
	C440.778961,172.655731 441.634644,174.772247 439.216919,174.728088 
	C437.199554,174.691238 437.814423,172.793716 437.800873,171.629547 
	C437.729218,165.484390 437.760345,159.337921 437.776001,153.191956 
	C437.778473,152.226547 437.558807,151.013931 438.716736,150.610352 
	C439.765747,150.244720 440.538574,150.749588 440.927368,151.944275 
	C441.818268,154.681839 442.495514,152.011017 443.050842,151.712143 
	C445.324463,150.488449 447.473724,148.352112 449.829437,151.928802 
z"/>
<path fill="#F1EBF3" opacity="1.000000" stroke="none" 
	d="
M274.763031,151.509644 
	C275.178284,153.798813 275.908539,152.853638 276.650879,152.137955 
	C278.147217,150.695267 279.884552,149.828201 282.028503,150.044785 
	C283.181305,150.161255 283.833679,150.776413 283.820343,151.979492 
	C283.807922,153.098175 283.113403,153.210876 282.178558,153.201859 
	C276.518311,153.147202 275.454437,157.210022 275.084045,161.541016 
	C274.773743,165.169266 274.946869,168.837906 274.872559,172.487991 
	C274.852844,173.456207 274.937897,174.617020 273.568604,174.770401 
	C271.817200,174.966553 271.807159,173.631241 271.802551,172.471848 
	C271.776062,165.832367 271.753387,159.192474 271.805023,152.553314 
	C271.821655,150.413910 272.841980,149.870224 274.763031,151.509644 
z"/>
<path fill="#E1D3E5" opacity="1.000000" stroke="none" 
	d="
M188.092590,150.582397 
	C189.595581,150.398804 190.570435,150.781357 190.582214,151.998978 
	C190.649734,158.980667 190.649017,165.963211 190.629745,172.945343 
	C190.626755,174.028152 190.145859,174.861694 188.862488,174.869949 
	C187.596298,174.878082 187.041885,174.118347 187.087296,172.994354 
	C187.387085,165.576004 186.209549,158.115906 188.092590,150.582397 
z"/>
<path fill="#F0E8F1" opacity="1.000000" stroke="none" 
	d="
M190.813721,141.370605 
	C191.202087,143.774155 190.465775,144.989319 188.216263,144.446198 
	C187.120316,144.181595 186.601730,143.147491 186.921188,142.101822 
	C187.566803,139.988495 188.884766,139.617401 190.813721,141.370605 
z"/>
<path fill="#69227B" opacity="1.000000" stroke="none" 
	d="
M458.100830,313.408875 
	C459.168060,321.813507 458.864899,320.416016 452.598053,320.443207 
	C434.482910,320.521881 416.366608,320.395508 398.252197,320.534027 
	C394.642151,320.561584 393.719025,319.779541 394.650604,316.036896 
	C396.819427,307.323700 399.998199,299.196655 406.777008,293.065338 
	C416.408630,284.353638 427.822937,282.510193 439.761963,286.638428 
	C451.884155,290.830017 456.280640,301.154724 458.100830,313.408875 
z"/>
<path fill="#793A89" opacity="1.000000" stroke="none" 
	d="
M354.692993,157.805481 
	C356.487823,154.174988 358.961548,152.333786 362.779816,152.971008 
	C365.368561,153.403030 366.674377,155.210800 367.379608,157.577606 
	C367.710693,158.688690 368.266418,160.233948 366.596649,160.327545 
	C362.666931,160.547821 358.707855,160.469940 354.775665,160.247299 
	C353.907684,160.198181 354.189331,158.925751 354.692993,157.805481 
z"/>
<path fill="#6B257D" opacity="1.000000" stroke="none" 
	d="
M414.902466,154.823471 
	C419.013000,152.214661 422.787109,151.980988 426.123505,155.290176 
	C428.954285,158.097885 429.266937,165.405533 426.878174,168.932831 
	C424.593262,172.306870 421.276184,172.952774 417.620239,171.893753 
	C411.533234,170.130554 410.101715,161.898727 414.902466,154.823471 
z"/>
<path fill="#722F83" opacity="1.000000" stroke="none" 
	d="
M298.549377,170.878250 
	C295.959137,172.695160 293.620575,172.840088 291.339783,171.241333 
	C289.789612,170.154709 289.611694,168.466660 290.003113,166.773376 
	C290.591125,164.229828 299.175629,161.148865 301.195099,162.747955 
	C302.346100,163.659363 301.687714,164.879547 301.470795,165.964005 
	C301.105774,167.789078 300.274506,169.382690 298.549377,170.878250 
z"/>
</svg>