<svg version="1.1" id="Layer_1" xmlns="http://www.w3.org/2000/svg" xmlns:xlink="http://www.w3.org/1999/xlink" x="0px" y="0px"
	 width="100%" viewBox="0 0 512 512" enable-background="new 0 0 512 512" xml:space="preserve">
<path fill="#000000" opacity="1.000000" stroke="none" 
	d="
M357.000000,513.000000 
	C238.028915,513.000000 119.557816,513.000000 1.043364,513.000000 
	C1.043364,342.403900 1.043364,171.807770 1.043364,1.105819 
	C171.554428,1.105819 342.108948,1.105819 512.831726,1.105819 
	C512.831726,171.666534 512.831726,342.333252 512.831726,513.000000 
	C461.141022,513.000000 409.320526,513.000000 357.000000,513.000000 
M137.992447,468.485901 
	C140.859589,468.990448 143.720383,469.890564 146.594879,469.936707 
	C168.682938,470.291168 190.988007,471.190002 211.430069,460.829590 
	C218.681122,457.154633 226.111588,452.571167 231.425766,446.593811 
	C243.321106,433.213989 247.057404,416.649628 247.135437,398.862854 
	C247.214310,380.887207 239.583557,367.557159 224.889664,358.043976 
	C211.413849,349.319489 196.045273,345.758270 180.489944,343.035156 
	C170.977753,341.369934 162.905380,337.557434 155.879211,330.598907 
	C147.357239,322.158936 150.909058,304.486755 160.940643,301.570496 
	C168.165115,299.470306 175.552414,297.905487 182.716934,295.629333 
	C195.472275,291.576996 205.828079,283.912292 214.659103,273.904602 
	C226.557465,260.420898 233.088562,244.650040 233.778183,226.889465 
	C234.118179,218.133392 232.123535,209.286697 231.111526,199.788605 
	C235.805817,198.541077 241.607681,196.999207 248.160416,195.257797 
	C248.160416,250.830780 248.160416,305.368439 248.160416,359.652588 
	C266.767090,359.652588 284.838043,359.652588 302.666595,359.652588 
	C302.666595,285.578247 302.666595,211.851624 302.666595,138.322891 
	C284.252655,138.322891 266.173309,138.322891 248.000031,138.322891 
	C248.000031,139.640442 247.816971,140.676407 248.030563,141.622894 
	C249.181458,146.723007 246.587814,148.896393 242.021774,150.012527 
	C231.574875,152.566193 221.295883,156.141327 210.712891,157.683807 
	C203.887848,158.678574 196.906845,159.494476 189.551788,155.582352 
	C171.066101,145.749878 151.088196,145.525009 131.208527,151.107178 
	C114.015083,155.935043 100.060570,166.230759 90.214920,180.871246 
	C79.866661,196.259109 75.411407,213.435150 77.792999,232.482254 
	C79.954933,249.772644 87.425285,264.215118 98.619209,276.776703 
	C103.523727,282.280426 110.450790,285.981842 116.802071,290.759369 
	C103.532669,296.359802 101.812965,309.137878 101.356972,321.545715 
	C100.877090,334.603699 105.072830,346.470978 118.322716,354.031616 
	C114.192711,355.680969 111.249886,356.769409 108.376862,358.018433 
	C95.532684,363.602386 84.911255,371.645081 78.755089,384.697540 
	C69.034142,405.308136 73.866341,436.932983 93.606689,451.290436 
	C106.769363,460.863831 121.103806,466.548431 137.992447,468.485901 
M437.000000,159.510101 
	C437.000000,155.408554 437.000000,151.306992 437.000000,147.007507 
	C422.483978,147.007507 408.530762,147.007507 393.447083,147.007507 
	C393.447083,136.898010 393.447083,126.990105 393.447083,117.336639 
	C375.913055,117.336639 359.512787,117.336639 342.725281,117.336639 
	C342.725281,127.411270 342.725281,137.151947 342.725281,147.271439 
	C333.258545,147.271439 324.183624,147.271439 315.327087,147.271439 
	C315.327087,164.401260 315.327087,181.134415 315.327087,198.256042 
	C324.725586,198.256042 333.800598,198.256042 344.000000,198.256042 
	C344.000000,229.873489 344.009216,261.095581 343.995453,292.317657 
	C343.989990,304.764343 345.989532,316.977234 350.147369,328.597839 
	C355.307098,343.018616 365.104187,353.042908 380.452911,357.202606 
	C390.064972,359.807556 399.509552,360.265259 409.436951,359.215057 
	C420.208282,358.075562 430.376099,355.812408 439.791626,350.555756 
	C439.791626,335.755951 439.791626,320.995270 439.791626,305.725311 
	C437.590607,306.792114 435.774323,307.742035 433.903046,308.567413 
	C425.599457,312.230072 416.845551,314.116150 408.017731,311.834259 
	C398.886597,309.473938 394.354736,300.008179 394.154999,287.928772 
	C393.675873,258.954071 393.997681,229.966080 394.011139,200.983444 
	C394.011566,200.046829 394.173615,199.110260 394.293701,197.812958 
	C408.655182,197.812958 422.725677,197.812958 437.000000,197.812958 
	C437.000000,185.117142 437.000000,172.812515 437.000000,159.510101 
M249.944412,96.415863 
	C254.083466,102.407822 259.065796,107.325592 266.038330,110.057503 
	C278.582733,114.972504 291.782715,110.825333 301.036896,99.768394 
	C312.331787,86.273293 310.585480,64.437996 298.107056,52.703407 
	C283.005066,38.501617 262.971252,41.406834 251.154785,57.813137 
	C242.557922,69.749275 242.930847,82.876823 249.944412,96.415863 
z"/>
<path fill="#FFFFFF" opacity="1.000000" stroke="none" 
	d="
M137.602081,468.261322 
	C121.103806,466.548431 106.769363,460.863831 93.606689,451.290436 
	C73.866341,436.932983 69.034142,405.308136 78.755089,384.697540 
	C84.911255,371.645081 95.532684,363.602386 108.376862,358.018433 
	C111.249886,356.769409 114.192711,355.680969 118.322716,354.031616 
	C105.072830,346.470978 100.877090,334.603699 101.356972,321.545715 
	C101.812965,309.137878 103.532669,296.359802 116.802071,290.759369 
	C110.450790,285.981842 103.523727,282.280426 98.619209,276.776703 
	C87.425285,264.215118 79.954933,249.772644 77.792999,232.482254 
	C75.411407,213.435150 79.866661,196.259109 90.214920,180.871246 
	C100.060570,166.230759 114.015083,155.935043 131.208527,151.107178 
	C151.088196,145.525009 171.066101,145.749878 189.551788,155.582352 
	C196.906845,159.494476 203.887848,158.678574 210.712891,157.683807 
	C221.295883,156.141327 231.574875,152.566193 242.021774,150.012527 
	C246.587814,148.896393 249.181458,146.723007 248.030563,141.622894 
	C247.816971,140.676407 248.000031,139.640442 248.000031,138.322891 
	C266.173309,138.322891 284.252655,138.322891 302.666595,138.322891 
	C302.666595,211.851624 302.666595,285.578247 302.666595,359.652588 
	C284.838043,359.652588 266.767090,359.652588 248.160416,359.652588 
	C248.160416,305.368439 248.160416,250.830780 248.160416,195.257797 
	C241.607681,196.999207 235.805817,198.541077 231.111526,199.788605 
	C232.123535,209.286697 234.118179,218.133392 233.778183,226.889465 
	C233.088562,244.650040 226.557465,260.420898 214.659103,273.904602 
	C205.828079,283.912292 195.472275,291.576996 182.716934,295.629333 
	C175.552414,297.905487 168.165115,299.470306 160.940643,301.570496 
	C150.909058,304.486755 147.357239,322.158936 155.879211,330.598907 
	C162.905380,337.557434 170.977753,341.369934 180.489944,343.035156 
	C196.045273,345.758270 211.413849,349.319489 224.889664,358.043976 
	C239.583557,367.557159 247.214310,380.887207 247.135437,398.862854 
	C247.057404,416.649628 243.321106,433.213989 231.425766,446.593811 
	C226.111588,452.571167 218.681122,457.154633 211.430069,460.829590 
	C190.988007,471.190002 168.682938,470.291168 146.594879,469.936707 
	C143.720383,469.890564 140.859589,468.990448 137.602081,468.261322 
M184.638458,237.885483 
	C185.092316,231.838715 186.179901,225.757187 185.850479,219.753403 
	C185.364288,210.892715 182.594299,202.606659 175.790421,196.318588 
	C169.306564,190.326248 161.355896,189.706177 152.975830,189.901566 
	C144.153244,190.107269 133.078201,196.420135 129.897842,206.609375 
	C126.858376,216.347229 126.081459,226.106171 128.099731,235.978973 
	C129.949066,245.025360 134.687180,252.481186 143.925232,255.193619 
	C149.287186,256.767944 155.191666,256.632019 160.869644,256.963013 
	C171.486252,257.581909 182.013657,249.647354 184.638458,237.885483 
M160.552902,430.000000 
	C166.291656,429.666412 172.150009,429.946960 177.741714,428.858154 
	C186.577652,427.137665 194.645142,423.982788 198.322617,414.311646 
	C201.650360,405.560181 200.594711,393.602142 192.227768,387.665314 
	C186.251663,383.424957 179.645752,381.803864 172.442719,380.819000 
	C160.898315,379.240570 149.659348,379.737823 138.569901,383.041565 
	C129.194763,385.834625 123.338234,392.267792 122.115959,401.949066 
	C120.923569,411.393616 124.058952,419.533630 132.845551,424.202057 
	C141.116409,428.596466 150.245483,430.003601 160.552902,430.000000 
z"/>
<path fill="#FFFFFF" opacity="1.000000" stroke="none" 
	d="
M437.000000,160.009003 
	C437.000000,172.812515 437.000000,185.117142 437.000000,197.812958 
	C422.725677,197.812958 408.655182,197.812958 394.293701,197.812958 
	C394.173615,199.110260 394.011566,200.046829 394.011139,200.983444 
	C393.997681,229.966080 393.675873,258.954071 394.154999,287.928772 
	C394.354736,300.008179 398.886597,309.473938 408.017731,311.834259 
	C416.845551,314.116150 425.599457,312.230072 433.903046,308.567413 
	C435.774323,307.742035 437.590607,306.792114 439.791626,305.725311 
	C439.791626,320.995270 439.791626,335.755951 439.791626,350.555756 
	C430.376099,355.812408 420.208282,358.075562 409.436951,359.215057 
	C399.509552,360.265259 390.064972,359.807556 380.452911,357.202606 
	C365.104187,353.042908 355.307098,343.018616 350.147369,328.597839 
	C345.989532,316.977234 343.989990,304.764343 343.995453,292.317657 
	C344.009216,261.095581 344.000000,229.873489 344.000000,198.256042 
	C333.800598,198.256042 324.725586,198.256042 315.327087,198.256042 
	C315.327087,181.134415 315.327087,164.401260 315.327087,147.271439 
	C324.183624,147.271439 333.258545,147.271439 342.725281,147.271439 
	C342.725281,137.151947 342.725281,127.411270 342.725281,117.336639 
	C359.512787,117.336639 375.913055,117.336639 393.447083,117.336639 
	C393.447083,126.990105 393.447083,136.898010 393.447083,147.007507 
	C408.530762,147.007507 422.483978,147.007507 437.000000,147.007507 
	C437.000000,151.306992 437.000000,155.408554 437.000000,160.009003 
z"/>
<path fill="#FFFFFF" opacity="1.000000" stroke="none" 
	d="
M249.663971,96.161278 
	C242.930847,82.876823 242.557922,69.749275 251.154785,57.813137 
	C262.971252,41.406834 283.005066,38.501617 298.107056,52.703407 
	C310.585480,64.437996 312.331787,86.273293 301.036896,99.768394 
	C291.782715,110.825333 278.582733,114.972504 266.038330,110.057503 
	C259.065796,107.325592 254.083466,102.407822 249.663971,96.161278 
z"/>
<path fill="#000000" opacity="1.000000" stroke="none" 
	d="
M184.346680,238.193359 
	C182.013657,249.647354 171.486252,257.581909 160.869644,256.963013 
	C155.191666,256.632019 149.287186,256.767944 143.925232,255.193619 
	C134.687180,252.481186 129.949066,245.025360 128.099731,235.978973 
	C126.081459,226.106171 126.858376,216.347229 129.897842,206.609375 
	C133.078201,196.420135 144.153244,190.107269 152.975830,189.901566 
	C161.355896,189.706177 169.306564,190.326248 175.790421,196.318588 
	C182.594299,202.606659 185.364288,210.892715 185.850479,219.753403 
	C186.179901,225.757187 185.092316,231.838715 184.346680,238.193359 
z"/>
<path fill="#000000" opacity="1.000000" stroke="none" 
	d="
M160.065704,430.000000 
	C150.245483,430.003601 141.116409,428.596466 132.845551,424.202057 
	C124.058952,419.533630 120.923569,411.393616 122.115959,401.949066 
	C123.338234,392.267792 129.194763,385.834625 138.569901,383.041565 
	C149.659348,379.737823 160.898315,379.240570 172.442719,380.819000 
	C179.645752,381.803864 186.251663,383.424957 192.227768,387.665314 
	C200.594711,393.602142 201.650360,405.560181 198.322617,414.311646 
	C194.645142,423.982788 186.577652,427.137665 177.741714,428.858154 
	C172.150009,429.946960 166.291656,429.666412 160.065704,430.000000 
z"/>
</svg>