<svg version="1.1" id="Layer_1" xmlns="http://www.w3.org/2000/svg" xmlns:xlink="http://www.w3.org/1999/xlink" x="0px" y="0px"
	 width="100%" viewBox="0 0 512 512" enable-background="new 0 0 512 512" xml:space="preserve">
<path fill="#000000" opacity="1.000000" stroke="none" 
	d="
M258.766296,1.267542 
	C342.297577,1.000000 425.595184,1.020730 508.892639,0.920935 
	C512.081421,0.917115 513.109619,1.244488 513.106934,4.889387 
	C512.983826,172.983810 512.982361,341.078339 513.112915,509.172760 
	C513.115845,512.945129 511.890442,513.071838 508.830505,513.068665 
	C425.866180,512.982605 342.901733,513.000000 259.468658,513.000000 
	C256.191925,508.693390 261.132385,507.308289 262.419189,504.189178 
	C262.915680,503.572906 263.222900,503.249390 263.773987,502.720032 
	C264.314636,502.225281 264.619568,501.943329 265.114716,501.417694 
	C265.598083,500.883728 265.901215,500.604340 266.467590,500.145996 
	C266.893951,499.838257 267.075836,499.729919 267.553711,499.511108 
	C268.652496,499.078949 269.340332,498.585754 270.218750,497.778473 
	C274.397888,494.885620 276.667633,490.673523 279.927155,487.379272 
	C298.260010,468.850525 316.813354,450.541962 335.179749,432.046692 
	C336.119232,431.100616 337.200745,430.325928 338.450684,429.217346 
	C340.776733,426.569397 342.968750,424.266022 345.498993,421.820435 
	C349.574188,417.729095 353.493774,413.955200 357.399445,409.685486 
	C363.442291,404.273285 368.608337,398.469940 374.443054,392.857117 
	C380.329163,387.295166 385.342560,381.328094 391.586670,376.131195 
	C394.920898,371.916290 398.899231,368.777283 402.394135,364.706268 
	C407.208344,361.305054 410.123901,356.478668 414.596069,352.733398 
	C441.801788,325.257721 469.073059,298.336975 496.096436,271.168823 
	C505.076569,262.140625 504.988800,251.778885 495.851868,242.639389 
	C418.924133,165.690277 341.976044,88.761520 265.043243,11.817440 
	C263.276306,10.050245 261.473816,8.316895 259.811188,6.448058 
	C258.549713,5.030108 257.477570,3.558105 258.766296,1.267542 
z"/>
<path fill="#000000" opacity="1.000000" stroke="none" 
	d="
M255.233765,512.732300 
	C171.702423,513.000000 88.404816,512.979309 5.107354,513.079102 
	C1.918608,513.082886 0.890364,512.755493 0.893034,509.110596 
	C1.016142,341.016174 1.017623,172.921646 0.887080,4.827227 
	C0.884150,1.054888 2.109573,0.928107 5.169500,0.931283 
	C88.133835,1.017382 171.098267,1.000000 254.531342,1.000000 
	C256.849518,3.254747 255.570679,5.022519 254.017776,6.633440 
	C251.495071,9.250371 248.935455,11.828013 246.468506,14.974606 
	C243.841629,15.854821 242.079590,17.361404 240.514374,19.103867 
	C219.991074,41.951202 197.479904,62.842625 175.708282,84.944366 
	C172.874634,87.093460 171.185104,89.880020 168.509430,92.174232 
	C165.710663,94.359909 164.029724,97.189346 161.151733,99.284363 
	C156.458817,102.016541 153.891861,106.384926 150.205231,110.122040 
	C144.607452,114.209572 140.700989,119.571655 135.490326,124.057480 
	C131.577698,128.306747 127.511337,131.948135 123.665283,136.277771 
	C119.475639,139.589111 116.432854,143.572601 112.521027,147.156219 
	C108.684631,150.905716 105.152565,154.480576 101.479012,158.407867 
	C95.673225,162.999390 91.852432,168.968445 86.905464,173.893906 
	C65.294128,195.411285 44.132248,217.398941 22.029821,238.397476 
	C8.104380,251.627441 8.629171,262.273224 21.844187,275.379333 
	C98.399925,351.304199 174.498795,427.689789 250.667786,504.003784 
	C252.929657,506.269958 256.887390,507.953949 255.233765,512.732300 
z"/>
<path fill="#2684FF" opacity="1.000000" stroke="none" 
	d="
M255.399994,513.000000 
	C255.771683,510.472076 253.310455,509.921051 252.170639,508.779541 
	C173.444244,429.936981 94.734863,351.076874 15.758015,272.485596 
	C7.332934,264.101654 7.198927,249.795029 15.759842,241.501755 
	C38.484722,219.487274 60.660488,196.904755 82.980202,174.474075 
	C88.579834,168.846603 93.899010,162.940063 99.654373,157.020920 
	C103.226631,158.037552 104.075256,161.464523 106.275101,163.654694 
	C132.061996,189.328247 157.804260,215.046967 183.498184,240.813644 
	C185.881775,243.203979 189.123734,244.352982 191.487640,247.221313 
	C192.393692,250.000702 191.082031,251.760345 189.449295,253.222351 
	C186.271301,256.067993 187.038940,258.384949 189.791580,261.100067 
	C204.564850,275.671906 219.177399,290.406158 233.835419,305.094025 
	C241.920746,313.195770 250.343491,320.974091 258.043579,329.943085 
	C263.244232,335.869659 268.261139,341.491486 272.835510,347.925629 
	C274.069916,352.597961 277.885406,355.143707 279.929535,358.925018 
	C283.708710,365.915833 287.035309,373.058533 289.575989,380.992554 
	C296.420227,399.198669 297.335938,417.642517 295.748688,436.408752 
	C294.322510,453.270691 289.248199,468.945190 281.344147,483.835968 
	C278.735291,488.750916 275.283112,492.960968 271.516785,497.476746 
	C270.370117,498.684845 269.349152,499.487946 268.815186,501.090393 
	C268.769958,501.462036 268.727173,501.668427 268.627808,501.703461 
	C267.513306,501.097107 267.638763,502.085602 267.187195,502.797424 
	C266.958252,503.398468 266.800964,503.661407 266.290833,503.924164 
	C265.895996,504.154297 265.724884,504.307373 265.257874,504.636505 
	C262.745422,507.396820 260.528900,509.981018 258.656189,512.782593 
	C257.933319,513.000000 256.866669,513.000000 255.399994,513.000000 
z"/>
<path fill="#2684FF" opacity="1.000000" stroke="none" 
	d="
M244.617004,14.233620 
	C247.386642,8.808498 252.486389,5.952170 255.338486,1.222118 
	C256.066681,1.000000 257.133331,1.000000 258.600006,1.000000 
	C258.229248,3.529133 260.691376,4.080647 261.832031,5.222990 
	C340.488312,83.995979 419.118164,162.795990 498.045502,241.296799 
	C506.678833,249.883499 506.769470,264.209625 498.086975,272.668549 
	C470.636719,299.411957 443.754456,326.738403 416.345459,353.980652 
	C413.649780,353.858887 412.328308,352.013397 410.821991,350.508636 
	C383.618744,323.332855 356.395935,296.176636 329.203156,268.990356 
	C327.668976,267.456543 326.142456,265.927277 325.139343,263.555237 
	C329.529083,256.045563 323.751648,252.530640 319.703827,248.469101 
	C300.220673,228.920029 280.640137,209.468216 261.179779,189.896332 
	C259.422821,188.129303 257.591980,186.426285 255.934097,184.094971 
	C250.054611,177.872208 244.664780,171.691925 239.581711,164.799927 
	C235.585831,158.014618 231.396042,151.759338 228.637680,144.690521 
	C227.565872,141.943756 226.187866,139.320053 225.542786,136.004089 
	C220.474243,124.576378 218.287338,112.887749 217.671631,100.884560 
	C216.600769,80.007515 219.365112,59.759827 227.754974,40.426594 
	C231.896652,30.882725 237.020844,22.026659 244.617004,14.233620 
z"/>
<path fill="#0E65DF" opacity="1.000000" stroke="none" 
	d="
M376.233307,393.826294 
	C370.578949,399.707092 365.116302,405.282562 359.345703,410.999207 
	C356.456055,410.641907 355.536652,408.216217 353.943726,406.622223 
	C327.179749,379.840607 300.310425,353.164459 273.575714,326.353729 
	C271.913910,324.687195 269.922455,323.499664 267.909485,321.746460 
	C266.581848,318.798004 268.266205,317.119415 269.850372,315.426483 
	C271.534027,313.627258 273.319641,311.927704 275.308777,309.965698 
	C275.700623,309.588959 275.856995,309.443756 276.245300,309.094727 
	C276.627228,308.760223 276.777191,308.629547 277.141571,308.305206 
	C277.497620,307.990143 277.639282,307.868683 278.201599,307.415649 
	C278.757172,306.974182 278.892120,306.864349 279.419006,306.408508 
	C279.941803,305.939209 280.072601,305.815979 280.617676,305.305847 
	C281.185211,304.789246 281.338470,304.659546 282.024231,304.181122 
	C282.762146,303.748535 282.967590,303.664642 283.506134,303.511902 
	C284.069122,303.447906 284.298981,303.452728 284.877441,303.463013 
	C288.484314,302.804901 290.894165,304.112091 293.181580,306.399323 
	C319.960419,333.176392 346.716888,359.975922 373.491638,386.757111 
	C375.310486,388.576416 377.753662,390.271362 376.233307,393.826294 
z"/>
<path fill="#166FE9" opacity="1.000000" stroke="none" 
	d="
M376.349091,393.990356 
	C375.722839,391.988434 374.169830,390.673370 372.762970,389.266388 
	C345.842010,362.341614 318.908020,335.429840 292.016754,308.475433 
	C289.938965,306.392792 287.841766,304.663757 284.295563,304.913757 
	C283.245270,303.748077 283.272614,302.475250 284.099274,301.615753 
	C289.122925,296.392548 293.445251,290.407318 300.322754,286.724731 
	C304.561981,286.804230 307.442230,288.632324 310.164276,291.358948 
	C336.800262,318.040100 363.456268,344.701508 390.098236,371.376831 
	C391.488129,372.768524 393.143158,374.046051 393.089844,376.694611 
	C387.630707,382.651428 382.143646,388.250244 376.349091,393.990356 
z"/>
<path fill="#0153CD" opacity="1.000000" stroke="none" 
	d="
M269.895111,498.340027 
	C280.737518,482.351227 288.581543,465.467285 291.988983,446.680634 
	C295.972656,424.717133 294.411499,403.106201 287.740753,381.428467 
	C289.735901,378.585297 291.767853,379.599701 293.707336,381.167236 
	C295.903595,382.942230 297.823029,385.020874 299.807983,387.022552 
	C312.072205,399.390259 324.495819,411.599060 336.704956,424.021332 
	C338.181946,425.524200 340.098083,426.816101 340.080444,429.676514 
	C331.861969,438.424713 323.659821,446.849609 315.362915,455.180176 
	C300.855255,469.746765 286.289398,484.255402 271.443298,498.916565 
	C270.612091,499.326660 270.184296,499.218414 269.895111,498.340027 
z"/>
<path fill="#1C77F2" opacity="1.000000" stroke="none" 
	d="
M393.420532,376.917297 
	C391.501068,375.624359 389.803192,374.277405 388.279694,372.755798 
	C361.771301,346.280975 335.272278,319.796722 308.815369,293.270508 
	C306.666779,291.116302 304.473053,289.177399 301.222961,288.093506 
	C300.346283,286.951111 300.247925,285.794373 300.879730,285.070831 
	C304.851990,280.522003 308.289642,275.360107 314.558350,272.900513 
	C317.683655,273.732056 319.993011,275.193939 322.045929,277.250397 
	C348.582001,303.832184 375.147491,330.384674 401.701874,356.948242 
	C404.069733,359.316956 406.737823,361.629181 404.233826,365.812073 
	C400.602112,369.673096 397.162689,373.227570 393.420532,376.917297 
z"/>
<path fill="#085CD6" opacity="1.000000" stroke="none" 
	d="
M267.391357,320.767609 
	C270.580811,320.802551 272.578461,322.031250 274.446136,323.903381 
	C301.700256,351.222565 328.996246,378.499908 356.284851,405.784668 
	C357.591003,407.090607 358.874847,408.399506 359.003693,410.772552 
	C355.244690,415.050018 351.451630,418.959625 347.355743,423.021851 
	C344.864929,422.924500 343.597076,421.285828 342.199677,419.890411 
	C321.473999,399.194336 300.747925,378.498566 280.008789,357.815979 
	C277.199493,355.014374 275.147797,351.449188 271.288879,349.209259 
	C266.401703,343.263214 261.799438,337.525238 257.114014,331.460876 
	C257.047699,330.957397 257.064545,330.780334 257.113831,330.337341 
	C257.177704,329.894714 257.209106,329.718018 257.467010,329.054749 
	C257.794739,328.422943 257.895935,328.277710 258.334961,327.737762 
	C258.790070,327.221405 258.907349,327.099762 259.377686,326.630096 
	C259.730743,326.282104 260.080566,325.943970 260.425903,325.610291 
	C260.771240,325.276642 261.112488,324.945129 261.451080,324.614655 
	C261.789673,324.284180 262.126831,323.954102 262.464294,323.624146 
	C262.801727,323.294220 263.141907,322.963562 263.489624,322.633209 
	C263.837311,322.302856 264.199951,321.975677 264.590637,321.664642 
	C265.125000,321.262482 265.268677,321.171356 265.892273,320.891357 
	C266.544220,320.686218 266.716248,320.669952 267.391357,320.767609 
z"/>
<path fill="#217DF8" opacity="1.000000" stroke="none" 
	d="
M404.348297,365.977417 
	C404.243591,363.396454 402.962585,361.421448 401.091888,359.554901 
	C374.102936,332.625458 347.157898,305.652008 320.180725,278.710693 
	C318.658539,277.190552 316.949402,275.857605 315.139832,274.153015 
	C314.885468,269.343933 319.844879,263.879852 325.511597,262.783691 
	C327.356293,264.258881 328.945648,265.475220 330.349487,266.877289 
	C357.547455,294.040741 384.727448,321.222198 411.894562,348.416534 
	C413.406311,349.929779 415.225555,351.230774 415.956299,353.781372 
	C412.243927,358.026703 408.449493,361.931458 404.348297,365.977417 
z"/>
<path fill="#0458D2" opacity="1.000000" stroke="none" 
	d="
M271.145325,349.312714 
	C273.879272,349.028351 276.013885,350.502319 277.959320,352.449524 
	C300.080841,374.591034 322.216705,396.718231 344.347015,418.850983 
	C345.406982,419.911102 346.498108,420.954315 346.969910,422.830078 
	C344.935699,425.371307 342.818451,427.568146 340.403992,429.903625 
	C332.355042,423.532745 325.640839,415.957672 318.431885,408.891510 
	C310.150757,400.774414 302.015625,392.508453 293.810425,384.313782 
	C292.293823,382.799133 290.892792,381.073151 288.063385,381.050873 
	C283.005707,370.149200 278.091858,359.393463 271.145325,349.312714 
z"/>
<path fill="#0E65DF" opacity="1.000000" stroke="none" 
	d="
M269.669067,498.176819 
	C270.187775,498.218475 270.440582,498.476837 270.916016,498.890015 
	C270.508301,499.745575 269.877991,500.446289 269.008820,501.304535 
	C268.113708,500.260193 268.533356,499.280365 269.669067,498.176819 
z"/>
<path fill="#0E65DF" opacity="1.000000" stroke="none" 
	d="
M267.243286,502.995636 
	C267.308075,502.615112 267.629761,502.171936 268.239929,501.733643 
	C268.185669,502.136658 267.842957,502.534821 267.243286,502.995636 
z"/>
<path fill="#0E65DF" opacity="1.000000" stroke="none" 
	d="
M265.231445,504.846436 
	C265.142212,504.553284 265.364166,504.336731 265.847473,504.082062 
	C265.878418,504.294250 265.689697,504.587280 265.231445,504.846436 
z"/>
<path fill="#0153CD" opacity="1.000000" stroke="none" 
	d="
M244.544922,13.956099 
	C242.322235,18.343817 239.746964,22.767025 237.191574,27.201691 
	C226.253784,46.183273 220.456131,66.535629 219.825684,88.523315 
	C219.365250,104.581085 222.186356,119.967102 227.083496,135.499161 
	C226.854492,138.865463 224.897873,138.032822 223.280182,137.429230 
	C221.867737,136.902222 220.914032,135.633179 219.855240,134.582153 
	C205.352280,120.185310 190.944763,105.692871 176.495514,91.242287 
	C174.664886,89.411514 172.258942,87.710327 173.755569,84.146927 
	C197.050919,60.649128 220.165314,37.473526 243.294083,14.312299 
	C243.497681,14.108424 243.894745,14.097740 244.544922,13.956099 
z"/>
<path fill="#1168E3" opacity="1.000000" stroke="none" 
	d="
M133.885559,123.314896 
	C138.479034,118.079369 142.756729,112.894073 148.612106,108.918808 
	C151.552277,109.367546 152.481003,111.797127 154.079803,113.395584 
	C180.472137,139.782272 206.884247,166.149246 233.254105,192.558365 
	C235.401733,194.709198 238.126923,196.020187 240.460419,198.433334 
	C241.103210,200.358566 240.671005,201.772720 239.573212,202.916885 
	C235.668198,206.986694 232.140213,211.463608 226.886414,214.573639 
	C222.581192,215.001572 219.585526,213.408463 216.818619,210.631561 
	C190.319916,184.037140 163.726212,157.537430 137.234558,130.935867 
	C135.262970,128.956100 132.981110,127.026077 133.885559,123.314896 
z"/>
<path fill="#1770EB" opacity="1.000000" stroke="none" 
	d="
M133.594025,123.087265 
	C136.592346,127.423950 140.409714,130.912048 144.052628,134.554428 
	C168.555786,159.054001 193.057205,183.555313 217.556229,208.059036 
	C219.796387,210.299606 221.910553,212.728699 225.773422,213.008484 
	C226.972855,214.604050 226.521057,216.033173 225.401108,217.142105 
	C222.116928,220.394028 219.409515,224.282928 214.829422,226.610809 
	C209.485535,227.481705 206.151306,225.021744 202.783432,221.632507 
	C176.729614,195.413406 150.519653,169.349442 124.454704,143.140961 
	C122.389343,141.064224 119.652512,139.134140 121.764786,135.196167 
	C125.737991,130.999161 129.514313,127.110603 133.594025,123.087265 
z"/>
<path fill="#217DF8" opacity="1.000000" stroke="none" 
	d="
M191.465515,248.218689 
	C187.589584,247.251678 184.783463,245.320679 182.247635,242.779617 
	C156.269119,216.747223 130.256165,190.749191 104.241974,164.752426 
	C102.216644,162.728455 100.259872,160.697128 99.993553,157.254364 
	C103.424545,153.308853 106.887421,149.737640 110.657455,146.025955 
	C111.975403,146.038086 112.839294,146.419403 113.570892,147.193253 
	C139.839417,174.978851 167.525635,201.358002 194.313553,228.627884 
	C196.925049,231.286346 200.055634,233.072739 203.233261,235.468460 
	C203.197372,240.586746 197.143509,247.153809 191.465515,248.218689 
z"/>
<path fill="#0B60DB" opacity="1.000000" stroke="none" 
	d="
M240.485687,199.213898 
	C237.082642,198.984375 234.856476,197.376160 232.793030,195.310410 
	C205.897324,168.384811 178.981033,141.479767 152.070847,114.568626 
	C150.660355,113.158073 149.137222,111.813240 148.995972,109.236084 
	C151.413712,104.308540 155.107101,100.922386 159.606110,97.905121 
	C162.540619,98.346359 163.458786,100.782379 165.058289,102.381531 
	C191.453720,128.771210 217.882416,155.127640 244.250198,181.544861 
	C246.397522,183.696228 249.112823,185.021454 251.454926,187.429382 
	C251.189499,192.597626 246.055191,198.124634 240.485687,199.213898 
z"/>
<path fill="#1C77F2" opacity="1.000000" stroke="none" 
	d="
M203.807098,236.275635 
	C199.681473,236.163635 197.087860,234.629013 194.731018,232.266861 
	C168.134171,205.609924 141.498184,178.992020 114.863548,152.372818 
	C113.194031,150.704285 111.656273,148.976807 111.038925,146.237885 
	C114.426506,142.314819 117.888390,138.744171 121.655975,135.030609 
	C121.908569,137.284622 123.346207,138.861435 124.908058,140.422119 
	C152.074631,167.568115 179.239105,194.716263 206.361328,221.906540 
	C208.350357,223.900558 210.430634,225.293747 213.749435,225.033081 
	C215.475418,228.076904 213.023575,229.533508 211.445435,231.258972 
	C209.797424,233.060791 208.155579,234.914078 205.633667,236.275986 
	C205.029205,236.414612 204.780334,236.435242 203.807098,236.275635 
z"/>
<path fill="#085CD6" opacity="1.000000" stroke="none" 
	d="
M251.474472,188.211914 
	C248.065277,187.984528 245.844696,186.364532 243.782455,184.300034 
	C216.884094,157.372330 189.965714,130.464630 163.052567,103.551682 
	C161.640213,102.139336 160.131165,100.785225 159.986755,98.209473 
	C162.084229,95.603630 164.215881,93.367058 166.647949,90.979797 
	C169.135773,91.076637 170.402435,92.714981 171.798599,94.109245 
	C191.920135,114.203552 212.030136,134.309464 232.176224,154.379120 
	C235.117630,157.309387 237.177246,161.036194 240.862885,163.744873 
	C246.387985,170.040054 251.635727,176.117004 256.975525,182.516327 
	C256.973114,186.247192 255.416885,188.275467 251.474472,188.211914 
z"/>
<path fill="#0458D2" opacity="1.000000" stroke="none" 
	d="
M241.040375,163.624390 
	C238.495758,163.672165 236.600525,162.111191 234.806274,160.315491 
	C213.210449,138.702393 191.601593,117.102318 170.000443,95.494537 
	C168.830826,94.324577 167.553406,93.222214 167.031311,91.173241 
	C169.077789,88.595299 171.207214,86.361488 173.636200,83.975815 
	C174.260544,85.952850 175.783630,87.281570 177.188644,88.686768 
	C192.190292,103.690254 207.179077,118.706703 222.222565,133.668137 
	C223.414566,134.853622 224.286377,136.889862 226.878418,136.045685 
	C231.711197,145.025940 235.367218,154.638779 241.040375,163.624390 
z"/>
<path fill="#000000" opacity="1.000000" stroke="none" 
	d="
M250.973175,188.342102 
	C252.894547,186.393448 254.669785,184.749039 256.756348,182.971664 
	C281.178955,206.856583 305.273163,230.891724 329.437103,254.856522 
	C331.196655,256.601593 331.150635,257.725861 329.328888,259.199707 
	C328.175262,260.132965 327.199646,261.286194 325.998779,262.648438 
	C322.307800,266.391327 318.762238,269.826599 315.084534,273.565186 
	C310.373413,278.335724 305.794495,282.802917 301.080933,287.573364 
	C295.356689,293.344727 289.767059,298.812805 284.036224,304.582886 
	C283.895020,304.884857 283.957794,304.937317 283.983093,304.905212 
	C283.784698,305.154663 283.549683,305.426453 283.086548,305.848022 
	C282.868256,306.006226 283.005951,306.006165 283.006073,305.937317 
	C282.801544,306.166382 282.567841,306.439423 282.086487,306.846741 
	C281.867981,307.005920 282.005615,307.006165 282.005890,306.937347 
	C281.801819,307.166626 281.568176,307.439667 281.086609,307.846680 
	C280.868073,308.005859 281.005646,308.006134 281.005890,307.937347 
	C280.802368,308.167145 280.567261,308.438934 280.086548,308.846619 
	C279.868042,309.005768 280.005493,309.006073 280.005798,308.937347 
	C279.801788,309.166687 279.568115,309.439636 279.086609,309.846558 
	C278.868134,310.005676 279.005737,310.011841 279.008972,309.943054 
	C278.807861,310.171112 278.566223,310.433685 278.058960,310.804260 
	C274.615356,314.058594 271.400024,317.170532 268.039551,320.581970 
	C267.894470,320.881500 267.953979,320.934052 267.979340,320.903503 
	C267.783508,321.154724 267.550262,321.426086 267.089294,321.846405 
	C266.872223,322.004395 267.004150,322.004730 267.004395,321.938751 
	C266.801086,322.169250 266.566803,322.439331 266.089020,322.845520 
	C265.872009,323.004333 266.004028,323.004700 266.004333,322.938690 
	C265.799652,323.167999 265.568085,323.440521 265.088776,323.845520 
	C264.871643,324.004303 265.003998,324.004639 265.004303,323.938446 
	C264.801086,324.168976 264.566803,324.439331 264.088593,324.845520 
	C263.871307,325.004242 264.003906,325.004608 264.004242,324.938293 
	C263.799805,325.167694 263.568390,325.440552 263.088593,325.845459 
	C262.871277,326.004181 263.003998,326.004608 263.004272,325.938263 
	C262.801270,326.168915 262.566895,326.439270 262.088531,326.845490 
	C261.871185,327.004211 262.003906,327.004578 262.004211,326.938232 
	C261.801147,327.168793 261.566895,327.439270 261.088562,327.845490 
	C260.871216,328.004211 261.003937,328.004547 261.004181,327.938171 
	C260.800323,328.168091 260.567505,328.439758 260.088623,328.845459 
	C259.871338,329.004211 260.003876,329.004486 260.004150,328.938232 
	C259.801117,329.168823 259.566895,329.439240 259.088623,329.845459 
	C258.871338,330.004211 259.003296,330.011749 259.007202,329.945801 
	C258.804901,330.175690 258.561859,330.437286 258.051758,330.804138 
	C257.821381,330.943451 257.410553,330.977509 257.220703,331.056000 
	C248.382797,322.618042 239.695358,314.141144 231.095383,305.576416 
	C215.991638,290.534546 201.019608,275.359222 185.798691,260.437378 
	C182.971298,257.665497 182.768478,255.953262 185.867859,253.556778 
	C187.695114,252.143906 189.191589,250.303253 190.978088,248.348145 
	C195.016205,244.262207 198.913071,240.483124 202.946335,236.399719 
	C203.082733,236.095413 203.025055,236.063202 203.018677,236.095627 
	C203.217422,235.842514 203.448135,235.579437 203.923248,235.192703 
	C207.383606,231.917664 210.625153,228.788712 214.010178,225.352417 
	C218.053284,221.247345 221.952911,217.449615 226.000916,213.347092 
	C230.712128,208.577255 235.274963,204.112228 239.985901,199.343048 
	C243.698349,195.574707 247.262711,192.110504 250.973175,188.342102 
z"/>
<path fill="#166FE9" opacity="1.000000" stroke="none" 
	d="
M278.041687,310.784363 
	C278.044861,310.647156 278.259064,310.347687 278.742737,309.961243 
	C278.759064,310.123535 278.505890,310.372803 278.041687,310.784363 
z"/>
<path fill="#166FE9" opacity="1.000000" stroke="none" 
	d="
M279.068909,309.827515 
	C279.065948,309.689362 279.263763,309.373016 279.733856,308.962646 
	C279.760620,309.128876 279.515137,309.389099 279.068909,309.827515 
z"/>
<path fill="#166FE9" opacity="1.000000" stroke="none" 
	d="
M280.068787,308.827576 
	C280.065887,308.689392 280.263733,308.373047 280.733856,307.962616 
	C280.760590,308.128815 280.515076,308.389099 280.068787,308.827576 
z"/>
<path fill="#166FE9" opacity="1.000000" stroke="none" 
	d="
M281.068756,307.827576 
	C281.065887,307.689453 281.263702,307.373047 281.733856,306.962585 
	C281.760590,307.128784 281.515015,307.389008 281.068756,307.827576 
z"/>
<path fill="#166FE9" opacity="1.000000" stroke="none" 
	d="
M282.068665,306.827576 
	C282.065826,306.689484 282.263672,306.373077 282.733856,305.962555 
	C282.760590,306.128723 282.514984,306.388977 282.068665,306.827576 
z"/>
<path fill="#166FE9" opacity="1.000000" stroke="none" 
	d="
M283.068604,305.827759 
	C283.066254,305.689697 283.264282,305.373169 283.735352,304.964874 
	C283.761902,305.131805 283.515411,305.390564 283.068604,305.827759 
z"/>
<path fill="#0E65DF" opacity="1.000000" stroke="none" 
	d="
M258.035156,330.784332 
	C258.038116,330.645447 258.254822,330.347443 258.741333,329.964630 
	C258.757019,330.128265 258.502960,330.376740 258.035156,330.784332 
z"/>
<path fill="#0E65DF" opacity="1.000000" stroke="none" 
	d="
M259.072632,329.828186 
	C259.067871,329.688568 259.264435,329.372894 259.732727,328.964600 
	C259.760956,329.132050 259.517426,329.392120 259.072632,329.828186 
z"/>
<path fill="#0E65DF" opacity="1.000000" stroke="none" 
	d="
M260.072601,328.828186 
	C260.067871,328.688538 260.264404,328.372894 260.732666,327.964539 
	C260.760895,328.131927 260.517395,328.392059 260.072601,328.828186 
z"/>
<path fill="#0E65DF" opacity="1.000000" stroke="none" 
	d="
M261.072479,327.828186 
	C261.067810,327.688538 261.264404,327.372894 261.732758,326.964539 
	C261.760925,327.131927 261.517334,327.392029 261.072479,327.828186 
z"/>
<path fill="#0E65DF" opacity="1.000000" stroke="none" 
	d="
M262.072449,326.828125 
	C262.067780,326.688538 262.264404,326.372864 262.732788,325.964539 
	C262.760956,326.131989 262.517334,326.392029 262.072449,326.828125 
z"/>
<path fill="#0E65DF" opacity="1.000000" stroke="none" 
	d="
M263.072479,325.828094 
	C263.067841,325.688507 263.264404,325.372833 263.732788,324.964600 
	C263.760956,325.132019 263.517303,325.391998 263.072479,325.828094 
z"/>
<path fill="#0E65DF" opacity="1.000000" stroke="none" 
	d="
M264.072479,324.828156 
	C264.067871,324.688568 264.264435,324.372894 264.732788,323.964722 
	C264.760956,324.132202 264.517303,324.392120 264.072479,324.828156 
z"/>
<path fill="#0E65DF" opacity="1.000000" stroke="none" 
	d="
M265.072693,323.828186 
	C265.068085,323.688629 265.264526,323.372955 265.732819,322.964966 
	C265.761017,323.132477 265.517395,323.392273 265.072693,323.828186 
z"/>
<path fill="#0E65DF" opacity="1.000000" stroke="none" 
	d="
M266.072937,322.828186 
	C266.068329,322.688660 266.264648,322.372955 266.732788,321.965027 
	C266.761047,322.132538 266.517487,322.392303 266.072937,322.828186 
z"/>
<path fill="#0E65DF" opacity="1.000000" stroke="none" 
	d="
M267.073059,321.828186 
	C267.068481,321.688690 267.264771,321.373016 267.732849,320.965149 
	C267.761108,321.132629 267.517517,321.392303 267.073059,321.828186 
z"/>
<path fill="#217DF8" opacity="1.000000" stroke="none" 
	d="
M203.937744,235.208801 
	C203.939667,235.344467 203.737259,235.642319 203.273590,236.034119 
	C203.252701,235.875717 203.493073,235.623367 203.937744,235.208801 
z"/>
</svg>