<?xml version="1.0" encoding="UTF-8" standalone="no"?>
<!DOCTYPE svg PUBLIC "-//W3C//DTD SVG 1.1//EN" "http://www.w3.org/Graphics/SVG/1.1/DTD/svg11.dtd">
<svg xmlns="http://www.w3.org/2000/svg" version="1.1" viewBox="0.00 0.00 1107.00 1006.00">
<path fill="#ffffff" d="
  M 479.49 94.74
  L 490.50 94.75
  Q 635.33 94.76 780.16 94.74
  C 790.52 94.74 801.54 94.76 812.04 95.53
  Q 879.03 100.48 934.67 138.01
  L 938.64 140.73
  L 941.41 142.74
  L 944.95 145.32
  Q 1016.88 201.03 1037.87 289.68
  L 1038.42 292.56
  L 1040.48 303.75
  L 1041.10 307.67
  C 1052.12 387.72 1026.36 464.73 969.49 521.52
  A 0.81 0.80 -45.5 0 0 969.49 522.66
  Q 993.65 546.66 1010.88 576.23
  L 1015.73 585.03
  C 1070.58 693.35 1042.80 820.97 947.91 896.53
  L 944.52 899.14
  L 936.55 904.95
  L 932.01 908.04
  L 928.21 910.47
  L 923.71 913.17
  L 912.79 919.49
  L 908.35 921.82
  C 870.25 941.15 831.46 949.25 789.00 949.25
  Q 720.17 949.24 651.62 949.26
  L 625.00 949.25
  L 308.50 949.24
  Q 308.00 949.24 308.00 948.74
  L 308.00 665.00
  A 0.27 0.26 -67.7 0 1 308.45 664.81
  L 357.75 714.12
  L 370.51 726.87
  L 449.91 806.28
  A 1.60 1.57 -22.5 0 0 451.02 806.73
  L 512.56 806.69
  L 525.28 806.66
  L 528.66 806.71
  L 537.50 806.75
  L 791.31 806.63
  L 796.95 806.74
  C 848.13 805.14 889.98 769.16 899.51 719.50
  C 911.34 657.90 866.50 600.23 805.16 593.91
  Q 799.26 593.31 785.19 593.27
  Q 759.84 593.21 734.50 593.27
  L 729.71 593.24
  L 688.24 593.23
  Q 687.75 593.23 687.75 592.74
  L 687.75 451.26
  Q 687.75 450.77 688.24 450.77
  Q 738.53 450.71 788.75 450.76
  Q 801.86 450.77 808.71 449.87
  C 871.43 441.57 913.70 379.88 897.86 318.03
  C 885.14 268.39 842.67 237.54 791.56 237.36
  Q 694.63 237.02 597.78 237.50
  L 585.99 237.48
  L 451.21 237.26
  A 1.40 1.39 -66.8 0 0 450.20 237.67
  L 308.43 379.44
  A 0.26 0.26 0.0 0 1 307.99 379.26
  L 307.97 283.68
  L 307.98 264.29
  L 307.99 95.56
  A 0.82 0.82 0.0 0 1 308.81 94.74
  L 479.49 94.74
  Z"
/>
<path fill="#ffffff" d="
  M 158.22 158.59
  L 162.00 162.31
  L 163.19 163.55
  L 167.63 168.04
  L 236.39 236.81
  Q 236.75 237.18 236.75 237.70
  L 236.75 584.49
  L 236.79 600.00
  L 236.77 806.58
  Q 236.77 807.10 236.41 807.46
  L 95.31 948.57
  Q 94.50 949.38 94.50 948.23
  L 94.50 749.49
  L 94.39 740.34
  L 94.43 737.77
  L 94.49 729.57
  L 94.49 95.48
  A 0.26 0.26 0.0 0 1 94.93 95.29
  L 158.22 158.59
  Z"
/>
<path fill="#ffffff" d="
  M 530.03 542.58
  L 544.39 557.01
  L 655.94 668.56
  L 669.43 682.04
  L 722.69 735.31
  A 0.26 0.26 0.0 0 1 722.51 735.75
  L 522.03 735.75
  Q 521.62 735.75 521.33 735.46
  L 308.44 522.56
  A 0.63 0.62 44.7 0 1 308.43 521.68
  L 407.59 422.47
  L 425.83 404.22
  L 447.61 382.49
  L 472.30 357.80
  L 479.00 350.84
  L 483.28 346.81
  L 521.25 308.82
  Q 521.57 308.50 522.02 308.50
  L 722.80 308.50
  Q 723.13 308.50 722.90 308.73
  L 509.96 521.66
  Q 509.57 522.06 509.96 522.45
  L 530.03 542.58
  Z"
/>
</svg>
