<svg version="1.1" id="Layer_1" xmlns="http://www.w3.org/2000/svg" xmlns:xlink="http://www.w3.org/1999/xlink" x="0px" y="0px"
	 width="100%" viewBox="0 0 225 225" enable-background="new 0 0 225 225" xml:space="preserve">
<path fill="#FEFEFF" opacity="1.000000" stroke="none" 
	d="
M148.000000,226.000000 
	C98.666672,226.000000 49.833340,226.000000 1.000006,226.000000 
	C1.000004,151.000000 1.000004,76.000015 1.000002,1.000017 
	C75.999992,1.000011 150.999985,1.000011 225.999969,1.000005 
	C225.999985,75.999985 225.999985,150.999969 226.000000,225.999969 
	C200.166672,226.000000 174.333328,226.000000 148.000000,226.000000 
M79.791718,209.768402 
	C89.978958,215.382309 100.952156,218.776825 112.434280,219.914124 
	C126.616707,221.318893 139.495667,216.726913 150.953552,208.738785 
	C174.223312,192.515747 192.930313,171.711319 207.793533,147.774765 
	C216.303177,134.070358 220.677597,118.602699 218.052658,102.009743 
	C216.352615,91.263275 211.869064,81.611824 205.376007,73.039322 
	C189.232010,51.725185 169.627045,34.020138 147.245316,19.503307 
	C136.465759,12.511673 124.083405,8.998359 111.420929,8.221021 
	C97.178436,7.346687 84.212578,12.511619 72.798363,20.888838 
	C50.936317,36.934029 32.249943,56.409607 18.584814,79.641388 
	C1.380487,108.890060 2.606863,132.462036 22.376471,158.020676 
	C38.182049,178.454529 57.442280,195.347473 79.791718,209.768402 
z"/>
<path fill="#3866AF" opacity="1.000000" stroke="none" 
	d="
M79.490967,209.557556 
	C57.442280,195.347473 38.182049,178.454529 22.376471,158.020676 
	C2.606863,132.462036 1.380487,108.890060 18.584814,79.641388 
	C32.249943,56.409607 50.936317,36.934029 72.798363,20.888838 
	C84.212578,12.511619 97.178436,7.346687 111.420929,8.221021 
	C124.083405,8.998359 136.465759,12.511673 147.245316,19.503307 
	C169.627045,34.020138 189.232010,51.725185 205.376007,73.039322 
	C211.869064,81.611824 216.352615,91.263275 218.052658,102.009743 
	C220.677597,118.602699 216.303177,134.070358 207.793533,147.774765 
	C192.930313,171.711319 174.223312,192.515747 150.953552,208.738785 
	C139.495667,216.726913 126.616707,221.318893 112.434280,219.914124 
	C100.952156,218.776825 89.978958,215.382309 79.490967,209.557556 
M153.122116,104.562576 
	C153.273132,104.219643 153.424164,103.876717 153.276123,102.890312 
	C151.722595,99.973022 150.169052,97.055740 148.008392,92.998352 
	C146.904083,96.696358 146.172455,99.146439 145.305023,102.051224 
	C141.942795,97.850662 142.832581,93.373497 143.261978,88.832222 
	C143.446533,86.880310 142.514511,84.822823 141.927307,82.100945 
	C139.583237,76.858887 137.239151,71.616829 134.895065,66.374771 
	C137.721481,66.703423 139.768631,67.691330 141.748871,68.798828 
	C142.702225,69.332016 143.692307,70.797180 144.388382,70.636765 
	C150.587021,69.208252 154.824493,73.017715 158.041504,76.850380 
	C162.210281,81.816971 165.384354,87.728294 168.349075,93.557182 
	C170.332443,97.456619 172.354721,100.523956 176.855148,101.824265 
	C179.394653,102.558014 181.582428,104.509056 184.469055,106.234840 
	C181.026886,107.098999 178.469482,107.741035 175.912094,108.383072 
	C175.735886,108.946320 175.559677,109.509567 175.383484,110.072807 
	C178.680420,112.322075 181.977371,114.571342 185.274307,116.820610 
	C185.582993,116.393211 185.891678,115.965805 186.200363,115.538406 
	C184.116898,113.769417 182.033447,112.000435 180.056870,110.322189 
	C182.741592,109.445259 184.969574,108.717514 188.458572,107.577881 
	C184.624161,104.664604 182.157913,101.890419 179.075089,100.655663 
	C174.223831,98.712593 171.621887,95.213860 170.181107,90.685425 
	C165.125214,74.794670 151.968216,68.890709 137.820801,64.238075 
	C136.630493,63.846622 134.560928,64.212349 133.775406,65.048676 
	C132.999115,65.875160 132.757874,68.020386 133.279221,69.109901 
	C135.691879,74.151962 138.451767,79.027870 141.342300,84.698547 
	C141.357635,86.092308 141.384888,87.486053 141.385956,88.879822 
	C141.388580,92.307564 140.894913,95.833488 141.562195,99.125031 
	C141.942535,101.001137 144.209686,102.494743 145.627228,104.160583 
	C146.903015,102.936104 148.178802,101.711624 148.602036,101.305412 
	C149.879776,102.150078 151.379791,103.141701 153.122116,104.562576 
M158.227783,132.152710 
	C162.820633,138.738602 178.735138,137.998474 181.776886,132.073563 
	C176.512421,132.073563 171.805847,131.984055 167.104752,132.105972 
	C164.116669,132.183456 162.919998,130.979782 163.001923,127.976372 
	C163.140762,122.886292 163.040085,117.789680 163.040085,112.326813 
	C161.006042,112.465614 159.612427,112.560715 158.167099,112.659340 
	C158.043686,115.376411 157.938538,117.691238 157.166855,120.001503 
	C156.500275,120.003014 155.833710,120.004524 155.023682,119.235283 
	C155.205170,115.301270 152.979294,113.338005 149.398376,112.962883 
	C145.772568,112.583046 142.091232,112.366264 138.454849,112.531624 
	C131.207672,112.861168 129.879532,114.406509 129.867096,121.604393 
	C129.863358,123.769226 129.847824,125.934280 129.870316,128.098892 
	C129.928741,133.718292 133.203720,137.391510 138.679932,136.834885 
	C143.277298,136.367584 147.623535,134.993393 151.503540,138.941040 
	C152.187408,139.636841 154.186676,139.039810 155.672653,139.039810 
	C155.352051,136.681564 150.545517,135.567413 155.417755,132.715591 
	C156.231125,132.364273 157.044495,132.012955 158.227783,132.152710 
M93.058342,132.292816 
	C89.704567,132.189301 86.350792,132.085770 82.790627,131.531464 
	C82.584175,131.254288 82.313095,131.074615 81.734467,130.106583 
	C81.714180,127.944122 81.528633,125.767769 81.708870,123.622154 
	C82.057175,119.475845 80.172050,118.717262 76.130478,120.050400 
	C77.328751,124.925064 73.170113,131.270355 79.497658,134.372498 
	C83.913391,136.537354 89.292519,136.737167 94.241318,137.814728 
	C94.303894,138.050888 94.366470,138.287064 94.429047,138.523239 
	C88.630135,138.820389 82.831223,139.117554 76.533730,139.440262 
	C76.685379,140.987366 76.819702,142.357727 76.947594,143.662430 
	C77.848381,143.809601 78.334396,143.954971 78.821327,143.958099 
	C82.647881,143.982666 86.474846,144.009781 90.301231,143.979294 
	C97.455421,143.922302 100.599449,140.811127 100.623749,133.805710 
	C100.635864,130.311722 100.482315,126.810249 100.662254,123.325523 
	C100.889908,118.917030 98.730095,118.745918 94.988617,120.007492 
	C94.988617,123.733131 94.988617,127.367676 94.516273,131.243835 
	C94.330551,131.540024 94.144829,131.836212 93.058342,132.292816 
M45.991421,113.262985 
	C40.866993,111.026634 37.408928,112.060135 37.225487,116.220795 
	C36.941849,122.654152 37.150703,129.109222 37.150703,135.704453 
	C39.160656,135.704453 40.591019,135.704453 42.156227,135.704453 
	C42.470615,131.002182 42.769981,126.524521 43.069351,122.046852 
	C43.701111,122.019180 44.332870,121.991508 44.964630,121.963837 
	C46.683296,125.677338 48.227772,129.487045 50.201115,133.059891 
	C51.064369,134.622833 53.028919,136.929108 54.097752,136.733719 
	C56.067245,136.373688 58.286716,134.770782 59.421429,133.042114 
	C61.311382,130.162872 62.354637,126.739090 63.921185,123.628586 
	C64.323021,122.830696 65.348839,122.347076 67.024796,120.923149 
	C67.024796,126.599747 67.024796,131.003098 67.024796,135.659210 
	C68.923706,135.659210 70.308578,135.659210 72.188347,135.659210 
	C72.188347,129.847656 72.162949,124.228828 72.198868,118.610397 
	C72.217339,115.722481 72.491776,112.783257 68.542793,112.124184 
	C64.984558,111.530327 62.965519,113.143944 61.624504,116.340378 
	C59.526203,121.341881 57.187473,126.242516 54.747818,131.633987 
	C51.807426,125.249893 49.173889,119.532036 45.991421,113.262985 
M110.363129,125.393723 
	C112.522354,125.475311 114.681961,125.547859 116.840691,125.641060 
	C118.993973,125.734024 121.240685,125.434692 121.271843,128.819138 
	C121.302254,132.121597 119.300858,132.108963 116.992592,132.087479 
	C112.861389,132.048981 108.729568,132.076630 104.413071,132.076630 
	C104.413071,133.902603 104.413071,135.260635 104.413071,137.459061 
	C110.377388,136.789764 115.934227,136.371124 121.414207,135.479950 
	C125.129105,134.875824 127.146271,132.517273 126.908630,128.418091 
	C126.687187,124.598457 124.326881,123.252998 121.088089,122.814789 
	C118.954269,122.526070 116.785576,122.429901 114.629555,122.383324 
	C109.336998,122.268974 108.997879,121.834671 110.200294,117.394043 
	C115.176834,116.928749 119.883400,116.564690 124.562614,115.981270 
	C125.406456,115.876060 126.137817,114.868690 126.921104,114.277832 
	C126.143867,113.654198 125.380127,112.512840 124.587158,112.492149 
	C119.931740,112.370689 115.255066,112.305595 110.614403,112.631805 
	C107.283043,112.865967 104.490311,114.231415 104.132027,118.254158 
	C103.769493,122.324631 105.620567,124.544411 110.363129,125.393723 
z"/>
<path fill="#F4F7FA" opacity="1.000000" stroke="none" 
	d="
M46.265888,113.538582 
	C49.173889,119.532036 51.807426,125.249893 54.747818,131.633987 
	C57.187473,126.242516 59.526203,121.341881 61.624504,116.340378 
	C62.965519,113.143944 64.984558,111.530327 68.542793,112.124184 
	C72.491776,112.783257 72.217339,115.722481 72.198868,118.610397 
	C72.162949,124.228828 72.188347,129.847656 72.188347,135.659210 
	C70.308578,135.659210 68.923706,135.659210 67.024796,135.659210 
	C67.024796,131.003098 67.024796,126.599747 67.024796,120.923149 
	C65.348839,122.347076 64.323021,122.830696 63.921185,123.628586 
	C62.354637,126.739090 61.311382,130.162872 59.421429,133.042114 
	C58.286716,134.770782 56.067245,136.373688 54.097752,136.733719 
	C53.028919,136.929108 51.064369,134.622833 50.201115,133.059891 
	C48.227772,129.487045 46.683296,125.677338 44.964630,121.963837 
	C44.332870,121.991508 43.701111,122.019180 43.069351,122.046852 
	C42.769981,126.524521 42.470615,131.002182 42.156227,135.704453 
	C40.591019,135.704453 39.160656,135.704453 37.150703,135.704453 
	C37.150703,129.109222 36.941849,122.654152 37.225487,116.220795 
	C37.408928,112.060135 40.866993,111.026634 46.265888,113.538582 
z"/>
<path fill="#F7F8FB" opacity="1.000000" stroke="none" 
	d="
M154.560547,132.897964 
	C150.545517,135.567413 155.352051,136.681564 155.672653,139.039810 
	C154.186676,139.039810 152.187408,139.636841 151.503540,138.941040 
	C147.623535,134.993393 143.277298,136.367584 138.679932,136.834885 
	C133.203720,137.391510 129.928741,133.718292 129.870316,128.098892 
	C129.847824,125.934280 129.863358,123.769226 129.867096,121.604393 
	C129.879532,114.406509 131.207672,112.861168 138.454849,112.531624 
	C142.091232,112.366264 145.772568,112.583046 149.398376,112.962883 
	C152.979294,113.338005 155.205170,115.301270 155.029358,120.078659 
	C154.876862,124.914009 154.718689,128.905991 154.560547,132.897964 
M143.367569,128.730057 
	C145.135635,129.419800 146.903702,130.109543 149.863327,131.264130 
	C149.863327,126.532906 151.414001,121.104240 149.370514,118.238655 
	C147.748611,115.964287 141.735107,116.708534 137.649765,116.408684 
	C136.917358,116.354935 135.432556,117.712135 135.396011,118.470909 
	C135.180191,122.950729 135.289703,127.446220 135.289703,133.231445 
	C138.744110,131.084351 140.639313,129.906387 143.367569,128.730057 
z"/>
<path fill="#E6EBF4" opacity="1.000000" stroke="none" 
	d="
M94.988617,131.002213 
	C94.988617,127.367676 94.988617,123.733131 94.988617,120.007492 
	C98.730095,118.745918 100.889908,118.917030 100.662254,123.325523 
	C100.482315,126.810249 100.635864,130.311722 100.623749,133.805710 
	C100.599449,140.811127 97.455421,143.922302 90.301231,143.979294 
	C86.474846,144.009781 82.647881,143.982666 78.821327,143.958099 
	C78.334396,143.954971 77.848381,143.809601 76.947594,143.662430 
	C76.819702,142.357727 76.685379,140.987366 76.533730,139.440262 
	C82.831223,139.117554 88.630135,138.820389 94.429047,138.523239 
	C94.366470,138.287064 94.303894,138.050888 94.241318,137.814728 
	C89.292519,136.737167 83.913391,136.537354 79.497658,134.372498 
	C73.170113,131.270355 77.328751,124.925064 76.130478,120.050400 
	C80.172050,118.717262 82.057175,119.475845 81.708870,123.622154 
	C81.528633,125.767769 81.714180,127.944122 81.877632,130.832367 
	C82.346199,131.699509 82.671608,131.840881 82.997017,131.982254 
	C86.350792,132.085770 89.704567,132.189301 93.822266,132.201782 
	C94.720329,131.741226 94.854469,131.371719 94.988617,131.002213 
z"/>
<path fill="#EFF2F8" opacity="1.000000" stroke="none" 
	d="
M109.957489,125.298889 
	C105.620567,124.544411 103.769493,122.324631 104.132027,118.254158 
	C104.490311,114.231415 107.283043,112.865967 110.614403,112.631805 
	C115.255066,112.305595 119.931740,112.370689 124.587158,112.492149 
	C125.380127,112.512840 126.143867,113.654198 126.921112,114.277832 
	C126.137817,114.868690 125.406456,115.876060 124.562614,115.981270 
	C119.883400,116.564690 115.176834,116.928749 110.200294,117.394043 
	C108.997879,121.834671 109.336998,122.268974 114.629555,122.383324 
	C116.785576,122.429901 118.954269,122.526070 121.088089,122.814789 
	C124.326881,123.252998 126.687187,124.598457 126.908630,128.418091 
	C127.146271,132.517273 125.129105,134.875824 121.414207,135.479950 
	C115.934227,136.371124 110.377388,136.789764 104.413071,137.459061 
	C104.413071,135.260635 104.413071,133.902603 104.413071,132.076630 
	C108.729568,132.076630 112.861389,132.048981 116.992592,132.087479 
	C119.300858,132.108963 121.302254,132.121597 121.271843,128.819138 
	C121.240685,125.434692 118.993973,125.734024 116.840691,125.641060 
	C114.681961,125.547859 112.522354,125.475311 109.957489,125.298889 
z"/>
<path fill="#ECF0F7" opacity="1.000000" stroke="none" 
	d="
M141.087265,83.963303 
	C138.451767,79.027870 135.691879,74.151962 133.279221,69.109901 
	C132.757874,68.020386 132.999115,65.875160 133.775406,65.048676 
	C134.560928,64.212349 136.630493,63.846622 137.820801,64.238075 
	C151.968216,68.890709 165.125214,74.794670 170.181107,90.685425 
	C171.621887,95.213860 174.223831,98.712593 179.075089,100.655663 
	C182.157913,101.890419 184.624161,104.664604 188.458572,107.577881 
	C184.969574,108.717514 182.741592,109.445259 180.056870,110.322189 
	C182.033447,112.000435 184.116898,113.769417 186.200363,115.538406 
	C185.891678,115.965805 185.582993,116.393211 185.274307,116.820610 
	C181.977371,114.571342 178.680420,112.322075 175.383484,110.072807 
	C175.559677,109.509567 175.735886,108.946320 175.912094,108.383072 
	C178.469482,107.741035 181.026886,107.098999 184.469055,106.234840 
	C181.582428,104.509056 179.394653,102.558014 176.855148,101.824265 
	C172.354721,100.523956 170.332443,97.456619 168.349075,93.557182 
	C165.384354,87.728294 162.210281,81.816971 158.041504,76.850380 
	C154.824493,73.017715 150.587021,69.208252 144.388382,70.636765 
	C143.692307,70.797180 142.702225,69.332016 141.748871,68.798828 
	C139.768631,67.691330 137.721481,66.703423 134.895065,66.374771 
	C137.239151,71.616829 139.583237,76.858887 141.902100,82.697479 
	C141.613693,83.517105 141.350479,83.740211 141.087265,83.963303 
z"/>
<path fill="#F0F3F8" opacity="1.000000" stroke="none" 
	d="
M157.833389,120.006065 
	C157.938538,117.691238 158.043686,115.376411 158.167099,112.659340 
	C159.612427,112.560715 161.006042,112.465614 163.040085,112.326813 
	C163.040085,117.789680 163.140762,122.886292 163.001923,127.976372 
	C162.919998,130.979782 164.116669,132.183456 167.104752,132.105972 
	C171.805847,131.984055 176.512421,132.073563 181.776886,132.073563 
	C178.735138,137.998474 162.820633,138.738602 158.092697,131.549927 
	C157.916214,127.300125 157.874802,123.653099 157.833389,120.006065 
z"/>
<path fill="#E9EDF5" opacity="1.000000" stroke="none" 
	d="
M141.214783,84.330933 
	C141.350479,83.740211 141.613693,83.517105 141.983337,83.053650 
	C142.514511,84.822823 143.446533,86.880310 143.261978,88.832222 
	C142.832581,93.373497 141.942795,97.850662 145.305023,102.051224 
	C146.172455,99.146439 146.904083,96.696358 148.008392,92.998352 
	C150.169052,97.055740 151.722595,99.973022 153.242645,103.351303 
	C153.209183,103.812302 152.879822,104.133324 152.879822,104.133324 
	C151.379791,103.141701 149.879776,102.150078 148.602036,101.305412 
	C148.178802,101.711624 146.903015,102.936104 145.627228,104.160583 
	C144.209686,102.494743 141.942535,101.001137 141.562195,99.125031 
	C140.894913,95.833488 141.388580,92.307564 141.385956,88.879822 
	C141.384888,87.486053 141.357635,86.092308 141.214783,84.330933 
z"/>
<path fill="#3061AD" opacity="1.000000" stroke="none" 
	d="
M157.500122,120.003784 
	C157.874802,123.653099 157.916214,127.300125 157.907745,131.304398 
	C157.044495,132.012955 156.231125,132.364273 154.989136,132.806778 
	C154.718689,128.905991 154.876862,124.914009 155.101074,120.464035 
	C155.833710,120.004524 156.500275,120.003014 157.500122,120.003784 
z"/>
<path fill="#E9EDF5" opacity="1.000000" stroke="none" 
	d="
M153.392181,103.673050 
	C153.424164,103.876717 153.273132,104.219643 153.000977,104.347946 
	C152.879822,104.133324 153.209183,103.812302 153.392181,103.673050 
z"/>
<path fill="#265CAB" opacity="1.000000" stroke="none" 
	d="
M82.893822,131.756866 
	C82.671608,131.840881 82.346199,131.699509 81.999092,131.275284 
	C82.313095,131.074615 82.584175,131.254288 82.893822,131.756866 
z"/>
<path fill="#265CAB" opacity="1.000000" stroke="none" 
	d="
M94.752441,131.123016 
	C94.854469,131.371719 94.720329,131.741226 94.272644,132.121567 
	C94.144829,131.836212 94.330551,131.540024 94.752441,131.123016 
z"/>
<path fill="#3D69B1" opacity="1.000000" stroke="none" 
	d="
M142.951050,128.729233 
	C140.639313,129.906387 138.744110,131.084351 135.289703,133.231445 
	C135.289703,127.446220 135.180191,122.950729 135.396011,118.470909 
	C135.432556,117.712135 136.917358,116.354935 137.649765,116.408684 
	C141.735107,116.708534 147.748611,115.964287 149.370514,118.238655 
	C151.414001,121.104240 149.863327,126.532906 149.863327,131.264130 
	C146.903702,130.109543 145.135635,129.419800 142.951050,128.729233 
z"/>
</svg>