<?xml version="1.0" encoding="UTF-8" standalone="no"?>
<!DOCTYPE svg PUBLIC "-//W3C//DTD SVG 1.1//EN" "http://www.w3.org/Graphics/SVG/1.1/DTD/svg11.dtd">
<svg xmlns="http://www.w3.org/2000/svg" version="1.1" viewBox="0.00 0.00 274.00 273.00">
<g stroke-width="2.00" fill="none" stroke-linecap="butt">
<path stroke="#eda21c" vector-effect="non-scaling-stroke" d="
  M 205.50 19.70
  C 206.13 23.29 209.21 23.71 211.43 25.55
  C 214.91 28.43 218.59 30.95 221.27 33.98
  C 225.10 38.31 229.90 42.06 232.63 46.84
  Q 232.90 47.31 233.44 47.47
  Q 233.92 47.62 234.11 48.09
  C 235.38 51.23 238.00 53.46 239.44 56.03
  C 242.11 60.80 248.47 68.72 246.10 74.49
  A 0.76 0.75 -56.0 0 0 246.26 75.32
  Q 247.35 76.45 247.20 78.28"
/>
<path stroke="#f5c327" vector-effect="non-scaling-stroke" d="
  M 247.20 78.28
  L 245.60 75.40"
/>
<path stroke="#f5c54b" vector-effect="non-scaling-stroke" d="
  M 245.60 75.40
  Q 237.71 60.99 226.47 49.34"
/>
<path stroke="#f7ce64" vector-effect="non-scaling-stroke" d="
  M 226.47 49.34
  Q 218.17 40.90 209.01 34.34"
/>
<path stroke="#f5c327" vector-effect="non-scaling-stroke" d="
  M 209.01 34.34
  C 210.39 31.03 205.85 27.98 203.11 25.55
  Q 200.44 23.17 196.53 21.05
  Q 192.65 18.96 188.92 16.57
  Q 182.37 12.38 174.75 10.79
  Q 174.37 10.71 173.99 10.29
  Q 173.66 9.93 173.18 9.89
  C 169.22 9.63 166.15 7.71 162.48 7.38
  C 159.49 7.11 155.84 6.30 153.66 6.07
  Q 133.02 3.82 112.54 7.08
  C 107.48 7.88 102.28 10.36 96.21 10.44
  A 1.27 1.25 23.9 0 0 95.42 10.74
  Q 94.53 11.50 92.76 12.01
  Q 88.05 13.36 82.40 16.26
  C 80.52 17.22 78.52 18.90 76.40 19.95
  Q 72.92 21.67 71.80 22.45
  C 65.85 26.63 59.15 31.83 56.42 38.78"
/>
<path stroke="#f7ce64" vector-effect="non-scaling-stroke" d="
  M 56.42 38.78
  Q 49.00 44.78 42.46 51.89"
/>
<path stroke="#f5c54b" vector-effect="non-scaling-stroke" d="
  M 42.46 51.89
  Q 34.32 60.78 28.30 70.92"
/>
<path stroke="#f5c327" vector-effect="non-scaling-stroke" d="
  M 28.30 70.92
  L 23.82 79.05"
/>
<path stroke="#eda21c" vector-effect="non-scaling-stroke" d="
  M 23.82 79.05
  Q 24.29 77.52 23.70 76.80
  Q 23.30 76.32 23.46 75.72
  Q 23.81 74.41 23.35 73.26
  A 1.06 1.03 -39.7 0 1 23.45 72.30
  Q 24.61 70.55 24.12 68.49
  Q 23.99 67.97 24.43 67.66
  C 25.77 66.71 26.18 65.23 27.14 64.12
  C 29.29 61.66 29.76 58.46 31.25 56.17
  Q 34.21 51.59 37.92 47.60
  Q 38.26 47.23 38.24 46.73
  Q 38.21 46.20 38.56 45.81
  Q 42.43 41.38 46.20 36.83
  C 47.19 35.64 47.69 33.79 49.66 33.20
  Q 50.15 33.05 50.54 32.72
  C 52.80 30.78 57.71 28.84 57.22 25.41"
/>
<path stroke="#fdec92" vector-effect="non-scaling-stroke" d="
  M 226.47 49.34
  L 224.41 51.62
  Q 224.11 51.96 223.67 52.09
  Q 222.71 52.37 221.50 52.24
  Q 216.27 51.69 211.53 54.57
  Q 211.25 54.74 211.12 54.43
  Q 211.03 54.22 210.87 54.11
  Q 210.65 53.97 210.25 54.17
  Q 208.48 55.06 206.75 56.05"
/>
<path stroke="#ad9462" vector-effect="non-scaling-stroke" d="
  M 206.75 56.05
  Q 191.47 47.58 175.00 50.75
  Q 169.16 51.88 164.32 56.20"
/>
<path stroke="#fef49c" vector-effect="non-scaling-stroke" d="
  M 164.32 56.20
  Q 160.56 53.96 155.39 54.72
  Q 151.39 55.31 149.55 55.27
  Q 135.77 54.91 122.00 55.30
  Q 121.80 55.31 121.74 55.51
  Q 121.66 55.76 121.40 55.77
  L 108.02 56.59"
/>
<path stroke="#ad9462" vector-effect="non-scaling-stroke" d="
  M 108.02 56.59
  C 97.20 46.25 73.80 48.45 62.76 58.29"
/>
<path stroke="#fdec92" vector-effect="non-scaling-stroke" d="
  M 62.76 58.29
  L 59.03 57.40
  A 0.77 0.74 80.3 0 1 58.54 57.04
  C 56.87 54.23 52.66 57.05 49.61 54.92
  Q 49.11 54.57 48.50 54.67
  Q 46.98 54.93 45.50 54.19
  A 0.13 0.12 -66.3 0 0 45.33 54.26
  Q 45.29 54.39 45.25 54.52
  Q 45.14 54.88 44.90 54.60
  L 42.46 51.89"
/>
<path stroke="#fbe155" vector-effect="non-scaling-stroke" d="
  M 79.45 85.52
  C 79.70 88.63 76.23 89.37 73.56 89.69
  Q 64.12 90.82 54.64 92.30
  A 0.64 0.64 0.0 0 1 53.91 91.79
  Q 52.39 84.13 53.16 76.31
  Q 53.25 75.44 52.76 76.20
  Q 52.66 76.35 52.71 76.58
  Q 52.85 77.19 52.24 77.07
  Q 49.79 76.56 47.74 75.10
  Q 47.39 74.85 46.98 74.97
  Q 45.29 75.47 43.93 74.38
  Q 43.60 74.12 43.19 74.05
  L 35.06 72.74
  Q 34.76 72.69 34.75 72.99
  Q 34.75 73.15 34.76 73.33
  Q 34.76 73.49 34.61 73.42
  L 34.27 73.26
  A 0.24 0.24 0.0 0 0 34.05 73.69
  Q 34.58 73.98 34.41 74.44
  Q 34.25 74.92 33.74 74.85
  Q 31.95 74.63 31.00 73.14
  Q 30.73 72.71 30.32 72.41
  L 28.30 70.92"
/>
<path stroke="#fcea6e" vector-effect="non-scaling-stroke" d="
  M 209.01 34.34
  L 207.20 33.10"
/>
<path stroke="#fcec81" vector-effect="non-scaling-stroke" d="
  M 207.20 33.10
  C 163.71 4.35 108.17 4.10 64.56 32.78"
/>
<path stroke="#fcea6e" vector-effect="non-scaling-stroke" d="
  M 64.56 32.78
  L 56.42 38.78"
/>
<path stroke="#fce95e" vector-effect="non-scaling-stroke" d="
  M 79.48 104.27
  Q 78.92 103.64 77.82 104.22
  Q 77.39 104.44 77.31 104.92
  Q 75.35 116.63 78.58 128.05
  Q 78.90 129.18 80.06 129.01
  L 102.62 125.57
  A 1.39 1.39 0.0 0 0 103.50 123.34
  L 102.80 122.47"
/>
<path stroke="#f8d52c" vector-effect="non-scaling-stroke" d="
  M 249.75 84.47
  Q 250.11 85.96 249.88 87.26
  Q 249.81 87.66 249.44 87.85
  Q 248.73 88.21 248.51 88.97
  Q 248.38 89.42 248.02 89.73
  Q 246.39 91.17 246.76 93.31
  Q 246.79 93.49 246.97 93.50
  Q 247.15 93.50 247.35 93.47
  Q 247.64 93.42 247.58 93.72
  L 247.14 95.92
  Q 247.07 96.26 247.42 96.25
  Q 247.60 96.25 247.76 96.26
  Q 248.23 96.31 248.35 96.77
  Q 248.78 98.48 247.73 99.64
  Q 247.45 99.94 247.05 99.99
  Q 246.16 100.10 246.03 100.95
  A 1.90 1.86 20.8 0 1 243.14 102.21
  C 243.06 102.16 241.78 103.24 241.29 103.53
  C 238.13 105.38 234.49 106.40 231.53 108.32
  Q 229.61 109.56 227.47 110.90
  A 0.47 0.47 0.0 0 0 227.86 111.75
  L 228.37 111.59
  A 0.31 0.31 0.0 0 1 228.71 112.07
  L 226.78 114.62
  Q 226.47 115.03 226.00 115.25
  Q 224.50 115.95 223.72 117.49
  A 0.93 0.91 6.4 0 1 223.12 117.96
  L 219.94 118.67
  Q 219.74 118.71 219.84 118.54
  L 219.99 118.29
  Q 220.29 117.79 219.72 117.90
  L 216.86 118.46
  Q 216.40 118.55 216.16 118.95
  Q 215.64 119.81 214.64 119.77
  Q 214.06 119.75 213.67 120.18
  L 213.00 120.93
  Q 212.71 121.25 212.28 121.22
  Q 209.33 121.02 208.03 123.76
  Q 207.85 124.14 208.27 124.05
  L 210.68 123.47
  Q 211.23 123.34 210.84 123.75
  L 193.21 142.17
  Q 192.78 142.61 192.52 142.05
  L 192.33 141.67
  Q 192.17 141.33 191.92 141.61
  Q 191.32 142.23 190.15 141.13"
/>
<path stroke="#fce95e" vector-effect="non-scaling-stroke" d="
  M 190.15 141.13
  Q 190.49 137.72 191.01 134.21
  Q 191.16 133.23 189.23 133.82"
/>
<path stroke="#ab8924" vector-effect="non-scaling-stroke" d="
  M 189.23 133.82
  Q 189.46 132.48 188.81 132.37
  Q 177.60 130.55 166.14 129.11
  Q 165.60 129.05 165.52 129.58
  L 162.30 151.41"
/>
<path stroke="#fce95e" vector-effect="non-scaling-stroke" d="
  M 162.30 151.41
  Q 161.79 151.22 161.41 151.52
  Q 161.02 151.83 161.11 152.32
  L 161.35 153.72
  Q 161.43 154.14 161.85 154.21
  L 171.29 155.94"
/>
<path stroke="#f8d52c" vector-effect="non-scaling-stroke" d="
  M 171.29 155.94
  Q 166.97 155.72 162.78 156.21
  C 151.39 157.53 139.46 156.73 128.06 155.84
  C 123.03 155.45 116.58 151.97 111.83 152.65
  Q 110.16 152.89 108.47 153.11"
/>
<path stroke="#fce95e" vector-effect="non-scaling-stroke" d="
  M 108.47 153.11
  Q 108.64 152.09 108.28 151.72
  Q 107.91 151.34 107.72 151.52"
/>
<path stroke="#ab8924" vector-effect="non-scaling-stroke" d="
  M 107.72 151.52
  L 104.42 129.92
  Q 104.30 129.17 103.56 129.28
  L 81.30 132.61
  Q 80.84 132.68 80.76 133.14
  Q 80.63 133.97 80.87 134.82"
/>
<path stroke="#fce95e" vector-effect="non-scaling-stroke" d="
  M 80.87 134.82
  L 79.01 134.79"
/>
<path stroke="#f8d52c" vector-effect="non-scaling-stroke" d="
  M 79.01 134.79
  L 77.83 132.91
  Q 77.57 132.51 77.17 132.25
  C 74.74 130.63 71.82 127.35 69.07 126.69
  Q 68.58 126.57 68.28 126.17
  Q 66.59 123.92 63.71 123.76
  Q 63.19 123.73 62.89 123.31
  Q 61.77 121.78 60.02 121.24
  Q 59.52 121.08 59.17 120.70
  L 56.96 118.32
  Q 56.62 117.95 56.13 117.82
  Q 53.50 117.15 50.92 116.38
  C 48.18 115.56 46.41 113.38 44.23 111.62
  Q 43.58 111.09 43.94 111.85
  L 44.18 112.35
  A 0.08 0.08 0.0 0 1 44.11 112.46
  L 43.81 112.46
  Q 43.63 112.46 43.70 112.62
  Q 43.80 112.84 43.77 113.07
  Q 43.68 113.70 43.30 113.19
  Q 41.78 111.10 39.50 109.71
  Q 38.95 109.38 38.36 109.15
  Q 37.17 108.68 36.14 107.81
  A 0.17 0.17 0.0 0 1 36.22 107.51
  L 36.68 107.45
  A 0.12 0.11 53.7 0 0 36.71 107.23
  Q 34.89 106.34 34.02 104.48
  Q 33.86 104.15 33.51 104.03
  L 32.48 103.71
  A 0.20 0.20 0.0 0 0 32.23 103.94
  Q 32.26 104.08 32.37 104.22
  A 0.18 0.18 0.0 0 1 32.17 104.50
  L 31.15 104.18
  Q 30.61 104.01 30.49 103.45
  Q 30.00 101.15 25.96 101.54
  A 0.48 0.48 0.0 0 1 25.45 101.18
  C 24.85 98.82 22.87 98.38 21.65 96.85
  Q 19.90 94.63 18.36 92.29"
/>
<path stroke="#c89b2a" vector-effect="non-scaling-stroke" d="
  M 78.96 83.79
  L 78.88 81.19"
/>
<path stroke="#fbe155" vector-effect="non-scaling-stroke" d="
  M 245.60 75.40
  Q 245.40 77.99 243.72 78.63
  Q 243.50 78.72 243.50 78.95
  Q 243.50 79.11 243.49 79.28
  Q 243.45 79.76 243.92 79.64
  L 244.35 79.53
  A 0.17 0.17 0.0 0 1 244.55 79.76
  Q 244.05 81.09 242.80 81.78
  Q 242.25 82.07 242.25 82.70
  L 242.25 83.18
  Q 242.25 83.66 241.85 83.91
  Q 241.01 84.43 240.09 84.51
  Q 239.83 84.53 239.91 84.28
  Q 239.96 84.12 240.01 83.94
  Q 240.15 83.49 239.68 83.50
  Q 239.38 83.51 239.08 83.50
  Q 238.66 83.48 238.72 83.06
  L 238.77 82.65
  A 0.39 0.38 -11.5 0 0 238.19 82.27
  L 235.70 83.76
  Q 235.08 84.14 235.20 83.42
  L 235.28 82.96
  Q 235.35 82.53 234.92 82.58
  Q 232.66 82.82 230.96 84.26
  Q 230.62 84.55 230.18 84.44
  L 229.30 84.21
  Q 229.11 84.16 229.18 83.97
  L 229.28 83.66
  Q 229.42 83.24 228.97 83.25
  Q 227.95 83.27 227.15 83.92
  Q 226.78 84.22 226.31 84.20
  Q 222.52 84.07 218.89 85.24
  Q 218.45 85.38 218.36 85.83
  Q 215.27 100.35 202.99 108.76
  C 197.07 112.81 192.75 118.21 191.84 125.74
  A 2.53 2.53 0.0 0 1 189.35 127.97
  C 184.84 128.01 180.74 126.49 176.21 126.48
  Q 169.95 126.46 165.44 124.36"
/>
<path stroke="#fce95b" vector-effect="non-scaling-stroke" d="
  M 165.44 124.36
  Q 165.57 121.75 167.01 122.34"
/>
<path stroke="#ac8b49" vector-effect="non-scaling-stroke" d="
  M 167.01 122.34
  L 189.31 125.52
  A 0.85 0.85 0.0 0 0 190.28 124.70
  C 190.63 113.37 199.32 108.63 207.04 102.05
  C 219.85 91.12 220.71 66.72 206.75 56.05"
/>
<path stroke="#e79619" vector-effect="non-scaling-stroke" d="
  M 237.72 46.42
  Q 236.68 51.04 240.80 53.39
  A 1.40 1.37 6.8 0 1 241.42 54.16
  Q 242.59 57.69 245.52 59.88
  Q 245.88 60.16 245.96 60.61
  L 246.22 61.99
  Q 246.32 62.53 246.70 62.92
  L 248.46 64.77
  Q 248.88 65.22 248.92 65.84
  Q 249.10 68.42 250.88 70.27
  Q 251.28 70.69 251.46 71.24
  L 253.42 77.35
  Q 253.57 77.80 253.51 78.27
  C 253.17 81.30 255.16 82.92 254.39 86.31
  C 253.89 88.48 255.75 91.18 256.05 93.26
  Q 256.64 97.41 257.16 101.56
  C 257.31 102.72 258.21 103.67 258.28 105.22
  C 258.48 109.48 259.56 114.34 258.92 118.53
  C 258.49 121.37 259.28 123.34 258.66 126.78
  C 257.84 131.30 256.17 134.42 255.78 139.57
  Q 255.09 148.76 250.17 157.63
  C 248.37 160.88 247.98 163.79 245.47 166.92
  Q 243.98 168.78 242.95 170.91
  C 241.05 174.85 237.88 177.61 236.07 181.80
  A 0.33 0.32 10.7 0 1 235.77 182.00
  Q 235.62 182.00 235.47 182.00
  Q 235.16 182.01 235.01 182.29
  L 232.13 187.68
  Q 231.50 188.88 232.45 187.92
  L 232.93 187.45
  A 0.19 0.19 0.0 0 1 233.22 187.69
  Q 232.37 188.99 231.69 190.36
  Q 231.15 191.48 232.03 190.60
  L 232.54 190.09
  Q 232.65 189.97 232.73 190.12
  Q 232.79 190.26 232.68 190.37
  C 231.10 191.92 229.28 195.69 227.83 197.68
  C 226.66 199.27 226.70 200.90 226.38 202.77
  A 1.49 1.48 -17.5 0 1 225.95 203.59
  Q 223.92 205.52 221.85 207.42
  C 219.78 209.32 215.28 212.45 213.49 215.24
  C 211.14 218.91 202.93 223.90 199.02 225.98
  Q 197.29 226.89 192.74 228.35
  C 189.03 229.55 185.90 231.88 182.09 232.69
  C 178.18 233.53 173.10 235.25 170.50 235.87
  Q 148.55 241.12 126.00 239.36
  C 122.60 239.10 116.91 237.68 111.99 238.06
  Q 111.70 238.08 111.47 237.79
  Q 111.19 237.42 110.74 237.34
  C 93.19 234.36 69.69 225.53 57.66 211.87
  C 55.16 209.03 51.92 206.96 49.87 203.73
  C 47.78 200.45 42.81 197.50 42.73 193.81
  A 1.68 1.65 26.6 0 0 42.40 192.85
  L 38.90 188.10
  A 0.17 0.17 0.0 0 0 38.60 188.22
  L 38.80 189.96
  Q 38.89 190.68 38.44 190.11
  C 35.92 186.95 34.56 182.68 32.44 179.15
  C 31.11 176.93 29.84 173.75 27.95 171.40
  Q 26.02 169.00 25.22 167.16
  C 21.14 157.80 15.75 148.70 14.00 138.48
  Q 13.13 133.37 12.15 128.30
  C 11.78 126.40 12.33 124.04 11.56 121.81
  Q 11.51 121.65 11.55 121.54
  Q 11.60 121.36 11.73 121.22
  Q 12.00 120.92 11.92 120.52
  Q 10.35 112.82 11.67 105.09
  C 12.41 100.75 10.82 97.89 13.41 93.61
  A 1.57 1.52 -33.2 0 0 13.62 92.67
  Q 13.21 88.95 14.21 85.43
  C 14.98 82.74 14.45 79.85 17.13 77.52
  A 1.21 1.20 73.6 0 0 17.54 76.76
  Q 18.02 72.60 20.81 69.62
  Q 21.12 69.30 20.98 68.88
  C 19.86 65.38 24.82 63.73 23.47 60.33"
/>
<path stroke="#f2bd25" vector-effect="non-scaling-stroke" d="
  M 23.82 79.05
  L 18.36 92.29"
/>
<path stroke="#f0b421" vector-effect="non-scaling-stroke" d="
  M 18.36 92.29
  L 16.40 97.95"
/>
<path stroke="#efaa1e" vector-effect="non-scaling-stroke" d="
  M 16.40 97.95
  L 14.66 105.56"
/>
<path stroke="#eda21c" vector-effect="non-scaling-stroke" d="
  M 14.66 105.56
  C 12.10 113.64 15.48 118.81 18.06 125.74
  Q 18.25 126.25 17.71 126.25
  L 17.25 126.25
  Q 16.68 126.25 16.72 126.82
  Q 17.06 130.72 18.80 133.72
  Q 24.51 143.54 28.13 150.97
  Q 28.39 151.50 28.97 151.50
  L 29.75 151.50
  Q 30.25 151.50 30.25 152.00
  L 30.25 154.01
  Q 30.25 154.48 30.55 154.84
  Q 32.63 157.32 32.08 160.43
  Q 32.00 160.91 32.31 161.28
  C 34.89 164.40 38.25 167.88 38.32 172.18
  Q 38.33 172.72 38.68 173.13
  L 42.53 177.71
  Q 43.15 178.45 42.90 177.52
  Q 42.63 176.55 42.77 175.52
  Q 42.91 174.54 43.35 175.42
  L 46.59 181.92
  A 0.15 0.14 -13.2 0 0 46.72 182.00
  Q 46.86 182.00 47.00 182.00
  Q 47.12 182.00 47.16 182.11
  Q 49.14 188.98 53.00 192.27
  C 55.17 194.10 56.69 195.24 57.22 197.70
  Q 57.37 198.40 57.97 198.77
  Q 58.45 199.07 58.73 199.56
  L 60.43 202.57
  Q 60.75 203.13 60.75 202.49
  L 60.75 201.76
  Q 60.75 201.11 61.14 201.63
  Q 70.54 214.18 84.36 221.34
  Q 85.42 221.89 87.78 222.78
  C 90.78 223.91 93.62 225.81 96.20 226.55
  Q 100.02 227.64 103.99 227.83
  C 106.57 227.95 108.73 229.38 111.01 229.50
  Q 116.38 229.78 121.58 231.04
  Q 121.70 231.07 121.74 231.19
  Q 121.77 231.30 121.76 231.46
  Q 121.75 231.64 121.93 231.66
  Q 136.78 233.63 151.70 232.30
  Q 151.97 232.28 151.96 232.02
  Q 151.96 231.83 152.03 231.69
  Q 152.12 231.52 152.45 231.43
  Q 159.91 229.46 167.56 228.56
  C 169.14 228.38 170.59 227.69 172.09 227.54
  C 177.24 227.05 182.36 225.78 186.23 222.16
  Q 187.81 220.69 189.51 219.72
  C 196.33 215.82 206.81 210.46 211.55 204.20
  Q 216.60 197.53 220.44 190.02
  Q 220.66 189.57 221.08 189.30
  Q 224.60 186.99 224.87 183.08
  C 225.12 179.58 225.64 176.13 225.74 172.62
  C 225.81 169.97 226.64 167.88 227.16 165.33
  Q 227.19 165.16 227.13 165.04
  Q 227.04 164.88 226.90 164.79
  Q 226.63 164.62 226.81 164.36
  C 229.00 161.27 236.83 150.53 237.01 147.28
  Q 237.04 146.80 237.29 146.40
  C 239.26 143.32 242.79 136.42 245.53 134.40
  Q 245.90 134.13 246.04 133.70
  L 247.90 127.69
  Q 248.06 127.16 248.59 127.00
  Q 250.93 126.26 251.20 123.66
  A 0.69 0.68 -86.7 0 1 251.88 123.05
  Q 253.11 123.06 253.36 121.91
  A 0.65 0.64 88.6 0 1 253.83 121.41
  L 255.14 121.07
  Q 255.72 120.92 255.23 120.57
  Q 254.56 120.09 255.13 119.36
  Q 255.39 119.04 255.82 118.82
  Q 256.12 118.67 256.13 118.33
  L 256.22 114.96
  Q 256.23 114.56 255.89 114.35
  Q 255.39 114.04 255.51 113.24
  Q 257.62 99.54 250.97 86.69"
/>
<path stroke="#f0b421" vector-effect="non-scaling-stroke" d="
  M 250.97 86.69
  L 249.75 84.47"
/>
<path stroke="#f2bd25" vector-effect="non-scaling-stroke" d="
  M 249.75 84.47
  Q 249.13 81.07 247.20 78.28"
/>
<path stroke="#fef8be" vector-effect="non-scaling-stroke" d="
  M 207.20 33.10
  Q 202.97 34.83 196.01 33.01
  Q 194.98 32.73 193.99 33.35
  C 189.81 35.93 182.48 37.36 178.75 37.32
  Q 149.19 37.04 119.63 37.00
  C 112.30 36.99 102.45 38.53 94.70 37.02
  Q 92.87 36.67 91.00 36.56
  C 84.78 36.21 79.26 34.17 72.83 34.09
  Q 72.47 34.09 72.19 33.87
  C 71.60 33.40 66.40 33.55 64.56 32.78"
/>
<path stroke="#fdf165" vector-effect="non-scaling-stroke" d="
  M 156.51 70.08
  Q 150.69 68.49 148.75 68.49
  C 137.83 68.52 125.79 67.80 115.01 69.31"
/>
<path stroke="#ad9352" vector-effect="non-scaling-stroke" d="
  M 108.02 56.59
  Q 113.18 61.92 115.01 69.31"
/>
<path stroke="#ac912b" vector-effect="non-scaling-stroke" d="
  M 115.01 69.31
  C 119.62 84.89 113.92 92.96 105.79 105.44
  C 102.49 110.50 101.67 113.93 102.63 119.63"
/>
<path stroke="#ab8924" vector-effect="non-scaling-stroke" d="
  M 102.63 119.63
  Q 102.40 120.72 102.80 122.47"
/>
<path stroke="#ad9352" vector-effect="non-scaling-stroke" d="
  M 102.80 122.47
  L 80.75 125.84
  A 0.71 0.70 -10.1 0 1 79.94 125.28
  Q 77.83 114.44 79.48 104.27"
/>
<path stroke="#ab8924" vector-effect="non-scaling-stroke" d="
  M 79.48 104.27
  C 80.59 102.08 81.41 99.78 82.80 97.81
  C 86.14 93.05 91.45 85.79 91.48 79.83
  C 91.51 75.10 89.63 63.88 81.84 67.57
  C 77.64 69.55 78.12 77.49 78.88 81.19"
/>
<path stroke="#79451e" vector-effect="non-scaling-stroke" d="
  M 78.88 81.19
  Q 77.92 82.28 78.96 83.79"
/>
<path stroke="#ab8924" vector-effect="non-scaling-stroke" d="
  M 78.96 83.79
  L 79.45 85.52"
/>
<path stroke="#ac8b49" vector-effect="non-scaling-stroke" d="
  M 79.45 85.52
  L 56.12 89.08
  Q 55.60 89.16 55.52 88.64
  C 53.96 77.88 54.32 66.33 62.76 58.29"
/>
<path stroke="#ac912b" vector-effect="non-scaling-stroke" d="
  M 167.01 122.34
  C 168.82 107.58 171.25 101.32 181.85 92.50
  Q 187.99 87.39 189.38 85.18
  C 192.40 80.40 195.49 68.76 187.23 66.94
  C 180.52 65.46 178.58 78.45 178.32 82.62
  A 0.72 0.72 0.0 0 1 177.50 83.29
  L 154.94 80.12
  Q 154.33 80.03 154.47 79.43
  L 156.51 70.08"
/>
<path stroke="#ad9352" vector-effect="non-scaling-stroke" d="
  M 156.51 70.08
  Q 158.63 62.27 164.32 56.20"
/>
<path stroke="#ad9352" vector-effect="non-scaling-stroke" d="
  M 189.23 133.82
  L 186.35 154.15
  A 0.72 0.71 8.1 0 1 185.54 154.75
  L 162.30 151.41"
/>
<path stroke="#ad9352" vector-effect="non-scaling-stroke" d="
  M 107.72 151.52
  L 84.49 155.05
  Q 83.96 155.13 83.88 154.60
  L 80.87 134.82"
/>
<path stroke="#fbe737" vector-effect="non-scaling-stroke" d="
  M 165.44 124.36
  Q 165.36 117.28 157.93 117.97
  Q 146.58 119.01 131.17 119.12
  C 125.92 119.15 119.65 118.34 113.82 118.40
  C 110.19 118.44 106.92 115.91 104.45 120.72
  Q 104.33 120.95 104.12 120.79
  L 102.63 119.63"
/>
<path stroke="#f3ba23" vector-effect="non-scaling-stroke" d="
  M 250.97 86.69
  L 254.14 97.97"
/>
<path stroke="#f5c225" vector-effect="non-scaling-stroke" d="
  M 254.14 97.97
  Q 253.96 100.39 252.59 102.51
  Q 252.31 102.95 251.83 103.14
  Q 250.50 103.66 250.39 105.18
  Q 250.36 105.63 249.92 105.66
  Q 248.02 105.78 246.80 107.31
  A 1.32 1.26 10.9 0 1 246.13 107.74
  Q 244.27 108.21 242.77 109.41
  C 241.63 110.32 241.53 111.73 239.58 112.07
  A 0.93 0.92 -85.1 0 0 238.86 112.68
  Q 237.91 115.59 234.91 116.14
  Q 234.32 116.25 234.77 115.85
  Q 234.87 115.76 234.98 115.67
  Q 235.43 115.27 234.83 115.37
  Q 232.67 115.77 231.79 117.79
  Q 231.73 117.91 231.81 117.94
  Q 231.94 117.98 232.06 118.01
  Q 232.15 118.04 232.12 118.12
  L 231.96 118.63
  Q 231.81 119.06 231.37 119.15
  C 227.69 119.84 228.37 123.85 224.57 124.99
  A 1.48 1.45 -79.7 0 0 223.78 125.55
  C 212.50 140.65 203.39 153.01 189.86 163.86
  C 187.31 165.90 185.79 168.49 184.50 171.38
  Q 183.76 173.06 181.85 172.94
  Q 181.38 172.91 180.99 173.18
  L 164.24 184.66"
/>
<path stroke="#b68923" vector-effect="non-scaling-stroke" d="
  M 164.24 184.66
  C 144.08 170.61 121.00 172.11 102.75 188.52"
/>
<path stroke="#f5c225" vector-effect="non-scaling-stroke" d="
  M 102.75 188.52
  Q 102.07 188.51 101.50 188.88
  Q 101.11 189.12 100.84 188.76
  Q 98.03 185.04 94.23 182.31
  Q 93.79 182.00 93.25 182.00
  L 92.04 182.00
  Q 91.58 182.00 91.48 181.55
  C 90.85 178.71 88.28 177.72 86.86 176.25
  C 78.03 167.03 69.67 158.82 61.03 148.16
  Q 60.82 147.91 60.78 147.62
  Q 60.74 147.32 60.73 147.01
  A 1.34 1.32 -68.2 0 0 60.37 146.15
  Q 54.33 139.73 49.39 132.44
  C 48.33 130.87 46.70 129.47 45.60 127.70
  Q 45.35 127.31 44.93 127.10
  L 43.39 126.32
  Q 42.89 126.06 42.58 125.58
  C 41.47 123.88 39.89 122.06 39.00 120.26
  Q 38.84 119.95 38.43 119.93
  Q 37.96 119.91 37.74 119.50
  C 35.91 116.15 32.79 114.68 30.40 112.94
  Q 28.51 111.56 26.39 110.44
  Q 25.97 110.22 25.72 109.82
  Q 24.39 107.72 22.14 106.54
  Q 21.69 106.31 21.49 105.85
  Q 19.98 102.42 16.93 100.12
  Q 16.55 99.82 16.51 99.34
  L 16.40 97.95"
/>
<path stroke="#fae05a" vector-effect="non-scaling-stroke" d="
  M 79.01 134.79
  Q 78.67 135.74 78.71 136.01
  Q 80.31 146.26 82.06 156.50
  Q 82.14 156.97 82.57 157.17
  C 84.98 158.27 86.56 157.50 88.67 157.33
  Q 97.84 156.61 106.67 154.16
  Q 107.53 153.92 108.47 153.11"
/>
<path stroke="#fae05a" vector-effect="non-scaling-stroke" d="
  M 171.29 155.94
  Q 178.49 156.17 185.79 157.88
  A 1.71 1.70 10.9 0 0 187.86 156.48
  L 190.15 141.13"
/>
<path stroke="#b57f20" vector-effect="non-scaling-stroke" d="
  M 102.75 188.52
  Q 102.52 189.03 102.46 188.88"
/>
<path stroke="#a8761d" vector-effect="non-scaling-stroke" d="
  M 102.46 188.88
  C 95.08 195.39 88.55 205.78 91.19 215.93
  C 92.86 222.35 97.73 222.49 103.39 221.00
  Q 112.73 218.55 122.10 216.22
  C 138.87 212.04 152.23 216.60 168.12 221.00
  C 179.46 224.14 183.11 216.14 180.64 206.57
  Q 178.03 196.44 169.25 188.93"
/>
<path stroke="#b57f20" vector-effect="non-scaling-stroke" d="
  M 169.25 188.93
  L 164.24 184.66"
/>
<path stroke="#de8917" vector-effect="non-scaling-stroke" d="
  M 260.60 83.18
  Q 259.79 86.31 262.26 89.92
  A 1.35 1.34 32.8 0 1 262.48 90.93
  C 261.94 93.81 263.15 96.46 263.25 98.84
  Q 263.51 104.82 264.40 110.76
  C 264.91 114.13 264.37 117.54 264.81 121.07
  Q 264.82 121.14 264.75 121.17
  Q 264.59 121.22 264.42 121.28
  Q 264.25 121.33 264.25 121.51
  L 264.25 131.50
  A 1.38 1.35 -29.1 0 1 264.03 132.24
  Q 262.38 134.80 262.21 137.80
  C 262.05 140.46 260.86 142.79 260.53 145.42
  Q 259.06 157.00 256.73 162.74
  Q 253.56 170.53 250.51 178.35
  C 250.01 179.64 248.51 181.10 247.80 182.50
  Q 245.63 186.77 242.98 190.75
  Q 242.86 190.94 242.67 190.80
  Q 242.46 190.65 242.34 190.83
  C 237.91 197.36 233.90 204.68 228.81 208.32
  Q 228.41 208.60 228.36 209.09
  C 228.12 211.71 226.26 211.96 224.85 213.22
  Q 221.81 215.94 219.45 219.31
  Q 219.16 219.71 218.71 219.89
  C 216.78 220.65 215.69 222.54 213.74 223.42
  Q 212.05 224.19 211.28 224.73
  Q 203.37 230.33 194.67 234.57
  C 190.80 236.46 186.84 240.54 182.53 240.81
  C 179.27 241.01 178.30 241.72 175.55 242.46
  C 151.68 248.85 124.12 249.38 100.26 242.66
  A 0.08 0.08 0.0 0 1 100.28 242.50
  L 100.70 242.50
  Q 101.30 242.50 100.71 242.35
  Q 95.94 241.09 91.19 239.83
  C 82.01 237.40 71.83 232.31 64.46 227.52
  Q 63.63 226.97 61.26 224.20
  Q 61.01 223.90 60.80 224.23
  Q 60.63 224.50 60.42 224.32
  Q 54.31 219.23 48.30 214.06
  C 46.00 212.08 44.16 209.34 41.89 207.11
  Q 41.64 206.87 41.76 206.27
  Q 41.86 205.76 41.53 205.37
  Q 33.27 195.50 27.66 183.93
  C 23.44 175.24 19.87 166.26 15.47 157.67
  Q 15.38 157.49 15.25 157.63
  Q 15.16 157.71 15.06 157.81
  Q 14.82 158.06 14.70 157.73
  L 12.57 151.60
  Q 12.51 151.41 12.32 151.47
  Q 12.18 151.52 12.04 151.57
  Q 11.92 151.61 11.96 151.73
  L 14.09 158.91
  Q 14.22 159.37 14.10 159.83
  Q 13.99 160.27 13.99 160.76
  Q 14.00 161.65 13.65 160.83
  L 11.92 156.82
  A 0.27 0.27 0.0 0 0 11.41 156.90
  Q 11.12 159.15 12.29 161.50
  Q 12.42 161.76 12.16 161.93
  A 0.26 0.26 0.0 0 1 11.76 161.75
  Q 11.64 160.97 11.13 160.40
  Q 10.75 159.99 10.63 159.44
  C 9.60 154.66 7.60 149.56 6.54 145.52
  Q 5.62 141.98 4.71 138.42
  Q 4.67 138.27 4.66 138.29
  L 4.48 138.50
  Q 4.11 138.92 4.16 138.37
  C 4.39 135.81 3.19 133.67 2.97 131.84
  Q 2.36 126.74 3.62 121.64
  Q 3.69 121.33 3.37 121.29
  L 3.00 121.24
  Q 2.55 121.18 2.52 120.73
  Q 2.42 119.07 3.20 116.25
  Q 3.85 113.91 3.85 105.22"
/>
<path stroke="#f1b020" vector-effect="non-scaling-stroke" d="
  M 14.66 105.56
  Q 14.63 108.64 18.47 109.93
  Q 20.10 110.49 21.26 111.77
  L 24.83 115.74
  A 1.15 1.11 -12.2 0 0 25.41 116.10
  Q 27.71 116.73 29.41 118.36
  Q 29.79 118.72 30.29 118.81
  Q 32.24 119.19 33.23 120.81
  Q 33.39 121.08 33.16 121.28
  Q 32.98 121.45 33.11 121.66
  Q 41.85 135.98 51.85 149.47
  A 0.82 0.78 27.2 0 1 52.02 149.96
  Q 52.05 151.17 52.99 151.48
  Q 53.52 151.65 53.88 152.07
  L 58.29 157.24
  A 1.68 1.62 -68.8 0 1 58.67 158.15
  C 58.96 161.40 61.83 164.83 64.04 167.19
  C 67.58 170.97 72.86 176.96 73.92 181.70
  Q 73.99 182.00 74.30 182.00
  Q 74.43 182.00 74.57 182.00
  Q 75.04 182.00 75.32 182.37
  L 79.93 188.33
  A 0.22 0.22 0.0 0 0 80.31 188.11
  L 77.86 182.22
  A 0.20 0.19 13.4 0 1 78.19 182.02
  C 81.15 185.41 83.85 187.78 85.34 192.13
  Q 85.48 192.55 85.79 192.88
  C 90.23 197.53 88.82 201.10 88.85 206.69
  C 88.89 214.69 87.30 224.16 98.37 224.73
  C 100.82 224.86 103.26 223.99 105.79 223.55
  C 113.11 222.26 120.60 218.78 125.76 217.76
  C 139.31 215.06 151.33 218.91 164.59 222.96
  C 175.43 226.27 182.14 225.53 183.07 213.05
  Q 183.11 212.52 183.61 212.32
  C 189.53 209.99 195.20 207.36 197.20 202.14
  C 199.18 196.95 202.25 192.73 205.06 188.03
  C 207.06 184.69 208.71 180.15 211.19 176.59
  Q 211.56 176.05 211.40 176.68
  L 211.03 178.04
  A 0.86 0.86 0.0 0 0 212.64 178.63
  C 217.92 167.59 225.16 157.98 232.15 148.11
  Q 239.59 137.61 245.38 126.08
  Q 245.43 125.97 245.31 125.94
  Q 245.15 125.92 245.06 125.82
  Q 245.00 125.77 245.03 125.69
  Q 246.86 121.84 249.02 118.16
  Q 249.06 118.10 248.99 118.08
  Q 248.86 118.03 248.73 118.00
  Q 248.59 117.96 248.65 117.83
  L 251.06 112.91
  Q 251.22 112.58 251.53 112.39
  L 251.87 112.20
  Q 252.37 111.90 252.40 111.31
  Q 252.43 110.55 252.89 109.97
  C 255.55 106.61 255.64 101.83 254.14 97.97"
/>
<path stroke="#693d1b" vector-effect="non-scaling-stroke" d="
  M 169.25 188.93
  Q 170.94 194.63 173.13 199.60
  C 174.26 202.16 174.31 204.30 174.19 206.93
  C 173.66 218.03 159.06 213.58 152.72 212.93
  C 146.42 212.29 140.30 211.11 134.07 211.48
  Q 126.11 211.95 112.75 212.99
  C 106.62 213.47 101.02 216.71 97.47 209.61
  C 95.66 205.98 96.76 200.69 97.84 196.77
  Q 97.96 196.31 98.34 196.03
  C 99.49 195.14 99.36 193.80 99.93 192.88
  Q 101.03 191.12 102.58 189.76
  Q 102.89 189.49 102.70 189.13
  Q 102.61 188.97 102.46 188.88"
/>
<path stroke="#ce7814" vector-effect="non-scaling-stroke" d="
  M 237.92 226.37
  Q 237.78 224.35 239.23 223.37
  Q 239.68 223.07 239.93 222.60
  Q 240.87 220.85 242.43 219.58
  Q 242.85 219.24 243.08 218.74
  Q 244.92 214.71 248.19 211.67
  A 0.22 0.21 -82.6 0 0 247.93 211.33
  Q 245.56 212.84 244.25 215.23
  Q 244.03 215.64 243.66 215.89
  C 242.71 216.52 241.64 217.00 240.94 217.95
  Q 237.17 223.07 232.45 227.35
  Q 232.12 227.64 232.25 227.22
  Q 232.67 225.76 233.63 224.68
  Q 233.74 224.56 233.59 224.51
  Q 233.44 224.47 233.23 224.57
  Q 233.09 224.63 233.02 224.76
  Q 231.95 226.61 229.88 226.52
  Q 229.46 226.50 229.74 226.19
  L 230.38 225.48
  A 0.18 0.17 -72.7 0 0 230.23 225.19
  L 229.79 225.25
  Q 228.92 225.38 229.56 224.77
  Q 237.73 216.95 244.85 208.16
  C 247.37 205.04 249.09 201.39 251.33 197.78
  A 0.13 0.13 0.0 0 0 251.15 197.61
  Q 247.74 200.11 245.85 203.96
  Q 244.49 206.74 242.02 208.71
  Q 241.73 208.94 241.44 208.72
  Q 241.23 208.56 241.00 208.57
  Q 240.72 208.58 240.45 208.95
  Q 238.30 211.84 236.15 214.74
  C 233.95 217.71 230.87 219.84 228.23 222.59
  C 226.48 224.43 224.20 225.32 222.27 227.07
  C 218.44 230.51 213.77 234.85 209.15 237.04
  Q 207.86 237.66 206.69 238.50
  C 203.24 241.01 199.71 242.27 196.05 244.22
  C 182.68 251.32 167.57 255.31 152.51 256.75
  Q 152.25 256.78 152.02 256.91
  Q 151.81 257.05 151.60 257.18
  A 1.97 1.94 -62.3 0 1 150.69 257.47
  Q 137.77 258.09 127.68 257.61
  C 103.64 256.47 81.94 248.83 61.19 236.24
  Q 60.80 236.00 60.75 235.54
  Q 60.69 234.91 60.26 234.70
  C 50.38 229.88 40.60 218.89 33.81 211.37
  C 31.47 208.78 28.83 204.72 25.78 201.72
  C 20.46 196.50 18.05 188.36 14.46 182.05
  C 11.60 177.02 11.48 170.28 6.92 165.67
  Q 6.57 165.32 6.54 164.82
  C 6.38 162.08 6.24 160.83 5.16 157.76
  C 3.81 153.92 4.87 150.77 2.50 146.44
  A 1.34 1.33 -52.3 0 1 2.38 145.47
  Q 3.26 142.05 1.36 139.19
  A 2.12 2.07 -62.7 0 1 1.00 138.01
  L 1.00 131.03
  Q 1.00 130.57 1.22 130.17
  C 2.81 127.31 2.16 118.52 1.86 115.45"
/>
<path stroke="#ad621b" vector-effect="non-scaling-stroke" d="
  M 235.04 229.47
  Q 230.33 231.51 227.13 235.83
  C 225.52 238.02 221.73 240.78 219.28 242.18
  Q 217.53 243.19 216.10 244.65
  C 214.04 246.78 211.45 247.31 209.43 249.32
  C 208.21 250.54 206.22 251.08 205.26 251.75
  C 203.16 253.22 200.15 254.39 198.44 256.17
  Q 198.12 256.50 197.66 256.50
  L 196.77 256.50
  Q 196.32 256.50 195.97 256.79
  Q 194.09 258.38 191.63 258.50
  Q 191.14 258.52 190.78 258.85
  C 188.35 261.04 185.95 260.14 184.11 261.81
  Q 183.76 262.13 183.29 262.22
  L 179.52 262.95
  A 1.09 1.08 -71.8 0 0 179.01 263.21
  Q 177.85 264.27 176.25 263.96
  A 1.87 1.84 38.6 0 0 175.17 264.07
  Q 169.59 266.45 163.72 267.88
  Q 163.61 267.91 163.58 268.02
  Q 163.52 268.19 163.46 268.35
  Q 163.33 268.68 162.98 268.72
  Q 156.03 269.65 149.13 270.97
  Q 148.01 271.19 146.36 270.95
  C 144.27 270.66 141.19 271.43 139.82 271.48
  Q 124.30 272.13 109.15 268.77
  C 106.35 268.15 102.93 265.84 99.45 266.33
  Q 98.05 266.52 97.64 265.78
  Q 97.41 265.36 96.93 265.29
  C 93.34 264.77 91.15 264.35 87.82 262.28
  Q 83.40 259.54 77.76 258.24
  Q 74.69 257.53 72.92 254.74
  A 1.29 1.25 80.9 0 0 72.21 254.21
  C 68.91 253.29 66.38 250.48 63.37 248.78
  Q 59.10 246.37 57.43 245.16
  C 54.47 243.00 51.46 241.14 48.87 238.55
  Q 44.58 234.26 40.27 229.97
  C 37.68 227.39 34.73 225.64 32.68 223.25
  Q 27.50 217.22 25.87 213.91
  Q 24.10 210.31 22.84 208.70
  Q 22.54 208.32 22.43 207.85
  C 21.83 205.34 19.49 203.60 18.59 202.09
  Q 14.51 195.24 11.80 187.72
  Q 11.64 187.25 11.28 186.91
  Q 10.63 186.28 10.50 185.01
  Q 10.28 182.82 7.85 180.08
  A 1.69 1.66 -71.0 0 1 7.45 179.24
  Q 7.06 176.96 6.25 174.81
  Q 6.13 174.51 5.93 174.49
  Q 5.73 174.47 5.39 174.55"
/>
<path stroke="#79451e" vector-effect="non-scaling-stroke" d="
  M 104.38 61.70
  Q 101.44 57.74 98.56 56.67
  C 91.99 54.22 80.48 55.17 74.01 57.45
  C 66.17 60.22 58.33 69.03 61.10 78.33
  Q 61.22 78.73 61.53 79.00
  L 62.81 80.12
  Q 63.19 80.46 63.68 80.55
  C 73.58 82.29 71.09 72.85 74.65 67.45
  C 77.97 62.40 84.12 60.58 89.55 63.80
  Q 92.69 65.66 93.32 66.67
  C 97.31 73.00 98.21 81.08 94.95 87.83
  C 92.33 93.25 88.52 98.73 85.79 105.13
  C 84.79 107.48 85.31 113.14 87.20 114.83
  C 92.08 119.21 96.09 108.40 97.47 105.52
  C 101.42 97.31 108.28 91.34 109.49 81.82
  Q 110.80 71.46 105.01 62.20
  Q 104.92 62.06 104.76 61.99
  Q 104.53 61.90 104.38 61.70"
/>
<path stroke="#693d1b" vector-effect="non-scaling-stroke" d="
  M 87.52 99.68
  L 93.88 88.48
  Q 94.13 88.03 94.26 87.54
  C 95.04 84.54 96.26 76.74 94.78 73.46
  Q 94.42 72.65 94.60 73.55
  C 96.78 84.07 91.53 91.23 86.98 99.56
  A 0.06 0.06 0.0 0 0 87.02 99.65
  Q 87.06 99.66 87.09 99.67
  Q 87.46 99.77 87.52 99.68"
/>
<path stroke="#693d1b" vector-effect="non-scaling-stroke" d="
  M 91.19 118.31
  Q 96.29 117.03 97.05 112.29
  A 0.25 0.25 0.0 0 0 96.57 112.16
  L 95.66 114.48
  Q 95.52 114.87 95.24 115.17
  Q 91.98 118.79 86.77 117.49
  C 83.12 116.59 83.85 109.45 84.10 106.76
  C 84.31 104.44 85.73 102.58 86.73 100.48
  Q 86.99 99.94 86.53 100.33
  Q 85.74 100.98 85.54 101.99
  Q 85.42 102.56 84.96 102.93
  L 83.86 103.80
  Q 83.52 104.07 83.46 104.50
  C 82.57 110.88 81.67 120.71 91.19 118.31"
/>
<path stroke="#693d1b" vector-effect="non-scaling-stroke" d="
  M 210.02 62.70
  C 202.89 53.38 190.41 52.06 179.60 52.37
  Q 173.83 52.53 169.85 54.82
  Q 163.87 58.24 160.78 64.72
  C 159.93 66.51 158.47 67.16 158.51 69.99
  Q 158.58 75.43 162.74 77.75
  C 163.94 78.42 165.01 78.18 166.35 78.42
  C 170.90 79.24 173.49 77.72 176.03 73.74
  Q 177.71 71.10 178.01 69.45
  Q 178.10 68.96 178.42 68.57
  C 182.44 63.60 187.92 62.28 192.39 67.65
  Q 194.19 69.81 194.35 73.30
  C 194.81 82.78 191.02 86.71 184.83 93.13
  C 181.00 97.10 176.29 98.92 173.64 104.01
  Q 170.43 110.18 170.17 117.35
  Q 170.15 117.93 170.66 118.18
  Q 177.38 121.51 184.89 121.25
  Q 185.42 121.23 185.68 120.76
  Q 186.23 119.73 187.26 119.21
  A 1.67 1.66 3.5 0 0 187.92 118.63
  C 189.60 116.10 190.91 113.55 193.11 111.44
  Q 198.66 106.14 204.40 101.04
  C 206.81 98.90 210.70 94.86 211.82 91.99
  C 215.22 83.32 216.10 70.64 210.02 62.70"
/>
<path stroke="#864f21" vector-effect="non-scaling-stroke" d="
  M 206.66 67.58
  C 204.76 65.16 204.98 63.30 201.36 61.64
  C 200.88 61.42 200.64 61.04 200.48 60.56
  Q 200.33 60.12 199.90 59.97
  C 191.60 56.94 182.47 54.81 173.78 57.56
  C 168.31 59.29 163.20 66.29 163.79 72.07
  A 1.11 1.09 -77.7 0 0 164.31 72.89
  C 166.57 74.28 170.31 74.78 172.15 72.38
  C 173.11 71.13 173.68 69.37 174.59 68.14
  C 178.52 62.82 181.48 59.04 188.94 60.26
  Q 191.14 60.62 192.97 62.32
  C 195.44 64.63 197.64 66.74 198.20 70.26
  C 199.09 75.79 200.26 81.54 196.24 86.25
  A 1.49 1.46 68.3 0 0 195.89 87.09
  C 195.44 93.15 187.57 95.17 184.36 101.18
  C 183.25 103.24 182.25 104.37 180.33 105.73
  A 1.22 1.19 76.5 0 0 179.84 106.55
  L 179.16 112.37
  A 1.20 1.20 0.0 0 0 180.89 113.58
  C 186.06 110.95 187.78 106.17 192.57 102.77
  C 197.29 99.44 202.11 95.85 204.25 92.30
  Q 211.10 80.97 207.71 69.61
  Q 207.37 68.50 206.66 67.58"
/>
<path stroke="#693d1b" vector-effect="non-scaling-stroke" d="
  M 98.50 136.20
  C 82.01 131.74 84.16 152.85 96.86 147.52
  A 1.30 1.28 -86.2 0 0 97.49 146.96
  Q 98.33 145.51 99.69 144.54
  Q 100.07 144.27 100.15 143.81
  Q 100.77 140.15 99.27 136.86
  A 1.20 1.19 -4.3 0 0 98.50 136.20"
/>
<path stroke="#864f21" vector-effect="non-scaling-stroke" d="
  M 147.47 184.79
  Q 136.68 180.65 126.24 184.34
  C 122.00 185.84 117.57 189.58 113.60 192.31
  C 111.08 194.04 109.60 196.34 107.76 198.69
  C 104.57 202.76 109.76 204.69 113.00 204.55
  Q 130.75 203.75 148.48 204.74
  Q 154.98 205.10 161.51 205.21
  Q 162.02 205.21 162.39 204.87
  C 166.80 200.77 159.81 193.07 157.01 190.26
  C 154.32 187.56 150.75 186.07 147.43 184.08
  Q 147.16 183.92 146.96 184.02
  A 0.23 0.23 0.0 0 0 147.07 184.45
  Q 147.38 184.44 147.68 184.56
  A 0.18 0.12 -13.1 0 1 147.47 184.79"
/>
</g>
<path fill="#efa71d" d="
  M 205.50 19.70
  C 206.13 23.29 209.21 23.71 211.43 25.55
  C 214.91 28.43 218.59 30.95 221.27 33.98
  C 225.10 38.31 229.90 42.06 232.63 46.84
  Q 232.90 47.31 233.44 47.47
  Q 233.92 47.62 234.11 48.09
  C 235.38 51.23 238.00 53.46 239.44 56.03
  C 242.11 60.80 248.47 68.72 246.10 74.49
  A 0.76 0.75 -56.0 0 0 246.26 75.32
  Q 247.35 76.45 247.20 78.28
  L 245.60 75.40
  Q 237.71 60.99 226.47 49.34
  Q 218.17 40.90 209.01 34.34
  C 210.39 31.03 205.85 27.98 203.11 25.55
  Q 200.44 23.17 196.53 21.05
  Q 192.65 18.96 188.92 16.57
  Q 182.37 12.38 174.75 10.79
  Q 174.37 10.71 173.99 10.29
  Q 173.66 9.93 173.18 9.89
  C 169.22 9.63 166.15 7.71 162.48 7.38
  C 159.49 7.11 155.84 6.30 153.66 6.07
  Q 133.02 3.82 112.54 7.08
  C 107.48 7.88 102.28 10.36 96.21 10.44
  A 1.27 1.25 23.9 0 0 95.42 10.74
  Q 94.53 11.50 92.76 12.01
  Q 88.05 13.36 82.40 16.26
  C 80.52 17.22 78.52 18.90 76.40 19.95
  Q 72.92 21.67 71.80 22.45
  C 65.85 26.63 59.15 31.83 56.42 38.78
  Q 49.00 44.78 42.46 51.89
  Q 34.32 60.78 28.30 70.92
  L 23.82 79.05
  Q 24.29 77.52 23.70 76.80
  Q 23.30 76.32 23.46 75.72
  Q 23.81 74.41 23.35 73.26
  A 1.06 1.03 -39.7 0 1 23.45 72.30
  Q 24.61 70.55 24.12 68.49
  Q 23.99 67.97 24.43 67.66
  C 25.77 66.71 26.18 65.23 27.14 64.12
  C 29.29 61.66 29.76 58.46 31.25 56.17
  Q 34.21 51.59 37.92 47.60
  Q 38.26 47.23 38.24 46.73
  Q 38.21 46.20 38.56 45.81
  Q 42.43 41.38 46.20 36.83
  C 47.19 35.64 47.69 33.79 49.66 33.20
  Q 50.15 33.05 50.54 32.72
  C 52.80 30.78 57.71 28.84 57.22 25.41
  C 101.04 -5.10 159.39 -8.39 205.50 19.70
  Z"
/>
<path fill="#fade30" d="
  M 209.01 34.34
  L 207.20 33.10
  C 163.71 4.35 108.17 4.10 64.56 32.78
  L 56.42 38.78
  C 59.15 31.83 65.85 26.63 71.80 22.45
  Q 72.92 21.67 76.40 19.95
  C 78.52 18.90 80.52 17.22 82.40 16.26
  Q 88.05 13.36 92.76 12.01
  Q 94.53 11.50 95.42 10.74
  A 1.27 1.25 23.9 0 1 96.21 10.44
  C 102.28 10.36 107.48 7.88 112.54 7.08
  Q 133.02 3.82 153.66 6.07
  C 155.84 6.30 159.49 7.11 162.48 7.38
  C 166.15 7.71 169.22 9.63 173.18 9.89
  Q 173.66 9.93 173.99 10.29
  Q 174.37 10.71 174.75 10.79
  Q 182.37 12.38 188.92 16.57
  Q 192.65 18.96 196.53 21.05
  Q 200.44 23.17 203.11 25.55
  C 205.85 27.98 210.39 31.03 209.01 34.34
  Z"
/>
<path fill="#fefad1" d="
  M 207.20 33.10
  Q 202.97 34.83 196.01 33.01
  Q 194.98 32.73 193.99 33.35
  C 189.81 35.93 182.48 37.36 178.75 37.32
  Q 149.19 37.04 119.63 37.00
  C 112.30 36.99 102.45 38.53 94.70 37.02
  Q 92.87 36.67 91.00 36.56
  C 84.78 36.21 79.26 34.17 72.83 34.09
  Q 72.47 34.09 72.19 33.87
  C 71.60 33.40 66.40 33.55 64.56 32.78
  C 108.17 4.10 163.71 4.35 207.20 33.10
  Z"
/>
<path fill="#ea9c1a" d="
  M 205.50 19.70
  Q 223.94 30.67 237.72 46.42
  Q 236.68 51.04 240.80 53.39
  A 1.40 1.37 6.8 0 1 241.42 54.16
  Q 242.59 57.69 245.52 59.88
  Q 245.88 60.16 245.96 60.61
  L 246.22 61.99
  Q 246.32 62.53 246.70 62.92
  L 248.46 64.77
  Q 248.88 65.22 248.92 65.84
  Q 249.10 68.42 250.88 70.27
  Q 251.28 70.69 251.46 71.24
  L 253.42 77.35
  Q 253.57 77.80 253.51 78.27
  C 253.17 81.30 255.16 82.92 254.39 86.31
  C 253.89 88.48 255.75 91.18 256.05 93.26
  Q 256.64 97.41 257.16 101.56
  C 257.31 102.72 258.21 103.67 258.28 105.22
  C 258.48 109.48 259.56 114.34 258.92 118.53
  C 258.49 121.37 259.28 123.34 258.66 126.78
  C 257.84 131.30 256.17 134.42 255.78 139.57
  Q 255.09 148.76 250.17 157.63
  C 248.37 160.88 247.98 163.79 245.47 166.92
  Q 243.98 168.78 242.95 170.91
  C 241.05 174.85 237.88 177.61 236.07 181.80
  A 0.33 0.32 10.7 0 1 235.77 182.00
  Q 235.62 182.00 235.47 182.00
  Q 235.16 182.01 235.01 182.29
  L 232.13 187.68
  Q 231.50 188.88 232.45 187.92
  L 232.93 187.45
  A 0.19 0.19 0.0 0 1 233.22 187.69
  Q 232.37 188.99 231.69 190.36
  Q 231.15 191.48 232.03 190.60
  L 232.54 190.09
  Q 232.65 189.97 232.73 190.12
  Q 232.79 190.26 232.68 190.37
  C 231.10 191.92 229.28 195.69 227.83 197.68
  C 226.66 199.27 226.70 200.90 226.38 202.77
  A 1.49 1.48 -17.5 0 1 225.95 203.59
  Q 223.92 205.52 221.85 207.42
  C 219.78 209.32 215.28 212.45 213.49 215.24
  C 211.14 218.91 202.93 223.90 199.02 225.98
  Q 197.29 226.89 192.74 228.35
  C 189.03 229.55 185.90 231.88 182.09 232.69
  C 178.18 233.53 173.10 235.25 170.50 235.87
  Q 148.55 241.12 126.00 239.36
  C 122.60 239.10 116.91 237.68 111.99 238.06
  Q 111.70 238.08 111.47 237.79
  Q 111.19 237.42 110.74 237.34
  C 93.19 234.36 69.69 225.53 57.66 211.87
  C 55.16 209.03 51.92 206.96 49.87 203.73
  C 47.78 200.45 42.81 197.50 42.73 193.81
  A 1.68 1.65 26.6 0 0 42.40 192.85
  L 38.90 188.10
  A 0.17 0.17 0.0 0 0 38.60 188.22
  L 38.80 189.96
  Q 38.89 190.68 38.44 190.11
  C 35.92 186.95 34.56 182.68 32.44 179.15
  C 31.11 176.93 29.84 173.75 27.95 171.40
  Q 26.02 169.00 25.22 167.16
  C 21.14 157.80 15.75 148.70 14.00 138.48
  Q 13.13 133.37 12.15 128.30
  C 11.78 126.40 12.33 124.04 11.56 121.81
  Q 11.51 121.65 11.55 121.54
  Q 11.60 121.36 11.73 121.22
  Q 12.00 120.92 11.92 120.52
  Q 10.35 112.82 11.67 105.09
  C 12.41 100.75 10.82 97.89 13.41 93.61
  A 1.57 1.52 -33.2 0 0 13.62 92.67
  Q 13.21 88.95 14.21 85.43
  C 14.98 82.74 14.45 79.85 17.13 77.52
  A 1.21 1.20 73.6 0 0 17.54 76.76
  Q 18.02 72.60 20.81 69.62
  Q 21.12 69.30 20.98 68.88
  C 19.86 65.38 24.82 63.73 23.47 60.33
  Q 37.00 39.89 57.22 25.41
  C 57.71 28.84 52.80 30.78 50.54 32.72
  Q 50.15 33.05 49.66 33.20
  C 47.69 33.79 47.19 35.64 46.20 36.83
  Q 42.43 41.38 38.56 45.81
  Q 38.21 46.20 38.24 46.73
  Q 38.26 47.23 37.92 47.60
  Q 34.21 51.59 31.25 56.17
  C 29.76 58.46 29.29 61.66 27.14 64.12
  C 26.18 65.23 25.77 66.71 24.43 67.66
  Q 23.99 67.97 24.12 68.49
  Q 24.61 70.55 23.45 72.30
  A 1.06 1.03 -39.7 0 0 23.35 73.26
  Q 23.81 74.41 23.46 75.72
  Q 23.30 76.32 23.70 76.80
  Q 24.29 77.52 23.82 79.05
  L 18.36 92.29
  L 16.40 97.95
  L 14.66 105.56
  C 12.10 113.64 15.48 118.81 18.06 125.74
  Q 18.25 126.25 17.71 126.25
  L 17.25 126.25
  Q 16.68 126.25 16.72 126.82
  Q 17.06 130.72 18.80 133.72
  Q 24.51 143.54 28.13 150.97
  Q 28.39 151.50 28.97 151.50
  L 29.75 151.50
  Q 30.25 151.50 30.25 152.00
  L 30.25 154.01
  Q 30.25 154.48 30.55 154.84
  Q 32.63 157.32 32.08 160.43
  Q 32.00 160.91 32.31 161.28
  C 34.89 164.40 38.25 167.88 38.32 172.18
  Q 38.33 172.72 38.68 173.13
  L 42.53 177.71
  Q 43.15 178.45 42.90 177.52
  Q 42.63 176.55 42.77 175.52
  Q 42.91 174.54 43.35 175.42
  L 46.59 181.92
  A 0.15 0.14 -13.2 0 0 46.72 182.00
  Q 46.86 182.00 47.00 182.00
  Q 47.12 182.00 47.16 182.11
  Q 49.14 188.98 53.00 192.27
  C 55.17 194.10 56.69 195.24 57.22 197.70
  Q 57.37 198.40 57.97 198.77
  Q 58.45 199.07 58.73 199.56
  L 60.43 202.57
  Q 60.75 203.13 60.75 202.49
  L 60.75 201.76
  Q 60.75 201.11 61.14 201.63
  Q 70.54 214.18 84.36 221.34
  Q 85.42 221.89 87.78 222.78
  C 90.78 223.91 93.62 225.81 96.20 226.55
  Q 100.02 227.64 103.99 227.83
  C 106.57 227.95 108.73 229.38 111.01 229.50
  Q 116.38 229.78 121.58 231.04
  Q 121.70 231.07 121.74 231.19
  Q 121.77 231.30 121.76 231.46
  Q 121.75 231.64 121.93 231.66
  Q 136.78 233.63 151.70 232.30
  Q 151.97 232.28 151.96 232.02
  Q 151.96 231.83 152.03 231.69
  Q 152.12 231.52 152.45 231.43
  Q 159.91 229.46 167.56 228.56
  C 169.14 228.38 170.59 227.69 172.09 227.54
  C 177.24 227.05 182.36 225.78 186.23 222.16
  Q 187.81 220.69 189.51 219.72
  C 196.33 215.82 206.81 210.46 211.55 204.20
  Q 216.60 197.53 220.44 190.02
  Q 220.66 189.57 221.08 189.30
  Q 224.60 186.99 224.87 183.08
  C 225.12 179.58 225.64 176.13 225.74 172.62
  C 225.81 169.97 226.64 167.88 227.16 165.33
  Q 227.19 165.16 227.13 165.04
  Q 227.04 164.88 226.90 164.79
  Q 226.63 164.62 226.81 164.36
  C 229.00 161.27 236.83 150.53 237.01 147.28
  Q 237.04 146.80 237.29 146.40
  C 239.26 143.32 242.79 136.42 245.53 134.40
  Q 245.90 134.13 246.04 133.70
  L 247.90 127.69
  Q 248.06 127.16 248.59 127.00
  Q 250.93 126.26 251.20 123.66
  A 0.69 0.68 -86.7 0 1 251.88 123.05
  Q 253.11 123.06 253.36 121.91
  A 0.65 0.64 88.6 0 1 253.83 121.41
  L 255.14 121.07
  Q 255.72 120.92 255.23 120.57
  Q 254.56 120.09 255.13 119.36
  Q 255.39 119.04 255.82 118.82
  Q 256.12 118.67 256.13 118.33
  L 256.22 114.96
  Q 256.23 114.56 255.89 114.35
  Q 255.39 114.04 255.51 113.24
  Q 257.62 99.54 250.97 86.69
  L 249.75 84.47
  Q 249.13 81.07 247.20 78.28
  Q 247.35 76.45 246.26 75.32
  A 0.76 0.75 -56.0 0 1 246.10 74.49
  C 248.47 68.72 242.11 60.80 239.44 56.03
  C 238.00 53.46 235.38 51.23 234.11 48.09
  Q 233.92 47.62 233.44 47.47
  Q 232.90 47.31 232.63 46.84
  C 229.90 42.06 225.10 38.31 221.27 33.98
  C 218.59 30.95 214.91 28.43 211.43 25.55
  C 209.21 23.71 206.13 23.29 205.50 19.70
  Z"
/>
<path fill="#fef5ab" d="
  M 64.56 32.78
  C 66.40 33.55 71.60 33.40 72.19 33.87
  Q 72.47 34.09 72.83 34.09
  C 79.26 34.17 84.78 36.21 91.00 36.56
  Q 92.87 36.67 94.70 37.02
  C 102.45 38.53 112.30 36.99 119.63 37.00
  Q 149.19 37.04 178.75 37.32
  C 182.48 37.36 189.81 35.93 193.99 33.35
  Q 194.98 32.73 196.01 33.01
  Q 202.97 34.83 207.20 33.10
  L 209.01 34.34
  Q 218.17 40.90 226.47 49.34
  L 224.41 51.62
  Q 224.11 51.96 223.67 52.09
  Q 222.71 52.37 221.50 52.24
  Q 216.27 51.69 211.53 54.57
  Q 211.25 54.74 211.12 54.43
  Q 211.03 54.22 210.87 54.11
  Q 210.65 53.97 210.25 54.17
  Q 208.48 55.06 206.75 56.05
  Q 191.47 47.58 175.00 50.75
  Q 169.16 51.88 164.32 56.20
  Q 160.56 53.96 155.39 54.72
  Q 151.39 55.31 149.55 55.27
  Q 135.77 54.91 122.00 55.30
  Q 121.80 55.31 121.74 55.51
  Q 121.66 55.76 121.40 55.77
  L 108.02 56.59
  C 97.20 46.25 73.80 48.45 62.76 58.29
  L 59.03 57.40
  A 0.77 0.74 80.3 0 1 58.54 57.04
  C 56.87 54.23 52.66 57.05 49.61 54.92
  Q 49.11 54.57 48.50 54.67
  Q 46.98 54.93 45.50 54.19
  A 0.13 0.12 -66.3 0 0 45.33 54.26
  Q 45.29 54.39 45.25 54.52
  Q 45.14 54.88 44.90 54.60
  L 42.46 51.89
  Q 49.00 44.78 56.42 38.78
  L 64.56 32.78
  Z"
/>
<path fill="#e39018" d="
  M 237.72 46.42
  Q 252.14 63.16 260.60 83.18
  Q 259.79 86.31 262.26 89.92
  A 1.35 1.34 32.8 0 1 262.48 90.93
  C 261.94 93.81 263.15 96.46 263.25 98.84
  Q 263.51 104.82 264.40 110.76
  C 264.91 114.13 264.37 117.54 264.81 121.07
  Q 264.82 121.14 264.75 121.17
  Q 264.59 121.22 264.42 121.28
  Q 264.25 121.33 264.25 121.51
  L 264.25 131.50
  A 1.38 1.35 -29.1 0 1 264.03 132.24
  Q 262.38 134.80 262.21 137.80
  C 262.05 140.46 260.86 142.79 260.53 145.42
  Q 259.06 157.00 256.73 162.74
  Q 253.56 170.53 250.51 178.35
  C 250.01 179.64 248.51 181.10 247.80 182.50
  Q 245.63 186.77 242.98 190.75
  Q 242.86 190.94 242.67 190.80
  Q 242.46 190.65 242.34 190.83
  C 237.91 197.36 233.90 204.68 228.81 208.32
  Q 228.41 208.60 228.36 209.09
  C 228.12 211.71 226.26 211.96 224.85 213.22
  Q 221.81 215.94 219.45 219.31
  Q 219.16 219.71 218.71 219.89
  C 216.78 220.65 215.69 222.54 213.74 223.42
  Q 212.05 224.19 211.28 224.73
  Q 203.37 230.33 194.67 234.57
  C 190.80 236.46 186.84 240.54 182.53 240.81
  C 179.27 241.01 178.30 241.72 175.55 242.46
  C 151.68 248.85 124.12 249.38 100.26 242.66
  A 0.08 0.08 0.0 0 1 100.28 242.50
  L 100.70 242.50
  Q 101.30 242.50 100.71 242.35
  Q 95.94 241.09 91.19 239.83
  C 82.01 237.40 71.83 232.31 64.46 227.52
  Q 63.63 226.97 61.26 224.20
  Q 61.01 223.90 60.80 224.23
  Q 60.63 224.50 60.42 224.32
  Q 54.31 219.23 48.30 214.06
  C 46.00 212.08 44.16 209.34 41.89 207.11
  Q 41.64 206.87 41.76 206.27
  Q 41.86 205.76 41.53 205.37
  Q 33.27 195.50 27.66 183.93
  C 23.44 175.24 19.87 166.26 15.47 157.67
  Q 15.38 157.49 15.25 157.63
  Q 15.16 157.71 15.06 157.81
  Q 14.82 158.06 14.70 157.73
  L 12.57 151.60
  Q 12.51 151.41 12.32 151.47
  Q 12.18 151.52 12.04 151.57
  Q 11.92 151.61 11.96 151.73
  L 14.09 158.91
  Q 14.22 159.37 14.10 159.83
  Q 13.99 160.27 13.99 160.76
  Q 14.00 161.65 13.65 160.83
  L 11.92 156.82
  A 0.27 0.27 0.0 0 0 11.41 156.90
  Q 11.12 159.15 12.29 161.50
  Q 12.42 161.76 12.16 161.93
  A 0.26 0.26 0.0 0 1 11.76 161.75
  Q 11.64 160.97 11.13 160.40
  Q 10.75 159.99 10.63 159.44
  C 9.60 154.66 7.60 149.56 6.54 145.52
  Q 5.62 141.98 4.71 138.42
  Q 4.67 138.27 4.66 138.29
  L 4.48 138.50
  Q 4.11 138.92 4.16 138.37
  C 4.39 135.81 3.19 133.67 2.97 131.84
  Q 2.36 126.74 3.62 121.64
  Q 3.69 121.33 3.37 121.29
  L 3.00 121.24
  Q 2.55 121.18 2.52 120.73
  Q 2.42 119.07 3.20 116.25
  Q 3.85 113.91 3.85 105.22
  Q 9.61 81.06 23.47 60.33
  C 24.82 63.73 19.86 65.38 20.98 68.88
  Q 21.12 69.30 20.81 69.62
  Q 18.02 72.60 17.54 76.76
  A 1.21 1.20 73.6 0 1 17.13 77.52
  C 14.45 79.85 14.98 82.74 14.21 85.43
  Q 13.21 88.95 13.62 92.67
  A 1.57 1.52 -33.2 0 1 13.41 93.61
  C 10.82 97.89 12.41 100.75 11.67 105.09
  Q 10.35 112.82 11.92 120.52
  Q 12.00 120.92 11.73 121.22
  Q 11.60 121.36 11.55 121.54
  Q 11.51 121.65 11.56 121.81
  C 12.33 124.04 11.78 126.40 12.15 128.30
  Q 13.13 133.37 14.00 138.48
  C 15.75 148.70 21.14 157.80 25.22 167.16
  Q 26.02 169.00 27.95 171.40
  C 29.84 173.75 31.11 176.93 32.44 179.15
  C 34.56 182.68 35.92 186.95 38.44 190.11
  Q 38.89 190.68 38.80 189.96
  L 38.60 188.22
  A 0.17 0.17 0.0 0 1 38.90 188.10
  L 42.40 192.85
  A 1.68 1.65 26.6 0 1 42.73 193.81
  C 42.81 197.50 47.78 200.45 49.87 203.73
  C 51.92 206.96 55.16 209.03 57.66 211.87
  C 69.69 225.53 93.19 234.36 110.74 237.34
  Q 111.19 237.42 111.47 237.79
  Q 111.70 238.08 111.99 238.06
  C 116.91 237.68 122.60 239.10 126.00 239.36
  Q 148.55 241.12 170.50 235.87
  C 173.10 235.25 178.18 233.53 182.09 232.69
  C 185.90 231.88 189.03 229.55 192.74 228.35
  Q 197.29 226.89 199.02 225.98
  C 202.93 223.90 211.14 218.91 213.49 215.24
  C 215.28 212.45 219.78 209.32 221.85 207.42
  Q 223.92 205.52 225.95 203.59
  A 1.49 1.48 -17.5 0 0 226.38 202.77
  C 226.70 200.90 226.66 199.27 227.83 197.68
  C 229.28 195.69 231.10 191.92 232.68 190.37
  Q 232.79 190.26 232.73 190.12
  Q 232.65 189.97 232.54 190.09
  L 232.03 190.60
  Q 231.15 191.48 231.69 190.36
  Q 232.37 188.99 233.22 187.69
  A 0.19 0.19 0.0 0 0 232.93 187.45
  L 232.45 187.92
  Q 231.50 188.88 232.13 187.68
  L 235.01 182.29
  Q 235.16 182.01 235.47 182.00
  Q 235.62 182.00 235.77 182.00
  A 0.33 0.32 10.7 0 0 236.07 181.80
  C 237.88 177.61 241.05 174.85 242.95 170.91
  Q 243.98 168.78 245.47 166.92
  C 247.98 163.79 248.37 160.88 250.17 157.63
  Q 255.09 148.76 255.78 139.57
  C 256.17 134.42 257.84 131.30 258.66 126.78
  C 259.28 123.34 258.49 121.37 258.92 118.53
  C 259.56 114.34 258.48 109.48 258.28 105.22
  C 258.21 103.67 257.31 102.72 257.16 101.56
  Q 256.64 97.41 256.05 93.26
  C 255.75 91.18 253.89 88.48 254.39 86.31
  C 255.16 82.92 253.17 81.30 253.51 78.27
  Q 253.57 77.80 253.42 77.35
  L 251.46 71.24
  Q 251.28 70.69 250.88 70.27
  Q 249.10 68.42 248.92 65.84
  Q 248.88 65.22 248.46 64.77
  L 246.70 62.92
  Q 246.32 62.53 246.22 61.99
  L 245.96 60.61
  Q 245.88 60.16 245.52 59.88
  Q 242.59 57.69 241.42 54.16
  A 1.40 1.37 6.8 0 0 240.80 53.39
  Q 236.68 51.04 237.72 46.42
  Z"
/>
<path fill="#fbe379" d="
  M 226.47 49.34
  Q 237.71 60.99 245.60 75.40
  Q 245.40 77.99 243.72 78.63
  Q 243.50 78.72 243.50 78.95
  Q 243.50 79.11 243.49 79.28
  Q 243.45 79.76 243.92 79.64
  L 244.35 79.53
  A 0.17 0.17 0.0 0 1 244.55 79.76
  Q 244.05 81.09 242.80 81.78
  Q 242.25 82.07 242.25 82.70
  L 242.25 83.18
  Q 242.25 83.66 241.85 83.91
  Q 241.01 84.43 240.09 84.51
  Q 239.83 84.53 239.91 84.28
  Q 239.96 84.12 240.01 83.94
  Q 240.15 83.49 239.68 83.50
  Q 239.38 83.51 239.08 83.50
  Q 238.66 83.48 238.72 83.06
  L 238.77 82.65
  A 0.39 0.38 -11.5 0 0 238.19 82.27
  L 235.70 83.76
  Q 235.08 84.14 235.20 83.42
  L 235.28 82.96
  Q 235.35 82.53 234.92 82.58
  Q 232.66 82.82 230.96 84.26
  Q 230.62 84.55 230.18 84.44
  L 229.30 84.21
  Q 229.11 84.16 229.18 83.97
  L 229.28 83.66
  Q 229.42 83.24 228.97 83.25
  Q 227.95 83.27 227.15 83.92
  Q 226.78 84.22 226.31 84.20
  Q 222.52 84.07 218.89 85.24
  Q 218.45 85.38 218.36 85.83
  Q 215.27 100.35 202.99 108.76
  C 197.07 112.81 192.75 118.21 191.84 125.74
  A 2.53 2.53 0.0 0 1 189.35 127.97
  C 184.84 128.01 180.74 126.49 176.21 126.48
  Q 169.95 126.46 165.44 124.36
  Q 165.57 121.75 167.01 122.34
  L 189.31 125.52
  A 0.85 0.85 0.0 0 0 190.28 124.70
  C 190.63 113.37 199.32 108.63 207.04 102.05
  C 219.85 91.12 220.71 66.72 206.75 56.05
  Q 208.48 55.06 210.25 54.17
  Q 210.65 53.97 210.87 54.11
  Q 211.03 54.22 211.12 54.43
  Q 211.25 54.74 211.53 54.57
  Q 216.27 51.69 221.50 52.24
  Q 222.71 52.37 223.67 52.09
  Q 224.11 51.96 224.41 51.62
  L 226.47 49.34
  Z"
/>
<path fill="#5c3318" d="
  M 108.02 56.59
  Q 113.18 61.92 115.01 69.31
  C 119.62 84.89 113.92 92.96 105.79 105.44
  C 102.49 110.50 101.67 113.93 102.63 119.63
  Q 102.40 120.72 102.80 122.47
  L 80.75 125.84
  A 0.71 0.70 -10.1 0 1 79.94 125.28
  Q 77.83 114.44 79.48 104.27
  C 80.59 102.08 81.41 99.78 82.80 97.81
  C 86.14 93.05 91.45 85.79 91.48 79.83
  C 91.51 75.10 89.63 63.88 81.84 67.57
  C 77.64 69.55 78.12 77.49 78.88 81.19
  Q 77.92 82.28 78.96 83.79
  L 79.45 85.52
  L 56.12 89.08
  Q 55.60 89.16 55.52 88.64
  C 53.96 77.88 54.32 66.33 62.76 58.29
  C 73.80 48.45 97.20 46.25 108.02 56.59
  Z
  M 104.38 61.70
  Q 101.44 57.74 98.56 56.67
  C 91.99 54.22 80.48 55.17 74.01 57.45
  C 66.17 60.22 58.33 69.03 61.10 78.33
  Q 61.22 78.73 61.53 79.00
  L 62.81 80.12
  Q 63.19 80.46 63.68 80.55
  C 73.58 82.29 71.09 72.85 74.65 67.45
  C 77.97 62.40 84.12 60.58 89.55 63.80
  Q 92.69 65.66 93.32 66.67
  C 97.31 73.00 98.21 81.08 94.95 87.83
  C 92.33 93.25 88.52 98.73 85.79 105.13
  C 84.79 107.48 85.31 113.14 87.20 114.83
  C 92.08 119.21 96.09 108.40 97.47 105.52
  C 101.42 97.31 108.28 91.34 109.49 81.82
  Q 110.80 71.46 105.01 62.20
  Q 104.92 62.06 104.76 61.99
  Q 104.53 61.90 104.38 61.70
  Z
  M 87.52 99.68
  L 93.88 88.48
  Q 94.13 88.03 94.26 87.54
  C 95.04 84.54 96.26 76.74 94.78 73.46
  Q 94.42 72.65 94.60 73.55
  C 96.78 84.07 91.53 91.23 86.98 99.56
  A 0.06 0.06 0.0 0 0 87.02 99.65
  Q 87.06 99.66 87.09 99.67
  Q 87.46 99.77 87.52 99.68
  Z
  M 91.19 118.31
  Q 96.29 117.03 97.05 112.29
  A 0.25 0.25 0.0 0 0 96.57 112.16
  L 95.66 114.48
  Q 95.52 114.87 95.24 115.17
  Q 91.98 118.79 86.77 117.49
  C 83.12 116.59 83.85 109.45 84.10 106.76
  C 84.31 104.44 85.73 102.58 86.73 100.48
  Q 86.99 99.94 86.53 100.33
  Q 85.74 100.98 85.54 101.99
  Q 85.42 102.56 84.96 102.93
  L 83.86 103.80
  Q 83.52 104.07 83.46 104.50
  C 82.57 110.88 81.67 120.71 91.19 118.31
  Z"
/>
<path fill="#5c3318" d="
  M 206.75 56.05
  C 220.71 66.72 219.85 91.12 207.04 102.05
  C 199.32 108.63 190.63 113.37 190.28 124.70
  A 0.85 0.85 0.0 0 1 189.31 125.52
  L 167.01 122.34
  C 168.82 107.58 171.25 101.32 181.85 92.50
  Q 187.99 87.39 189.38 85.18
  C 192.40 80.40 195.49 68.76 187.23 66.94
  C 180.52 65.46 178.58 78.45 178.32 82.62
  A 0.72 0.72 0.0 0 1 177.50 83.29
  L 154.94 80.12
  Q 154.33 80.03 154.47 79.43
  L 156.51 70.08
  Q 158.63 62.27 164.32 56.20
  Q 169.16 51.88 175.00 50.75
  Q 191.47 47.58 206.75 56.05
  Z
  M 210.02 62.70
  C 202.89 53.38 190.41 52.06 179.60 52.37
  Q 173.83 52.53 169.85 54.82
  Q 163.87 58.24 160.78 64.72
  C 159.93 66.51 158.47 67.16 158.51 69.99
  Q 158.58 75.43 162.74 77.75
  C 163.94 78.42 165.01 78.18 166.35 78.42
  C 170.90 79.24 173.49 77.72 176.03 73.74
  Q 177.71 71.10 178.01 69.45
  Q 178.10 68.96 178.42 68.57
  C 182.44 63.60 187.92 62.28 192.39 67.65
  Q 194.19 69.81 194.35 73.30
  C 194.81 82.78 191.02 86.71 184.83 93.13
  C 181.00 97.10 176.29 98.92 173.64 104.01
  Q 170.43 110.18 170.17 117.35
  Q 170.15 117.93 170.66 118.18
  Q 177.38 121.51 184.89 121.25
  Q 185.42 121.23 185.68 120.76
  Q 186.23 119.73 187.26 119.21
  A 1.67 1.66 3.5 0 0 187.92 118.63
  C 189.60 116.10 190.91 113.55 193.11 111.44
  Q 198.66 106.14 204.40 101.04
  C 206.81 98.90 210.70 94.86 211.82 91.99
  C 215.22 83.32 216.10 70.64 210.02 62.70
  Z"
/>
<path fill="#fbe379" d="
  M 42.46 51.89
  L 44.90 54.60
  Q 45.14 54.88 45.25 54.52
  Q 45.29 54.39 45.33 54.26
  A 0.13 0.12 -66.3 0 1 45.50 54.19
  Q 46.98 54.93 48.50 54.67
  Q 49.11 54.57 49.61 54.92
  C 52.66 57.05 56.87 54.23 58.54 57.04
  A 0.77 0.74 80.3 0 0 59.03 57.40
  L 62.76 58.29
  C 54.32 66.33 53.96 77.88 55.52 88.64
  Q 55.60 89.16 56.12 89.08
  L 79.45 85.52
  C 79.70 88.63 76.23 89.37 73.56 89.69
  Q 64.12 90.82 54.64 92.30
  A 0.64 0.64 0.0 0 1 53.91 91.79
  Q 52.39 84.13 53.16 76.31
  Q 53.25 75.44 52.76 76.20
  Q 52.66 76.35 52.71 76.58
  Q 52.85 77.19 52.24 77.07
  Q 49.79 76.56 47.74 75.10
  Q 47.39 74.85 46.98 74.97
  Q 45.29 75.47 43.93 74.38
  Q 43.60 74.12 43.19 74.05
  L 35.06 72.74
  Q 34.76 72.69 34.75 72.99
  Q 34.75 73.15 34.76 73.33
  Q 34.76 73.49 34.61 73.42
  L 34.27 73.26
  A 0.24 0.24 0.0 0 0 34.05 73.69
  Q 34.58 73.98 34.41 74.44
  Q 34.25 74.92 33.74 74.85
  Q 31.95 74.63 31.00 73.14
  Q 30.73 72.71 30.32 72.41
  L 28.30 70.92
  Q 34.32 60.78 42.46 51.89
  Z"
/>
<path fill="#76461e" d="
  M 210.02 62.70
  C 216.10 70.64 215.22 83.32 211.82 91.99
  C 210.70 94.86 206.81 98.90 204.40 101.04
  Q 198.66 106.14 193.11 111.44
  C 190.91 113.55 189.60 116.10 187.92 118.63
  A 1.67 1.66 3.5 0 1 187.26 119.21
  Q 186.23 119.73 185.68 120.76
  Q 185.42 121.23 184.89 121.25
  Q 177.38 121.51 170.66 118.18
  Q 170.15 117.93 170.17 117.35
  Q 170.43 110.18 173.64 104.01
  C 176.29 98.92 181.00 97.10 184.83 93.13
  C 191.02 86.71 194.81 82.78 194.35 73.30
  Q 194.19 69.81 192.39 67.65
  C 187.92 62.28 182.44 63.60 178.42 68.57
  Q 178.10 68.96 178.01 69.45
  Q 177.71 71.10 176.03 73.74
  C 173.49 77.72 170.90 79.24 166.35 78.42
  C 165.01 78.18 163.94 78.42 162.74 77.75
  Q 158.58 75.43 158.51 69.99
  C 158.47 67.16 159.93 66.51 160.78 64.72
  Q 163.87 58.24 169.85 54.82
  Q 173.83 52.53 179.60 52.37
  C 190.41 52.06 202.89 53.38 210.02 62.70
  Z
  M 206.66 67.58
  C 204.76 65.16 204.98 63.30 201.36 61.64
  C 200.88 61.42 200.64 61.04 200.48 60.56
  Q 200.33 60.12 199.90 59.97
  C 191.60 56.94 182.47 54.81 173.78 57.56
  C 168.31 59.29 163.20 66.29 163.79 72.07
  A 1.11 1.09 -77.7 0 0 164.31 72.89
  C 166.57 74.28 170.31 74.78 172.15 72.38
  C 173.11 71.13 173.68 69.37 174.59 68.14
  C 178.52 62.82 181.48 59.04 188.94 60.26
  Q 191.14 60.62 192.97 62.32
  C 195.44 64.63 197.64 66.74 198.20 70.26
  C 199.09 75.79 200.26 81.54 196.24 86.25
  A 1.49 1.46 68.3 0 0 195.89 87.09
  C 195.44 93.15 187.57 95.17 184.36 101.18
  C 183.25 103.24 182.25 104.37 180.33 105.73
  A 1.22 1.19 76.5 0 0 179.84 106.55
  L 179.16 112.37
  A 1.20 1.20 0.0 0 0 180.89 113.58
  C 186.06 110.95 187.78 106.17 192.57 102.77
  C 197.29 99.44 202.11 95.85 204.25 92.30
  Q 211.10 80.97 207.71 69.61
  Q 207.37 68.50 206.66 67.58
  Z"
/>
<path fill="#fdf38c" d="
  M 164.32 56.20
  Q 158.63 62.27 156.51 70.08
  Q 150.69 68.49 148.75 68.49
  C 137.83 68.52 125.79 67.80 115.01 69.31
  Q 113.18 61.92 108.02 56.59
  L 121.40 55.77
  Q 121.66 55.76 121.74 55.51
  Q 121.80 55.31 122.00 55.30
  Q 135.77 54.91 149.55 55.27
  Q 151.39 55.31 155.39 54.72
  Q 160.56 53.96 164.32 56.20
  Z"
/>
<path fill="#955724" d="
  M 104.76 61.99
  Q 104.92 62.06 105.01 62.20
  Q 110.80 71.46 109.49 81.82
  C 108.28 91.34 101.42 97.31 97.47 105.52
  C 96.09 108.40 92.08 119.21 87.20 114.83
  C 85.31 113.14 84.79 107.48 85.79 105.13
  C 88.52 98.73 92.33 93.25 94.95 87.83
  C 98.21 81.08 97.31 73.00 93.32 66.67
  Q 92.69 65.66 89.55 63.80
  C 84.12 60.58 77.97 62.40 74.65 67.45
  C 71.09 72.85 73.58 82.29 63.68 80.55
  Q 63.19 80.46 62.81 80.12
  L 61.53 79.00
  Q 61.22 78.73 61.10 78.33
  C 58.33 69.03 66.17 60.22 74.01 57.45
  C 80.48 55.17 91.99 54.22 98.56 56.67
  Q 101.44 57.74 104.38 61.70
  Q 104.53 61.90 104.76 61.99
  Z"
/>
<path fill="#955724" d="
  M 206.66 67.58
  Q 207.37 68.50 207.71 69.61
  Q 211.10 80.97 204.25 92.30
  C 202.11 95.85 197.29 99.44 192.57 102.77
  C 187.78 106.17 186.06 110.95 180.89 113.58
  A 1.20 1.20 0.0 0 1 179.16 112.37
  L 179.84 106.55
  A 1.22 1.19 76.5 0 1 180.33 105.73
  C 182.25 104.37 183.25 103.24 184.36 101.18
  C 187.57 95.17 195.44 93.15 195.89 87.09
  A 1.49 1.46 68.3 0 1 196.24 86.25
  C 200.26 81.54 199.09 75.79 198.20 70.26
  C 197.64 66.74 195.44 64.63 192.97 62.32
  Q 191.14 60.62 188.94 60.26
  C 181.48 59.04 178.52 62.82 174.59 68.14
  C 173.68 69.37 173.11 71.13 172.15 72.38
  C 170.31 74.78 166.57 74.28 164.31 72.89
  A 1.11 1.09 -77.7 0 1 163.79 72.07
  C 163.20 66.29 168.31 59.29 173.78 57.56
  C 182.47 54.81 191.60 56.94 199.90 59.97
  Q 200.33 60.12 200.48 60.56
  C 200.64 61.04 200.88 61.42 201.36 61.64
  C 204.98 63.30 204.76 65.16 206.66 67.58
  Z"
/>
<path fill="#fcef3d" d="
  M 167.01 122.34
  Q 165.57 121.75 165.44 124.36
  Q 165.36 117.28 157.93 117.97
  Q 146.58 119.01 131.17 119.12
  C 125.92 119.15 119.65 118.34 113.82 118.40
  C 110.19 118.44 106.92 115.91 104.45 120.72
  Q 104.33 120.95 104.12 120.79
  L 102.63 119.63
  C 101.67 113.93 102.49 110.50 105.79 105.44
  C 113.92 92.96 119.62 84.89 115.01 69.31
  C 125.79 67.80 137.83 68.52 148.75 68.49
  Q 150.69 68.49 156.51 70.08
  L 154.47 79.43
  Q 154.33 80.03 154.94 80.12
  L 177.50 83.29
  A 0.72 0.72 0.0 0 0 178.32 82.62
  C 178.58 78.45 180.52 65.46 187.23 66.94
  C 195.49 68.76 192.40 80.40 189.38 85.18
  Q 187.99 87.39 181.85 92.50
  C 171.25 101.32 168.82 107.58 167.01 122.34
  Z"
/>
<path fill="#fade30" d="
  M 79.48 104.27
  Q 78.92 103.64 77.82 104.22
  Q 77.39 104.44 77.31 104.92
  Q 75.35 116.63 78.58 128.05
  Q 78.90 129.18 80.06 129.01
  L 102.62 125.57
  A 1.39 1.39 0.0 0 0 103.50 123.34
  L 102.80 122.47
  Q 102.40 120.72 102.63 119.63
  L 104.12 120.79
  Q 104.33 120.95 104.45 120.72
  C 106.92 115.91 110.19 118.44 113.82 118.40
  C 119.65 118.34 125.92 119.15 131.17 119.12
  Q 146.58 119.01 157.93 117.97
  Q 165.36 117.28 165.44 124.36
  Q 169.95 126.46 176.21 126.48
  C 180.74 126.49 184.84 128.01 189.35 127.97
  A 2.53 2.53 0.0 0 0 191.84 125.74
  C 192.75 118.21 197.07 112.81 202.99 108.76
  Q 215.27 100.35 218.36 85.83
  Q 218.45 85.38 218.89 85.24
  Q 222.52 84.07 226.31 84.20
  Q 226.78 84.22 227.15 83.92
  Q 227.95 83.27 228.97 83.25
  Q 229.42 83.24 229.28 83.66
  L 229.18 83.97
  Q 229.11 84.16 229.30 84.21
  L 230.18 84.44
  Q 230.62 84.55 230.96 84.26
  Q 232.66 82.82 234.92 82.58
  Q 235.35 82.53 235.28 82.96
  L 235.20 83.42
  Q 235.08 84.14 235.70 83.76
  L 238.19 82.27
  A 0.39 0.38 -11.5 0 1 238.77 82.65
  L 238.72 83.06
  Q 238.66 83.48 239.08 83.50
  Q 239.38 83.51 239.68 83.50
  Q 240.15 83.49 240.01 83.94
  Q 239.96 84.12 239.91 84.28
  Q 239.83 84.53 240.09 84.51
  Q 241.01 84.43 241.85 83.91
  Q 242.25 83.66 242.25 83.18
  L 242.25 82.70
  Q 242.25 82.07 242.80 81.78
  Q 244.05 81.09 244.55 79.76
  A 0.17 0.17 0.0 0 0 244.35 79.53
  L 243.92 79.64
  Q 243.45 79.76 243.49 79.28
  Q 243.50 79.11 243.50 78.95
  Q 243.50 78.72 243.72 78.63
  Q 245.40 77.99 245.60 75.40
  L 247.20 78.28
  Q 249.13 81.07 249.75 84.47
  Q 250.11 85.96 249.88 87.26
  Q 249.81 87.66 249.44 87.85
  Q 248.73 88.21 248.51 88.97
  Q 248.38 89.42 248.02 89.73
  Q 246.39 91.17 246.76 93.31
  Q 246.79 93.49 246.97 93.50
  Q 247.15 93.50 247.35 93.47
  Q 247.64 93.42 247.58 93.72
  L 247.14 95.92
  Q 247.07 96.26 247.42 96.25
  Q 247.60 96.25 247.76 96.26
  Q 248.23 96.31 248.35 96.77
  Q 248.78 98.48 247.73 99.64
  Q 247.45 99.94 247.05 99.99
  Q 246.16 100.10 246.03 100.95
  A 1.90 1.86 20.8 0 1 243.14 102.21
  C 243.06 102.16 241.78 103.24 241.29 103.53
  C 238.13 105.38 234.49 106.40 231.53 108.32
  Q 229.61 109.56 227.47 110.90
  A 0.47 0.47 0.0 0 0 227.86 111.75
  L 228.37 111.59
  A 0.31 0.31 0.0 0 1 228.71 112.07
  L 226.78 114.62
  Q 226.47 115.03 226.00 115.25
  Q 224.50 115.95 223.72 117.49
  A 0.93 0.91 6.4 0 1 223.12 117.96
  L 219.94 118.67
  Q 219.74 118.71 219.84 118.54
  L 219.99 118.29
  Q 220.29 117.79 219.72 117.90
  L 216.86 118.46
  Q 216.40 118.55 216.16 118.95
  Q 215.64 119.81 214.64 119.77
  Q 214.06 119.75 213.67 120.18
  L 213.00 120.93
  Q 212.71 121.25 212.28 121.22
  Q 209.33 121.02 208.03 123.76
  Q 207.85 124.14 208.27 124.05
  L 210.68 123.47
  Q 211.23 123.34 210.84 123.75
  L 193.21 142.17
  Q 192.78 142.61 192.52 142.05
  L 192.33 141.67
  Q 192.17 141.33 191.92 141.61
  Q 191.32 142.23 190.15 141.13
  Q 190.49 137.72 191.01 134.21
  Q 191.16 133.23 189.23 133.82
  Q 189.46 132.48 188.81 132.37
  Q 177.60 130.55 166.14 129.11
  Q 165.60 129.05 165.52 129.58
  L 162.30 151.41
  Q 161.79 151.22 161.41 151.52
  Q 161.02 151.83 161.11 152.32
  L 161.35 153.72
  Q 161.43 154.14 161.85 154.21
  L 171.29 155.94
  Q 166.97 155.72 162.78 156.21
  C 151.39 157.53 139.46 156.73 128.06 155.84
  C 123.03 155.45 116.58 151.97 111.83 152.65
  Q 110.16 152.89 108.47 153.11
  Q 108.64 152.09 108.28 151.72
  Q 107.91 151.34 107.72 151.52
  L 104.42 129.92
  Q 104.30 129.17 103.56 129.28
  L 81.30 132.61
  Q 80.84 132.68 80.76 133.14
  Q 80.63 133.97 80.87 134.82
  L 79.01 134.79
  L 77.83 132.91
  Q 77.57 132.51 77.17 132.25
  C 74.74 130.63 71.82 127.35 69.07 126.69
  Q 68.58 126.57 68.28 126.17
  Q 66.59 123.92 63.71 123.76
  Q 63.19 123.73 62.89 123.31
  Q 61.77 121.78 60.02 121.24
  Q 59.52 121.08 59.17 120.70
  L 56.96 118.32
  Q 56.62 117.95 56.13 117.82
  Q 53.50 117.15 50.92 116.38
  C 48.18 115.56 46.41 113.38 44.23 111.62
  Q 43.58 111.09 43.94 111.85
  L 44.18 112.35
  A 0.08 0.08 0.0 0 1 44.11 112.46
  L 43.81 112.46
  Q 43.63 112.46 43.70 112.62
  Q 43.80 112.84 43.77 113.07
  Q 43.68 113.70 43.30 113.19
  Q 41.78 111.10 39.50 109.71
  Q 38.95 109.38 38.36 109.15
  Q 37.17 108.68 36.14 107.81
  A 0.17 0.17 0.0 0 1 36.22 107.51
  L 36.68 107.45
  A 0.12 0.11 53.7 0 0 36.71 107.23
  Q 34.89 106.34 34.02 104.48
  Q 33.86 104.15 33.51 104.03
  L 32.48 103.71
  A 0.20 0.20 0.0 0 0 32.23 103.94
  Q 32.26 104.08 32.37 104.22
  A 0.18 0.18 0.0 0 1 32.17 104.50
  L 31.15 104.18
  Q 30.61 104.01 30.49 103.45
  Q 30.00 101.15 25.96 101.54
  A 0.48 0.48 0.0 0 1 25.45 101.18
  C 24.85 98.82 22.87 98.38 21.65 96.85
  Q 19.90 94.63 18.36 92.29
  L 23.82 79.05
  L 28.30 70.92
  L 30.32 72.41
  Q 30.73 72.71 31.00 73.14
  Q 31.95 74.63 33.74 74.85
  Q 34.25 74.92 34.41 74.44
  Q 34.58 73.98 34.05 73.69
  A 0.24 0.24 0.0 0 1 34.27 73.26
  L 34.61 73.42
  Q 34.76 73.49 34.76 73.33
  Q 34.75 73.15 34.75 72.99
  Q 34.76 72.69 35.06 72.74
  L 43.19 74.05
  Q 43.60 74.12 43.93 74.38
  Q 45.29 75.47 46.98 74.97
  Q 47.39 74.85 47.74 75.10
  Q 49.79 76.56 52.24 77.07
  Q 52.85 77.19 52.71 76.58
  Q 52.66 76.35 52.76 76.20
  Q 53.25 75.44 53.16 76.31
  Q 52.39 84.13 53.91 91.79
  A 0.64 0.64 0.0 0 0 54.64 92.30
  Q 64.12 90.82 73.56 89.69
  C 76.23 89.37 79.70 88.63 79.45 85.52
  L 78.96 83.79
  L 78.88 81.19
  C 78.12 77.49 77.64 69.55 81.84 67.57
  C 89.63 63.88 91.51 75.10 91.48 79.83
  C 91.45 85.79 86.14 93.05 82.80 97.81
  C 81.41 99.78 80.59 102.08 79.48 104.27
  Z"
/>
<path fill="#76461e" d="
  M 93.88 88.48
  L 87.52 99.68
  Q 87.46 99.77 87.09 99.67
  Q 87.06 99.66 87.02 99.65
  A 0.06 0.06 0.0 0 1 86.98 99.56
  C 91.53 91.23 96.78 84.07 94.60 73.55
  Q 94.42 72.65 94.78 73.46
  C 96.26 76.74 95.04 84.54 94.26 87.54
  Q 94.13 88.03 93.88 88.48
  Z"
/>
<path fill="#955724" d="
  M 78.88 81.19
  L 78.96 83.79
  Q 77.92 82.28 78.88 81.19
  Z"
/>
<path fill="#d88216" d="
  M 260.60 83.18
  C 281.54 130.59 271.79 187.73 237.92 226.37
  Q 237.78 224.35 239.23 223.37
  Q 239.68 223.07 239.93 222.60
  Q 240.87 220.85 242.43 219.58
  Q 242.85 219.24 243.08 218.74
  Q 244.92 214.71 248.19 211.67
  A 0.22 0.21 -82.6 0 0 247.93 211.33
  Q 245.56 212.84 244.25 215.23
  Q 244.03 215.64 243.66 215.89
  C 242.71 216.52 241.64 217.00 240.94 217.95
  Q 237.17 223.07 232.45 227.35
  Q 232.12 227.64 232.25 227.22
  Q 232.67 225.76 233.63 224.68
  Q 233.74 224.56 233.59 224.51
  Q 233.44 224.47 233.23 224.57
  Q 233.09 224.63 233.02 224.76
  Q 231.95 226.61 229.88 226.52
  Q 229.46 226.50 229.74 226.19
  L 230.38 225.48
  A 0.18 0.17 -72.7 0 0 230.23 225.19
  L 229.79 225.25
  Q 228.92 225.38 229.56 224.77
  Q 237.73 216.95 244.85 208.16
  C 247.37 205.04 249.09 201.39 251.33 197.78
  A 0.13 0.13 0.0 0 0 251.15 197.61
  Q 247.74 200.11 245.85 203.96
  Q 244.49 206.74 242.02 208.71
  Q 241.73 208.94 241.44 208.72
  Q 241.23 208.56 241.00 208.57
  Q 240.72 208.58 240.45 208.95
  Q 238.30 211.84 236.15 214.74
  C 233.95 217.71 230.87 219.84 228.23 222.59
  C 226.48 224.43 224.20 225.32 222.27 227.07
  C 218.44 230.51 213.77 234.85 209.15 237.04
  Q 207.86 237.66 206.69 238.50
  C 203.24 241.01 199.71 242.27 196.05 244.22
  C 182.68 251.32 167.57 255.31 152.51 256.75
  Q 152.25 256.78 152.02 256.91
  Q 151.81 257.05 151.60 257.18
  A 1.97 1.94 -62.3 0 1 150.69 257.47
  Q 137.77 258.09 127.68 257.61
  C 103.64 256.47 81.94 248.83 61.19 236.24
  Q 60.80 236.00 60.75 235.54
  Q 60.69 234.91 60.26 234.70
  C 50.38 229.88 40.60 218.89 33.81 211.37
  C 31.47 208.78 28.83 204.72 25.78 201.72
  C 20.46 196.50 18.05 188.36 14.46 182.05
  C 11.60 177.02 11.48 170.28 6.92 165.67
  Q 6.57 165.32 6.54 164.82
  C 6.38 162.08 6.24 160.83 5.16 157.76
  C 3.81 153.92 4.87 150.77 2.50 146.44
  A 1.34 1.33 -52.3 0 1 2.38 145.47
  Q 3.26 142.05 1.36 139.19
  A 2.12 2.07 -62.7 0 1 1.00 138.01
  L 1.00 131.03
  Q 1.00 130.57 1.22 130.17
  C 2.81 127.31 2.16 118.52 1.86 115.45
  L 3.85 105.22
  Q 3.85 113.91 3.20 116.25
  Q 2.42 119.07 2.52 120.73
  Q 2.55 121.18 3.00 121.24
  L 3.37 121.29
  Q 3.69 121.33 3.62 121.64
  Q 2.36 126.74 2.97 131.84
  C 3.19 133.67 4.39 135.81 4.16 138.37
  Q 4.11 138.92 4.48 138.50
  L 4.66 138.29
  Q 4.67 138.27 4.71 138.42
  Q 5.62 141.98 6.54 145.52
  C 7.60 149.56 9.60 154.66 10.63 159.44
  Q 10.75 159.99 11.13 160.40
  Q 11.64 160.97 11.76 161.75
  A 0.26 0.26 0.0 0 0 12.16 161.93
  Q 12.42 161.76 12.29 161.50
  Q 11.12 159.15 11.41 156.90
  A 0.27 0.27 0.0 0 1 11.92 156.82
  L 13.65 160.83
  Q 14.00 161.65 13.99 160.76
  Q 13.99 160.27 14.10 159.83
  Q 14.22 159.37 14.09 158.91
  L 11.96 151.73
  Q 11.92 151.61 12.04 151.57
  Q 12.18 151.52 12.32 151.47
  Q 12.51 151.41 12.57 151.60
  L 14.70 157.73
  Q 14.82 158.06 15.06 157.81
  Q 15.16 157.71 15.25 157.63
  Q 15.38 157.49 15.47 157.67
  C 19.87 166.26 23.44 175.24 27.66 183.93
  Q 33.27 195.50 41.53 205.37
  Q 41.86 205.76 41.76 206.27
  Q 41.64 206.87 41.89 207.11
  C 44.16 209.34 46.00 212.08 48.30 214.06
  Q 54.31 219.23 60.42 224.32
  Q 60.63 224.50 60.80 224.23
  Q 61.01 223.90 61.26 224.20
  Q 63.63 226.97 64.46 227.52
  C 71.83 232.31 82.01 237.40 91.19 239.83
  Q 95.94 241.09 100.71 242.35
  Q 101.30 242.50 100.70 242.50
  L 100.28 242.50
  A 0.08 0.08 0.0 0 0 100.26 242.66
  C 124.12 249.38 151.68 248.85 175.55 242.46
  C 178.30 241.72 179.27 241.01 182.53 240.81
  C 186.84 240.54 190.80 236.46 194.67 234.57
  Q 203.37 230.33 211.28 224.73
  Q 212.05 224.19 213.74 223.42
  C 215.69 222.54 216.78 220.65 218.71 219.89
  Q 219.16 219.71 219.45 219.31
  Q 221.81 215.94 224.85 213.22
  C 226.26 211.96 228.12 211.71 228.36 209.09
  Q 228.41 208.60 228.81 208.32
  C 233.90 204.68 237.91 197.36 242.34 190.83
  Q 242.46 190.65 242.67 190.80
  Q 242.86 190.94 242.98 190.75
  Q 245.63 186.77 247.80 182.50
  C 248.51 181.10 250.01 179.64 250.51 178.35
  Q 253.56 170.53 256.73 162.74
  Q 259.06 157.00 260.53 145.42
  C 260.86 142.79 262.05 140.46 262.21 137.80
  Q 262.38 134.80 264.03 132.24
  A 1.38 1.35 -29.1 0 0 264.25 131.50
  L 264.25 121.51
  Q 264.25 121.33 264.42 121.28
  Q 264.59 121.22 264.75 121.17
  Q 264.82 121.14 264.81 121.07
  C 264.37 117.54 264.91 114.13 264.40 110.76
  Q 263.51 104.82 263.25 98.84
  C 263.15 96.46 261.94 93.81 262.48 90.93
  A 1.35 1.34 32.8 0 0 262.26 89.92
  Q 259.79 86.31 260.60 83.18
  Z"
/>
<path fill="#f6cc28" d="
  M 249.75 84.47
  L 250.97 86.69
  L 254.14 97.97
  Q 253.96 100.39 252.59 102.51
  Q 252.31 102.95 251.83 103.14
  Q 250.50 103.66 250.39 105.18
  Q 250.36 105.63 249.92 105.66
  Q 248.02 105.78 246.80 107.31
  A 1.32 1.26 10.9 0 1 246.13 107.74
  Q 244.27 108.21 242.77 109.41
  C 241.63 110.32 241.53 111.73 239.58 112.07
  A 0.93 0.92 -85.1 0 0 238.86 112.68
  Q 237.91 115.59 234.91 116.14
  Q 234.32 116.25 234.77 115.85
  Q 234.87 115.76 234.98 115.67
  Q 235.43 115.27 234.83 115.37
  Q 232.67 115.77 231.79 117.79
  Q 231.73 117.91 231.81 117.94
  Q 231.94 117.98 232.06 118.01
  Q 232.15 118.04 232.12 118.12
  L 231.96 118.63
  Q 231.81 119.06 231.37 119.15
  C 227.69 119.84 228.37 123.85 224.57 124.99
  A 1.48 1.45 -79.7 0 0 223.78 125.55
  C 212.50 140.65 203.39 153.01 189.86 163.86
  C 187.31 165.90 185.79 168.49 184.50 171.38
  Q 183.76 173.06 181.85 172.94
  Q 181.38 172.91 180.99 173.18
  L 164.24 184.66
  C 144.08 170.61 121.00 172.11 102.75 188.52
  Q 102.07 188.51 101.50 188.88
  Q 101.11 189.12 100.84 188.76
  Q 98.03 185.04 94.23 182.31
  Q 93.79 182.00 93.25 182.00
  L 92.04 182.00
  Q 91.58 182.00 91.48 181.55
  C 90.85 178.71 88.28 177.72 86.86 176.25
  C 78.03 167.03 69.67 158.82 61.03 148.16
  Q 60.82 147.91 60.78 147.62
  Q 60.74 147.32 60.73 147.01
  A 1.34 1.32 -68.2 0 0 60.37 146.15
  Q 54.33 139.73 49.39 132.44
  C 48.33 130.87 46.70 129.47 45.60 127.70
  Q 45.35 127.31 44.93 127.10
  L 43.39 126.32
  Q 42.89 126.06 42.58 125.58
  C 41.47 123.88 39.89 122.06 39.00 120.26
  Q 38.84 119.95 38.43 119.93
  Q 37.96 119.91 37.74 119.50
  C 35.91 116.15 32.79 114.68 30.40 112.94
  Q 28.51 111.56 26.39 110.44
  Q 25.97 110.22 25.72 109.82
  Q 24.39 107.72 22.14 106.54
  Q 21.69 106.31 21.49 105.85
  Q 19.98 102.42 16.93 100.12
  Q 16.55 99.82 16.51 99.34
  L 16.40 97.95
  L 18.36 92.29
  Q 19.90 94.63 21.65 96.85
  C 22.87 98.38 24.85 98.82 25.45 101.18
  A 0.48 0.48 0.0 0 0 25.96 101.54
  Q 30.00 101.15 30.49 103.45
  Q 30.61 104.01 31.15 104.18
  L 32.17 104.50
  A 0.18 0.18 0.0 0 0 32.37 104.22
  Q 32.26 104.08 32.23 103.94
  A 0.20 0.20 0.0 0 1 32.48 103.71
  L 33.51 104.03
  Q 33.86 104.15 34.02 104.48
  Q 34.89 106.34 36.71 107.23
  A 0.12 0.11 53.7 0 1 36.68 107.45
  L 36.22 107.51
  A 0.17 0.17 0.0 0 0 36.14 107.81
  Q 37.17 108.68 38.36 109.15
  Q 38.95 109.38 39.50 109.71
  Q 41.78 111.10 43.30 113.19
  Q 43.68 113.70 43.77 113.07
  Q 43.80 112.84 43.70 112.62
  Q 43.63 112.46 43.81 112.46
  L 44.11 112.46
  A 0.08 0.08 0.0 0 0 44.18 112.35
  L 43.94 111.85
  Q 43.58 111.09 44.23 111.62
  C 46.41 113.38 48.18 115.56 50.92 116.38
  Q 53.50 117.15 56.13 117.82
  Q 56.62 117.95 56.96 118.32
  L 59.17 120.70
  Q 59.52 121.08 60.02 121.24
  Q 61.77 121.78 62.89 123.31
  Q 63.19 123.73 63.71 123.76
  Q 66.59 123.92 68.28 126.17
  Q 68.58 126.57 69.07 126.69
  C 71.82 127.35 74.74 130.63 77.17 132.25
  Q 77.57 132.51 77.83 132.91
  L 79.01 134.79
  Q 78.67 135.74 78.71 136.01
  Q 80.31 146.26 82.06 156.50
  Q 82.14 156.97 82.57 157.17
  C 84.98 158.27 86.56 157.50 88.67 157.33
  Q 97.84 156.61 106.67 154.16
  Q 107.53 153.92 108.47 153.11
  Q 110.16 152.89 111.83 152.65
  C 116.58 151.97 123.03 155.45 128.06 155.84
  C 139.46 156.73 151.39 157.53 162.78 156.21
  Q 166.97 155.72 171.29 155.94
  Q 178.49 156.17 185.79 157.88
  A 1.71 1.70 10.9 0 0 187.86 156.48
  L 190.15 141.13
  Q 191.32 142.23 191.92 141.61
  Q 192.17 141.33 192.33 141.67
  L 192.52 142.05
  Q 192.78 142.61 193.21 142.17
  L 210.84 123.75
  Q 211.23 123.34 210.68 123.47
  L 208.27 124.05
  Q 207.85 124.14 208.03 123.76
  Q 209.33 121.02 212.28 121.22
  Q 212.71 121.25 213.00 120.93
  L 213.67 120.18
  Q 214.06 119.75 214.64 119.77
  Q 215.64 119.81 216.16 118.95
  Q 216.40 118.55 216.86 118.46
  L 219.72 117.90
  Q 220.29 117.79 219.99 118.29
  L 219.84 118.54
  Q 219.74 118.71 219.94 118.67
  L 223.12 117.96
  A 0.93 0.91 6.4 0 0 223.72 117.49
  Q 224.50 115.95 226.00 115.25
  Q 226.47 115.03 226.78 114.62
  L 228.71 112.07
  A 0.31 0.31 0.0 0 0 228.37 111.59
  L 227.86 111.75
  A 0.47 0.47 0.0 0 1 227.47 110.90
  Q 229.61 109.56 231.53 108.32
  C 234.49 106.40 238.13 105.38 241.29 103.53
  C 241.78 103.24 243.06 102.16 243.14 102.21
  A 1.90 1.86 20.8 0 0 246.03 100.95
  Q 246.16 100.10 247.05 99.99
  Q 247.45 99.94 247.73 99.64
  Q 248.78 98.48 248.35 96.77
  Q 248.23 96.31 247.76 96.26
  Q 247.60 96.25 247.42 96.25
  Q 247.07 96.26 247.14 95.92
  L 247.58 93.72
  Q 247.64 93.42 247.35 93.47
  Q 247.15 93.50 246.97 93.50
  Q 246.79 93.49 246.76 93.31
  Q 246.39 91.17 248.02 89.73
  Q 248.38 89.42 248.51 88.97
  Q 248.73 88.21 249.44 87.85
  Q 249.81 87.66 249.88 87.26
  Q 250.11 85.96 249.75 84.47
  Z"
/>
<path fill="#efa71d" d="
  M 250.97 86.69
  Q 257.62 99.54 255.51 113.24
  Q 255.39 114.04 255.89 114.35
  Q 256.23 114.56 256.22 114.96
  L 256.13 118.33
  Q 256.12 118.67 255.82 118.82
  Q 255.39 119.04 255.13 119.36
  Q 254.56 120.09 255.23 120.57
  Q 255.72 120.92 255.14 121.07
  L 253.83 121.41
  A 0.65 0.64 88.6 0 0 253.36 121.91
  Q 253.11 123.06 251.88 123.05
  A 0.69 0.68 -86.7 0 0 251.20 123.66
  Q 250.93 126.26 248.59 127.00
  Q 248.06 127.16 247.90 127.69
  L 246.04 133.70
  Q 245.90 134.13 245.53 134.40
  C 242.79 136.42 239.26 143.32 237.29 146.40
  Q 237.04 146.80 237.01 147.28
  C 236.83 150.53 229.00 161.27 226.81 164.36
  Q 226.63 164.62 226.90 164.79
  Q 227.04 164.88 227.13 165.04
  Q 227.19 165.16 227.16 165.33
  C 226.64 167.88 225.81 169.97 225.74 172.62
  C 225.64 176.13 225.12 179.58 224.87 183.08
  Q 224.60 186.99 221.08 189.30
  Q 220.66 189.57 220.44 190.02
  Q 216.60 197.53 211.55 204.20
  C 206.81 210.46 196.33 215.82 189.51 219.72
  Q 187.81 220.69 186.23 222.16
  C 182.36 225.78 177.24 227.05 172.09 227.54
  C 170.59 227.69 169.14 228.38 167.56 228.56
  Q 159.91 229.46 152.45 231.43
  Q 152.12 231.52 152.03 231.69
  Q 151.96 231.83 151.96 232.02
  Q 151.97 232.28 151.70 232.30
  Q 136.78 233.63 121.93 231.66
  Q 121.75 231.64 121.76 231.46
  Q 121.77 231.30 121.74 231.19
  Q 121.70 231.07 121.58 231.04
  Q 116.38 229.78 111.01 229.50
  C 108.73 229.38 106.57 227.95 103.99 227.83
  Q 100.02 227.64 96.20 226.55
  C 93.62 225.81 90.78 223.91 87.78 222.78
  Q 85.42 221.89 84.36 221.34
  Q 70.54 214.18 61.14 201.63
  Q 60.75 201.11 60.75 201.76
  L 60.75 202.49
  Q 60.75 203.13 60.43 202.57
  L 58.73 199.56
  Q 58.45 199.07 57.97 198.77
  Q 57.37 198.40 57.22 197.70
  C 56.69 195.24 55.17 194.10 53.00 192.27
  Q 49.14 188.98 47.16 182.11
  Q 47.12 182.00 47.00 182.00
  Q 46.86 182.00 46.72 182.00
  A 0.15 0.14 -13.2 0 1 46.59 181.92
  L 43.35 175.42
  Q 42.91 174.54 42.77 175.52
  Q 42.63 176.55 42.90 177.52
  Q 43.15 178.45 42.53 177.71
  L 38.68 173.13
  Q 38.33 172.72 38.32 172.18
  C 38.25 167.88 34.89 164.40 32.31 161.28
  Q 32.00 160.91 32.08 160.43
  Q 32.63 157.32 30.55 154.84
  Q 30.25 154.48 30.25 154.01
  L 30.25 152.00
  Q 30.25 151.50 29.75 151.50
  L 28.97 151.50
  Q 28.39 151.50 28.13 150.97
  Q 24.51 143.54 18.80 133.72
  Q 17.06 130.72 16.72 126.82
  Q 16.68 126.25 17.25 126.25
  L 17.71 126.25
  Q 18.25 126.25 18.06 125.74
  C 15.48 118.81 12.10 113.64 14.66 105.56
  Q 14.63 108.64 18.47 109.93
  Q 20.10 110.49 21.26 111.77
  L 24.83 115.74
  A 1.15 1.11 -12.2 0 0 25.41 116.10
  Q 27.71 116.73 29.41 118.36
  Q 29.79 118.72 30.29 118.81
  Q 32.24 119.19 33.23 120.81
  Q 33.39 121.08 33.16 121.28
  Q 32.98 121.45 33.11 121.66
  Q 41.85 135.98 51.85 149.47
  A 0.82 0.78 27.2 0 1 52.02 149.96
  Q 52.05 151.17 52.99 151.48
  Q 53.52 151.65 53.88 152.07
  L 58.29 157.24
  A 1.68 1.62 -68.8 0 1 58.67 158.15
  C 58.96 161.40 61.83 164.83 64.04 167.19
  C 67.58 170.97 72.86 176.96 73.92 181.70
  Q 73.99 182.00 74.30 182.00
  Q 74.43 182.00 74.57 182.00
  Q 75.04 182.00 75.32 182.37
  L 79.93 188.33
  A 0.22 0.22 0.0 0 0 80.31 188.11
  L 77.86 182.22
  A 0.20 0.19 13.4 0 1 78.19 182.02
  C 81.15 185.41 83.85 187.78 85.34 192.13
  Q 85.48 192.55 85.79 192.88
  C 90.23 197.53 88.82 201.10 88.85 206.69
  C 88.89 214.69 87.30 224.16 98.37 224.73
  C 100.82 224.86 103.26 223.99 105.79 223.55
  C 113.11 222.26 120.60 218.78 125.76 217.76
  C 139.31 215.06 151.33 218.91 164.59 222.96
  C 175.43 226.27 182.14 225.53 183.07 213.05
  Q 183.11 212.52 183.61 212.32
  C 189.53 209.99 195.20 207.36 197.20 202.14
  C 199.18 196.95 202.25 192.73 205.06 188.03
  C 207.06 184.69 208.71 180.15 211.19 176.59
  Q 211.56 176.05 211.40 176.68
  L 211.03 178.04
  A 0.86 0.86 0.0 0 0 212.64 178.63
  C 217.92 167.59 225.16 157.98 232.15 148.11
  Q 239.59 137.61 245.38 126.08
  Q 245.43 125.97 245.31 125.94
  Q 245.15 125.92 245.06 125.82
  Q 245.00 125.77 245.03 125.69
  Q 246.86 121.84 249.02 118.16
  Q 249.06 118.10 248.99 118.08
  Q 248.86 118.03 248.73 118.00
  Q 248.59 117.96 248.65 117.83
  L 251.06 112.91
  Q 251.22 112.58 251.53 112.39
  L 251.87 112.20
  Q 252.37 111.90 252.40 111.31
  Q 252.43 110.55 252.89 109.97
  C 255.55 106.61 255.64 101.83 254.14 97.97
  L 250.97 86.69
  Z"
/>
<path fill="#f3b822" d="
  M 16.40 97.95
  L 16.51 99.34
  Q 16.55 99.82 16.93 100.12
  Q 19.98 102.42 21.49 105.85
  Q 21.69 106.31 22.14 106.54
  Q 24.39 107.72 25.72 109.82
  Q 25.97 110.22 26.39 110.44
  Q 28.51 111.56 30.40 112.94
  C 32.79 114.68 35.91 116.15 37.74 119.50
  Q 37.96 119.91 38.43 119.93
  Q 38.84 119.95 39.00 120.26
  C 39.89 122.06 41.47 123.88 42.58 125.58
  Q 42.89 126.06 43.39 126.32
  L 44.93 127.10
  Q 45.35 127.31 45.60 127.70
  C 46.70 129.47 48.33 130.87 49.39 132.44
  Q 54.33 139.73 60.37 146.15
  A 1.34 1.32 -68.2 0 1 60.73 147.01
  Q 60.74 147.32 60.78 147.62
  Q 60.82 147.91 61.03 148.16
  C 69.67 158.82 78.03 167.03 86.86 176.25
  C 88.28 177.72 90.85 178.71 91.48 181.55
  Q 91.58 182.00 92.04 182.00
  L 93.25 182.00
  Q 93.79 182.00 94.23 182.31
  Q 98.03 185.04 100.84 188.76
  Q 101.11 189.12 101.50 188.88
  Q 102.07 188.51 102.75 188.52
  Q 102.52 189.03 102.46 188.88
  C 95.08 195.39 88.55 205.78 91.19 215.93
  C 92.86 222.35 97.73 222.49 103.39 221.00
  Q 112.73 218.55 122.10 216.22
  C 138.87 212.04 152.23 216.60 168.12 221.00
  C 179.46 224.14 183.11 216.14 180.64 206.57
  Q 178.03 196.44 169.25 188.93
  L 164.24 184.66
  L 180.99 173.18
  Q 181.38 172.91 181.85 172.94
  Q 183.76 173.06 184.50 171.38
  C 185.79 168.49 187.31 165.90 189.86 163.86
  C 203.39 153.01 212.50 140.65 223.78 125.55
  A 1.48 1.45 -79.7 0 1 224.57 124.99
  C 228.37 123.85 227.69 119.84 231.37 119.15
  Q 231.81 119.06 231.96 118.63
  L 232.12 118.12
  Q 232.15 118.04 232.06 118.01
  Q 231.94 117.98 231.81 117.94
  Q 231.73 117.91 231.79 117.79
  Q 232.67 115.77 234.83 115.37
  Q 235.43 115.27 234.98 115.67
  Q 234.87 115.76 234.77 115.85
  Q 234.32 116.25 234.91 116.14
  Q 237.91 115.59 238.86 112.68
  A 0.93 0.92 -85.1 0 1 239.58 112.07
  C 241.53 111.73 241.63 110.32 242.77 109.41
  Q 244.27 108.21 246.13 107.74
  A 1.32 1.26 10.9 0 0 246.80 107.31
  Q 248.02 105.78 249.92 105.66
  Q 250.36 105.63 250.39 105.18
  Q 250.50 103.66 251.83 103.14
  Q 252.31 102.95 252.59 102.51
  Q 253.96 100.39 254.14 97.97
  C 255.64 101.83 255.55 106.61 252.89 109.97
  Q 252.43 110.55 252.40 111.31
  Q 252.37 111.90 251.87 112.20
  L 251.53 112.39
  Q 251.22 112.58 251.06 112.91
  L 248.65 117.83
  Q 248.59 117.96 248.73 118.00
  Q 248.86 118.03 248.99 118.08
  Q 249.06 118.10 249.02 118.16
  Q 246.86 121.84 245.03 125.69
  Q 245.00 125.77 245.06 125.82
  Q 245.15 125.92 245.31 125.94
  Q 245.43 125.97 245.38 126.08
  Q 239.59 137.61 232.15 148.11
  C 225.16 157.98 217.92 167.59 212.64 178.63
  A 0.86 0.86 0.0 0 1 211.03 178.04
  L 211.40 176.68
  Q 211.56 176.05 211.19 176.59
  C 208.71 180.15 207.06 184.69 205.06 188.03
  C 202.25 192.73 199.18 196.95 197.20 202.14
  C 195.20 207.36 189.53 209.99 183.61 212.32
  Q 183.11 212.52 183.07 213.05
  C 182.14 225.53 175.43 226.27 164.59 222.96
  C 151.33 218.91 139.31 215.06 125.76 217.76
  C 120.60 218.78 113.11 222.26 105.79 223.55
  C 103.26 223.99 100.82 224.86 98.37 224.73
  C 87.30 224.16 88.89 214.69 88.85 206.69
  C 88.82 201.10 90.23 197.53 85.79 192.88
  Q 85.48 192.55 85.34 192.13
  C 83.85 187.78 81.15 185.41 78.19 182.02
  A 0.20 0.19 13.4 0 0 77.86 182.22
  L 80.31 188.11
  A 0.22 0.22 0.0 0 1 79.93 188.33
  L 75.32 182.37
  Q 75.04 182.00 74.57 182.00
  Q 74.43 182.00 74.30 182.00
  Q 73.99 182.00 73.92 181.70
  C 72.86 176.96 67.58 170.97 64.04 167.19
  C 61.83 164.83 58.96 161.40 58.67 158.15
  A 1.68 1.62 -68.8 0 0 58.29 157.24
  L 53.88 152.07
  Q 53.52 151.65 52.99 151.48
  Q 52.05 151.17 52.02 149.96
  A 0.82 0.78 27.2 0 0 51.85 149.47
  Q 41.85 135.98 33.11 121.66
  Q 32.98 121.45 33.16 121.28
  Q 33.39 121.08 33.23 120.81
  Q 32.24 119.19 30.29 118.81
  Q 29.79 118.72 29.41 118.36
  Q 27.71 116.73 25.41 116.10
  A 1.15 1.11 -12.2 0 1 24.83 115.74
  L 21.26 111.77
  Q 20.10 110.49 18.47 109.93
  Q 14.63 108.64 14.66 105.56
  L 16.40 97.95
  Z"
/>
<path fill="#76461e" d="
  M 91.19 118.31
  C 81.67 120.71 82.57 110.88 83.46 104.50
  Q 83.52 104.07 83.86 103.80
  L 84.96 102.93
  Q 85.42 102.56 85.54 101.99
  Q 85.74 100.98 86.53 100.33
  Q 86.99 99.94 86.73 100.48
  C 85.73 102.58 84.31 104.44 84.10 106.76
  C 83.85 109.45 83.12 116.59 86.77 117.49
  Q 91.98 118.79 95.24 115.17
  Q 95.52 114.87 95.66 114.48
  L 96.57 112.16
  A 0.25 0.25 0.0 0 1 97.05 112.29
  Q 96.29 117.03 91.19 118.31
  Z"
/>
<path fill="#fdf38c" d="
  M 79.48 104.27
  Q 77.83 114.44 79.94 125.28
  A 0.71 0.70 -10.1 0 0 80.75 125.84
  L 102.80 122.47
  L 103.50 123.34
  A 1.39 1.39 0.0 0 1 102.62 125.57
  L 80.06 129.01
  Q 78.90 129.18 78.58 128.05
  Q 75.35 116.63 77.31 104.92
  Q 77.39 104.44 77.82 104.22
  Q 78.92 103.64 79.48 104.27
  Z"
/>
<path fill="#c46d12" d="
  M 1.86 115.45
  C 2.16 118.52 2.81 127.31 1.22 130.17
  Q 1.00 130.57 1.00 131.03
  L 1.00 138.01
  A 2.12 2.07 -62.7 0 0 1.36 139.19
  Q 3.26 142.05 2.38 145.47
  A 1.34 1.33 -52.3 0 0 2.50 146.44
  C 4.87 150.77 3.81 153.92 5.16 157.76
  C 6.24 160.83 6.38 162.08 6.54 164.82
  Q 6.57 165.32 6.92 165.67
  C 11.48 170.28 11.60 177.02 14.46 182.05
  C 18.05 188.36 20.46 196.50 25.78 201.72
  C 28.83 204.72 31.47 208.78 33.81 211.37
  C 40.60 218.89 50.38 229.88 60.26 234.70
  Q 60.69 234.91 60.75 235.54
  Q 60.80 236.00 61.19 236.24
  C 81.94 248.83 103.64 256.47 127.68 257.61
  Q 137.77 258.09 150.69 257.47
  A 1.97 1.94 -62.3 0 0 151.60 257.18
  Q 151.81 257.05 152.02 256.91
  Q 152.25 256.78 152.51 256.75
  C 167.57 255.31 182.68 251.32 196.05 244.22
  C 199.71 242.27 203.24 241.01 206.69 238.50
  Q 207.86 237.66 209.15 237.04
  C 213.77 234.85 218.44 230.51 222.27 227.07
  C 224.20 225.32 226.48 224.43 228.23 222.59
  C 230.87 219.84 233.95 217.71 236.15 214.74
  Q 238.30 211.84 240.45 208.95
  Q 240.72 208.58 241.00 208.57
  Q 241.23 208.56 241.44 208.72
  Q 241.73 208.94 242.02 208.71
  Q 244.49 206.74 245.85 203.96
  Q 247.74 200.11 251.15 197.61
  A 0.13 0.13 0.0 0 1 251.33 197.78
  C 249.09 201.39 247.37 205.04 244.85 208.16
  Q 237.73 216.95 229.56 224.77
  Q 228.92 225.38 229.79 225.25
  L 230.23 225.19
  A 0.18 0.17 -72.7 0 1 230.38 225.48
  L 229.74 226.19
  Q 229.46 226.50 229.88 226.52
  Q 231.95 226.61 233.02 224.76
  Q 233.09 224.63 233.23 224.57
  Q 233.44 224.47 233.59 224.51
  Q 233.74 224.56 233.63 224.68
  Q 232.67 225.76 232.25 227.22
  Q 232.12 227.64 232.45 227.35
  Q 237.17 223.07 240.94 217.95
  C 241.64 217.00 242.71 216.52 243.66 215.89
  Q 244.03 215.64 244.25 215.23
  Q 245.56 212.84 247.93 211.33
  A 0.22 0.21 -82.6 0 1 248.19 211.67
  Q 244.92 214.71 243.08 218.74
  Q 242.85 219.24 242.43 219.58
  Q 240.87 220.85 239.93 222.60
  Q 239.68 223.07 239.23 223.37
  Q 237.78 224.35 237.92 226.37
  L 235.04 229.47
  Q 230.33 231.51 227.13 235.83
  C 225.52 238.02 221.73 240.78 219.28 242.18
  Q 217.53 243.19 216.10 244.65
  C 214.04 246.78 211.45 247.31 209.43 249.32
  C 208.21 250.54 206.22 251.08 205.26 251.75
  C 203.16 253.22 200.15 254.39 198.44 256.17
  Q 198.12 256.50 197.66 256.50
  L 196.77 256.50
  Q 196.32 256.50 195.97 256.79
  Q 194.09 258.38 191.63 258.50
  Q 191.14 258.52 190.78 258.85
  C 188.35 261.04 185.95 260.14 184.11 261.81
  Q 183.76 262.13 183.29 262.22
  L 179.52 262.95
  A 1.09 1.08 -71.8 0 0 179.01 263.21
  Q 177.85 264.27 176.25 263.96
  A 1.87 1.84 38.6 0 0 175.17 264.07
  Q 169.59 266.45 163.72 267.88
  Q 163.61 267.91 163.58 268.02
  Q 163.52 268.19 163.46 268.35
  Q 163.33 268.68 162.98 268.72
  Q 156.03 269.65 149.13 270.97
  Q 148.01 271.19 146.36 270.95
  C 144.27 270.66 141.19 271.43 139.82 271.48
  Q 124.30 272.13 109.15 268.77
  C 106.35 268.15 102.93 265.84 99.45 266.33
  Q 98.05 266.52 97.64 265.78
  Q 97.41 265.36 96.93 265.29
  C 93.34 264.77 91.15 264.35 87.82 262.28
  Q 83.40 259.54 77.76 258.24
  Q 74.69 257.53 72.92 254.74
  A 1.29 1.25 80.9 0 0 72.21 254.21
  C 68.91 253.29 66.38 250.48 63.37 248.78
  Q 59.10 246.37 57.43 245.16
  C 54.47 243.00 51.46 241.14 48.87 238.55
  Q 44.58 234.26 40.27 229.97
  C 37.68 227.39 34.73 225.64 32.68 223.25
  Q 27.50 217.22 25.87 213.91
  Q 24.10 210.31 22.84 208.70
  Q 22.54 208.32 22.43 207.85
  C 21.83 205.34 19.49 203.60 18.59 202.09
  Q 14.51 195.24 11.80 187.72
  Q 11.64 187.25 11.28 186.91
  Q 10.63 186.28 10.50 185.01
  Q 10.28 182.82 7.85 180.08
  A 1.69 1.66 -71.0 0 1 7.45 179.24
  Q 7.06 176.96 6.25 174.81
  Q 6.13 174.51 5.93 174.49
  Q 5.73 174.47 5.39 174.55
  Q -2.46 145.40 1.86 115.45
  Z"
/>
<path fill="#5c3318" d="
  M 189.23 133.82
  L 186.35 154.15
  A 0.72 0.71 8.1 0 1 185.54 154.75
  L 162.30 151.41
  L 165.52 129.58
  Q 165.60 129.05 166.14 129.11
  Q 177.60 130.55 188.81 132.37
  Q 189.46 132.48 189.23 133.82
  Z"
/>
<path fill="#5c3318" d="
  M 107.72 151.52
  L 84.49 155.05
  Q 83.96 155.13 83.88 154.60
  L 80.87 134.82
  Q 80.63 133.97 80.76 133.14
  Q 80.84 132.68 81.30 132.61
  L 103.56 129.28
  Q 104.30 129.17 104.42 129.92
  L 107.72 151.52
  Z
  M 98.50 136.20
  C 82.01 131.74 84.16 152.85 96.86 147.52
  A 1.30 1.28 -86.2 0 0 97.49 146.96
  Q 98.33 145.51 99.69 144.54
  Q 100.07 144.27 100.15 143.81
  Q 100.77 140.15 99.27 136.86
  A 1.20 1.19 -4.3 0 0 98.50 136.20
  Z"
/>
<path fill="#fdf38c" d="
  M 190.15 141.13
  L 187.86 156.48
  A 1.71 1.70 10.9 0 1 185.79 157.88
  Q 178.49 156.17 171.29 155.94
  L 161.85 154.21
  Q 161.43 154.14 161.35 153.72
  L 161.11 152.32
  Q 161.02 151.83 161.41 151.52
  Q 161.79 151.22 162.30 151.41
  L 185.54 154.75
  A 0.72 0.71 8.1 0 0 186.35 154.15
  L 189.23 133.82
  Q 191.16 133.23 191.01 134.21
  Q 190.49 137.72 190.15 141.13
  Z"
/>
<path fill="#fdf38c" d="
  M 79.01 134.79
  L 80.87 134.82
  L 83.88 154.60
  Q 83.96 155.13 84.49 155.05
  L 107.72 151.52
  Q 107.91 151.34 108.28 151.72
  Q 108.64 152.09 108.47 153.11
  Q 107.53 153.92 106.67 154.16
  Q 97.84 156.61 88.67 157.33
  C 86.56 157.50 84.98 158.27 82.57 157.17
  Q 82.14 156.97 82.06 156.50
  Q 80.31 146.26 78.71 136.01
  Q 78.67 135.74 79.01 134.79
  Z"
/>
<path fill="#76461e" d="
  M 99.27 136.86
  Q 100.77 140.15 100.15 143.81
  Q 100.07 144.27 99.69 144.54
  Q 98.33 145.51 97.49 146.96
  A 1.30 1.28 -86.2 0 1 96.86 147.52
  C 84.16 152.85 82.01 131.74 98.50 136.20
  A 1.20 1.19 -4.3 0 1 99.27 136.86
  Z"
/>
<path fill="#955724" d="
  M 5.39 174.55
  Q 5.73 174.47 5.93 174.49
  Q 6.13 174.51 6.25 174.81
  Q 7.06 176.96 7.45 179.24
  A 1.69 1.66 -71.0 0 0 7.85 180.08
  Q 10.28 182.82 10.50 185.01
  Q 10.63 186.28 11.28 186.91
  Q 11.64 187.25 11.80 187.72
  Q 14.51 195.24 18.59 202.09
  C 19.49 203.60 21.83 205.34 22.43 207.85
  Q 22.54 208.32 22.84 208.70
  Q 24.10 210.31 25.87 213.91
  Q 27.50 217.22 32.68 223.25
  C 34.73 225.64 37.68 227.39 40.27 229.97
  Q 44.58 234.26 48.87 238.55
  C 51.46 241.14 54.47 243.00 57.43 245.16
  Q 59.10 246.37 63.37 248.78
  C 66.38 250.48 68.91 253.29 72.21 254.21
  A 1.29 1.25 80.9 0 1 72.92 254.74
  Q 74.69 257.53 77.76 258.24
  Q 83.40 259.54 87.82 262.28
  C 91.15 264.35 93.34 264.77 96.93 265.29
  Q 97.41 265.36 97.64 265.78
  Q 98.05 266.52 99.45 266.33
  C 102.93 265.84 106.35 268.15 109.15 268.77
  Q 124.30 272.13 139.82 271.48
  C 141.19 271.43 144.27 270.66 146.36 270.95
  Q 148.01 271.19 149.13 270.97
  Q 156.03 269.65 162.98 268.72
  Q 163.33 268.68 163.46 268.35
  Q 163.52 268.19 163.58 268.02
  Q 163.61 267.91 163.72 267.88
  Q 169.59 266.45 175.17 264.07
  A 1.87 1.84 38.6 0 1 176.25 263.96
  Q 177.85 264.27 179.01 263.21
  A 1.09 1.08 -71.8 0 1 179.52 262.95
  L 183.29 262.22
  Q 183.76 262.13 184.11 261.81
  C 185.95 260.14 188.35 261.04 190.78 258.85
  Q 191.14 258.52 191.63 258.50
  Q 194.09 258.38 195.97 256.79
  Q 196.32 256.50 196.77 256.50
  L 197.66 256.50
  Q 198.12 256.50 198.44 256.17
  C 200.15 254.39 203.16 253.22 205.26 251.75
  C 206.22 251.08 208.21 250.54 209.43 249.32
  C 211.45 247.31 214.04 246.78 216.10 244.65
  Q 217.53 243.19 219.28 242.18
  C 221.73 240.78 225.52 238.02 227.13 235.83
  Q 230.33 231.51 235.04 229.47
  C 190.97 277.20 117.97 286.88 63.21 251.55
  Q 20.16 223.78 5.39 174.55
  Z"
/>
<path fill="#76461e" d="
  M 164.24 184.66
  L 169.25 188.93
  Q 170.94 194.63 173.13 199.60
  C 174.26 202.16 174.31 204.30 174.19 206.93
  C 173.66 218.03 159.06 213.58 152.72 212.93
  C 146.42 212.29 140.30 211.11 134.07 211.48
  Q 126.11 211.95 112.75 212.99
  C 106.62 213.47 101.02 216.71 97.47 209.61
  C 95.66 205.98 96.76 200.69 97.84 196.77
  Q 97.96 196.31 98.34 196.03
  C 99.49 195.14 99.36 193.80 99.93 192.88
  Q 101.03 191.12 102.58 189.76
  Q 102.89 189.49 102.70 189.13
  Q 102.61 188.97 102.46 188.88
  Q 102.52 189.03 102.75 188.52
  C 121.00 172.11 144.08 170.61 164.24 184.66
  Z
  M 147.47 184.79
  Q 136.68 180.65 126.24 184.34
  C 122.00 185.84 117.57 189.58 113.60 192.31
  C 111.08 194.04 109.60 196.34 107.76 198.69
  C 104.57 202.76 109.76 204.69 113.00 204.55
  Q 130.75 203.75 148.48 204.74
  Q 154.98 205.10 161.51 205.21
  Q 162.02 205.21 162.39 204.87
  C 166.80 200.77 159.81 193.07 157.01 190.26
  C 154.32 187.56 150.75 186.07 147.43 184.08
  Q 147.16 183.92 146.96 184.02
  A 0.23 0.23 0.0 0 0 147.07 184.45
  Q 147.38 184.44 147.68 184.56
  A 0.18 0.12 -13.1 0 1 147.47 184.79
  Z"
/>
<path fill="#955724" d="
  M 147.68 184.56
  Q 147.38 184.44 147.07 184.45
  A 0.23 0.23 0.0 0 1 146.96 184.02
  Q 147.16 183.92 147.43 184.08
  C 150.75 186.07 154.32 187.56 157.01 190.26
  C 159.81 193.07 166.80 200.77 162.39 204.87
  Q 162.02 205.21 161.51 205.21
  Q 154.98 205.10 148.48 204.74
  Q 130.75 203.75 113.00 204.55
  C 109.76 204.69 104.57 202.76 107.76 198.69
  C 109.60 196.34 111.08 194.04 113.60 192.31
  C 117.57 189.58 122.00 185.84 126.24 184.34
  Q 136.68 180.65 147.47 184.79
  A 0.18 0.12 -13.1 0 0 147.68 184.56
  Z"
/>
<path fill="#5c3318" d="
  M 102.46 188.88
  Q 102.61 188.97 102.70 189.13
  Q 102.89 189.49 102.58 189.76
  Q 101.03 191.12 99.93 192.88
  C 99.36 193.80 99.49 195.14 98.34 196.03
  Q 97.96 196.31 97.84 196.77
  C 96.76 200.69 95.66 205.98 97.47 209.61
  C 101.02 216.71 106.62 213.47 112.75 212.99
  Q 126.11 211.95 134.07 211.48
  C 140.30 211.11 146.42 212.29 152.72 212.93
  C 159.06 213.58 173.66 218.03 174.19 206.93
  C 174.31 204.30 174.26 202.16 173.13 199.60
  Q 170.94 194.63 169.25 188.93
  Q 178.03 196.44 180.64 206.57
  C 183.11 216.14 179.46 224.14 168.12 221.00
  C 152.23 216.60 138.87 212.04 122.10 216.22
  Q 112.73 218.55 103.39 221.00
  C 97.73 222.49 92.86 222.35 91.19 215.93
  C 88.55 205.78 95.08 195.39 102.46 188.88
  Z"
/>
</svg>
