<svg version="1.1" id="Layer_1" xmlns="http://www.w3.org/2000/svg" xmlns:xlink="http://www.w3.org/1999/xlink" x="0px" y="0px"
	 width="100%" viewBox="0 0 860 860" enable-background="new 0 0 860 860" xml:space="preserve">
<path fill="#E6E6E6" opacity="1.000000" stroke="none" 
	d="
M1.000000,293.000000 
	C1.000000,195.347427 1.000000,98.194862 1.000000,1.021145 
	C287.610992,1.021145 574.221985,1.021145 860.916504,1.021145 
	C860.916504,287.569366 860.916504,574.138794 860.916504,860.854126 
	C574.333374,860.854126 287.666718,860.854126 1.000000,860.854126 
	C1.000000,671.777771 1.000000,482.638885 1.000000,293.000000 
M112.199448,751.894287 
	C112.199448,751.894287 112.166969,752.065979 112.133057,752.600708 
	C112.435776,753.006470 112.738487,753.412292 113.198708,753.893921 
	C113.198708,753.893921 113.165016,754.065430 113.150421,754.635864 
	C113.488815,755.057678 113.827217,755.479431 114.743279,756.285950 
	C118.508675,761.328491 121.747368,766.895874 126.144844,771.308472 
	C136.566422,781.766052 148.291138,790.738403 161.760010,796.937866 
	C177.576416,804.217773 193.360107,811.778809 209.744751,817.552979 
	C225.130386,822.975159 241.215439,826.497925 257.117401,830.340637 
	C268.173676,833.012329 279.433502,834.849792 290.616486,836.986206 
	C297.740540,838.347290 304.890381,839.573486 312.525635,841.470703 
	C314.393311,841.621765 316.261017,841.772827 318.009399,841.941833 
	C318.009399,841.941833 318.001556,841.821411 318.516663,842.450623 
	C332.895081,843.964539 347.266907,845.545715 361.654572,846.965820 
	C369.675903,847.757568 377.715485,848.462585 385.764069,848.824646 
	C388.435669,848.944824 391.160828,847.873596 394.777222,847.058105 
	C402.500946,847.050537 410.224640,847.043030 418.509094,847.641296 
	C426.748505,847.445801 434.988922,847.286377 443.227051,847.046143 
	C455.468079,846.689270 467.707428,846.275391 480.544983,846.477600 
	C481.341827,846.649963 482.155090,847.026306 482.933044,846.963684 
	C492.611328,846.184387 502.291046,845.409363 511.954681,844.470886 
	C514.653870,844.208801 517.301514,843.416504 519.981995,842.944641 
	C519.981995,842.944641 519.907532,842.922119 520.757812,842.969238 
	C522.832825,842.615295 524.907837,842.261414 526.986450,841.979797 
	C526.986450,841.979797 526.922546,841.945679 527.825928,841.978210 
	C532.210999,841.281738 536.596008,840.585205 540.976318,839.964722 
	C540.976318,839.964722 540.901306,839.951721 541.336243,839.791138 
	C541.616577,839.639038 541.831360,839.422180 542.654602,839.044556 
	C543.106445,839.059753 543.558228,839.074951 544.201965,839.364990 
	C544.201965,839.364990 544.650452,839.437317 544.650452,839.437317 
	C544.650452,839.437317 544.989929,839.090210 545.453308,838.982117 
	C545.453308,838.982117 545.928711,838.963379 546.697327,838.982727 
	C548.123352,838.691223 549.549377,838.399719 551.700989,837.745789 
	C556.838745,836.881226 562.045166,836.304871 567.102295,835.101501 
	C587.506165,830.246460 608.139648,826.094849 628.153259,819.942810 
	C644.787109,814.829651 660.902344,807.795105 676.826782,800.671509 
	C694.325439,792.843933 710.259644,782.529968 723.005859,767.736328 
	C730.286743,759.285889 735.549744,750.091614 737.617432,738.801758 
	C737.845154,738.557434 738.013000,738.277283 738.640442,737.323425 
	C738.760315,735.507812 738.984985,733.692139 738.985168,731.876526 
	C739.000977,533.356262 739.002686,334.836029 738.964417,136.315765 
	C738.964050,134.225784 738.426086,132.135895 737.907166,129.278763 
	C737.978394,128.506561 738.049683,127.734360 738.588196,126.497108 
	C738.350769,125.332024 738.113342,124.166931 737.949829,123.021828 
	C737.949829,123.021828 737.924500,123.094086 737.726196,122.570045 
	C737.428284,122.095520 737.130310,121.620995 736.985962,121.000900 
	C736.985962,121.000900 737.131104,120.846947 737.585083,120.405746 
	C736.075806,116.951492 733.899109,113.622391 733.222229,110.012077 
	C732.326904,105.236717 730.045532,100.480850 727.068604,97.999275 
	C723.011719,94.617424 720.122437,90.890053 717.452820,86.607246 
	C716.755188,85.487991 715.163940,84.943817 714.029663,84.074760 
	C711.807922,82.372581 709.580383,80.674072 707.427795,78.886787 
	C705.453308,77.247452 703.044678,73.705063 701.742432,74.090736 
	C695.156982,76.041206 695.292603,67.659752 690.124817,67.262764 
	C687.777649,67.082451 685.725403,63.894096 683.372131,62.320305 
	C682.850037,61.971153 681.622559,62.676693 681.645813,62.671024 
	C679.577820,61.869118 677.903076,61.246384 676.249695,60.571369 
	C674.454285,59.838375 671.895081,59.557133 671.033447,58.207645 
	C667.715088,53.010593 662.047119,52.213432 657.106873,50.241730 
	C654.709106,49.284767 651.252686,50.635765 649.116638,49.439785 
	C644.748291,46.993961 639.470825,47.011875 635.549744,42.729485 
	C633.010254,39.956036 627.650757,39.734722 623.512390,38.513893 
	C623.190186,38.418858 622.532227,39.462009 621.999878,40.002159 
	C621.999878,40.002159 621.974426,40.033173 621.163818,40.066620 
	C615.098022,37.796734 609.039185,35.507877 602.960571,33.272827 
	C601.732361,32.821220 599.995850,31.872118 599.230652,32.344948 
	C594.157776,35.479774 589.538330,32.286266 584.944031,31.349354 
	C575.199707,29.362167 565.614807,26.600597 555.946838,24.228489 
	C551.710876,23.189177 547.463379,22.123360 543.161682,21.448889 
	C539.873901,20.933392 536.492554,21.014364 533.009521,20.996441 
	C533.009521,20.996441 532.869507,21.165617 532.301025,20.752748 
	C530.251648,20.445196 528.202209,20.137642 526.009216,19.996672 
	C526.009216,19.996672 525.868774,20.165962 525.191895,19.937958 
	C523.182495,18.160269 521.140259,18.803558 518.625732,18.862156 
	C508.815552,19.090778 498.973541,18.142368 489.149902,17.528053 
	C484.208893,17.219070 479.275787,16.295059 474.350159,16.370283 
	C469.666626,16.441807 465.246033,13.862162 460.283020,15.775452 
	C458.166565,16.591370 455.177429,14.789274 452.582947,14.780930 
	C441.442139,14.745095 430.299438,14.865267 419.159637,15.057330 
	C403.555542,15.326365 387.953674,15.719929 372.350281,16.033773 
	C369.960999,16.081831 366.840912,18.895128 365.375488,14.321329 
	C365.326752,14.169134 361.327911,15.282511 359.024353,15.978415 
	C359.024353,15.978415 358.880371,16.152561 358.152191,16.264011 
	C354.360107,16.691339 350.554230,17.022650 346.778870,17.566179 
	C339.154114,18.663904 331.563110,20.011662 323.923889,20.987581 
	C319.884705,21.503590 315.774963,21.564106 311.694092,21.623621 
	C308.913849,21.664169 306.033905,20.831694 303.369293,21.320459 
	C300.066620,21.926262 297.020935,23.869736 293.723053,24.576641 
	C283.556763,26.755772 273.200378,27.984476 263.183350,30.958399 
	C259.726410,31.984715 255.496216,33.731590 252.599030,32.612568 
	C246.905045,30.413319 242.846725,34.283695 238.087418,35.009537 
	C233.063370,35.775749 228.347000,38.743805 223.571564,40.915638 
	C214.767197,44.919807 203.907776,42.652233 196.162460,49.956474 
	C195.402832,50.672844 194.017014,50.936871 192.896057,51.008835 
	C191.215057,51.116745 188.165329,50.417126 188.023193,50.840904 
	C186.428665,55.594948 182.230652,53.258587 179.369598,54.343765 
	C178.911713,54.517433 178.443924,54.773430 178.096542,55.110661 
	C176.795227,56.373924 175.722137,57.965961 174.234894,58.925377 
	C170.641891,61.243225 165.675308,60.916855 162.865524,64.976952 
	C162.242020,65.877892 160.349655,66.578072 159.248001,66.354294 
	C154.297333,65.348701 152.985764,70.167015 149.823853,71.958908 
	C144.399551,75.032944 140.811386,81.298309 133.476776,81.235519 
	C133.875320,83.993073 133.625122,85.650452 129.883942,85.828827 
	C128.200516,85.909103 126.548439,89.092163 125.116302,91.039574 
	C124.314468,92.129898 124.201866,93.722733 123.412376,94.827316 
	C121.292053,97.793877 119.056488,100.688606 116.705780,103.476166 
	C115.207962,105.252327 113.142700,106.595085 111.851379,108.486801 
	C110.703606,110.168243 109.889198,112.288910 109.629288,114.306114 
	C109.361267,116.386322 110.085876,118.573532 110.117790,120.717773 
	C110.178589,124.803940 110.055603,128.892838 109.355728,132.704239 
	C104.978104,132.699478 107.149071,136.063919 107.147415,137.699432 
	C107.032669,251.174530 107.043175,364.649780 107.043182,478.125000 
	C107.043190,564.106201 107.025314,650.087463 107.127815,736.068542 
	C107.130959,738.705444 108.386139,741.340881 109.115425,744.440674 
	C109.115425,744.440674 109.234901,744.892395 109.186203,745.486023 
	C109.472115,745.981201 109.758026,746.476318 110.116241,747.436829 
	C110.116241,747.436829 110.255592,747.886658 110.365639,748.340149 
	C110.530777,748.619629 110.761696,748.825500 111.112793,749.525635 
	C111.150574,749.712036 111.188354,749.898438 111.149673,750.605896 
	C111.446991,751.010376 111.744308,751.414917 112.199448,751.894287 
M329.963593,18.617958 
	C331.278259,18.327988 332.592926,18.038015 333.907593,17.748045 
	C333.804382,17.395987 333.701202,17.043928 333.597992,16.691870 
	C332.246033,17.178398 330.894104,17.664927 329.963593,18.617958 
M148.433685,70.689224 
	C148.226120,70.965935 148.018539,71.242645 147.810974,71.519363 
	C148.097794,71.341850 148.384613,71.164337 148.433685,70.689224 
M219.841125,39.270271 
	C219.935638,39.268742 220.030151,39.267208 219.841125,39.270271 
M216.289276,40.815811 
	C216.365051,40.764996 216.440842,40.714184 216.289276,40.815811 
M191.459579,49.573299 
	C191.459579,49.573299 191.407776,49.479065 191.459579,49.573299 
M266.520294,27.425230 
	C266.520294,27.425230 266.576538,27.521769 266.520294,27.425230 
z"/>
<path fill="#0072C6" opacity="1.000000" stroke="none" 
	d="
M417.948364,847.035522 
	C410.224640,847.043030 402.500946,847.050537 393.881165,847.100220 
	C384.735687,846.829102 376.480865,846.614075 368.238800,846.165100 
	C363.484375,845.906128 358.754913,845.217896 354.006561,844.812561 
	C342.007202,843.788452 330.003510,842.815125 318.001556,841.821411 
	C318.001556,841.821411 318.009399,841.941833 317.862427,841.582397 
	C315.819855,841.101990 313.924255,840.981018 312.028656,840.860107 
	C304.890381,839.573486 297.740540,838.347290 290.616486,836.986206 
	C279.433502,834.849792 268.173676,833.012329 257.117401,830.340637 
	C241.215439,826.497925 225.130386,822.975159 209.744751,817.552979 
	C193.360107,811.778809 177.576416,804.217773 161.760010,796.937866 
	C148.291138,790.738403 136.566422,781.766052 126.144844,771.308472 
	C121.747368,766.895874 118.508675,761.328491 114.415436,755.817932 
	C113.780060,754.921753 113.472534,754.493591 113.165009,754.065430 
	C113.165016,754.065430 113.198708,753.893921 113.127014,753.589722 
	C112.759201,752.879028 112.463081,752.472534 112.166962,752.065979 
	C112.166969,752.065979 112.199448,751.894287 112.128754,751.595947 
	C111.780762,750.893311 111.503456,750.489075 111.226151,750.084839 
	C111.188354,749.898438 111.150574,749.712036 111.138420,748.973389 
	C110.861221,748.242981 110.558403,748.064819 110.255585,747.886658 
	C110.255592,747.886658 110.116241,747.436829 110.222366,747.011658 
	C109.963951,746.021790 109.599419,745.457092 109.234894,744.892395 
	C109.234901,744.892395 109.115425,744.440674 109.276703,743.904968 
	C109.248444,740.751404 108.893295,738.133484 108.892952,735.515625 
	C108.866783,537.496460 108.866203,339.477295 108.913574,141.458130 
	C108.913925,139.990311 109.600342,138.522644 109.976654,137.448151 
	C112.665115,150.225952 120.051765,159.743973 128.920959,168.203461 
	C143.775406,182.371704 161.455536,192.175446 180.153427,200.190414 
	C235.899246,224.086288 294.775452,234.176498 354.745453,238.964752 
	C376.104218,240.670151 397.564789,241.100250 418.984436,242.452393 
	C418.811310,245.419174 418.476807,248.046082 418.477142,250.672943 
	C418.483215,298.931091 418.519287,347.189270 418.591797,395.447388 
	C418.596222,398.400238 418.955994,401.352600 418.865601,404.551331 
	C394.960022,409.628845 375.443115,421.178772 361.745850,441.190979 
	C343.022766,468.546173 338.487396,498.955658 344.621277,531.094055 
	C349.068207,554.393738 360.187592,573.951721 379.208740,588.585266 
	C391.015717,597.668762 404.583862,602.855164 418.972900,606.488770 
	C418.826904,610.462219 418.559967,614.074036 418.559113,617.685791 
	C418.541168,692.262939 418.557953,766.840088 418.534210,841.417236 
	C418.533600,843.290039 418.152161,845.162781 417.948364,847.035522 
M323.079193,549.451233 
	C323.462891,531.579590 316.866302,516.854126 302.345245,506.375488 
	C293.900421,500.281616 284.740631,495.148468 275.731049,489.876068 
	C267.427460,485.016815 258.650604,480.934875 250.533249,475.797852 
	C242.815720,470.913788 239.688004,463.143250 241.273682,454.213806 
	C242.858002,445.291931 249.425842,440.753418 257.791351,438.941742 
	C270.251190,436.243347 282.590454,437.551056 294.506165,441.717682 
	C301.307251,444.095886 307.767151,447.449799 314.488525,450.411865 
	C314.488525,438.129944 314.607635,425.663757 314.331573,413.206268 
	C314.298615,411.718597 312.357391,409.358490 310.886749,408.970062 
	C303.037018,406.896881 295.134064,404.669647 287.104218,403.705231 
	C268.036957,401.415222 249.107193,401.676208 230.718903,408.594818 
	C192.416473,423.006226 181.516342,469.415955 209.598633,499.117065 
	C219.502502,509.591858 232.245895,515.687500 244.787292,522.210571 
	C252.997299,526.480835 261.050751,531.226868 268.561310,536.614441 
	C275.167572,541.353394 277.485352,548.696777 275.542084,556.608643 
	C273.565613,564.655640 267.611237,569.220093 259.722260,570.818420 
	C242.049072,574.399048 225.343597,571.310547 209.721481,562.484985 
	C204.758865,559.681396 200.100174,556.339783 194.909683,552.991028 
	C194.909683,563.327393 194.909698,573.134583 194.909683,582.941711 
	C194.909683,598.595825 195.163620,598.944946 210.703354,602.950195 
	C232.996704,608.695984 255.365814,608.998169 277.785614,603.725952 
	C305.175049,597.285095 322.823303,576.458130 323.079193,549.451233 
z"/>
<path fill="#2687CF" opacity="1.000000" stroke="none" 
	d="
M418.228729,847.338379 
	C418.152161,845.162781 418.533600,843.290039 418.534210,841.417236 
	C418.557953,766.840088 418.541168,692.262939 418.559113,617.685791 
	C418.559967,614.074036 418.826904,610.462219 419.396484,606.433899 
	C422.458893,606.345032 425.126373,607.099487 427.723633,606.906860 
	C432.368042,606.562378 435.294312,608.546448 438.251190,611.975403 
	C449.323181,624.814941 460.778412,637.323303 471.969635,650.061523 
	C474.228394,652.632568 476.585571,653.757935 480.101898,653.715942 
	C496.250580,653.523438 512.402832,653.638123 528.553833,653.617065 
	C529.739685,653.615540 530.925293,653.412109 532.904846,653.229187 
	C513.584717,635.303833 494.911743,617.978882 475.940002,600.376770 
	C477.311218,599.753967 478.044678,599.377747 478.808807,599.080139 
	C496.450409,592.207703 510.712189,580.873901 520.236511,564.643494 
	C539.811890,531.285156 541.931396,495.787354 528.487915,460.069550 
	C516.438293,428.055115 492.426971,409.332886 458.316895,403.763702 
	C445.147583,401.613556 432.183624,402.639587 419.150421,404.305176 
	C418.955994,401.352600 418.596222,398.400238 418.591797,395.447388 
	C418.519287,347.189270 418.483215,298.931091 418.477142,250.672943 
	C418.476807,248.046082 418.811310,245.419174 419.398315,242.524063 
	C421.411133,242.476028 423.029846,242.959167 424.617706,242.873062 
	C433.857391,242.372009 443.094574,241.802872 452.323792,241.134903 
	C476.011200,239.420532 499.781830,238.412659 523.359741,235.723907 
	C568.037415,230.628998 611.891724,221.535156 653.947144,205.050110 
	C676.804077,196.090576 698.713135,185.448837 716.767944,168.322784 
	C726.432434,159.155441 734.396240,148.859329 736.531250,135.368088 
	C736.863770,136.337601 736.983887,136.997772 736.983887,137.657944 
	C736.986938,306.442261 736.972229,475.226593 736.984924,644.010925 
	C736.987366,675.664490 737.097961,707.317993 737.158691,738.971558 
	C735.549744,750.091614 730.286743,759.285889 723.005859,767.736328 
	C710.259644,782.529968 694.325439,792.843933 676.826782,800.671509 
	C660.902344,807.795105 644.787109,814.829651 628.153259,819.942810 
	C608.139648,826.094849 587.506165,830.246460 567.102295,835.101501 
	C562.045166,836.304871 556.838745,836.881226 550.956116,837.868896 
	C548.783752,838.315796 547.356201,838.639587 545.928711,838.963379 
	C545.928711,838.963379 545.453308,838.982117 544.976685,838.986267 
	C544.500000,838.990417 544.010071,839.090210 544.010071,839.090210 
	C543.558228,839.074951 543.106445,839.059753 542.061035,839.079651 
	C541.278687,839.393738 541.090027,839.672729 540.901306,839.951721 
	C540.901306,839.951721 540.976318,839.964722 540.532654,839.962769 
	C535.700195,840.622437 531.311340,841.284058 526.922546,841.945679 
	C526.922546,841.945679 526.986450,841.979797 526.561890,841.988647 
	C524.060730,842.305725 521.984131,842.613892 519.907532,842.922119 
	C519.907532,842.922119 519.981995,842.944641 519.615662,842.847839 
	C514.283386,843.077271 509.312225,843.339172 504.352753,843.744263 
	C496.213684,844.409119 488.082184,845.167114 479.947510,845.885742 
	C467.707428,846.275391 455.468079,846.689270 443.227051,847.046143 
	C434.988922,847.286377 426.748505,847.445801 418.228729,847.338379 
M568.527039,406.574310 
	C568.351379,408.041351 568.022644,409.508331 568.022034,410.975433 
	C567.996399,473.618408 567.990295,536.261353 568.052063,598.904297 
	C568.053711,600.590393 568.828064,602.275635 570.145630,604.052734 
	C609.056396,604.052734 647.967102,604.052734 686.776367,604.052734 
	C686.776367,591.626953 686.776367,579.889465 686.776367,567.612305 
	C662.343140,567.612305 638.279053,567.612305 613.880066,567.612305 
	C613.880066,513.476624 613.880066,459.889862 613.880066,406.034210 
	C598.747375,406.034210 583.958069,406.034210 568.527039,406.574310 
z"/>
<path fill="#FEFEFE" opacity="1.000000" stroke="none" 
	d="
M736.262878,135.058746 
	C734.396240,148.859329 726.432434,159.155441 716.767944,168.322784 
	C698.713135,185.448837 676.804077,196.090576 653.947144,205.050110 
	C611.891724,221.535156 568.037415,230.628998 523.359741,235.723907 
	C499.781830,238.412659 476.011200,239.420532 452.323792,241.134903 
	C443.094574,241.802872 433.857391,242.372009 424.617706,242.873062 
	C423.029846,242.959167 421.411133,242.476028 419.392761,242.184174 
	C397.564789,241.100250 376.104218,240.670151 354.745453,238.964752 
	C294.775452,234.176498 235.899246,224.086288 180.153427,200.190414 
	C161.455536,192.175446 143.775406,182.371704 128.920959,168.203461 
	C120.051765,159.743973 112.665115,150.225952 110.049400,137.045837 
	C110.077576,135.160385 110.043243,134.070496 110.008911,132.980606 
	C110.055603,128.892838 110.178589,124.803940 110.117790,120.717773 
	C110.085876,118.573532 109.361267,116.386322 109.629288,114.306114 
	C109.889198,112.288910 110.703606,110.168243 111.851379,108.486801 
	C113.142700,106.595085 115.207962,105.252327 116.705780,103.476166 
	C119.056488,100.688606 121.292053,97.793877 123.412376,94.827316 
	C124.201866,93.722733 124.314468,92.129898 125.116302,91.039574 
	C126.548439,89.092163 128.200516,85.909103 129.883942,85.828827 
	C133.625122,85.650452 133.875320,83.993073 133.476776,81.235519 
	C140.811386,81.298309 144.399551,75.032944 149.823853,71.958908 
	C152.985764,70.167015 154.297333,65.348701 159.248001,66.354294 
	C160.349655,66.578072 162.242020,65.877892 162.865524,64.976952 
	C165.675308,60.916855 170.641891,61.243225 174.234894,58.925377 
	C175.722137,57.965961 176.795227,56.373924 178.096542,55.110661 
	C178.443924,54.773430 178.911713,54.517433 179.369598,54.343765 
	C182.230652,53.258587 186.428665,55.594948 188.023193,50.840904 
	C188.165329,50.417126 191.215057,51.116745 192.896057,51.008835 
	C194.017014,50.936871 195.402832,50.672844 196.162460,49.956474 
	C203.907776,42.652233 214.767197,44.919807 223.571564,40.915638 
	C228.347000,38.743805 233.063370,35.775749 238.087418,35.009537 
	C242.846725,34.283695 246.905045,30.413319 252.599030,32.612568 
	C255.496216,33.731590 259.726410,31.984715 263.183350,30.958399 
	C273.200378,27.984476 283.556763,26.755772 293.723053,24.576641 
	C297.020935,23.869736 300.066620,21.926262 303.369293,21.320459 
	C306.033905,20.831694 308.913849,21.664169 311.694092,21.623621 
	C315.774963,21.564106 319.884705,21.503590 323.923889,20.987581 
	C331.563110,20.011662 339.154114,18.663904 346.778870,17.566179 
	C350.554230,17.022650 354.360107,16.691339 358.672363,16.406116 
	C359.598755,16.513506 360.005005,16.478792 360.411224,16.444080 
	C359.997589,16.231375 359.583984,16.018667 359.170349,15.805962 
	C361.327911,15.282511 365.326752,14.169134 365.375488,14.321329 
	C366.840912,18.895128 369.960999,16.081831 372.350281,16.033773 
	C387.953674,15.719929 403.555542,15.326365 419.159637,15.057330 
	C430.299438,14.865267 441.442139,14.745095 452.582947,14.780930 
	C455.177429,14.789274 458.166565,16.591370 460.283020,15.775452 
	C465.246033,13.862162 469.666626,16.441807 474.350159,16.370283 
	C479.275787,16.295059 484.208893,17.219070 489.149902,17.528053 
	C498.973541,18.142368 508.815552,19.090778 518.625732,18.862156 
	C521.140259,18.803558 523.182495,18.160269 525.688538,20.252094 
	C526.594788,20.531481 527.004333,20.496731 527.413940,20.461975 
	C526.993591,20.251341 526.573181,20.040712 526.152832,19.830086 
	C528.202209,20.137642 530.251648,20.445196 532.743896,21.156384 
	C533.594727,21.523039 534.002747,21.486061 534.410767,21.449081 
	C533.991455,21.242727 533.572144,21.036371 533.152832,20.830013 
	C536.492554,21.014364 539.873901,20.933392 543.161682,21.448889 
	C547.463379,22.123360 551.710876,23.189177 555.946838,24.228489 
	C565.614807,26.600597 575.199707,29.362167 584.944031,31.349354 
	C589.538330,32.286266 594.157776,35.479774 599.230652,32.344948 
	C599.995850,31.872118 601.732361,32.821220 602.960571,33.272827 
	C609.039185,35.507877 615.098022,37.796734 621.625366,40.173088 
	C622.170898,40.319221 622.254883,40.358883 622.338928,40.398537 
	C622.236084,40.257740 622.133179,40.116951 622.030334,39.976158 
	C622.532227,39.462009 623.190186,38.418858 623.512390,38.513893 
	C627.650757,39.734722 633.010254,39.956036 635.549744,42.729485 
	C639.470825,47.011875 644.748291,46.993961 649.116638,49.439785 
	C651.252686,50.635765 654.709106,49.284767 657.106873,50.241730 
	C662.047119,52.213432 667.715088,53.010593 671.033447,58.207645 
	C671.895081,59.557133 674.454285,59.838375 676.249695,60.571369 
	C677.903076,61.246384 679.577820,61.869118 681.645813,62.671024 
	C681.622559,62.676693 682.850037,61.971153 683.372131,62.320305 
	C685.725403,63.894096 687.777649,67.082451 690.124817,67.262764 
	C695.292603,67.659752 695.156982,76.041206 701.742432,74.090736 
	C703.044678,73.705063 705.453308,77.247452 707.427795,78.886787 
	C709.580383,80.674072 711.807922,82.372581 714.029663,84.074760 
	C715.163940,84.943817 716.755188,85.487991 717.452820,86.607246 
	C720.122437,90.890053 723.011719,94.617424 727.068604,97.999275 
	C730.045532,100.480850 732.326904,105.236717 733.222229,110.012077 
	C733.899109,113.622391 736.075806,116.951492 737.257202,120.485214 
	C736.801636,120.537354 736.673828,120.510010 736.546021,120.482681 
	C736.641479,120.703957 736.736877,120.925209 736.832336,121.146469 
	C737.130310,121.620995 737.428284,122.095520 737.462402,122.922745 
	C736.886719,127.203209 736.574768,131.130981 736.262878,135.058746 
M619.747925,167.873627 
	C636.749084,161.423935 652.975037,153.721069 665.545593,139.976196 
	C674.468689,130.219681 675.668396,117.509109 668.221313,106.664406 
	C660.235901,95.035934 648.499084,88.061584 636.185303,82.035812 
	C613.019775,70.699677 588.338074,63.800598 563.141174,59.204029 
	C541.395386,55.237019 519.399536,52.418724 497.409149,50.080933 
	C477.959351,48.013233 458.381500,46.634117 438.830383,46.147186 
	C402.520264,45.242874 366.332581,47.502792 330.221893,51.655266 
	C292.489105,55.994267 255.509689,63.321030 220.098785,77.293983 
	C207.631348,82.213562 195.809311,88.560547 185.524490,97.441109 
	C169.622208,111.172150 168.637939,129.901001 183.576645,143.576248 
	C196.098938,155.039444 210.862503,162.739731 227.673004,168.198441 
	C253.128464,178.056473 279.607574,184.136292 306.519653,187.816528 
	C330.498901,191.095703 354.672119,193.129349 378.815063,194.996796 
	C412.137054,197.574265 445.544006,197.197037 478.819763,194.505890 
	C502.767883,192.569107 526.670349,189.525513 550.423279,185.871323 
	C573.838074,182.269180 596.880554,176.678879 619.747925,167.873627 
M629.938721,42.172157 
	C629.158875,42.076633 628.379089,41.981106 627.599243,41.885582 
	C627.591125,42.141518 627.583008,42.397453 627.574829,42.653389 
	C628.438477,42.653389 629.302124,42.653389 629.938721,42.172157 
M624.330200,40.912308 
	C624.617432,41.122437 624.904602,41.332561 625.191833,41.542667 
	C624.999634,41.239319 624.807434,40.935974 624.330200,40.912308 
M248.395004,33.090481 
	C248.154785,33.230968 247.914581,33.371452 247.674362,33.511940 
	C247.919189,33.641945 248.223236,33.927120 248.393616,33.862087 
	C248.599472,33.783493 248.692078,33.408207 248.395004,33.090481 
M632.786865,43.201973 
	C632.853516,43.398674 632.920166,43.595371 632.986816,43.792065 
	C633.050049,43.594082 633.113281,43.396095 632.786865,43.201973 
M687.222351,66.200226 
	C687.037048,66.342354 686.851685,66.484482 686.666382,66.626617 
	C686.925781,66.593262 687.185181,66.559906 687.222351,66.200226 
M529.840393,21.278761 
	C529.936646,21.278328 530.032959,21.277895 529.840393,21.278761 
M305.359833,22.473158 
	C305.359833,22.473158 305.575714,22.588518 305.575714,22.588518 
	C305.575714,22.588518 305.538849,22.349518 305.359833,22.473158 
z"/>
<path fill="#CBDDEA" opacity="1.000000" stroke="none" 
	d="
M109.682312,132.842422 
	C110.043243,134.070496 110.077576,135.160385 110.039162,136.652588 
	C109.600342,138.522644 108.913925,139.990311 108.913574,141.458130 
	C108.866203,339.477295 108.866783,537.496460 108.892952,735.515625 
	C108.893295,738.133484 109.248444,740.751404 109.247795,743.673096 
	C108.386139,741.340881 107.130959,738.705444 107.127815,736.068542 
	C107.025314,650.087463 107.043190,564.106201 107.043182,478.125000 
	C107.043175,364.649780 107.032669,251.174530 107.147415,137.699432 
	C107.149071,136.063919 104.978104,132.699478 109.682312,132.842422 
z"/>
<path fill="#314C66" opacity="1.000000" stroke="none" 
	d="
M736.531250,135.368088 
	C736.574768,131.130981 736.886719,127.203209 737.561523,123.184761 
	C737.924500,123.094086 737.949829,123.021828 737.967285,123.406921 
	C738.030151,124.848732 738.075562,125.905449 738.120972,126.962158 
	C738.049683,127.734360 737.978394,128.506561 737.962280,130.124481 
	C738.011719,332.302551 738.005798,533.634949 738.005249,734.967285 
	C738.005249,735.965271 738.080750,736.963196 738.120972,737.961182 
	C738.013000,738.277283 737.845154,738.557434 737.388062,738.886658 
	C737.097961,707.317993 736.987366,675.664490 736.984924,644.010925 
	C736.972229,475.226593 736.986938,306.442261 736.983887,137.657944 
	C736.983887,136.997772 736.863770,136.337601 736.531250,135.368088 
z"/>
<path fill="#FFFFFF" opacity="1.000000" stroke="none" 
	d="
M738.380737,737.642334 
	C738.080750,736.963196 738.005249,735.965271 738.005249,734.967285 
	C738.005798,533.634949 738.011719,332.302551 738.078247,130.508087 
	C738.426086,132.135895 738.964050,134.225784 738.964417,136.315765 
	C739.002686,334.836029 739.000977,533.356262 738.985168,731.876526 
	C738.984985,733.692139 738.760315,735.507812 738.380737,737.642334 
z"/>
<path fill="#F9F9F7" opacity="1.000000" stroke="none" 
	d="
M318.259094,842.135986 
	C330.003510,842.815125 342.007202,843.788452 354.006561,844.812561 
	C358.754913,845.217896 363.484375,845.906128 368.238800,846.165100 
	C376.480865,846.614075 384.735687,846.829102 393.423309,847.244751 
	C391.160828,847.873596 388.435669,848.944824 385.764069,848.824646 
	C377.715485,848.462585 369.675903,847.757568 361.654572,846.965820 
	C347.266907,845.545715 332.895081,843.964539 318.259094,842.135986 
z"/>
<path fill="#E6EAE7" opacity="1.000000" stroke="none" 
	d="
M480.246246,846.181702 
	C488.082184,845.167114 496.213684,844.409119 504.352753,843.744263 
	C509.312225,843.339172 514.283386,843.077271 519.611084,842.809204 
	C517.301514,843.416504 514.653870,844.208801 511.954681,844.470886 
	C502.291046,845.409363 492.611328,846.184387 482.933044,846.963684 
	C482.155090,847.026306 481.341827,846.649963 480.246246,846.181702 
z"/>
<path fill="#E6EAE7" opacity="1.000000" stroke="none" 
	d="
M527.374268,841.961975 
	C531.311340,841.284058 535.700195,840.622437 540.535034,839.924744 
	C536.596008,840.585205 532.210999,841.281738 527.374268,841.961975 
z"/>
<path fill="#FEFEFE" opacity="1.000000" stroke="none" 
	d="
M329.752869,18.384706 
	C330.894104,17.664927 332.246033,17.178398 333.597992,16.691870 
	C333.701202,17.043928 333.804382,17.395987 333.907593,17.748045 
	C332.592926,18.038015 331.278259,18.327988 329.752869,18.384706 
z"/>
<path fill="#E6EAE7" opacity="1.000000" stroke="none" 
	d="
M520.332642,842.945679 
	C521.984131,842.613892 524.060730,842.305725 526.560059,841.952515 
	C524.907837,842.261414 522.832825,842.615295 520.332642,842.945679 
z"/>
<path fill="#F9F9F7" opacity="1.000000" stroke="none" 
	d="
M312.277161,841.165405 
	C313.924255,840.981018 315.819855,841.101990 317.922058,841.573364 
	C316.261017,841.772827 314.393311,841.621765 312.277161,841.165405 
z"/>
<path fill="#E6EAE7" opacity="1.000000" stroke="none" 
	d="
M546.312988,838.973022 
	C547.356201,838.639587 548.783752,838.315796 550.593323,838.050110 
	C549.549377,838.399719 548.123352,838.691223 546.312988,838.973022 
z"/>
<path fill="#FFFFFF" opacity="1.000000" stroke="none" 
	d="
M738.354614,126.729630 
	C738.075562,125.905449 738.030151,124.848732 737.930298,123.396935 
	C738.113342,124.166931 738.350769,125.332024 738.354614,126.729630 
z"/>
<path fill="#CBDDEA" opacity="1.000000" stroke="none" 
	d="
M109.210541,745.189209 
	C109.599419,745.457092 109.963951,746.021790 110.186211,746.778992 
	C109.758026,746.476318 109.472115,745.981201 109.210541,745.189209 
z"/>
<path fill="#FEFEFE" opacity="1.000000" stroke="none" 
	d="
M148.552551,70.838028 
	C148.384613,71.164337 148.097794,71.341850 147.810974,71.519363 
	C148.018539,71.242645 148.226120,70.965935 148.552551,70.838028 
z"/>
<path fill="#FEFEFE" opacity="1.000000" stroke="none" 
	d="
M219.982895,39.267975 
	C220.030151,39.267208 219.935638,39.268742 219.982895,39.267975 
z"/>
<path fill="#CBDDEA" opacity="1.000000" stroke="none" 
	d="
M113.157715,754.350647 
	C113.472534,754.493591 113.780060,754.921753 114.126602,755.625610 
	C113.827217,755.479431 113.488815,755.057678 113.157715,754.350647 
z"/>
<path fill="#CBDDEA" opacity="1.000000" stroke="none" 
	d="
M112.150009,752.333374 
	C112.463081,752.472534 112.759201,752.879028 113.048264,753.551819 
	C112.738487,753.412292 112.435776,753.006470 112.150009,752.333374 
z"/>
<path fill="#CBDDEA" opacity="1.000000" stroke="none" 
	d="
M111.187912,750.345337 
	C111.503456,750.489075 111.780762,750.893311 112.049850,751.558472 
	C111.744308,751.414917 111.446991,751.010376 111.187912,750.345337 
z"/>
<path fill="#FEFEFE" opacity="1.000000" stroke="none" 
	d="
M216.402954,40.739594 
	C216.440842,40.714184 216.365051,40.764996 216.402954,40.739594 
z"/>
<path fill="#CBDDEA" opacity="1.000000" stroke="none" 
	d="
M110.310608,748.113403 
	C110.558403,748.064819 110.861221,748.242981 111.111221,748.689453 
	C110.761696,748.825500 110.530777,748.619629 110.310608,748.113403 
z"/>
<path fill="#E6EAE7" opacity="1.000000" stroke="none" 
	d="
M541.118774,839.871460 
	C541.090027,839.672729 541.278687,839.393738 541.723999,839.127563 
	C541.831360,839.422180 541.616577,839.639038 541.118774,839.871460 
z"/>
<path fill="#E6EAE7" opacity="1.000000" stroke="none" 
	d="
M544.106018,839.227600 
	C544.010071,839.090210 544.500000,838.990417 544.744995,839.040283 
	C544.989929,839.090210 544.650452,839.437317 544.650452,839.437317 
	C544.650452,839.437317 544.201965,839.364990 544.106018,839.227600 
z"/>
<path fill="#FEFEFE" opacity="1.000000" stroke="none" 
	d="
M191.433685,49.526184 
	C191.407776,49.479065 191.459579,49.573299 191.433685,49.526184 
z"/>
<path fill="#FEFEFE" opacity="1.000000" stroke="none" 
	d="
M266.548401,27.473499 
	C266.576538,27.521769 266.520294,27.425230 266.548401,27.473499 
z"/>
<path fill="#FDFEFE" opacity="1.000000" stroke="none" 
	d="
M418.865601,404.551331 
	C432.183624,402.639587 445.147583,401.613556 458.316895,403.763702 
	C492.426971,409.332886 516.438293,428.055115 528.487915,460.069550 
	C541.931396,495.787354 539.811890,531.285156 520.236511,564.643494 
	C510.712189,580.873901 496.450409,592.207703 478.808807,599.080139 
	C478.044678,599.377747 477.311218,599.753967 475.940002,600.376770 
	C494.911743,617.978882 513.584717,635.303833 532.904846,653.229187 
	C530.925293,653.412109 529.739685,653.615540 528.553833,653.617065 
	C512.402832,653.638123 496.250580,653.523438 480.101898,653.715942 
	C476.585571,653.757935 474.228394,652.632568 471.969635,650.061523 
	C460.778412,637.323303 449.323181,624.814941 438.251190,611.975403 
	C435.294312,608.546448 432.368042,606.562378 427.723633,606.906860 
	C425.126373,607.099487 422.458893,606.345032 419.399475,606.072266 
	C404.583862,602.855164 391.015717,597.668762 379.208740,588.585266 
	C360.187592,573.951721 349.068207,554.393738 344.621277,531.094055 
	C338.487396,498.955658 343.022766,468.546173 361.745850,441.190979 
	C375.443115,421.178772 394.960022,409.628845 418.865601,404.551331 
M418.228882,445.864319 
	C408.010284,451.320038 400.720215,459.543396 396.183472,470.072937 
	C387.192169,490.941376 386.881927,512.358459 393.635010,533.788452 
	C397.856934,547.186218 405.580383,558.183472 419.441101,564.740723 
	C443.350922,575.513916 470.686310,566.352966 481.708832,542.687378 
	C493.290466,517.821228 492.825775,492.001404 481.599152,467.308777 
	C470.389038,442.652466 441.593842,433.506622 418.228882,445.864319 
z"/>
<path fill="#FDFEFE" opacity="1.000000" stroke="none" 
	d="
M323.048889,549.926086 
	C322.823303,576.458130 305.175049,597.285095 277.785614,603.725952 
	C255.365814,608.998169 232.996704,608.695984 210.703354,602.950195 
	C195.163620,598.944946 194.909683,598.595825 194.909683,582.941711 
	C194.909698,573.134583 194.909683,563.327393 194.909683,552.991028 
	C200.100174,556.339783 204.758865,559.681396 209.721481,562.484985 
	C225.343597,571.310547 242.049072,574.399048 259.722260,570.818420 
	C267.611237,569.220093 273.565613,564.655640 275.542084,556.608643 
	C277.485352,548.696777 275.167572,541.353394 268.561310,536.614441 
	C261.050751,531.226868 252.997299,526.480835 244.787292,522.210571 
	C232.245895,515.687500 219.502502,509.591858 209.598633,499.117065 
	C181.516342,469.415955 192.416473,423.006226 230.718903,408.594818 
	C249.107193,401.676208 268.036957,401.415222 287.104218,403.705231 
	C295.134064,404.669647 303.037018,406.896881 310.886749,408.970062 
	C312.357391,409.358490 314.298615,411.718597 314.331573,413.206268 
	C314.607635,425.663757 314.488525,438.129944 314.488525,450.411865 
	C307.767151,447.449799 301.307251,444.095886 294.506165,441.717682 
	C282.590454,437.551056 270.251190,436.243347 257.791351,438.941742 
	C249.425842,440.753418 242.858002,445.291931 241.273682,454.213806 
	C239.688004,463.143250 242.815720,470.913788 250.533249,475.797852 
	C258.650604,480.934875 267.427460,485.016815 275.731049,489.876068 
	C284.740631,495.148468 293.900421,500.281616 302.345245,506.375488 
	C316.866302,516.854126 323.462891,531.579590 323.048889,549.926086 
z"/>
<path fill="#FDFEFE" opacity="1.000000" stroke="none" 
	d="
M569.168762,406.034210 
	C583.958069,406.034210 598.747375,406.034210 613.880066,406.034210 
	C613.880066,459.889862 613.880066,513.476624 613.880066,567.612305 
	C638.279053,567.612305 662.343140,567.612305 686.776367,567.612305 
	C686.776367,579.889465 686.776367,591.626953 686.776367,604.052734 
	C647.967102,604.052734 609.056396,604.052734 569.719543,603.541382 
	C569.296631,559.141113 569.314453,515.252136 569.296692,471.363190 
	C569.287903,449.586853 569.213501,427.810547 569.168762,406.034210 
z"/>
<path fill="#0072C6" opacity="1.000000" stroke="none" 
	d="
M568.847900,406.304260 
	C569.213501,427.810547 569.287903,449.586853 569.296692,471.363190 
	C569.314453,515.252136 569.296631,559.141113 569.267822,603.495667 
	C568.828064,602.275635 568.053711,600.590393 568.052063,598.904297 
	C567.990295,536.261353 567.996399,473.618408 568.022034,410.975433 
	C568.022644,409.508331 568.351379,408.041351 568.847900,406.304260 
z"/>
<path fill="#B8D432" opacity="1.000000" stroke="none" 
	d="
M226.986496,167.894501 
	C210.862503,162.739731 196.098938,155.039444 183.576645,143.576248 
	C168.637939,129.901001 169.622208,111.172150 185.524490,97.441109 
	C195.809311,88.560547 207.631348,82.213562 220.098785,77.293983 
	C255.509689,63.321030 292.489105,55.994267 330.221893,51.655266 
	C366.332581,47.502792 402.520264,45.242874 438.830383,46.147186 
	C458.381500,46.634117 477.959351,48.013233 497.409149,50.080933 
	C519.399536,52.418724 541.395386,55.237019 563.141174,59.204029 
	C588.338074,63.800598 613.019775,70.699677 636.185303,82.035812 
	C648.499084,88.061584 660.235901,95.035934 668.221313,106.664406 
	C675.668396,117.509109 674.468689,130.219681 665.545593,139.976196 
	C652.975037,153.721069 636.749084,161.423935 619.301270,167.525146 
	C615.542419,165.817581 612.299805,164.246765 608.907104,163.132996 
	C582.553162,154.481552 555.482849,148.912827 528.064636,145.103836 
	C495.887360,140.633713 463.499054,138.508438 431.028595,138.088806 
	C416.112793,137.896042 401.168549,138.343277 386.266388,139.085815 
	C371.054871,139.843796 355.838226,140.942871 340.698975,142.585236 
	C324.924103,144.296555 309.058807,145.975754 293.559357,149.225403 
	C273.326233,153.467529 253.398834,159.182343 233.384201,164.432449 
	C231.105698,165.030136 229.112167,166.714188 226.986496,167.894501 
z"/>
<path fill="#7FBA00" opacity="1.000000" stroke="none" 
	d="
M227.329742,168.046478 
	C229.112167,166.714188 231.105698,165.030136 233.384201,164.432449 
	C253.398834,159.182343 273.326233,153.467529 293.559357,149.225403 
	C309.058807,145.975754 324.924103,144.296555 340.698975,142.585236 
	C355.838226,140.942871 371.054871,139.843796 386.266388,139.085815 
	C401.168549,138.343277 416.112793,137.896042 431.028595,138.088806 
	C463.499054,138.508438 495.887360,140.633713 528.064636,145.103836 
	C555.482849,148.912827 582.553162,154.481552 608.907104,163.132996 
	C612.299805,164.246765 615.542419,165.817581 618.930054,167.528610 
	C596.880554,176.678879 573.838074,182.269180 550.423279,185.871323 
	C526.670349,189.525513 502.767883,192.569107 478.819763,194.505890 
	C445.544006,197.197037 412.137054,197.574265 378.815063,194.996796 
	C354.672119,193.129349 330.498901,191.095703 306.519653,187.816528 
	C279.607574,184.136292 253.128464,178.056473 227.329742,168.046478 
z"/>
<path fill="#E6E6E6" opacity="1.000000" stroke="none" 
	d="
M630.052246,42.412773 
	C629.302124,42.653389 628.438477,42.653389 627.574829,42.653389 
	C627.583008,42.397453 627.591125,42.141518 627.599243,41.885582 
	C628.379089,41.981106 629.158875,42.076633 630.052246,42.412773 
z"/>
<path fill="#E6E6E6" opacity="1.000000" stroke="none" 
	d="
M624.472717,40.772469 
	C624.807434,40.935974 624.999634,41.239319 625.191833,41.542679 
	C624.904602,41.332561 624.617432,41.122437 624.472717,40.772469 
z"/>
<path fill="#E6E6E6" opacity="1.000000" stroke="none" 
	d="
M248.614349,33.125908 
	C248.692078,33.408207 248.599472,33.783493 248.393616,33.862087 
	C248.223236,33.927120 247.919189,33.641945 247.674362,33.511940 
	C247.914581,33.371452 248.154785,33.230968 248.614349,33.125908 
z"/>
<path fill="#E6E6E6" opacity="1.000000" stroke="none" 
	d="
M632.981689,43.200043 
	C633.113281,43.396095 633.050049,43.594082 632.986816,43.792068 
	C632.920166,43.595371 632.853516,43.398674 632.981689,43.200043 
z"/>
<path fill="#E6E6E6" opacity="1.000000" stroke="none" 
	d="
M687.333496,66.363388 
	C687.185181,66.559906 686.925781,66.593262 686.666382,66.626617 
	C686.851685,66.484482 687.037048,66.342354 687.333496,66.363388 
z"/>
<path fill="#E6E6E6" opacity="1.000000" stroke="none" 
	d="
M359.097351,15.892189 
	C359.583984,16.018667 359.997589,16.231375 360.411224,16.444080 
	C360.005005,16.478792 359.598755,16.513506 359.036438,16.350391 
	C358.880371,16.152561 359.024353,15.978415 359.097351,15.892189 
z"/>
<path fill="#E6E6E6" opacity="1.000000" stroke="none" 
	d="
M526.081055,19.913378 
	C526.573181,20.040712 526.993591,20.251341 527.413940,20.461975 
	C527.004333,20.496731 526.594788,20.531481 526.026978,20.366096 
	C525.868774,20.165962 526.009216,19.996672 526.081055,19.913378 
z"/>
<path fill="#E6E6E6" opacity="1.000000" stroke="none" 
	d="
M529.984802,21.278111 
	C530.032959,21.277895 529.936646,21.278328 529.984802,21.278111 
z"/>
<path fill="#E6E6E6" opacity="1.000000" stroke="none" 
	d="
M533.081177,20.913227 
	C533.572144,21.036371 533.991455,21.242727 534.410767,21.449081 
	C534.002747,21.486061 533.594727,21.523039 533.028076,21.362818 
	C532.869507,21.165617 533.009521,20.996441 533.081177,20.913227 
z"/>
<path fill="#E6E6E6" opacity="1.000000" stroke="none" 
	d="
M736.909180,121.073685 
	C736.736877,120.925209 736.641479,120.703957 736.546021,120.482681 
	C736.673828,120.510010 736.801636,120.537354 737.030273,120.705818 
	C737.131104,120.846947 736.985962,121.000900 736.909180,121.073685 
z"/>
<path fill="#E6E6E6" opacity="1.000000" stroke="none" 
	d="
M305.449341,22.411339 
	C305.538849,22.349518 305.575714,22.588518 305.575714,22.588518 
	C305.575714,22.588518 305.359833,22.473158 305.449341,22.411339 
z"/>
<path fill="#E6E6E6" opacity="1.000000" stroke="none" 
	d="
M622.015137,39.989159 
	C622.133179,40.116951 622.236084,40.257740 622.338928,40.398537 
	C622.254883,40.358883 622.170898,40.319221 622.030640,40.156364 
	C621.974426,40.033173 621.999878,40.002159 622.015137,39.989159 
z"/>
<path fill="#2687CF" opacity="1.000000" stroke="none" 
	d="
M418.938812,445.761200 
	C441.593842,433.506622 470.389038,442.652466 481.599152,467.308777 
	C492.825775,492.001404 493.290466,517.821228 481.708832,542.687378 
	C470.686310,566.352966 443.350922,575.513916 419.202087,564.153564 
	C418.803406,561.761353 418.499420,559.955872 418.505341,558.151428 
	C418.628693,520.687988 418.787231,483.224579 418.938812,445.761200 
z"/>
<path fill="#0173C6" opacity="1.000000" stroke="none" 
	d="
M418.583862,445.812744 
	C418.787231,483.224579 418.628693,520.687988 418.505341,558.151428 
	C418.499420,559.955872 418.803406,561.761353 418.950958,563.902588 
	C405.580383,558.183472 397.856934,547.186218 393.635010,533.788452 
	C386.881927,512.358459 387.192169,490.941376 396.183472,470.072937 
	C400.720215,459.543396 408.010284,451.320038 418.583862,445.812744 
z"/>
</svg>