<svg version="1.1" id="Layer_1" xmlns="http://www.w3.org/2000/svg" xmlns:xlink="http://www.w3.org/1999/xlink" x="0px" y="0px"
	 width="100%" viewBox="0 0 2060 2060" enable-background="new 0 0 2060 2060" xml:space="preserve">
<path fill="#000000" opacity="1.000000" stroke="none" 
	d="
M2.743700,556.293335 
	C2.000000,371.388641 2.000000,186.777313 2.000000,2.108308 
	C688.666687,2.108308 1375.333374,2.108308 2062.000000,2.108308 
	C2062.000000,103.519531 2062.000000,204.822449 2062.000000,307.062683 
	C2053.374756,310.952454 2052.750000,303.350006 2050.945557,298.801514 
	C2043.729370,280.611420 2034.128662,264.050629 2019.631348,250.737549 
	C2006.285034,238.481400 1990.846802,229.373047 1974.353882,221.976746 
	C1933.071167,203.463272 1892.723022,182.985703 1851.897339,163.512054 
	C1802.971313,140.174545 1754.024170,116.867508 1705.325317,93.067116 
	C1670.680664,76.135452 1636.467773,58.306759 1601.651001,41.706711 
	C1581.882202,32.281254 1562.633301,21.624449 1540.491455,15.892427 
	C1538.714966,15.632390 1537.714600,15.394417 1535.980347,14.875829 
	C1504.833130,8.482587 1475.991333,13.226867 1447.853027,27.485832 
	C1424.710571,42.238571 1408.508057,63.162506 1390.894653,82.514397 
	C1367.426025,108.299210 1344.036011,134.160309 1320.733398,160.097427 
	C1287.001465,197.642899 1252.821045,234.783737 1218.846313,273.067505 
	C1179.459839,316.328583 1140.786621,359.276123 1102.022827,402.141327 
	C1083.084351,423.083649 1064.412842,444.278809 1044.575073,465.354675 
	C1016.346985,496.694275 988.650146,527.568420 960.634155,558.154907 
	C946.514587,573.570007 932.949646,589.489929 918.085083,605.160645 
	C917.105774,606.436951 916.518921,607.140381 915.490723,608.366943 
	C910.408081,613.837158 906.010071,619.026978 900.273438,623.860413 
	C886.127197,642.833862 869.674377,658.896973 854.351135,675.912292 
	C825.844727,707.566406 797.408875,739.292297 768.091919,771.146118 
	C767.107788,772.425293 766.517700,773.131714 765.483032,774.367310 
	C761.616943,778.635254 758.248535,782.426208 754.051575,786.410034 
	C747.139221,792.597046 744.295105,802.779663 732.645630,802.688477 
	C716.255798,795.321167 704.760559,782.444641 691.473572,772.020874 
	C652.988586,741.829346 616.403931,709.327637 578.867493,677.978577 
	C576.559204,676.050903 573.869812,674.669556 571.042114,672.246826 
	C561.603882,662.841553 550.383728,656.973877 540.743835,648.917297 
	C495.550385,611.146667 450.009735,573.781067 404.232239,536.725525 
	C370.847992,509.701935 338.742828,481.239929 306.176025,453.292511 
	C292.045135,441.166016 276.517426,431.896332 257.379456,427.926239 
	C256.283173,427.495544 255.866486,427.276672 254.806870,426.776398 
	C248.765274,424.369141 243.325745,424.528168 237.196259,426.425507 
	C235.163391,426.902649 233.785507,427.125763 231.815094,427.885345 
	C229.800308,428.566711 228.419754,428.906006 226.389526,429.609802 
	C197.982681,439.228699 171.598129,451.857178 144.652832,463.121246 
	C118.300911,474.137268 92.105797,485.553558 65.510635,495.955383 
	C40.012794,505.927979 21.458366,522.551575 11.357781,548.234192 
	C10.634837,550.072388 9.731012,551.871643 8.273352,554.223511 
	C6.561328,555.930115 5.138429,556.537292 2.743700,556.293335 
z"/>
<path fill="#000000" opacity="1.000000" stroke="none" 
	d="
M2061.396484,1755.559814 
	C2062.000000,1857.969360 2062.000000,1959.938843 2062.000000,2061.954102 
	C1375.569702,2061.954102 689.139465,2061.954102 2.000000,2061.954102 
	C2.000000,1877.958862 2.000000,1693.916748 2.000000,1508.937256 
	C7.214757,1505.279175 7.962479,1509.419800 9.550356,1512.717163 
	C13.725086,1521.386230 17.729591,1530.101685 23.135111,1538.180908 
	C35.390160,1556.496826 54.636528,1564.292603 73.660744,1572.163818 
	C119.767754,1591.240479 165.850708,1610.379150 212.048859,1629.233521 
	C242.655472,1641.724609 271.955414,1638.259521 297.432648,1617.308350 
	C376.800507,1552.039795 456.579163,1487.270996 535.685791,1421.684692 
	C543.358154,1415.323608 551.319763,1409.316040 559.513245,1402.468506 
	C613.918945,1358.480591 667.038574,1314.041016 720.782227,1270.364502 
	C724.918457,1267.003052 728.777954,1263.240723 735.116211,1262.461060 
	C744.247925,1265.218872 749.032593,1272.322632 754.549988,1278.400635 
	C772.188171,1297.830933 789.538086,1317.522705 807.931824,1337.231689 
	C824.786255,1356.993896 842.245056,1375.252563 859.058533,1394.094116 
	C888.939026,1427.578613 919.258728,1460.670166 949.258911,1494.050171 
	C969.036316,1516.055664 988.938354,1537.953613 1008.795776,1559.889404 
	C1027.094116,1580.103149 1045.664185,1600.070923 1064.043945,1621.168457 
	C1077.193481,1635.301270 1089.528564,1649.214111 1102.023315,1662.981323 
	C1139.383057,1704.145752 1176.716064,1745.331665 1213.867798,1786.684814 
	C1229.213501,1803.765747 1244.537109,1820.885132 1260.300049,1837.594360 
	C1263.038208,1840.496826 1265.940674,1843.283203 1268.076050,1847.558594 
	C1294.969482,1874.683960 1319.090210,1903.403320 1344.391357,1931.042603 
	C1366.580322,1955.281738 1388.398926,1979.855225 1410.687134,2004.003906 
	C1420.132080,2014.237549 1428.719116,2025.354248 1443.259888,2033.260254 
	C1459.395752,2045.829834 1476.720703,2048.477051 1493.859253,2051.926514 
	C1506.095215,2054.389404 1518.105591,2053.182861 1530.930664,2051.231201 
	C1532.634277,2050.734375 1533.614502,2050.480713 1535.354736,2050.154785 
	C1545.757568,2048.657227 1554.882568,2045.406738 1563.618530,2041.317017 
	C1597.100342,2025.643188 1630.346680,2009.468994 1663.605469,1993.330566 
	C1741.223022,1955.667725 1819.240601,1918.838013 1896.789307,1881.029907 
	C1927.627075,1865.995483 1958.824707,1851.680176 1989.549316,1836.408691 
	C2020.529907,1821.010010 2041.536255,1796.584473 2053.114258,1763.984985 
	C2054.480713,1760.137085 2054.663818,1754.968262 2061.396484,1755.559814 
z"/>
<path fill="#BB8AF3" opacity="1.000000" stroke="none" 
	d="
M2061.266846,787.313477 
	C2062.000000,951.375122 2062.000000,1114.750244 2062.000000,1279.062744 
	C2059.458008,1283.018433 2056.146973,1284.145874 2052.276855,1284.252930 
	C2047.946289,1284.372559 2043.617310,1284.449585 2039.286621,1284.449829 
	C1882.698242,1284.457275 1726.109741,1284.473999 1569.521362,1284.401489 
	C1562.596558,1284.398315 1555.483521,1285.449951 1548.000488,1281.722290 
	C1542.407593,1276.213745 1543.667847,1269.905640 1543.643066,1264.068604 
	C1543.451172,1218.773315 1543.549072,1173.477295 1543.546875,1128.181396 
	C1543.541748,1021.935974 1543.513672,915.690613 1543.606567,809.445251 
	C1543.612671,802.528503 1542.520264,795.426208 1546.155029,787.949585 
	C1552.862183,782.343567 1560.099976,783.620239 1566.966309,783.611023 
	C1649.515869,783.500366 1732.065552,783.545898 1814.615234,783.545593 
	C1890.507690,783.545349 1966.400269,783.487061 2042.292480,783.637939 
	C2048.436768,783.650146 2055.050537,782.058289 2061.266846,787.313477 
z"/>
<path fill="#BF92F4" opacity="1.000000" stroke="none" 
	d="
M2062.000000,787.062683 
	C1891.518433,787.995605 1721.036743,787.991272 1549.666626,787.990112 
	C1543.001587,785.249695 1543.684814,779.802246 1543.701660,774.958008 
	C1543.900391,717.716919 1542.579346,660.469482 1544.348633,603.234741 
	C1544.379639,602.230469 1544.111816,601.254761 1543.678955,599.310608 
	C1544.050415,555.577026 1542.841675,512.793152 1544.064697,469.030762 
	C1543.031860,440.106567 1543.645996,412.165131 1543.727783,384.226685 
	C1543.737427,380.922943 1543.748901,377.535553 1546.303467,373.786957 
	C1553.095093,368.385468 1560.309448,369.614746 1567.181519,369.607544 
	C1663.336914,369.507019 1759.492188,369.545593 1855.647583,369.545868 
	C1918.198486,369.546051 1980.749512,369.479675 2043.300049,369.635956 
	C2049.120850,369.650482 2055.394775,368.209137 2061.267334,373.313782 
	C2062.000000,511.375122 2062.000000,648.750244 2062.000000,787.062683 
z"/>
<path fill="#B682F2" opacity="1.000000" stroke="none" 
	d="
M1547.892822,1280.467773 
	C1719.226196,1279.994629 1889.675903,1279.997314 2061.062744,1280.000000 
	C2062.000000,1415.375122 2062.000000,1550.750244 2062.000000,1687.062744 
	C2059.459473,1691.016724 2056.150879,1692.145752 2052.282471,1692.252686 
	C2047.954102,1692.372192 2043.627075,1692.449219 2039.298340,1692.449463 
	C1882.785522,1692.457275 1726.272705,1692.473877 1569.759888,1692.398560 
	C1562.839355,1692.395264 1555.733521,1693.472046 1548.216797,1689.853760 
	C1544.043579,1686.388550 1543.794189,1682.395752 1543.754272,1678.423340 
	C1543.578735,1660.968994 1543.123169,1643.511841 1544.062012,1625.069580 
	C1542.932495,1572.016235 1543.804810,1519.950317 1543.727539,1466.900146 
	C1543.237061,1409.958008 1543.615234,1354.001709 1543.649414,1298.046387 
	C1543.652954,1292.240967 1542.165283,1285.900391 1547.892822,1280.467773 
z"/>
<path fill="#B37CF1" opacity="1.000000" stroke="none" 
	d="
M1547.571289,1688.469482 
	C1718.994141,1687.977051 1889.559814,1687.988525 2061.062744,1688.000000 
	C2062.000000,1710.041748 2062.000000,1732.083618 2062.000000,1755.062744 
	C2059.270996,1753.322144 2058.634521,1756.421143 2058.346680,1757.726929 
	C2049.407959,1798.261353 2023.280273,1824.502075 1987.499756,1842.415161 
	C1966.463867,1852.946899 1944.995728,1862.612671 1923.789307,1872.807739 
	C1869.057251,1899.120483 1814.365601,1925.516968 1759.652344,1951.868408 
	C1723.545776,1969.258423 1687.444458,1986.659668 1651.313110,2003.998169 
	C1622.304199,2017.918823 1593.302368,2031.855957 1564.190796,2045.559326 
	C1555.835693,2049.492432 1547.173340,2052.829346 1537.164062,2054.345215 
	C1535.755859,2054.517090 1535.191895,2054.780029 1534.229004,2055.267578 
	C1501.203369,2060.980713 1470.828369,2055.080811 1442.166992,2037.509888 
	C1445.988525,2030.194580 1451.803711,2033.795288 1456.838745,2035.095581 
	C1490.037720,2043.669678 1524.785522,2024.166260 1537.432251,1994.811646 
	C1541.564087,1985.221069 1543.688477,1975.300537 1543.736938,1964.776611 
	C1543.919312,1925.169189 1542.993652,1885.556641 1544.178223,1845.033325 
	C1542.936401,1795.486816 1543.663940,1746.855957 1543.764893,1698.226929 
	C1543.771851,1694.881592 1544.060669,1691.523926 1547.571289,1688.469482 
z"/>
<path fill="#C297F4" opacity="1.000000" stroke="none" 
	d="
M2062.000000,373.062683 
	C1891.463989,373.994873 1720.927856,373.989746 1549.491699,373.979309 
	C1543.693604,371.724518 1543.782959,367.166840 1543.756958,362.901703 
	C1543.591187,335.742645 1543.107300,308.581329 1544.064697,280.495087 
	C1543.048584,220.596771 1542.845093,161.601562 1544.003906,102.659698 
	C1544.879272,58.135746 1505.920898,19.468496 1457.210083,29.876289 
	C1452.817505,30.814816 1447.930664,32.348785 1444.088623,27.043541 
	C1461.605347,14.699630 1481.074829,8.941355 1501.852539,7.844061 
	C1513.371582,7.235738 1524.991333,7.117272 1537.163574,10.290606 
	C1538.566284,10.760761 1539.132812,11.039343 1540.140869,11.226976 
	C1556.394287,14.199397 1570.451416,21.875113 1584.579102,28.891613 
	C1600.519043,36.808182 1617.195190,43.294003 1632.335693,52.899082 
	C1635.735352,55.055779 1640.355225,55.438465 1644.216553,57.420639 
	C1664.556885,67.862137 1684.839722,78.437141 1705.442871,88.340988 
	C1740.828125,105.350456 1776.223267,122.338333 1811.579102,139.403610 
	C1826.508911,146.609787 1841.417969,153.921494 1856.386841,161.077927 
	C1893.255859,178.704498 1929.944580,196.716675 1966.999268,213.942429 
	C1983.961060,221.827515 2000.804199,229.540527 2015.449097,241.505997 
	C2028.626709,252.272690 2039.425049,264.671051 2047.405640,279.829895 
	C2052.391602,289.300720 2054.649414,299.933105 2061.328125,308.437134 
	C2062.000000,311.428711 2062.000000,314.857422 2062.000000,319.143066 
	C2061.728516,320.333344 2061.457031,320.666656 2061.592773,321.500000 
	C2062.000000,338.708466 2062.000000,355.416931 2062.000000,373.062683 
z"/>
<path fill="#673C98" opacity="1.000000" stroke="none" 
	d="
M2.734898,1276.687866 
	C2.000000,1137.291504 2.000000,998.583069 2.000000,858.937317 
	C5.302715,853.818359 10.006857,853.661377 14.714340,853.651550 
	C93.309608,853.487610 171.904922,853.466675 250.500153,853.662842 
	C254.175568,853.671997 257.833160,853.914368 262.019470,856.291748 
	C267.954071,862.484436 266.340546,869.480469 266.356018,875.949158 
	C266.524261,946.207275 266.451294,1016.465820 266.453827,1086.724243 
	C266.455902,1143.330566 266.503632,1199.937012 266.393799,1256.543091 
	C266.381683,1262.799683 267.313751,1269.233276 263.852417,1276.040039 
	C259.090057,1280.352783 254.047165,1280.362915 249.056152,1280.371338 
	C171.272202,1280.502686 93.488136,1280.521484 15.704284,1280.336914 
	C11.466524,1280.326904 6.943242,1280.838867 2.734898,1276.687866 
z"/>
<path fill="#7641B4" opacity="1.000000" stroke="none" 
	d="
M562.250854,1403.388794 
	C552.813538,1414.772339 540.978943,1422.902710 529.992126,1431.993896 
	C478.736115,1474.405029 427.228210,1516.511719 375.818604,1558.737183 
	C350.886047,1579.215454 326.250397,1600.067261 300.973969,1620.111328 
	C273.341736,1642.023438 242.789474,1646.363037 209.985504,1632.799438 
	C165.999496,1614.611938 122.065689,1596.297119 78.007790,1578.285645 
	C67.598633,1574.030151 57.095863,1570.005493 47.201454,1564.666138 
	C28.544947,1554.598755 15.877179,1539.268188 8.316234,1519.543457 
	C6.801818,1515.592651 6.847275,1510.980591 2.747634,1507.890869 
	C2.000000,1503.916626 2.000000,1499.833374 2.000000,1494.875000 
	C9.334159,1491.339600 9.895820,1497.784668 12.081369,1501.701660 
	C21.437494,1518.470337 35.262123,1528.054565 54.800358,1527.743652 
	C66.623001,1527.555542 76.600334,1522.328369 84.950996,1514.089233 
	C103.903748,1495.389404 120.770645,1474.774292 138.832016,1455.255005 
	C155.090195,1437.684692 170.784912,1419.601807 187.127533,1402.111572 
	C191.189972,1397.763916 195.537643,1393.251587 203.364471,1395.384155 
	C210.897842,1398.265747 217.957062,1397.521362 224.906845,1397.525513 
	C330.399139,1397.588867 435.891541,1397.495850 541.383606,1397.676147 
	C548.419861,1397.688232 556.294189,1395.626465 562.250854,1403.388794 
z"/>
<path fill="#6D449C" opacity="1.000000" stroke="none" 
	d="
M262.107574,857.533325 
	C175.451462,857.989441 89.663040,857.996155 2.937314,858.001404 
	C2.000000,762.624878 2.000000,667.249756 2.000000,570.937317 
	C4.000414,568.331604 3.973754,566.006104 4.100900,563.009644 
	C4.279918,561.848511 4.396891,561.388184 4.822437,560.277954 
	C10.492414,549.493774 16.910433,540.667725 27.788221,535.337402 
	C50.700394,524.109863 74.469963,526.863525 91.913864,545.414001 
	C114.232635,569.148560 135.777557,593.620667 157.575806,617.847595 
	C170.921478,632.680176 184.713409,647.110474 198.099213,662.896851 
	C205.454605,672.279358 213.671921,679.881226 221.145157,688.167053 
	C233.972824,702.389404 246.895950,716.524292 259.421753,731.015198 
	C261.804047,733.771240 263.976837,736.698853 264.868164,741.191528 
	C264.958527,742.580811 264.985016,743.152100 265.065277,744.609009 
	C267.831696,779.975769 266.050110,814.502319 266.145081,849.009705 
	C266.153534,852.077393 265.458801,854.953369 262.107574,857.533325 
z"/>
<path fill="#613494" opacity="1.000000" stroke="none" 
	d="
M200.641785,1395.749878 
	C185.845322,1407.173828 174.984375,1421.595703 163.090057,1434.937012 
	C155.377579,1443.587646 147.414505,1452.093628 139.635239,1460.654663 
	C122.678352,1479.315552 106.337875,1498.548584 88.649536,1516.568359 
	C60.599903,1545.143799 18.466892,1531.167480 6.938804,1500.081787 
	C6.149846,1497.954468 5.819645,1495.471558 2.663869,1494.199463 
	C2.000000,1421.958252 2.000000,1349.916382 2.000000,1276.937256 
	C87.807281,1275.993042 173.614563,1275.986084 260.308716,1275.978027 
	C265.324493,1277.588989 266.068939,1281.162231 266.127472,1284.928955 
	C266.302795,1296.209229 267.304810,1307.518433 265.151672,1319.576172 
	C265.354095,1324.984131 263.527649,1328.747803 260.645691,1332.140503 
	C243.334122,1352.520264 225.358368,1372.302856 207.048508,1391.784668 
	C205.460175,1393.474609 203.668411,1394.949707 200.641785,1395.749878 
z"/>
<path fill="#9B6DD1" opacity="1.000000" stroke="none" 
	d="
M5.394688,561.566895 
	C6.053353,564.846497 6.568004,567.894653 2.693810,569.836304 
	C2.000000,567.866638 2.000000,565.733337 2.000000,562.799988 
	C2.773824,561.246704 3.691757,560.968384 5.394688,561.566895 
z"/>
<path fill="#6D449C" opacity="1.000000" stroke="none" 
	d="
M6.017696,561.987366 
	C5.138686,562.005615 4.241644,562.041992 2.672301,562.039185 
	C2.000000,560.500000 2.000000,559.000000 2.000000,556.750000 
	C3.394969,556.693115 4.299328,555.831238 5.580544,554.491211 
	C8.072382,555.910889 7.817625,558.168640 6.430625,561.284790 
	C5.969842,562.046509 5.999664,562.005493 6.017696,561.987366 
z"/>
<path fill="#BF92F4" opacity="1.000000" stroke="none" 
	d="
M2062.000000,321.500000 
	C2061.366211,321.589417 2061.204102,321.059540 2061.756836,320.205139 
	C2062.000000,320.000000 2062.000000,321.000000 2062.000000,321.500000 
z"/>
<path fill="#8455BC" opacity="1.000000" stroke="none" 
	d="
M763.541748,770.478760 
	C780.362549,751.846924 796.675415,733.619446 813.063782,715.460022 
	C840.975220,684.532104 868.934021,653.646912 897.478394,622.472168 
	C915.678101,627.075012 933.691956,625.511292 951.573608,625.517883 
	C1127.291504,625.582581 1303.009521,625.553894 1478.727417,625.566345 
	C1486.046143,625.566833 1493.372803,625.348938 1501.525391,626.237915 
	C1508.327393,632.059265 1508.312988,634.909607 1500.829468,641.206238 
	C1489.377075,650.842224 1477.858154,660.409119 1466.247070,669.853210 
	C1418.768799,708.470642 1371.602539,747.468018 1324.192261,786.166870 
	C1318.345947,790.938904 1313.126343,798.525879 1302.673096,794.943420 
	C1127.777466,794.143738 953.700500,794.597778 779.623779,794.439819 
	C773.301086,794.434082 766.968018,794.635010 760.662598,794.049927 
	C755.617798,793.581848 751.572754,791.788330 751.599304,784.971313 
	C753.819031,779.212402 758.354126,776.708374 761.978149,772.532715 
	C762.630798,771.651794 762.849243,771.282776 763.541748,770.478760 
z"/>
<path fill="#8759BE" opacity="1.000000" stroke="none" 
	d="
M1507.232300,630.695679 
	C1501.303955,630.195801 1495.979858,630.012695 1490.655762,630.012268 
	C1300.895996,629.997559 1111.136230,630.000671 921.376465,629.995239 
	C917.715210,629.995117 914.017273,630.233521 910.401794,629.806824 
	C905.773315,629.260559 901.057983,628.429688 898.406433,622.829346 
	C902.193970,616.750244 906.629211,611.589294 912.153809,606.476807 
	C912.793823,605.629150 912.938232,605.261963 913.577576,604.570129 
	C924.190979,592.857178 934.279297,581.441772 944.434265,570.085999 
	C966.058044,545.905151 987.651550,521.696716 1009.389221,497.618530 
	C1019.608643,486.298737 1030.132812,475.253967 1041.131958,463.788757 
	C1051.729126,462.928528 1061.710083,463.591187 1071.693726,463.587952 
	C1223.208252,463.538513 1374.722656,463.517212 1526.237061,463.651093 
	C1533.027710,463.657074 1540.314819,461.774811 1547.196777,467.315613 
	C1547.973022,510.759888 1548.036011,553.513000 1548.002197,597.208740 
	C1537.848755,613.146423 1524.923828,624.653076 1507.232300,630.695679 
z"/>
<path fill="#9868D0" opacity="1.000000" stroke="none" 
	d="
M262.136047,740.205994 
	C248.944489,725.285461 236.227402,710.896851 223.423645,696.585876 
	C214.593155,686.715820 205.642761,676.953003 196.446686,666.553467 
	C198.167801,663.343567 200.933090,662.623108 204.098495,662.677917 
	C319.656097,664.678040 435.223480,662.985291 550.785278,663.532349 
	C558.360352,663.568237 565.208496,665.537231 572.721558,669.184143 
	C590.376648,682.179321 607.157349,694.943970 622.321350,709.716736 
	C629.154236,716.373291 637.012878,721.923584 644.586609,727.776306 
	C656.928101,737.313599 668.551453,747.773621 680.700684,757.567871 
	C697.171021,770.845642 712.940674,784.997253 730.149292,797.360168 
	C730.599915,797.683838 730.650696,798.564087 731.442505,799.614319 
	C743.339233,801.507385 750.761841,809.558960 758.612366,816.489075 
	C778.320618,833.886536 799.689575,849.188110 819.905396,865.927246 
	C825.301880,870.395752 832.864136,873.738770 831.561523,883.701721 
	C828.771240,888.692749 824.837463,889.971252 820.271545,890.187866 
	C814.948914,890.440369 809.626404,890.440918 804.302673,890.441162 
	C675.850647,890.447693 547.398560,890.449951 418.946503,890.433411 
	C413.295715,890.432678 407.626404,890.706482 401.183411,889.533325 
	C392.951233,889.460876 387.917206,885.114990 383.360657,880.104431 
	C361.626617,856.203918 340.008270,832.198608 318.276154,808.295898 
	C302.599030,791.053101 287.169922,773.580750 271.467377,756.358582 
	C268.297577,752.882080 265.017670,749.607666 263.523743,744.222046 
	C263.095978,742.608337 262.862244,741.682739 262.136047,740.205994 
z"/>
<path fill="#8A5DBF" opacity="1.000000" stroke="none" 
	d="
M1547.989624,467.071533 
	C1384.937256,468.004517 1221.964355,468.009216 1058.991577,467.970306 
	C1053.418701,467.968994 1047.533691,469.064423 1042.272705,464.098755 
	C1051.786255,449.857697 1063.842773,437.983032 1075.134644,425.448730 
	C1096.264893,401.993835 1117.662720,378.780487 1138.875732,355.399994 
	C1156.503540,335.971039 1173.999023,316.422089 1191.607910,296.975891 
	C1199.183472,288.609955 1206.896973,280.369080 1215.148438,271.748657 
	C1225.589600,273.456909 1235.549316,273.597565 1245.553833,273.592041 
	C1339.792480,273.540009 1434.031128,273.510376 1528.269653,273.650726 
	C1534.411987,273.659851 1541.033691,272.034760 1547.217651,277.323975 
	C1548.057007,309.377136 1548.188599,340.747498 1548.455811,373.045929 
	C1548.444336,398.416962 1548.295044,422.859894 1548.151611,447.302856 
	C1548.114746,453.580597 1548.096191,459.858429 1547.989624,467.071533 
z"/>
<path fill="#9B6DD1" opacity="1.000000" stroke="none" 
	d="
M573.262329,668.683655 
	C565.045959,670.637756 556.642456,667.800354 547.972839,667.822388 
	C440.839172,668.094543 333.704620,668.002075 226.570282,667.996460 
	C216.944794,667.995972 207.280853,668.501221 196.986694,665.987305 
	C182.206161,650.815308 167.972244,635.921509 154.437607,620.417236 
	C146.783081,611.648804 138.516998,603.471375 130.995514,594.558960 
	C118.353973,579.579651 104.648071,565.504211 91.665855,550.804932 
	C81.869324,539.712646 69.576248,533.112000 55.115871,532.768616 
	C38.827278,532.381836 24.567863,538.479919 14.187615,551.797668 
	C11.743939,554.932922 9.519905,558.239380 6.582334,561.756775 
	C6.043901,559.893860 6.117960,557.741211 6.071863,554.791809 
	C12.814049,525.855103 30.298548,506.778992 56.540390,495.536560 
	C105.739311,474.458923 155.001694,453.527557 204.348846,432.799957 
	C210.984833,430.012634 217.514816,426.580078 225.649323,425.560059 
	C227.498123,425.133087 228.570053,424.967407 230.494522,425.004639 
	C238.940567,424.255005 246.567902,423.560150 255.057266,424.260437 
	C270.303802,425.004486 282.885162,430.878235 294.415649,438.897217 
	C308.613586,448.771210 320.888336,461.047607 334.142639,472.109314 
	C358.368866,492.327911 382.042450,513.150146 406.955780,532.620483 
	C427.567139,548.728699 447.597900,565.769836 467.664490,582.648987 
	C497.699280,607.912964 528.258667,632.523254 558.476135,657.554871 
	C563.079102,661.367920 569.012634,663.288696 573.262329,668.683655 
z"/>
<path fill="#8150BA" opacity="1.000000" stroke="none" 
	d="
M830.428467,880.577148 
	C819.119873,869.770874 807.213928,860.777588 795.374451,851.737122 
	C782.989197,842.279968 770.960510,832.425964 759.162903,822.249695 
	C750.638611,814.896973 741.620789,808.116455 732.410034,800.562317 
	C736.520203,800.662109 739.109375,797.696411 741.735046,794.793152 
	C744.773071,791.433777 747.816101,788.079041 751.442627,784.402344 
	C752.648499,788.011597 755.098267,789.810608 758.925293,789.902405 
	C762.253845,789.982178 765.584595,789.996338 768.914368,789.996399 
	C942.755432,790.000427 1116.596436,789.984497 1290.437500,790.076660 
	C1295.522827,790.079346 1301.267456,788.194519 1305.802490,793.966309 
	C1307.332642,800.320068 1303.296631,803.238037 1299.765747,806.124634 
	C1236.927368,857.497253 1174.296753,909.123108 1111.461548,960.499390 
	C1084.159180,982.822693 1056.913330,1005.215088 1029.567383,1027.485229 
	C1026.463379,1030.013184 1023.388855,1032.561890 1018.820190,1034.065918 
	C1011.861511,1034.789307 1007.348511,1031.186035 1002.998535,1027.581787 
	C948.399719,982.341003 893.317444,937.685242 839.015442,892.085144 
	C835.405029,889.053284 831.823242,886.105103 830.428467,880.577148 
z"/>
<path fill="#8E62C1" opacity="1.000000" stroke="none" 
	d="
M1548.003662,277.071411 
	C1442.713745,278.004486 1337.501953,278.025208 1232.290283,277.937042 
	C1226.559326,277.932220 1219.982178,279.705811 1215.988770,272.182831 
	C1221.426147,261.980621 1229.674194,254.642365 1236.798340,246.435196 
	C1252.890259,227.896881 1269.963623,210.214310 1286.427612,191.993790 
	C1300.864624,176.016388 1314.501343,159.286484 1329.408569,143.770004 
	C1354.064941,118.105843 1377.109985,90.995064 1401.417969,65.026649 
	C1411.857788,53.873955 1421.117554,41.577518 1433.603149,32.462601 
	C1436.554199,30.308229 1439.639648,28.337812 1443.344238,26.219690 
	C1447.530029,29.640671 1450.990234,26.521111 1454.279541,25.834694 
	C1478.022705,20.880116 1499.988281,24.171913 1519.324707,39.582569 
	C1537.512695,54.077858 1547.917236,72.849113 1548.010010,96.333595 
	C1548.247070,156.266907 1548.084595,216.201767 1548.003662,277.071411 
z"/>
<path fill="#BB8AF3" opacity="1.000000" stroke="none" 
	d="
M255.772308,424.211578 
	C248.115433,427.580200 240.039307,425.324921 230.956543,425.260620 
	C231.520294,424.527802 233.248993,424.303833 235.834595,423.893066 
	C242.346848,422.246979 248.087631,423.253998 254.547974,423.519409 
	C255.307281,423.925140 255.673126,424.046356 255.772308,424.211578 
z"/>
<path fill="#613494" opacity="1.000000" stroke="none" 
	d="
M254.715683,423.538116 
	C249.626083,424.015381 243.944885,424.105591 237.477600,423.951050 
	C242.445389,421.731812 248.293488,422.716431 254.715683,423.538116 
z"/>
<path fill="#613494" opacity="1.000000" stroke="none" 
	d="
M229.345734,424.637451 
	C229.791611,424.751770 230.199615,425.195129 230.262482,425.487793 
	C229.445953,425.816437 228.566559,425.852417 227.072678,425.696991 
	C227.272095,425.178101 228.085968,424.850616 229.345734,424.637451 
z"/>
<path fill="#6D449C" opacity="1.000000" stroke="none" 
	d="
M763.561890,770.194580 
	C763.898499,770.642944 763.612854,771.146545 762.785645,771.787720 
	C762.272827,771.308105 762.504700,770.749573 763.561890,770.194580 
z"/>
<path fill="#8759BE" opacity="1.000000" stroke="none" 
	d="
M1540.256348,10.737071 
	C1539.963745,11.143579 1539.329590,11.183541 1538.339600,10.869047 
	C1538.627319,10.466568 1539.270996,10.418546 1540.256348,10.737071 
z"/>
<path fill="#7641B4" opacity="1.000000" stroke="none" 
	d="
M913.676392,604.384644 
	C913.962585,604.773315 913.708740,605.219116 912.980164,605.789673 
	C912.551086,605.373169 912.761414,604.882324 913.676392,604.384644 
z"/>
<path fill="#8E59CB" opacity="1.000000" stroke="none" 
	d="
M1547.666016,1465.697510 
	C1548.080933,1518.240234 1548.068115,1570.186401 1548.003784,1623.069092 
	C1545.188110,1627.461304 1541.374634,1628.198364 1537.230713,1628.306763 
	C1530.898438,1628.472534 1524.566772,1628.450684 1518.234741,1628.450806 
	C1373.920654,1628.454224 1229.606445,1628.462280 1085.292358,1628.441406 
	C1077.984131,1628.440308 1070.551147,1629.066528 1063.038818,1624.474854 
	C1053.579956,1616.590942 1046.749878,1607.554321 1039.143066,1599.271729 
	C1014.887939,1572.861572 991.004211,1546.110352 966.985718,1519.483032 
	C943.194214,1493.107300 919.446594,1466.692017 895.617676,1440.350220 
	C875.128540,1417.700439 854.533203,1395.146851 834.022339,1372.516602 
	C824.663025,1362.190186 815.394043,1351.781860 805.798584,1340.790283 
	C807.585205,1336.379150 811.236206,1335.994019 814.969421,1335.784302 
	C820.628967,1335.466309 826.294434,1335.553711 831.957825,1335.553467 
	C1004.881897,1335.546875 1177.806030,1335.544067 1350.730103,1335.562988 
	C1360.389648,1335.564087 1370.041870,1335.511230 1380.537109,1334.767578 
	C1388.982056,1333.291260 1394.845825,1336.585571 1400.502686,1341.178589 
	C1436.637329,1370.516357 1472.388428,1400.321289 1508.477539,1429.714355 
	C1518.013550,1437.480713 1527.547607,1445.252441 1537.060181,1453.048828 
	C1541.236938,1456.471924 1545.058838,1460.055908 1547.666016,1465.697510 
z"/>
<path fill="#915ECD" opacity="1.000000" stroke="none" 
	d="
M1387.922119,1336.255371 
	C1377.254639,1339.854736 1366.319702,1340.061523 1355.289673,1340.056641 
	C1177.675049,1339.976318 1000.060486,1339.999390 822.445862,1340.003784 
	C817.447632,1340.003906 812.449341,1340.058350 806.482056,1340.128662 
	C791.496521,1324.888306 777.480591,1309.606323 763.463196,1294.325562 
	C754.551147,1284.610229 745.637085,1274.896729 736.348816,1264.638062 
	C731.247742,1263.099976 727.480591,1260.604370 724.302429,1256.993408 
	C690.294128,1218.354614 655.074585,1180.807495 620.926819,1142.291260 
	C607.271362,1126.888916 592.664978,1112.323975 579.630615,1096.371948 
	C576.855896,1092.976074 571.631165,1088.979980 578.949463,1083.853394 
	C587.013000,1083.462646 591.589172,1087.703003 594.956726,1093.349609 
	C600.131226,1102.026001 608.005493,1105.206909 617.588440,1105.446411 
	C621.918030,1105.554810 626.247131,1105.572144 630.576843,1105.572266 
	C779.793152,1105.577026 929.009399,1105.577637 1078.225708,1105.572510 
	C1085.552124,1105.572266 1092.884766,1105.699097 1101.003174,1104.721558 
	C1109.809326,1103.939331 1115.750488,1107.786865 1121.603394,1112.640991 
	C1194.651123,1173.222534 1267.050293,1234.589355 1340.937378,1294.154663 
	C1354.418335,1305.022583 1367.552368,1316.303223 1381.040894,1327.156860 
	C1383.899536,1329.457153 1386.794678,1331.756714 1387.922119,1336.255371 
z"/>
<path fill="#7A47B7" opacity="1.000000" stroke="none" 
	d="
M576.045532,1085.279541 
	C582.462219,1093.573486 588.744141,1101.280884 595.484009,1108.635864 
	C612.532166,1127.240356 629.824097,1145.627563 646.180786,1164.866577 
	C653.274414,1173.210205 661.187622,1180.823608 668.429993,1189.087646 
	C684.629028,1207.571411 701.874817,1225.135132 718.198486,1243.513794 
	C723.925964,1249.962402 729.733582,1256.360718 735.673584,1263.495117 
	C717.685059,1276.735474 701.324768,1291.796387 684.064392,1305.719849 
	C647.663574,1335.083130 611.714905,1365.006958 575.567444,1394.684814 
	C571.729370,1397.835815 567.803162,1400.879517 563.273804,1404.132324 
	C556.569824,1402.100220 550.286926,1401.962524 543.925293,1401.965332 
	C434.030670,1402.013428 324.135986,1402.027344 214.241486,1401.910278 
	C209.314209,1401.905029 203.196182,1404.183350 200.096100,1396.603394 
	C200.238205,1393.828247 200.981369,1391.978149 202.511032,1390.618530 
	C211.419525,1382.700195 218.440826,1373.056519 226.504776,1364.363892 
	C238.365540,1351.578369 249.782257,1338.380859 261.684570,1324.770508 
	C267.054504,1308.938110 279.745575,1299.373535 289.862854,1288.158203 
	C318.157501,1256.792847 346.576202,1225.530884 374.864410,1194.158081 
	C408.945404,1156.360840 443.322449,1118.830566 477.127747,1080.782471 
	C490.383789,1065.862793 504.133331,1051.377930 517.248230,1036.323120 
	C519.228882,1034.049561 521.553589,1032.151367 525.158936,1030.932373 
	C534.575012,1032.423218 538.584045,1040.073242 544.082153,1045.565063 
	C553.257080,1054.729492 561.429810,1064.872681 570.436523,1074.235596 
	C573.177185,1077.084595 575.732178,1080.285889 576.045532,1085.279541 
z"/>
<path fill="#8A53C9" opacity="1.000000" stroke="none" 
	d="
M1062.456055,1624.545288 
	C1223.494263,1623.956787 1384.790894,1623.979370 1547.019775,1624.003662 
	C1548.042847,1644.705322 1548.133545,1665.405273 1548.326294,1687.035400 
	C1548.313232,1708.187988 1548.138428,1728.410400 1548.096558,1748.632935 
	C1548.030518,1780.466309 1548.053833,1812.299805 1547.986816,1845.069824 
	C1543.764282,1851.231323 1537.803467,1850.345703 1532.259155,1850.362915 
	C1483.048706,1850.515625 1433.837158,1850.251831 1384.627563,1850.493896 
	C1347.064087,1850.678711 1309.489990,1849.488159 1271.935791,1851.223389 
	C1270.620483,1851.284180 1269.305786,1850.870361 1267.077881,1850.252930 
	C1235.412720,1816.110474 1204.648804,1782.310913 1173.954468,1748.448364 
	C1138.115845,1708.910400 1102.336182,1669.318848 1066.541870,1629.740845 
	C1065.207520,1628.265503 1063.987549,1626.686890 1062.456055,1624.545288 
z"/>
<path fill="#874FC8" opacity="1.000000" stroke="none" 
	d="
M1266.414307,1850.545288 
	C1271.716797,1846.332031 1277.895874,1845.933594 1284.347290,1845.940186 
	C1371.589233,1846.029907 1458.831421,1846.001587 1547.003906,1846.004395 
	C1547.989014,1886.646118 1548.187012,1927.286377 1548.053955,1967.925537 
	C1547.941528,2002.267578 1522.208008,2032.809204 1488.483643,2039.971191 
	C1475.685669,2042.689087 1463.405518,2041.890015 1451.093262,2038.101685 
	C1448.574829,2037.326782 1446.126221,2036.059937 1442.552246,2036.778809 
	C1441.761719,2036.990112 1441.859863,2036.916504 1441.853760,2036.855469 
	C1441.806030,2036.039429 1441.436157,2035.517212 1440.361694,2035.597412 
	C1431.108643,2031.772461 1424.140137,2025.085571 1417.679443,2018.002563 
	C1389.267578,1986.854614 1361.058105,1955.521973 1332.778809,1924.253052 
	C1310.744141,1899.888672 1288.714600,1875.519653 1266.414307,1850.545288 
z"/>
<path fill="#B37CF1" opacity="1.000000" stroke="none" 
	d="
M1440.370117,2036.356445 
	C1440.668335,2035.523071 1441.173584,2035.610107 1441.674561,2036.511230 
	C1441.483276,2036.777954 1441.118896,2036.761719 1440.370117,2036.356445 
z"/>
<path fill="#6D449C" opacity="1.000000" stroke="none" 
	d="
M1534.278076,2055.512695 
	C1534.300537,2054.963135 1534.833130,2054.567871 1535.873901,2054.279785 
	C1535.850708,2054.813721 1535.319458,2055.240234 1534.278076,2055.512695 
z"/>
<path fill="#000000" opacity="1.000000" stroke="none" 
	d="
M1388.556152,1337.221191 
	C1375.457153,1327.943115 1363.924683,1317.721069 1352.161377,1307.741089 
	C1342.694092,1299.708984 1332.570190,1292.417725 1323.050171,1284.367554 
	C1305.172241,1269.250000 1286.953735,1254.533691 1268.807495,1239.735718 
	C1251.429321,1225.564087 1233.809326,1211.685425 1216.574341,1197.343018 
	C1195.222900,1179.574951 1174.245728,1161.357788 1152.939819,1143.534180 
	C1138.416382,1131.384521 1123.606934,1119.576660 1108.363525,1107.329590 
	C1103.166992,1106.429199 1099.026489,1104.435303 1095.457031,1101.636230 
	C1072.199463,1083.398438 1048.278809,1065.987427 1025.975220,1046.562378 
	C1021.956604,1043.062378 1016.012878,1040.382324 1017.266235,1032.685669 
	C1093.619507,969.752869 1169.605103,907.455139 1245.579712,845.144348 
	C1265.605103,828.720581 1285.597046,812.256348 1305.914673,795.241333 
	C1319.225464,786.001770 1330.706177,775.400818 1342.806519,765.604309 
	C1375.085327,739.471252 1407.062622,712.965637 1439.137451,686.580994 
	C1461.430908,668.242615 1483.687378,649.859253 1506.294189,630.894897 
	C1520.968872,620.975281 1533.144043,608.928772 1547.269165,598.344238 
	C1548.050049,602.120911 1548.317505,606.090210 1548.320801,610.059814 
	C1548.369873,668.757202 1548.384033,727.454590 1548.592285,787.072632 
	C1548.626465,789.975891 1548.342163,791.958557 1548.342285,793.941223 
	C1548.349487,955.344421 1548.378662,1116.747681 1548.591431,1279.071411 
	C1548.624634,1283.633545 1548.342896,1287.274902 1548.340210,1290.916626 
	C1548.296631,1348.739624 1548.288574,1406.562622 1548.183105,1465.339844 
	C1536.070557,1459.151489 1526.115723,1449.340332 1515.346802,1440.611206 
	C1473.138184,1406.397095 1431.182983,1371.870361 1388.556152,1337.221191 
z"/>
<path fill="#000000" opacity="1.000000" stroke="none" 
	d="
M526.480469,1031.287109 
	C515.981018,1045.062988 504.303894,1056.892578 493.239746,1069.258179 
	C469.521332,1095.766602 445.660675,1122.148071 421.799622,1148.528564 
	C401.278229,1171.216553 380.670715,1193.826904 360.109711,1216.479126 
	C340.239960,1238.369629 320.371521,1260.261353 300.521118,1282.169434 
	C288.049377,1295.934082 275.611908,1309.729858 262.570007,1323.846924 
	C261.838409,1308.729492 261.695801,1293.276978 261.374390,1276.900635 
	C261.345703,1272.992798 261.626129,1270.008545 261.627167,1267.024292 
	C261.674591,1132.955322 261.697968,998.886414 261.717682,864.817505 
	C261.717926,863.155090 261.633820,861.492737 261.414490,858.906555 
	C261.387238,835.661499 261.571960,813.340393 261.669312,791.018860 
	C261.739105,775.021057 261.692017,759.022705 261.710999,742.026489 
	C262.141205,741.079468 262.557404,741.130615 263.565338,741.395081 
	C278.311920,757.433899 292.410522,773.310059 306.633820,789.073730 
	C333.095917,818.401489 359.625366,847.668579 386.143555,876.945618 
	C388.816650,879.896790 391.604675,882.743958 394.939697,885.905518 
	C412.420868,895.352112 422.386261,911.679016 434.952087,925.162537 
	C457.808380,949.688232 480.088715,974.771851 502.557404,999.669067 
	C509.232391,1007.065430 515.328491,1014.976990 522.494690,1021.942017 
	C524.878601,1024.259033 526.903320,1026.968994 526.480469,1031.287109 
z"/>
<path fill="#613494" opacity="1.000000" stroke="none" 
	d="
M263.949402,741.077759 
	C263.761749,741.470764 263.366486,741.333069 262.348083,741.111877 
	C261.724976,741.028381 261.741089,740.336426 261.719818,739.988647 
	C262.379608,739.942932 263.060669,740.244995 263.949402,741.077759 
z"/>
<path fill="#9563CE" opacity="1.000000" stroke="none" 
	d="
M526.674438,1032.393555 
	C495.019318,997.371521 463.844299,962.797913 432.668671,928.224854 
	C420.425201,914.647034 408.180359,901.070496 395.738068,886.832581 
	C402.856689,886.114441 410.173340,886.007874 417.489990,886.007324 
	C550.203369,885.997314 682.916748,886.024597 815.630066,885.902588 
	C820.533569,885.898071 826.653137,888.262817 829.818115,880.760254 
	C847.504822,893.659302 864.699280,907.682129 881.453369,922.267822 
	C893.934326,933.133484 906.976501,943.354431 919.765564,953.866272 
	C936.900635,967.950256 953.717407,982.445862 971.261536,996.000122 
	C986.441406,1007.727661 999.597656,1021.996582 1016.978027,1031.907471 
	C1020.096130,1038.256348 1026.189209,1040.911621 1030.756836,1044.883789 
	C1044.370605,1056.722900 1057.951782,1068.763672 1072.688599,1079.095459 
	C1084.635620,1087.471436 1095.443604,1097.110962 1107.380127,1106.485718 
	C1099.776001,1109.552002 1091.566040,1110.072388 1083.175537,1110.067383 
	C930.060059,1109.975220 776.944519,1110.000854 623.829041,1109.995850 
	C620.168274,1109.995728 616.483582,1110.186890 612.851501,1109.846436 
	C604.228271,1109.037964 596.822327,1106.287109 592.454224,1097.805420 
	C589.359070,1091.795410 585.154663,1086.544800 576.741333,1086.032227 
	C569.426147,1079.080811 562.741882,1072.260498 556.298767,1065.219604 
	C546.496216,1054.507324 536.860779,1043.642212 526.674438,1032.393555 
z"/>
</svg>