<svg version="1.1" id="Layer_1" xmlns="http://www.w3.org/2000/svg" xmlns:xlink="http://www.w3.org/1999/xlink" x="0px" y="0px"
	 width="100%" viewBox="0 0 1024 1024" enable-background="new 0 0 1024 1024" xml:space="preserve">
<path fill="#000000" opacity="1.000000" stroke="none" 
	d="
M1024.697266,872.774414 
	C1025.000000,922.485596 1024.971802,971.971252 1025.072754,1021.456665 
	C1025.078491,1024.314697 1024.650879,1025.090698 1021.545227,1025.089844 
	C682.477234,1024.994141 343.409302,1024.989746 4.341379,1025.122192 
	C0.282002,1025.123779 0.985087,1023.217651 0.985457,1020.843506 
	C1.002235,913.208130 1.000000,805.572693 1.000000,697.468628 
	C3.552361,695.500793 4.744511,697.317444 5.584157,699.136230 
	C10.428472,709.629700 19.244442,716.524170 27.517412,724.012512 
	C36.517780,732.159363 45.343349,740.504517 54.377026,748.618591 
	C61.056362,754.617981 67.452599,760.934326 74.420135,766.610901 
	C88.090958,777.748596 107.278648,778.951904 121.862350,768.805420 
	C139.207916,756.737488 155.653748,743.431091 172.526825,730.710999 
	C199.229630,710.580627 225.806946,690.284851 252.478149,670.112915 
	C257.782471,666.101196 263.088196,662.086487 268.633820,657.800659 
	C274.170715,654.423706 278.002228,649.515198 283.085541,646.119629 
	C284.580414,645.121155 285.997498,643.924500 287.703278,642.567993 
	C292.536774,640.653870 295.481445,636.297913 300.628479,634.926208 
	C304.645142,634.782898 306.507080,637.774719 308.764099,639.781616 
	C318.554504,648.487122 328.350220,657.193848 337.982971,666.582764 
	C343.488800,671.591431 348.813873,676.292358 354.109619,681.021179 
	C363.529602,689.432800 372.744629,698.066345 382.123962,706.519897 
	C400.393768,722.986267 418.462769,739.675354 436.666718,756.215820 
	C445.890869,764.597107 455.076385,773.032837 464.286133,781.432495 
	C477.665436,793.634888 490.917389,805.978638 504.489227,817.973572 
	C512.330078,824.903442 519.729980,832.330261 527.956360,839.367188 
	C534.361084,846.100098 541.281921,851.768616 547.825928,857.832336 
	C557.895386,867.162659 568.148193,876.305359 578.346191,885.501831 
	C584.115845,890.704834 589.520935,896.323914 596.001648,901.265625 
	C597.435669,904.447021 600.221130,905.880798 602.469543,907.657104 
	C608.147827,912.143127 612.787842,917.773560 618.928833,922.240967 
	C620.704102,925.388550 622.925049,927.601807 626.119568,929.314026 
	C632.542969,934.272583 637.473511,940.397705 644.027466,945.219421 
	C645.461731,947.898682 647.149353,949.906738 649.739380,951.542114 
	C652.074036,952.350037 653.461426,953.910095 655.220825,955.526245 
	C656.909668,958.458008 658.757202,960.750916 661.919922,962.191162 
	C664.506958,963.604309 666.106689,965.674744 668.313843,967.569641 
	C669.184265,969.448486 670.319092,970.634888 671.737305,971.576294 
	C679.264526,976.572998 685.176453,983.420044 691.991882,989.225525 
	C699.699219,995.790894 706.277710,1003.654907 715.234863,1009.329956 
	C721.960938,1017.015442 731.296936,1017.607788 739.932190,1019.517639 
	C751.864380,1022.156616 763.353577,1019.965637 774.507690,1015.213867 
	C789.058167,1009.015442 803.156189,1001.853027 817.387573,995.001587 
	C840.938477,983.663574 864.492493,972.325562 888.011902,960.919556 
	C914.824280,947.916504 941.779907,935.209290 968.572876,922.161865 
	C977.550110,917.790161 986.809814,913.983337 995.261841,908.608887 
	C1006.777771,901.286072 1014.451050,890.883057 1019.265686,878.216797 
	C1020.209167,875.734680 1020.389099,872.349670 1024.697266,872.774414 
z"/>
<path fill="#000000" opacity="1.000000" stroke="none" 
	d="
M1.269222,328.225769 
	C1.000000,220.364624 1.016697,112.729233 0.919134,5.093948 
	C0.916217,1.875572 1.287362,0.894066 4.903835,0.895269 
	C343.638672,1.007867 682.373535,1.008016 1021.108337,0.894019 
	C1024.749756,0.892793 1025.088135,1.912668 1025.080688,5.106235 
	C1024.965454,54.758179 1025.000000,104.410469 1025.000000,154.531342 
	C1023.961121,155.633713 1023.203125,155.025513 1022.176758,154.194031 
	C1021.765076,153.786926 1021.620667,153.607788 1021.306274,153.134796 
	C1020.776672,152.061462 1020.615234,151.216873 1020.234375,150.130035 
	C1020.027893,149.478271 1019.931152,149.105286 1019.739258,148.472015 
	C1019.505798,147.872055 1019.381165,147.528168 1019.149658,146.929779 
	C1018.961609,146.506149 1018.888733,146.334030 1018.716553,145.896698 
	C1018.498962,145.268066 1018.401917,144.899017 1018.255981,144.239563 
	C1018.164612,143.759705 1018.140015,143.565430 1018.076294,143.081207 
	C1017.888428,141.977707 1017.349915,141.375595 1016.761841,140.442108 
	C1016.542603,139.967697 1016.474243,139.769623 1016.307495,139.274811 
	C1015.851440,137.945877 1015.128540,137.240967 1013.916138,136.549957 
	C1011.672974,134.578186 1010.189270,132.399399 1008.558655,129.941284 
	C1008.093811,129.179245 1007.885132,128.634659 1007.475464,127.897011 
	C1007.164246,127.387489 1006.993774,127.100494 1006.674377,126.628395 
	C1006.523621,126.444374 1006.220398,126.087440 1006.066284,125.915115 
	C1005.912170,125.742783 1005.595947,125.411957 1005.431763,125.253952 
	C1005.267517,125.095955 1004.921082,124.795357 1004.541992,124.518753 
	C1004.162903,124.242157 1003.741089,123.981735 1003.276917,123.723938 
	C1002.297241,123.187851 1001.799805,122.877441 1000.992310,122.426682 
	C991.718689,114.592171 980.813782,110.230110 970.474121,104.992577 
	C938.123779,88.605515 905.187256,73.413399 872.571777,57.562923 
	C847.141418,45.204250 821.569275,33.133102 796.136169,20.774837 
	C789.406250,17.504711 782.650818,14.266343 775.837036,11.182100 
	C759.587036,3.826631 743.023682,3.954685 726.255188,9.554641 
	C722.257935,10.889547 718.455872,12.313417 715.215088,15.627937 
	C714.863525,16.139050 714.705566,16.331551 714.264954,16.764572 
	C713.593872,17.302149 713.207458,17.601690 712.540894,18.129646 
	C705.339783,21.993916 700.586853,28.223339 694.860901,33.247417 
	C683.242188,43.441959 671.561584,53.646282 660.615662,64.532173 
	C642.444153,82.603966 622.823486,99.056976 604.241699,116.645874 
	C590.705688,129.458618 576.129517,141.062347 562.571411,153.864044 
	C543.838928,171.551483 524.553589,188.663467 505.538422,206.059280 
	C490.572052,219.751099 475.529999,233.361603 460.574066,247.066864 
	C445.264496,261.096130 429.832397,274.991272 414.513031,289.011261 
	C395.498383,306.413086 376.373871,323.694855 357.378784,341.119415 
	C352.616516,345.487915 348.033691,350.125549 342.510620,354.171143 
	C334.190826,362.576202 325.602936,370.173767 316.820892,377.554749 
	C316.045685,378.206299 315.283417,378.816345 314.642761,380.032990 
	C311.040619,383.837799 307.043335,386.662933 302.941742,389.901611 
	C302.386200,390.116516 302.155914,390.181000 301.572327,390.308228 
	C300.742340,390.411011 300.265137,390.443481 299.427612,390.454651 
	C294.687927,389.722595 291.645294,386.550018 288.672699,383.877625 
	C273.848358,370.550293 257.178802,359.645477 241.561020,347.370667 
	C222.797867,332.623749 203.555145,318.499420 184.554123,304.064606 
	C173.496338,295.664154 162.436615,287.221802 151.200592,279.029755 
	C141.175201,271.720398 131.565063,263.787201 121.474930,256.530701 
	C109.887070,248.197083 97.370750,247.180359 84.223358,252.518585 
	C78.568321,254.814697 73.795837,258.581238 69.449013,262.583679 
	C56.611248,274.404327 43.516216,285.942749 30.772676,297.868500 
	C26.042933,302.294739 21.233019,306.644470 16.481821,311.055115 
	C12.276098,314.959320 8.770491,319.306580 6.437738,324.563202 
	C5.480147,326.721039 4.654737,329.023468 1.269222,328.225769 
z"/>
<path fill="#22A7F2" opacity="1.000000" stroke="none" 
	d="
M1024.658081,378.704620 
	C1025.000000,475.687561 1025.000000,572.375122 1025.000000,669.531372 
	C1023.639893,671.558777 1024.022705,673.464417 1024.015381,675.261597 
	C1023.979187,684.260254 1024.080322,693.260071 1023.972229,702.257629 
	C1023.884155,709.584351 1022.876892,710.439758 1015.844482,711.429199 
	C1007.535706,712.598145 999.294250,712.489197 990.954834,711.585266 
	C981.500549,710.560608 972.000366,712.197266 962.528992,711.900696 
	C946.425903,711.396484 930.337769,712.878235 914.208313,711.790039 
	C909.069031,711.443298 903.590637,711.375977 898.352783,712.793152 
	C894.697510,713.782166 891.153992,711.979309 887.478821,711.877136 
	C877.205444,711.591492 866.935547,712.130432 856.651794,711.563904 
	C850.393555,711.219055 844.052673,711.802124 837.749695,711.993347 
	C822.298279,712.462097 806.839722,712.029175 791.395081,711.835693 
	C785.600769,711.763123 779.853760,711.217102 774.071655,712.090149 
	C772.058350,712.394226 770.101196,711.830139 768.036133,710.344727 
	C766.395813,707.517517 766.659485,704.800842 766.657959,702.166138 
	C766.597473,597.419312 766.601196,492.672516 766.641846,387.925720 
	C766.642761,385.596069 766.653503,383.258911 767.435974,380.542542 
	C769.461182,377.973969 772.049072,377.438416 774.467712,377.859802 
	C781.970276,379.166748 789.389526,377.499237 796.844482,377.646912 
	C810.780457,377.922913 824.731812,376.692047 838.608521,377.079559 
	C850.548462,377.412994 862.532654,377.576782 874.481628,377.999146 
	C883.499939,378.317902 892.700439,378.642029 901.729492,377.125244 
	C905.113281,376.556793 908.338440,377.612061 911.660217,377.639191 
	C926.744385,377.762177 941.830200,377.831360 956.913086,378.053680 
	C970.678589,378.256592 984.549011,378.585480 998.255066,377.540161 
	C1006.272766,376.928619 1014.127930,379.278931 1022.032654,377.574188 
	C1022.847839,377.398407 1023.643311,377.881897 1024.658081,378.704620 
z"/>
<path fill="#25B0F3" opacity="1.000000" stroke="none" 
	d="
M1025.000000,378.531342 
	C1018.512085,381.663116 1011.778625,378.769379 1005.497375,379.580383 
	C996.004150,380.806091 986.685364,379.487396 977.304993,379.971832 
	C968.418823,380.430695 959.528748,380.637054 950.602844,380.129303 
	C942.053955,379.642944 933.456421,379.976196 924.880493,380.007080 
	C909.209473,380.063507 893.514343,380.673737 877.885254,380.558380 
	C865.830994,380.469452 853.625854,380.876495 841.526489,379.316345 
	C835.668762,378.561035 829.663269,379.713867 823.690247,379.686279 
	C817.462280,379.657440 811.191833,380.372192 804.879761,380.055481 
	C793.279236,379.473389 781.661987,381.591644 769.609497,379.996826 
	C765.805420,378.090851 766.727966,374.734528 766.702332,371.917328 
	C766.528320,352.775665 766.600281,333.632385 766.629272,314.489777 
	C766.645203,304.014404 766.356384,293.534180 766.868652,282.579132 
	C766.428284,271.938995 766.635193,261.782074 766.628479,251.626770 
	C766.599060,207.144257 766.632629,162.661682 766.604797,118.179169 
	C766.597229,106.030571 767.926392,93.909309 767.213013,81.285553 
	C766.070068,71.942055 766.838257,63.028908 766.655701,54.133476 
	C766.519104,47.477604 765.524109,41.001888 763.207031,34.318802 
	C758.302002,23.292854 749.707703,17.448875 738.773621,14.451785 
	C732.591858,12.757333 726.631042,13.619888 720.658203,15.439389 
	C718.198181,16.188782 715.670105,17.675508 712.897949,15.307535 
	C720.408447,8.599659 729.579468,5.773019 739.215454,3.977744 
	C756.568176,0.744753 771.902649,6.338342 787.128357,13.916172 
	C813.982178,27.281273 841.147278,40.020645 868.171387,53.044022 
	C885.355408,61.325272 902.500916,69.686424 919.698975,77.938423 
	C937.904419,86.673775 956.333191,94.966690 974.307434,104.151566 
	C983.978882,109.093727 994.447449,112.934837 1002.703369,121.021309 
	C1003.497009,121.493019 1004.078674,121.485703 1004.839355,121.810410 
	C1005.078186,121.954231 1005.014587,121.971054 1005.019043,121.938446 
	C1005.215210,122.184624 1005.433838,122.440346 1005.881897,122.824875 
	C1006.084290,122.976845 1006.016357,122.981468 1006.018555,122.947502 
	C1006.215759,123.188545 1006.435730,123.441910 1006.882202,123.825256 
	C1007.083984,123.976715 1007.015930,123.981476 1007.017883,123.947449 
	C1007.213684,124.192413 1007.440552,124.441307 1007.900696,124.815956 
	C1008.447571,124.988869 1008.713257,125.144211 1008.964478,125.667038 
	C1009.407227,126.360016 1009.491821,126.922783 1009.702271,127.740250 
	C1011.484436,130.086456 1013.134644,132.180023 1014.913269,134.581650 
	C1016.046448,135.998398 1016.607971,137.416000 1017.832031,138.746429 
	C1018.076843,138.950317 1018.013000,138.996994 1018.033875,138.963440 
	C1018.718872,140.040558 1018.573303,141.461807 1019.616943,142.759491 
	C1019.809387,143.018219 1019.960388,143.452484 1019.994141,143.679871 
	C1020.168762,144.082138 1020.309631,144.257034 1020.630493,144.716629 
	C1020.810486,145.001343 1020.962097,145.440887 1020.998352,145.670517 
	C1021.174194,146.078659 1021.313721,146.257156 1021.638916,146.720367 
	C1021.876953,147.425446 1021.929321,147.845810 1022.008057,148.583893 
	C1022.671936,149.638077 1022.432129,150.555344 1022.680481,151.698334 
	C1022.811890,151.997589 1022.965149,152.440918 1022.998779,152.673035 
	C1025.588135,160.876434 1024.042236,169.105896 1024.781006,177.602661 
	C1025.000000,244.687561 1025.000000,311.375122 1025.000000,378.531342 
z"/>
<path fill="#209FF0" opacity="1.000000" stroke="none" 
	d="
M768.730103,710.231934 
	C771.833069,710.039917 774.501160,710.065063 777.082458,709.248962 
	C782.973328,707.386292 788.816895,709.780212 794.681458,709.426086 
	C800.424866,709.079224 806.164368,710.539551 811.926025,709.171082 
	C816.072754,708.186218 820.139832,710.168579 824.309998,710.008484 
	C833.557739,709.653503 842.806213,709.172485 852.057373,709.091064 
	C859.638123,709.024475 867.332275,710.355164 874.778809,709.447632 
	C884.006958,708.322998 892.991455,710.611938 902.274170,709.673157 
	C910.271240,708.864380 918.640625,708.545776 926.930237,709.683044 
	C933.426392,710.574280 940.159790,709.762634 946.787170,709.665344 
	C960.840576,709.459045 974.905640,708.780701 988.942261,709.163330 
	C997.896851,709.407471 1006.772095,710.407837 1015.755127,709.106628 
	C1021.509094,708.273132 1022.831482,707.510071 1022.944031,701.391907 
	C1023.100098,692.906921 1022.957825,684.416748 1023.028320,675.929565 
	C1023.044250,674.014893 1022.406189,671.867249 1024.654785,670.176453 
	C1025.000000,737.354248 1025.000000,804.708435 1025.000000,872.531372 
	C1023.492126,872.105469 1023.272705,873.154114 1023.005432,874.271729 
	C1020.558105,884.504089 1014.882568,893.007629 1008.364746,900.980042 
	C1004.273132,905.984985 998.913574,909.856750 993.329285,912.714478 
	C977.267090,920.934143 960.805054,928.370056 944.533691,936.183777 
	C931.464050,942.459961 918.458069,948.868591 905.397461,955.163879 
	C879.864746,967.470886 854.311707,979.735962 828.770630,992.025818 
	C812.488220,999.860596 796.223389,1007.731873 779.929138,1015.541687 
	C770.582947,1020.021423 760.803955,1023.094421 750.353394,1022.939575 
	C737.233154,1022.745178 725.035461,1019.221619 713.988281,1011.337158 
	C715.701172,1008.681335 717.976929,1009.817261 720.131226,1010.376282 
	C723.921509,1011.359741 727.614380,1012.800964 732.063477,1012.583496 
	C736.173462,1011.459961 740.054565,1011.392334 743.651001,1009.867188 
	C758.430176,1003.599731 765.638550,992.209412 766.551880,976.470398 
	C766.609802,975.472351 766.615173,974.471924 766.615417,973.472290 
	C766.632385,897.163452 766.651611,820.854614 766.720337,744.078247 
	C766.620605,735.067383 766.511536,726.521851 766.679260,717.977966 
	C766.729736,715.407532 766.255249,712.644165 768.730103,710.231934 
z"/>
<path fill="#008DD4" opacity="1.000000" stroke="none" 
	d="
M1.000000,328.468658 
	C3.610580,328.941528 3.492298,326.175842 3.734648,325.341675 
	C5.722649,318.498871 10.258154,313.652069 15.358427,309.048431 
	C24.314083,300.964813 33.044426,292.631989 41.972454,284.517212 
	C52.881290,274.602051 63.374630,264.127655 75.012993,255.145981 
	C86.592079,246.210083 99.856064,244.740280 114.150208,249.715057 
	C123.091125,252.826782 128.929688,259.845306 136.584137,264.488037 
	C143.466446,268.662445 149.401855,274.297852 155.923325,279.078735 
	C162.153931,283.646423 168.205200,288.740631 174.371933,293.485046 
	C182.033356,299.379425 190.060059,304.907227 197.705475,310.801086 
	C206.576462,317.639771 215.383896,324.625092 224.313293,331.386780 
	C232.989716,337.956970 241.648270,344.565918 250.375122,351.076904 
	C258.176178,356.897217 266.061188,362.608215 273.768982,368.549255 
	C279.008972,372.588196 283.975220,376.980499 289.125000,381.139038 
	C292.434937,383.811920 295.855865,386.347351 299.556732,388.941711 
	C300.081085,388.828552 300.275726,388.718079 300.753296,388.788361 
	C301.036194,388.969116 300.996277,388.994354 301.012787,388.976196 
	C309.529175,393.010315 316.272461,399.544525 323.710175,405.086670 
	C340.901520,417.896851 357.968445,430.875488 374.985443,443.914520 
	C394.899750,459.173523 415.046661,474.129608 434.744537,489.671936 
	C436.810242,491.301819 438.472961,492.994080 438.115784,496.255188 
	C437.008850,499.484802 434.685913,500.118195 432.042938,500.222046 
	C422.761475,500.586731 413.472382,500.083649 404.189178,500.528229 
	C381.435211,501.618011 358.686890,499.559509 335.892792,500.647247 
	C325.694977,501.133850 315.315887,500.370880 305.042480,500.739929 
	C291.095978,501.240967 277.194977,499.575775 263.190979,500.730438 
	C257.113800,501.231567 250.679657,500.642090 244.456726,500.850159 
	C233.163757,501.227600 221.882690,499.295105 210.612076,500.862854 
	C206.923325,501.376007 203.308060,500.520691 199.678680,500.275116 
	C184.238846,499.230560 168.759872,501.546967 152.939651,499.595703 
	C148.968842,500.121185 146.528351,498.026520 144.223450,495.857117 
	C127.046089,479.689362 109.441116,463.986908 92.083336,448.015869 
	C73.142265,430.588013 53.944870,413.438171 35.074715,395.928040 
	C27.896524,389.267212 20.436661,382.913757 13.336846,376.151184 
	C7.288157,370.389862 2.384522,364.167969 1.238286,355.270752 
	C1.000000,346.312439 1.000000,337.624878 1.000000,328.468658 
z"/>
<path fill="#006DB0" opacity="1.000000" stroke="none" 
	d="
M270.268005,658.828064 
	C262.195709,665.332947 254.445740,671.683228 246.480392,677.750732 
	C226.360519,693.076660 206.153702,708.288696 185.962570,723.520935 
	C171.547592,734.395630 157.091263,745.215515 142.674057,756.087158 
	C136.635361,760.640808 130.821548,765.513184 124.607895,769.810364 
	C107.147842,781.884949 87.875465,780.949402 71.589447,766.986145 
	C60.670574,757.624634 50.245029,747.689209 39.549896,738.064758 
	C30.833559,730.221069 21.800604,722.709900 13.385840,714.558044 
	C8.822361,710.137085 5.069766,704.796265 3.039576,698.560486 
	C2.764809,697.716492 2.492534,697.029419 1.349207,696.809082 
	C1.000000,688.645752 1.000000,680.291504 1.000000,671.468628 
	C3.167422,667.278198 2.280717,662.497620 5.400959,659.017517 
	C7.272833,656.929871 8.766901,654.501343 10.807199,652.508850 
	C25.915783,637.754333 41.779869,623.827148 57.425529,609.656921 
	C65.800987,602.071228 74.116508,594.411438 82.419098,586.742859 
	C96.948448,573.323120 111.727356,560.177917 126.248917,546.754578 
	C132.107086,541.339478 138.293045,536.268677 143.822189,530.492310 
	C145.672134,528.559631 147.625137,526.671204 151.027283,527.117981 
	C160.342361,535.280823 170.470993,542.165405 176.865021,552.832764 
	C178.495010,555.552124 181.334885,557.235962 183.857727,559.162598 
	C189.687271,563.614441 194.792633,568.640869 198.848618,574.959595 
	C202.857208,581.204468 207.771439,586.986511 213.625610,591.682007 
	C221.730743,598.183044 229.045151,605.606873 235.123383,613.822998 
	C245.239105,627.496643 257.103790,639.392822 269.238586,651.121033 
	C271.545380,653.350464 272.628967,655.637146 270.268005,658.828064 
z"/>
<path fill="#000000" opacity="1.000000" stroke="none" 
	d="
M151.336227,527.923462 
	C144.569107,531.289062 140.366730,537.255371 134.948318,541.820496 
	C124.709038,550.447388 115.295647,560.046875 105.378044,569.065125 
	C88.764740,584.171875 71.974342,599.083862 55.358082,614.187439 
	C45.561714,623.092041 36.049404,632.309509 26.235834,641.194702 
	C19.016186,647.731384 11.497350,653.875244 6.083312,662.209412 
	C4.176657,665.144409 4.276447,668.862732 1.357753,671.180786 
	C1.000000,565.979126 1.000000,460.958221 1.000000,355.468658 
	C2.554344,354.207275 2.725453,355.289642 3.000747,356.403015 
	C5.760821,367.565704 14.423653,374.387787 22.323801,381.456635 
	C27.219070,385.836761 32.020668,390.376038 36.966484,394.715546 
	C51.015781,407.042572 64.472023,420.043518 78.233398,432.701233 
	C89.176460,442.766602 100.237373,452.703705 111.223373,462.722504 
	C122.947357,473.414398 134.635239,484.145935 146.368362,494.827759 
	C147.567276,495.919281 148.967911,496.789185 150.580963,497.903168 
	C157.599304,501.307129 163.573639,505.424164 167.295349,512.565674 
	C167.306412,513.768372 167.261169,514.693726 166.742188,515.281311 
	C162.358017,520.244995 157.898254,525.138245 151.336227,527.923462 
z"/>
<path fill="#22A7F2" opacity="1.000000" stroke="none" 
	d="
M1025.000000,177.531372 
	C1023.522217,175.903992 1023.932373,173.488098 1024.039429,171.207779 
	C1024.314331,165.356842 1023.511047,159.588043 1023.024719,153.349213 
	C1024.248901,153.265121 1023.820618,154.523605 1024.662842,155.136108 
	C1025.000000,162.354248 1025.000000,169.708496 1025.000000,177.531372 
z"/>
<path fill="#0087D1" opacity="1.000000" stroke="none" 
	d="
M166.311707,513.276550 
	C161.873093,507.450378 155.532715,504.089600 151.027176,498.351379 
	C158.828705,496.730194 166.777313,498.647034 174.719254,497.997803 
	C191.446823,496.630371 208.161987,498.636108 224.905502,498.196442 
	C232.435150,497.998718 240.210571,498.990875 247.625839,498.426147 
	C256.983398,497.713501 266.265503,499.117889 275.573334,498.032928 
	C280.314148,497.480255 285.178406,497.931580 289.985474,498.011108 
	C309.866028,498.339935 329.751923,497.587250 349.610901,497.789185 
	C363.871735,497.934174 378.188568,497.085663 392.482727,498.730621 
	C398.765778,499.453674 405.286713,497.852448 411.709198,497.694244 
	C417.999603,497.539307 424.301910,497.897430 430.599609,497.988129 
	C432.913849,498.021454 435.381470,498.322021 436.835266,495.296814 
	C439.283051,492.906311 441.176208,494.269867 443.182953,495.539429 
	C450.555939,500.203949 456.732666,506.467712 464.389282,511.350403 
	C477.341400,520.947266 489.491638,530.993103 502.131439,540.403198 
	C527.597717,559.362549 552.716003,578.781372 578.032288,597.938965 
	C592.744873,609.072388 607.379761,620.313110 622.181274,631.325806 
	C628.160767,635.774658 634.550720,639.682922 640.635742,644.600952 
	C641.321960,645.024963 641.702576,645.279480 642.322205,645.776123 
	C643.227356,646.575623 643.848267,647.191956 644.862183,647.835327 
	C645.513855,648.212463 645.873779,648.446472 646.466003,648.907104 
	C647.335938,649.670593 647.906372,650.292847 648.909668,650.883362 
	C649.552734,651.249268 649.904968,651.483643 650.492554,651.937500 
	C651.371704,652.695129 651.944153,653.322876 652.962402,653.914307 
	C653.621338,654.303711 653.980530,654.558533 654.585876,655.050537 
	C655.677368,656.068420 656.472046,656.901123 657.311584,658.163818 
	C657.932678,659.835876 658.412659,661.173828 659.967896,662.297485 
	C660.334045,662.847473 660.448669,663.092712 660.739441,663.713989 
	C662.175171,668.436157 661.539124,669.956909 657.389709,670.063904 
	C649.595520,670.265137 641.801636,671.139343 633.994141,670.449890 
	C626.688660,669.804810 619.393066,669.994202 612.070007,670.266235 
	C599.600037,670.729309 587.076294,669.214783 574.654602,670.314392 
	C562.359985,671.402771 550.069641,670.522400 537.818481,670.654968 
	C527.954895,670.761719 518.005188,670.862793 508.140015,670.614319 
	C497.981171,670.358398 487.907288,670.235596 477.800446,671.122620 
	C472.934418,671.549683 468.196472,670.341492 463.406738,669.846069 
	C460.901733,669.586914 458.415955,669.214966 455.973022,669.912720 
	C449.917542,671.642273 443.789948,671.201111 437.696930,670.468628 
	C433.520813,669.966553 429.382996,670.253479 425.230011,670.350464 
	C410.920044,670.684631 396.565643,670.883606 382.302582,670.604492 
	C369.843475,670.360657 357.380096,670.653870 344.924988,670.328491 
	C342.348389,670.261230 340.002533,669.621887 337.391571,668.195679 
	C325.185272,657.466309 313.413910,646.820923 301.321472,636.068848 
	C299.109131,635.834290 297.532837,635.128418 296.119965,633.794006 
	C282.487183,620.918457 268.312683,608.637573 254.282059,596.208374 
	C231.668045,576.175598 209.916336,555.213196 187.444916,535.034241 
	C183.735107,531.702881 180.979172,527.432861 176.488815,524.441406 
	C172.483994,521.126709 168.417648,518.319763 166.311707,513.276550 
z"/>
<path fill="#0082CF" opacity="1.000000" stroke="none" 
	d="
M337.093109,668.416992 
	C339.887024,666.956421 342.836945,668.186218 345.792542,668.050964 
	C368.503937,667.011414 391.219696,668.435181 413.937927,668.043640 
	C425.834625,667.838501 437.951447,669.425415 449.577484,668.299805 
	C465.638855,666.744751 481.673767,670.879517 497.539734,667.187256 
	C497.699890,667.149963 497.884644,667.111755 498.035156,667.154358 
	C510.377930,670.647705 523.094238,664.401794 535.503845,668.641663 
	C537.933594,669.471863 541.069519,667.953369 543.860229,668.055115 
	C559.562195,668.627869 575.231018,667.440247 590.909363,667.405273 
	C596.336670,667.393188 601.877441,668.317810 607.323914,667.923035 
	C623.392822,666.758240 639.430725,668.635864 655.493225,668.113281 
	C659.629150,667.978699 660.836243,666.845825 659.562134,662.660339 
	C663.161560,660.517822 665.255188,663.370850 667.511230,665.012146 
	C681.587585,675.252808 695.161804,686.163452 709.208313,696.446228 
	C714.427856,700.267273 719.343079,704.480347 724.597351,708.255676 
	C726.215942,709.418640 727.734619,710.724854 728.594238,713.053711 
	C731.317566,721.799561 729.926331,729.582825 726.696777,737.682983 
	C724.225342,743.881775 721.849243,750.451782 722.266602,757.499939 
	C722.598022,763.096252 719.737427,768.105774 719.024170,773.588196 
	C718.226440,779.720032 717.825745,785.882751 717.736877,791.985413 
	C717.635315,798.963989 714.278503,804.031494 710.772217,809.508728 
	C708.125427,813.643250 706.171082,818.209106 702.826050,821.944519 
	C701.884460,822.996033 702.578552,824.498413 702.912720,825.792969 
	C703.369507,827.562683 703.902161,829.322266 703.310608,831.190918 
	C702.186340,834.742676 692.056641,843.062683 688.294250,843.158203 
	C678.659363,843.403076 669.021545,842.672241 659.385559,843.061890 
	C649.770935,843.450745 640.171509,842.687073 630.538635,843.007874 
	C621.788879,843.299377 612.971313,842.467712 604.204834,842.721191 
	C593.583923,843.028442 582.968323,842.609863 572.355896,842.682617 
	C557.462097,842.784912 542.481140,843.607483 527.256470,841.245850 
	C520.550781,837.836121 516.560181,831.887512 511.250763,827.455444 
	C501.097900,818.980347 491.781525,809.508484 482.029510,800.546631 
	C466.571289,786.340637 451.044952,772.208801 435.538635,758.055237 
	C424.308685,747.804932 413.101593,737.529114 401.817841,727.338318 
	C385.399719,712.510498 368.900848,697.772095 352.481567,682.945618 
	C347.322815,678.287354 342.309479,673.467957 337.093109,668.416992 
z"/>
<path fill="#007DCD" opacity="1.000000" stroke="none" 
	d="
M527.029602,841.349609 
	C537.780823,839.198364 548.771179,839.881165 559.675171,840.420288 
	C564.862854,840.676758 569.925659,840.175049 575.023743,840.202942 
	C585.778137,840.261719 596.613770,840.755432 607.288269,840.371704 
	C616.060547,840.056335 624.740601,841.424438 633.580017,840.463257 
	C641.679199,839.582581 650.038513,840.487793 658.293152,840.399048 
	C668.368225,840.290649 678.489136,841.345154 688.512451,840.696106 
	C694.333313,840.319214 697.570679,834.473083 701.189758,830.367798 
	C702.558594,828.815063 700.548218,825.969849 699.319458,823.996094 
	C697.868408,821.665405 698.079590,820.263916 700.798828,818.931702 
	C704.115662,817.306763 707.014404,815.038879 706.358154,810.525330 
	C706.261169,809.858215 706.803833,808.795654 707.383423,808.378052 
	C715.831970,802.292236 715.272827,793.322205 715.492249,784.402344 
	C715.651123,777.942444 716.415527,771.422058 718.311951,765.223755 
	C719.454834,761.488342 720.001526,757.846191 720.050415,753.983154 
	C720.131470,747.579163 722.274536,741.463562 724.826416,735.845276 
	C728.122314,728.589172 728.721741,721.524170 727.033325,713.586365 
	C731.709106,712.050110 733.256226,715.707458 735.353149,719.079590 
	C736.219360,722.503113 735.702271,725.261597 734.701050,728.232361 
	C732.418213,735.006287 733.174988,742.065002 733.837891,749.029541 
	C734.108459,751.871521 734.509644,754.687378 733.513062,757.428162 
	C729.919861,767.310730 729.099915,777.451965 730.213135,787.865723 
	C730.877258,794.079346 729.507751,799.441223 724.371277,803.980286 
	C720.789124,807.145691 721.673218,812.495422 722.023682,816.816711 
	C722.726318,825.478882 722.583923,833.758301 717.562439,841.309631 
	C716.426392,843.018066 716.134216,845.152283 716.509705,847.113892 
	C717.596436,852.791443 716.230042,858.393433 716.210327,864.032715 
	C716.188232,870.359253 714.406555,872.476196 708.441895,874.649536 
	C697.371643,878.683044 697.372375,878.683044 697.349243,890.421875 
	C697.344666,892.754333 697.385193,895.088623 697.248413,897.417908 
	C696.915833,903.082031 694.647400,905.749512 689.033997,906.104675 
	C679.736572,906.692810 670.403687,906.307800 661.119995,905.866577 
	C654.121826,905.534119 647.200256,905.426025 640.200378,905.862793 
	C626.749817,906.701965 613.282532,906.495728 599.865051,904.997437 
	C598.364197,904.829834 597.029419,904.053589 595.271606,903.249390 
	C588.960205,900.168274 585.238525,894.668213 580.349304,890.558838 
	C570.126343,881.966492 560.742493,872.383850 550.838989,863.400818 
	C542.902771,856.202332 534.719849,849.275879 527.029602,841.349609 
z"/>
<path fill="#007ACC" opacity="1.000000" stroke="none" 
	d="
M732.325500,1014.461060 
	C725.801575,1015.524048 720.324829,1012.708435 714.204712,1011.073242 
	C710.337036,1010.412048 708.419495,1007.403992 706.103394,1005.361084 
	C695.727844,996.209106 685.773804,986.580322 675.634338,977.159363 
	C672.872681,974.593384 669.995239,972.151917 667.026489,969.346252 
	C668.406128,966.496521 670.680359,966.919983 673.059204,967.365601 
	C681.626160,968.970520 685.851685,966.569214 687.799133,958.216248 
	C688.967896,953.203064 691.825500,948.830261 692.400024,943.580078 
	C692.847961,939.486450 696.486572,937.497314 700.033630,936.490601 
	C707.346069,934.415222 708.558655,928.931519 708.611450,922.570923 
	C708.623901,921.071228 708.767029,919.533691 708.392456,918.087280 
	C706.719788,911.628784 708.956543,906.159302 713.030396,901.461792 
	C715.756836,898.317871 716.765076,894.980896 716.690979,890.965820 
	C716.589478,885.471313 716.599915,879.971069 716.754272,874.473450 
	C716.842529,871.331055 717.589417,868.557312 720.367493,866.665588 
	C722.992554,864.877991 723.429749,862.180664 723.672974,859.232239 
	C724.017395,855.056885 723.038269,850.981140 723.232483,846.801086 
	C723.590759,839.091309 725.372986,831.743774 727.135315,824.269165 
	C728.756104,817.394287 727.882446,810.043579 728.646118,802.928528 
	C728.913147,800.440796 729.103027,798.022156 730.034424,795.632935 
	C733.624817,786.423035 732.785583,776.607300 733.558472,767.034973 
	C733.949402,762.193726 734.162170,757.481873 736.154602,752.921021 
	C738.703918,747.085510 737.562805,740.748169 737.886658,734.638306 
	C738.064819,731.277100 738.342163,728.026428 739.628784,724.500732 
	C741.243408,722.829773 743.103088,722.595093 744.402222,723.593811 
	C750.197937,728.049316 756.922302,731.400879 761.404907,737.941101 
	C762.720032,743.065857 760.948303,747.536865 760.429871,752.116028 
	C759.364014,761.529175 759.898254,771.209045 757.970398,780.386292 
	C755.597778,791.680969 756.615601,802.876404 756.301880,814.120972 
	C756.231262,816.653503 755.807739,819.093750 754.857849,821.423157 
	C751.241150,830.292358 750.814758,839.557739 751.623901,848.916748 
	C751.828125,851.279419 752.127625,853.615173 751.309143,855.800659 
	C747.441650,866.127563 749.623779,876.876831 749.062195,887.422241 
	C748.890930,890.637756 748.606995,893.672180 747.371094,896.633789 
	C745.363525,901.444397 744.009399,906.433472 744.378601,911.684692 
	C745.113220,922.131287 743.717407,932.260864 739.954834,942.010132 
	C737.336548,948.794373 737.571716,955.685730 738.687256,962.631042 
	C739.072388,965.028809 738.932190,967.179443 737.941650,969.414612 
	C734.887024,976.306824 733.925842,983.392212 736.104614,990.786499 
	C737.522827,995.599792 737.448792,1000.397461 734.371216,1004.623535 
	C732.203369,1007.600403 735.039185,1011.330505 732.325500,1014.461060 
z"/>
<path fill="#007DCD" opacity="1.000000" stroke="none" 
	d="
M741.159180,723.578613 
	C740.660950,731.921570 740.326538,739.864075 739.956970,747.804932 
	C739.910828,748.795593 739.902588,749.882507 739.497986,750.747742 
	C734.441406,761.563782 736.163208,773.265503 734.981384,784.584900 
	C734.774902,786.562988 734.704224,788.627930 734.061829,790.475769 
	C730.624451,800.362427 729.739075,810.510864 730.460815,820.879700 
	C730.539368,822.008728 730.324524,823.257263 729.895691,824.307373 
	C725.425964,835.251404 725.398315,846.689819 726.001221,858.206055 
	C726.236755,862.705322 725.947876,866.829529 721.124756,869.252502 
	C718.989319,870.325256 719.012451,872.865662 719.009644,875.070312 
	C719.001587,881.402344 718.933472,887.735474 719.029236,894.065979 
	C719.071838,896.881897 718.350647,899.144897 716.330444,901.262085 
	C711.777893,906.033203 709.075562,911.359924 710.804138,918.431091 
	C711.915588,922.977478 710.668335,927.712952 709.798401,932.290466 
	C709.277466,935.031738 707.124878,936.095276 704.674194,937.169739 
	C701.020142,938.771729 695.269470,939.171204 694.989197,943.793945 
	C694.645996,949.456360 691.237793,953.656250 690.145508,958.856506 
	C688.009277,969.026917 681.799377,972.339478 671.657837,969.502808 
	C670.397339,969.150146 669.030823,969.176453 667.297729,969.033081 
	C664.738586,967.945435 663.791443,965.306946 661.115112,964.405945 
	C659.782471,960.923645 657.427734,958.873596 654.178345,957.224854 
	C652.143372,956.156860 651.270813,954.074890 649.047424,953.341064 
	C648.212097,950.080444 645.835388,948.743652 643.175110,947.222534 
	C636.103394,942.978394 631.810486,936.044678 625.100891,931.422607 
	C623.813782,927.898560 621.876892,925.448669 618.182739,924.227295 
	C609.688232,917.945618 602.388489,910.846924 595.030762,903.347717 
	C603.293457,902.548584 611.645081,903.735962 620.018799,903.868835 
	C628.776245,904.007751 637.554871,903.332581 646.309937,903.155334 
	C659.375610,902.890747 672.460754,903.767395 685.540588,903.961792 
	C693.752441,904.083862 694.991577,902.664856 695.000610,894.392456 
	C695.005676,889.729309 695.018127,885.066101 695.024231,880.402954 
	C695.028320,877.283630 696.462219,875.603577 699.631226,874.913879 
	C703.024048,874.175476 706.307007,872.911377 709.613647,871.804199 
	C712.536560,870.825439 713.930786,868.418213 713.840820,865.642700 
	C713.658020,860.001526 714.954407,854.420410 714.147888,848.749939 
	C713.608459,844.957153 713.808472,841.276794 716.428833,837.881836 
	C720.708496,832.337280 720.524963,825.724609 719.690430,819.212524 
	C719.368286,816.699402 719.492126,814.325745 719.648682,811.829895 
	C719.964600,806.793579 720.294983,802.587036 725.397827,799.203613 
	C729.293274,796.620911 728.312927,790.997986 727.777405,786.523865 
	C726.681641,777.369507 727.171387,768.389954 730.302246,759.673401 
	C731.627991,755.982361 731.622437,752.400513 731.374390,748.471436 
	C730.866638,740.430359 729.579224,732.169189 733.443481,724.398743 
	C734.065735,723.147522 733.834656,721.471985 733.998230,719.584839 
	C738.087097,717.736389 739.494751,718.506348 741.159180,723.578613 
z"/>
<path fill="#0066AC" opacity="1.000000" stroke="none" 
	d="
M166.012238,513.272400 
	C170.612244,515.054688 173.305908,519.115845 176.896118,522.655579 
	C178.582428,526.704224 181.530487,529.465515 184.195190,532.279663 
	C197.204941,546.018677 209.987427,559.997803 223.546951,573.182739 
	C229.581421,579.050537 235.448837,585.176331 242.012833,590.502197 
	C245.061798,592.976074 246.872940,596.373962 249.204178,599.386353 
	C256.137238,608.345276 264.382263,615.987671 272.754883,623.573853 
	C277.904205,628.239563 282.846283,633.153076 288.092834,637.732483 
	C289.866272,639.280396 290.683594,641.192932 289.233582,643.811035 
	C282.941833,649.066833 276.840240,654.021912 270.391174,659.044189 
	C271.107971,654.100647 266.995605,651.900330 264.193298,649.496399 
	C254.583191,641.252258 246.237106,631.699219 238.215439,622.129578 
	C231.216553,613.779968 224.840469,604.896057 216.706757,597.580933 
	C210.796204,592.265320 204.926422,586.968567 200.102737,580.612305 
	C199.003052,579.163269 197.546310,577.913147 196.742233,576.324341 
	C193.404373,569.728943 188.069153,565.042236 182.231812,560.861633 
	C178.809311,558.410522 175.721893,555.698059 173.452805,552.139099 
	C168.734909,544.739319 162.316010,539.058411 155.214966,534.079956 
	C153.211136,532.675049 152.026276,530.753296 151.045029,528.226807 
	C155.072891,522.219604 161.246140,518.712402 166.012238,513.272400 
z"/>
<path fill="#0063A9" opacity="1.000000" stroke="none" 
	d="
M289.361969,643.956238 
	C287.608826,637.803650 281.618469,635.523376 277.623962,631.580383 
	C266.106110,620.211182 253.776367,609.754639 244.038132,596.546448 
	C238.813965,589.460693 231.369019,584.033325 225.069916,577.714294 
	C214.770355,567.382263 204.170105,557.302673 194.521072,546.387878 
	C189.158188,540.321594 182.579193,535.332275 178.261765,528.356628 
	C177.357513,526.895691 175.597244,525.606934 176.881775,523.198059 
	C183.452560,526.703613 188.086639,532.502625 193.531174,537.330933 
	C205.563812,548.001526 216.914871,559.436707 228.825104,570.250366 
	C246.371719,586.181519 264.266571,601.729431 281.796265,617.678894 
	C288.171631,623.479614 295.018799,628.805969 300.833252,635.676636 
	C297.361725,638.769531 294.065247,642.070923 289.361969,643.956238 
z"/>
<path fill="#007DCD" opacity="1.000000" stroke="none" 
	d="
M618.029907,924.345154 
	C622.145874,923.979065 625.355347,925.103455 624.964050,930.706177 
	C622.695496,928.959900 620.433594,926.804382 618.029907,924.345154 
z"/>
<path fill="#007ACC" opacity="1.000000" stroke="none" 
	d="
M654.027954,957.347046 
	C657.617493,957.601135 660.816467,958.756165 660.957520,963.729065 
	C658.693848,961.960632 656.431519,959.805786 654.027954,957.347046 
z"/>
<path fill="#007ACC" opacity="1.000000" stroke="none" 
	d="
M643.025635,947.344360 
	C646.122375,947.591003 649.284973,948.223206 649.066040,952.801147 
	C646.982178,951.247986 645.073364,949.446838 643.025635,947.344360 
z"/>
<path fill="#0077B9" opacity="1.000000" stroke="none" 
	d="
M712.514038,14.956231 
	C714.795044,15.416051 716.568970,14.317822 718.419922,13.690492 
	C736.938660,7.413963 754.988586,14.293248 764.785767,31.686811 
	C753.265564,43.144230 751.489746,57.899746 750.467896,72.682426 
	C749.458618,87.283401 747.634583,101.766747 745.743286,116.256622 
	C745.700195,116.586617 745.566772,116.916252 745.586121,117.241905 
	C746.807068,137.859024 740.358215,157.776154 740.051086,178.305115 
	C739.928650,186.486435 737.369080,194.620728 735.739197,202.740860 
	C733.937622,211.717117 733.163818,220.846130 732.528809,229.915390 
	C731.817444,240.075607 730.938354,250.091171 728.216370,259.952332 
	C726.430054,266.423645 726.795227,273.232544 727.062805,279.832611 
	C727.397339,288.085236 724.100159,294.993469 720.722717,301.993591 
	C719.930115,303.636322 718.634644,305.112823 718.575928,306.979584 
	C718.363342,313.735413 715.837280,319.573853 711.668335,325.240417 
	C711.405640,325.845123 711.296265,326.080536 710.950928,326.615234 
	C709.622620,328.058990 707.729553,328.171997 706.854370,330.110535 
	C701.604248,336.198456 695.010376,340.147858 689.005859,344.790955 
	C670.392578,359.184082 651.432434,373.124207 632.826721,387.530457 
	C631.146545,388.831421 629.501404,390.307007 627.035461,391.074280 
	C623.347046,391.188782 620.795105,392.607635 618.759949,395.711365 
	C618.245178,396.085754 618.010193,396.200073 617.381470,396.375732 
	C616.323669,396.493744 615.512268,396.295532 615.016541,396.631409 
	C607.261475,401.886475 598.717041,401.194611 589.990051,400.456604 
	C584.215698,399.968353 578.373962,400.299408 572.544678,401.056732 
	C567.281128,401.740601 561.870483,400.618347 556.623169,400.748108 
	C542.010010,401.109497 527.381042,398.929840 512.798157,401.021484 
	C508.459045,401.643890 504.099335,401.364380 499.844971,400.790649 
	C490.368256,399.512604 480.981262,401.909424 471.525055,401.014984 
	C460.735321,399.994446 449.946991,400.049225 439.126068,401.138885 
	C432.512634,401.804871 426.110748,399.740601 420.430206,396.592743 
	C414.536133,393.326538 408.664001,390.388123 401.945526,389.479248 
	C399.349670,389.128082 397.198578,388.090637 395.430359,386.154938 
	C394.300659,384.918121 392.916565,384.060455 391.363861,383.339600 
	C382.317291,379.139435 374.273438,373.479858 366.307465,367.443451 
	C359.759460,362.481628 353.447266,356.112885 344.174805,355.997284 
	C342.571167,355.977295 341.285980,355.254547 340.808136,353.199036 
	C346.605957,349.122894 350.724548,343.677429 355.871490,339.333832 
	C366.083191,330.715851 375.460876,321.118317 385.383423,312.147034 
	C401.158203,297.884583 416.803772,283.483734 432.478302,269.113739 
	C443.590820,258.926086 454.690063,248.712982 465.889130,238.618973 
	C481.439240,224.603241 496.877960,210.474701 512.255188,196.269913 
	C523.508606,185.874420 534.946533,175.672836 546.245361,165.318863 
	C557.541687,154.967194 568.499573,144.172745 580.267883,134.419861 
	C596.176086,121.236176 611.197571,107.143875 626.369934,93.177856 
	C634.864258,85.358902 644.225708,78.399979 652.133057,70.046844 
	C661.333008,60.328171 671.292847,51.462753 681.184692,42.566193 
	C690.935425,33.796535 699.768311,23.929605 710.944153,16.265083 
	C711.256958,15.802174 711.389465,15.641529 711.765869,15.285707 
	C712.009705,15.090529 712.334717,14.930499 712.514038,14.956231 
z"/>
<path fill="#0071B3" opacity="1.000000" stroke="none" 
	d="
M340.604919,352.964294 
	C346.208649,354.061951 351.990234,353.697601 356.605682,357.415710 
	C362.359222,362.050568 368.437836,366.343201 374.467224,370.507721 
	C380.242401,374.496582 385.783325,379.507996 393.059906,381.096436 
	C393.383972,381.167206 393.862274,381.163696 393.998474,381.371735 
	C399.330322,389.514496 409.541229,386.840393 416.514130,391.518402 
	C419.879028,393.775879 423.459839,395.879883 427.609955,396.940033 
	C432.808807,398.268127 437.783691,398.988556 443.276245,398.404633 
	C453.508362,397.316864 463.841919,397.963318 474.131866,398.517609 
	C477.913818,398.721313 481.868439,399.281677 485.470917,398.468414 
	C491.800995,397.039368 497.911835,398.148529 504.080536,398.796661 
	C510.775635,399.500092 517.295715,397.721039 523.955627,397.716949 
	C526.928894,397.715118 529.896790,397.702820 532.836304,398.017914 
	C543.062378,399.114136 553.314941,397.557678 563.600403,398.783081 
	C570.262146,399.576782 577.178528,397.907928 583.959961,398.095490 
	C595.209839,398.406555 606.427856,399.154053 617.655151,395.048004 
	C619.181702,398.004059 616.986389,399.261871 615.172363,400.691223 
	C603.932068,409.547607 592.393921,418.012482 581.011902,426.682556 
	C552.160400,448.659882 523.296326,470.620361 494.304108,492.411896 
	C492.310638,493.910217 490.380707,495.539703 487.343811,495.605530 
	C479.630951,494.400024 474.456268,489.319672 468.659576,485.375061 
	C463.178284,481.645081 457.514038,478.132202 452.452759,473.854248 
	C442.667023,465.583099 431.050903,460.023682 421.002319,452.107147 
	C413.454071,446.160461 404.343323,442.454834 396.558441,436.794342 
	C386.221069,429.277954 375.215485,422.752136 364.854675,415.325470 
	C355.293182,408.471741 345.929077,401.321594 336.107025,394.841980 
	C331.020081,391.486115 326.340363,387.466522 320.357971,385.422882 
	C317.488281,384.442566 314.800995,382.445770 312.948029,379.315613 
	C321.308350,369.600311 331.745483,362.362213 340.604919,352.964294 
z"/>
<path fill="#0068AE" opacity="1.000000" stroke="none" 
	d="
M312.567230,379.104614 
	C321.299438,382.392242 329.120667,386.965057 336.542786,392.169434 
	C349.832581,401.488220 362.661316,411.503357 376.278503,420.305847 
	C391.027161,429.839722 405.667877,439.564697 420.414948,449.094452 
	C434.129578,457.956940 447.807648,467.024780 460.866180,476.986053 
	C468.911499,483.123199 476.801941,489.876984 486.772034,493.901001 
	C488.180634,496.863617 486.160583,498.548584 484.477234,499.910065 
	C479.344452,504.061462 473.989349,507.938232 468.714478,511.913574 
	C467.420502,512.888794 466.009613,513.041504 464.134186,513.033875 
	C455.626892,509.391754 449.872162,502.399353 442.411987,497.784668 
	C440.869385,496.830414 439.555939,495.512207 437.360168,495.031158 
	C431.247223,488.946960 424.283295,484.391174 417.729980,479.362274 
	C393.120972,460.477631 368.373016,441.773926 343.669159,423.012939 
	C330.583099,413.074921 317.491089,403.144562 304.369781,393.253204 
	C303.027008,392.240997 301.601074,391.396301 301.077026,389.301819 
	C304.775665,385.721985 308.522064,382.485962 312.567230,379.104614 
z"/>
<path fill="#22A7F2" opacity="1.000000" stroke="none" 
	d="
M1018.036316,138.587555 
	C1016.236511,138.575867 1015.519287,137.227631 1015.096558,135.233063 
	C1017.386047,134.797012 1017.262878,136.890015 1018.036316,138.587555 
z"/>
<path fill="#22A7F2" opacity="1.000000" stroke="none" 
	d="
M1019.884277,142.676468 
	C1018.248291,142.399185 1018.004700,141.090683 1018.047180,139.283173 
	C1019.242737,139.755432 1019.598633,141.046341 1019.884277,142.676468 
z"/>
<path fill="#22A7F2" opacity="1.000000" stroke="none" 
	d="
M1022.886230,151.647949 
	C1022.555664,151.183182 1022.299438,150.368774 1022.038818,149.227997 
	C1023.279419,149.338669 1022.917480,150.396774 1022.886230,151.647949 
z"/>
<path fill="#219FF0" opacity="1.000000" stroke="none" 
	d="
M1004.955627,121.660660 
	C1004.545166,121.798691 1004.012207,121.643158 1003.250549,121.326294 
	C1003.625610,121.232338 1004.229370,121.299713 1004.955627,121.660660 
z"/>
<path fill="#219FF0" opacity="1.000000" stroke="none" 
	d="
M1009.901611,127.677490 
	C1009.592407,127.482674 1009.350708,126.972458 1009.069946,126.179199 
	C1009.754578,126.121765 1009.992004,126.658623 1009.901611,127.677490 
z"/>
<path fill="#219FF0" opacity="1.000000" stroke="none" 
	d="
M1007.001343,123.719177 
	C1006.825684,123.761398 1006.567383,123.546051 1006.164917,123.122116 
	C1006.320007,123.096222 1006.619385,123.278923 1007.001343,123.719177 
z"/>
<path fill="#219FF0" opacity="1.000000" stroke="none" 
	d="
M1008.010986,124.716484 
	C1007.838501,124.758354 1007.576111,124.544823 1007.166748,124.122360 
	C1007.320190,124.095985 1007.620605,124.278534 1008.010986,124.716484 
z"/>
<path fill="#25B0F3" opacity="1.000000" stroke="none" 
	d="
M711.751221,15.089615 
	C711.975708,15.410181 711.818848,15.649226 711.331848,15.885241 
	C711.247253,15.671445 711.369934,15.380074 711.751221,15.089615 
z"/>
<path fill="#22A7F2" opacity="1.000000" stroke="none" 
	d="
M1020.848694,144.738129 
	C1020.591858,144.792465 1020.400574,144.561035 1020.132202,144.107147 
	C1020.314209,144.096481 1020.600525,144.285690 1020.848694,144.738129 
z"/>
<path fill="#22A7F2" opacity="1.000000" stroke="none" 
	d="
M1021.866333,146.738052 
	C1021.603821,146.794083 1021.410522,146.560425 1021.139648,146.102112 
	C1021.325806,146.090439 1021.616943,146.280731 1021.866333,146.738052 
z"/>
<path fill="#219FF0" opacity="1.000000" stroke="none" 
	d="
M1006.001587,122.719215 
	C1005.826233,122.759857 1005.568176,122.542892 1005.166870,122.115875 
	C1005.322021,122.091080 1005.620483,122.276344 1006.001587,122.719215 
z"/>
<path fill="#0068AE" opacity="1.000000" stroke="none" 
	d="
M300.972656,388.714233 
	C300.844360,388.976257 300.652527,388.983398 300.173584,388.964783 
	C300.058502,388.419342 300.248474,387.937653 300.972656,388.714233 
z"/>
<path fill="#000000" opacity="1.000000" stroke="none" 
	d="
M463.938843,513.348389 
	C469.590851,508.473663 475.429901,503.916199 481.238678,499.320465 
	C483.132660,497.821991 484.947540,496.223511 486.953918,494.358704 
	C495.097687,490.026398 501.612183,483.908264 508.703827,478.643036 
	C530.470825,462.481995 552.048523,446.064911 573.626282,429.650635 
	C588.405518,418.407990 603.062012,407.003937 617.920471,395.365326 
	C618.067566,395.058624 618.023010,395.036285 618.034668,395.057617 
	C620.073364,392.575531 622.684265,390.841980 625.804077,389.221069 
	C633.276489,385.079010 639.199585,379.387177 645.760986,374.572144 
	C660.397400,363.831390 674.827942,352.809235 689.294678,341.838928 
	C694.511047,337.883240 699.591003,333.747772 704.883606,329.392517 
	C705.973328,327.886932 707.119019,326.951660 708.817261,326.210022 
	C709.084290,326.032227 709.548340,325.944153 709.768127,325.857849 
	C715.201538,318.486053 722.381104,313.352722 729.499451,308.206848 
	C734.889404,304.310486 739.878540,299.920197 745.555542,295.839813 
	C751.198792,291.971863 756.097839,287.691040 761.436279,284.009491 
	C763.472046,282.605560 765.325195,280.191010 768.668213,281.800995 
	C768.963135,314.390564 768.995300,346.729431 769.097290,379.532104 
	C769.109924,380.990662 769.002563,381.985382 769.002625,382.980103 
	C769.005554,491.676361 769.016541,600.372620 769.096924,709.532715 
	C769.106323,721.008301 769.045898,732.020081 768.953918,743.497253 
	C764.636597,745.221436 763.092590,744.280029 760.222778,738.492676 
	C753.877380,733.528687 747.764771,728.872437 741.329102,724.097900 
	C738.901550,722.341797 736.797058,720.703979 734.345459,719.121582 
	C731.447266,717.676086 729.708008,715.306946 727.331909,713.218628 
	C706.329773,697.461731 685.686646,681.715332 664.955688,666.085510 
	C663.413818,664.923096 662.281189,663.086670 659.896973,662.496460 
	C659.620850,662.288818 659.600708,662.182922 659.546997,662.187988 
	C657.615601,662.418335 657.164490,660.878540 656.201538,659.476379 
	C655.178772,658.583313 654.370850,657.919983 653.274536,657.129272 
	C652.844543,656.850098 652.702942,656.698425 652.290466,656.393433 
	C651.204529,655.589539 650.389465,654.938904 649.295959,654.141602 
	C648.863525,653.844116 648.709473,653.693359 648.284424,653.366577 
	C647.215393,652.541992 646.417419,651.893433 645.337280,651.113770 
	C644.890442,650.837158 644.725891,650.691650 644.287109,650.363525 
	C643.216248,649.534424 642.419617,648.887939 641.341125,648.111206 
	C640.893188,647.836060 640.727173,647.691040 640.286804,647.361694 
	C630.549011,640.204590 621.036011,633.297852 611.632935,626.244751 
	C594.129761,613.115906 576.687012,599.906311 559.225525,586.721863 
	C538.894409,571.370544 518.502869,556.097961 498.268860,540.619568 
	C486.748566,531.806946 475.490326,522.651733 463.938843,513.348389 
z"/>
<path fill="#0071B6" opacity="1.000000" stroke="none" 
	d="
M747.249512,297.396545 
	C741.644226,301.830780 736.284180,305.879364 730.957153,309.970886 
	C724.172424,315.182007 717.414246,320.427917 710.316284,325.715210 
	C711.393066,321.031403 715.405640,317.252075 715.426331,312.058533 
	C715.461670,303.199341 721.343384,296.484131 723.934570,288.550446 
	C725.399231,284.066132 724.507751,279.918243 724.425171,275.837891 
	C724.179260,263.691589 728.273376,252.336548 729.588989,240.523026 
	C730.487366,232.455322 730.503967,224.348373 731.604736,216.238861 
	C732.718750,208.031952 734.102539,199.938034 735.578125,191.796402 
	C737.369690,181.911087 737.923035,171.800354 738.984985,161.784286 
	C739.387634,157.987671 739.263611,154.073837 740.152771,150.400589 
	C744.603333,132.014374 742.433533,112.966751 745.975281,94.499382 
	C748.040588,83.730423 747.391785,72.691139 748.938354,61.866192 
	C750.046570,54.109978 752.767456,46.746769 755.265991,39.397110 
	C756.538452,35.654083 760.388611,33.528175 764.536560,32.036030 
	C768.326599,39.902908 769.142273,48.219505 769.013000,56.719799 
	C768.899597,64.175385 768.950623,71.633484 768.882324,79.558716 
	C767.272644,82.224625 767.559692,84.762184 767.479492,87.244164 
	C766.863281,106.319283 766.888184,125.523285 764.067505,144.358917 
	C760.954407,165.147324 761.895081,186.248260 758.174133,206.876450 
	C755.523254,221.572449 756.824646,236.412308 755.305603,251.121948 
	C754.855042,255.484512 752.927490,259.378693 752.180603,263.671143 
	C750.772278,271.765472 752.274658,280.006165 750.408691,288.032471 
	C749.689697,291.125061 748.974609,294.190582 747.249512,297.396545 
z"/>
<path fill="#006CB2" opacity="1.000000" stroke="none" 
	d="
M747.316772,297.713806 
	C748.049011,285.364990 747.647034,272.611420 750.553040,260.662354 
	C753.876770,246.995239 752.980957,233.373398 754.073608,219.741211 
	C754.789246,210.812912 756.247375,201.946320 757.241638,193.037430 
	C757.940857,186.771912 759.060303,180.460938 758.857483,174.207077 
	C758.480957,162.597702 761.098206,151.409134 762.404053,140.032745 
	C763.327209,131.990677 763.113281,123.845573 763.394409,115.750359 
	C763.616638,109.350464 765.100708,103.002853 765.341858,96.514435 
	C765.469971,93.065529 765.974121,89.582855 766.016113,86.089272 
	C766.042175,83.919525 766.001343,81.692047 768.506104,80.169258 
	C768.887329,97.656166 768.974243,115.285347 768.984436,132.914566 
	C769.012878,182.314346 769.009583,231.714142 768.974854,281.582825 
	C761.061890,286.201477 754.483459,292.110931 747.316772,297.713806 
z"/>
<path fill="#0072C9" opacity="1.000000" stroke="none" 
	d="
M759.991577,738.608521 
	C762.733765,740.132935 765.477600,742.080872 768.571899,743.995728 
	C768.952454,821.388977 769.020447,898.815369 768.985535,976.241699 
	C768.976990,995.139954 756.080933,1012.724121 732.420044,1014.747314 
	C730.003052,1009.661072 730.357605,1005.015198 733.757080,1000.396790 
	C735.470947,998.068665 734.786865,994.868530 733.913879,992.152588 
	C731.226562,983.792847 732.289001,975.804199 735.975159,968.021973 
	C736.647034,966.603455 736.841187,965.193420 736.414001,963.666382 
	C733.537170,953.383850 736.304626,943.621704 739.684570,934.104126 
	C741.346741,929.423523 742.193909,924.851807 742.010742,919.969910 
	C741.665466,910.769409 742.340027,901.858521 745.856323,893.034668 
	C747.586548,888.692688 747.140625,883.256287 746.809753,878.374023 
	C746.324646,871.215820 745.940491,864.227783 748.574097,857.324524 
	C749.498291,854.902161 749.438782,852.183411 749.243958,849.454041 
	C748.529419,839.442444 748.814697,829.543274 752.745667,819.993408 
	C755.294250,813.801941 754.174438,807.101868 753.751404,800.699097 
	C753.485657,796.675720 753.191650,792.696960 754.107056,788.867432 
	C757.104675,776.326843 756.482117,763.447510 758.038696,750.781067 
	C758.523560,746.835754 760.584229,743.154480 759.991577,738.608521 
z"/>
<path fill="#0082CF" opacity="1.000000" stroke="none" 
	d="
M656.024170,659.600037 
	C657.455566,659.545105 658.119812,660.863464 659.315796,661.962952 
	C657.393372,662.911499 656.404358,661.927734 656.024170,659.600037 
z"/>
<path fill="#0082CF" opacity="1.000000" stroke="none" 
	d="
M652.164185,656.387207 
	C652.383606,656.098755 652.660767,656.198547 652.918701,656.770630 
	C652.739685,656.876099 652.513855,656.720276 652.164185,656.387207 
z"/>
<path fill="#0082CF" opacity="1.000000" stroke="none" 
	d="
M648.164734,653.343872 
	C648.309387,653.291809 648.605347,653.393127 648.959473,653.744629 
	C648.762634,653.858704 648.528809,653.692810 648.164734,653.343872 
z"/>
<path fill="#0082CF" opacity="1.000000" stroke="none" 
	d="
M644.170105,650.335205 
	C644.311035,650.283447 644.609314,650.385925 644.981262,650.735535 
	C644.790588,650.850403 644.548096,650.685974 644.170105,650.335205 
z"/>
<path fill="#0082CF" opacity="1.000000" stroke="none" 
	d="
M640.170288,647.332153 
	C640.310974,647.280823 640.609558,647.384277 640.983643,647.734375 
	C640.793579,647.848938 640.549927,647.684204 640.170288,647.332153 
z"/>
<path fill="#0071B3" opacity="1.000000" stroke="none" 
	d="
M625.718018,389.050598 
	C624.304688,391.840088 621.249878,393.071564 618.392944,395.027557 
	C618.982971,391.254669 622.026306,389.990356 625.718018,389.050598 
z"/>
<path fill="#0071B6" opacity="1.000000" stroke="none" 
	d="
M708.723816,326.049622 
	C708.225769,327.328949 707.326111,328.578430 705.363037,329.037415 
	C705.317017,327.172546 706.428833,326.166870 708.723816,326.049622 
z"/>
</svg>